<?xml version="1.0" encoding="utf-8"?>
<!-- Generator: Adobe Illustrator 24.0.1, SVG Export Plug-In . SVG Version: 6.00 Build 0)  -->
<svg version="1.1" id="Layer_1" xmlns="http://www.w3.org/2000/svg" xmlns:xlink="http://www.w3.org/1999/xlink" x="0px" y="0px"
	 viewBox="0 0 512 512" style="enable-background:new 0 0 512 512;" xml:space="preserve">
<style type="text/css">
	.st0{fill:#A58172;}
</style>
<title>services</title>
<path class="st0" d="M484,243.3c-32.4,5.7-47.3-14.3-59-38.6c-5.3-11-12.2-20-25.1-22.4c-11.4-2.1-21.5-0.6-29.9,8.7
	c-12.6,13.8-27.9,21.6-47.3,18.1c-9.2-1.6-13.3-7.3-13.3-16.4c0-14.2-0.1-28.4,0-42.6c0.1-13,11.3-22.8,24-20
	c16,3.5,29.4-1.3,41.9-10.2c13.4-9.4,26.3-19.5,40.8-30.4c-6.5-5.7-14.4-13.5-23.2-20.2c-26.4-20.1-57.6-33-90.5-37.4
	c-6.5-0.9-14,1.2-20.2,3.9c-18.8,8.3-37.1,17.8-55.7,26.5c-7.5,3.8-16.6,2.8-23.1-2.7c-30.6-24-58.8-14-81.2,9.6
	c-19.6,20.6-39.3,41.1-59.2,61.4c-6.1,6.3-6.5,12-0.5,18.5c2.1,2.3,3.2,5.6,5.1,8.1c14.7,19.6,17.9,38-1.3,57.7
	c-5.3,5.4-5.7,16.5-6.4,25.1c-1.3,15.6-2.1,17.3-17.8,19.1c-4.9,0.5-9.8,0.7-16,1.1c2.5,15.8,5.4,30.6,7,45.6
	c0.6,5.8,0.4,13.5-2.9,17.4c-5,6-12.3,2.9-14.4-5.6C8.4,287.8,4.6,258,8.2,227.1c5.3-45.6,20.7-86.8,48.3-123.2
	c40.2-53,93.2-85.3,159-95.9c82.1-13.3,153.3,9.8,213.2,66.3c40.1,37.8,64.9,84.7,72.8,139.9c1.4,9.4,4.2,18.9,4,28.3
	c-1.7,75.5-26.4,141.7-82.3,194.1c-38.1,35.8-83.7,56-135.9,62.4c-36.3,4.4-71.3-0.2-106.3-9c-6.8-1.6-13.9-1.5-20.6,0.4
	c-19.7,5.9-38.6,14.6-58.5,19.5c-26.8,6.6-51-0.4-72-18.9C4.7,468.6,3.5,440.7,9.7,410.7C22,351.3,52,300.6,87.7,252.6
	c8.4-11.4,17.5-22.3,26.3-33.4s9.4-11,20.8,0.7c-12.8,18.3-25.8,36.8-38.7,55.4c-31.3,45-55.1,93.4-67.3,147.2
	c-7.9,34.6,5.5,59.8,36.8,66.4c10.1,2,20.5,2.1,30.7,0.4c16-2.5,31.7-7,49.1-11c-15.1-10.3-30.2-18.2-42.3-29.3
	c-18-16.4-34-35-50.7-52.7c-3.3-3.5-5.5-7.5-0.1-11.7c4.8-3.7,8.4-3.4,12.7,1.1c26.9,28.1,56.3,53.1,90.5,72
	c33.6,18.6,69.5,29.4,107.9,27.5c49.9-2.5,92.7-23.7,132.5-52.8c39.4-28.8,68.4-64.6,81-112.6C483.3,295,486.3,269.9,484,243.3z
	 M342.6,149.8c-14-0.8-14-0.8-14,13.4c0,6.4-0.7,12.9,0.3,19.1c0.4,2.7,4,6.2,6.8,6.8c10.1,2.5,15.8-5.2,20.9-11.8
	c7.4-9.7,17.4-12.9,28.7-13.5c7.1-0.4,14.2,0,21.3-0.1c10.1-0.2,18,4,23.2,12.4c6.6,10.5,12.5,21.4,19.1,31.9
	c2.8,4.4,5.6,10.3,9.8,12c6.5,2.5,14.2,1.9,21.4,2.6c0.4-5.6,1.8-11.3,0.9-16.7c-4.7-27.3-16.3-51.9-30.5-75.4
	c-12.1-19.9-37.4-22.4-52.5-5C383.4,142.4,364.9,150.6,342.6,149.8z M41.2,238.3c-3.3-19.7,5.8-33.1,18.6-44.9c1.6-1.5,3.6-4.8,3-6
	c-4.9-9.1-10.4-17.9-15.7-26.8l-4.3,0.9c-6.2,25.3-12.5,50.6-18.9,76.8L41.2,238.3z M261.4,24c-0.4-0.8-0.8-1.6-1.1-2.4
	c-19.9,2.5-39.9,5-59.8,7.7c-2.1,0.3-3.9,2.1-5.9,3.2c1,1.7,1.9,4.6,3.2,4.8c9.2,1.7,19.2,5.5,27.5,3.4
	C237.9,37.4,249.4,29.8,261.4,24z"/>
<path class="st0" d="M166.6,143.3c-18-8.1-35.8-16.5-53.9-24.1c-13.9-5.9-16.4-15.2-5.7-25.7c9.6-9.4,20.4-14.4,34.6-9.4
	c16.4,5.8,33.2,9.9,49.6,15.5c11.6,4,20.1,1.8,28.1-7.8c12.1-14.5,27.4-25,46.6-27.3c5.8-0.7,14.2,0.1,17.4,3.8
	c3,3.4,2.6,12.4,0.2,17.3c-7.5,15.5-16.1,30.5-25.7,44.8c-7.3,10.9-10.4,21.2-6,33.8c5,14.4,8.9,29.1,13.6,43.6
	c4.1,12.7,1.4,23.7-7.4,33.4c-10.4,11.5-20.6,10.4-27.4-3.7c-6.7-13.7-12.5-27.8-18.8-41.7c-1.5-3.4-3.2-6.8-5-10.6
	c-11.8,5.9-8.3,14.9-8,23.6c0.3,8.5,1.2,18.3-2.4,25.4c-10.2,20.1-24.2,20.2-34.9,0.6s-25.7-34.4-44.9-45.6
	c-4.3-2.5-8.1-5.7-11.3-9.5c-4.6-5.9-5.1-12.6,0.8-18.2c9.3-8.7,19.1-14.7,33.4-11.4c8.2,1.9,17.5-0.9,26.3-1.5
	C166.2,146.7,166.4,145,166.6,143.3z M182.4,222.2c-1.2-6.3-1.4-11-3.1-15.1c-5.8-14.2,0.4-24.9,9.9-34.3
	c18.9-18.8,38.4-36.9,56.9-56c7.1-7.3,12.5-16.3,18.3-24.8c1.3-1.9,0.7-5,0.9-7.6c-2.5,0.5-5.5,0.2-7.5,1.5c-6.2,4-12.7,8-18,13.1
	c-22.3,21.4-44.4,43-66,64.9c-7.9,8-16.3,10.3-26.9,7.4c-5.9-1.6-12-2.5-18.6-3.8L182.4,222.2z M127.2,99.7c1,3.3,1,4.8,1.6,5.1
	c16.1,7.5,32,15.2,48.4,22c5.8,2.5,11.1,0.1,13.4-8.4L127.2,99.7z M249.1,219.7c-6.1-20.5-11.8-39.6-17.9-60.3
	C221.8,175.4,229.1,198.3,249.1,219.7L249.1,219.7z"/>
<path class="st0" d="M339.6,239.1c10.6,0,21.3-0.2,32,0.1c17,0.4,27.5,9.7,33.4,25c1.4,3.6,2.7,7.3,4.4,10.8
	c4.7,9.9,12.3,15.4,23.6,14.8c2.5-0.1,5-0.1,7.5-0.1c13.1,0.1,16.9,5.9,10.4,17.4c-5.5,9.9-12.1,19.2-18.5,28.5
	c-8.1,11.6-14.2,23.6-10.9,38.6c0.8,3.5-0.5,7.9-2,11.3c-12.9,29.6-37,43.5-70,40.7c-4.5-0.4-10.9,0.9-13.3-1.6
	c-4.5-4.7-8.9-11.5-9.3-17.6c-1.4-22.7-1.5-45.4-1.3-68.1c0-9.1-1.8-13.6-12.4-13.4c-15.7,0.4-20.8-5.6-20.8-21.4s-0.1-32,0-48
	c0.1-12.5,3.8-16.8,16.3-17.3c10.3-0.5,20.6-0.1,30.9-0.1L339.6,239.1z M427.4,308.4c-20.4,2.3-28.1-9.2-33.7-23.8
	c-2.5-6.6-5.6-13.2-9.9-18.7c-2.9-3.8-8.1-7.8-12.5-8c-17.4-0.9-34.8-0.7-52.2,0c-2.6,0.1-6.9,4.6-7.2,7.4c-1,8.4-0.4,17-0.4,25.5
	c0,14.7,0,14.7,14.2,16.2c16.4,1.8,17.8,3.3,17.8,19.6c0,24.1-0.2,48.3,0.3,72.5c0.1,3.3,2.6,8.9,5.1,9.6c21.8,6,54.8-19,54.2-42
	c-0.4-14.8,4.1-27,12-38.7C418.8,322.3,422.2,316.5,427.4,308.4L427.4,308.4z"/>
<path class="st0" d="M169.4,450.8c-1-27-2.1-51.9-2.7-76.9c-0.4-14.1-0.1-14.1-14-14.1c-27.6,0-28.8-1.1-28.7-28.6
	c0-11-0.3-22,0.4-33c0.8-12.6,3.9-15,16.5-15.1c7.8,0,15.8-1.1,23.4,0.3c8.3,1.5,17.3,3.8,24.2,8.3c16.7,11,34.3,16,54.2,15
	c15.4-0.7,15.2-0.1,18.2,15.2c5.4,27.2-1.4,48.9-26.8,63.2c-8.7,4.9-14.1,12.7-14.5,23.3c-0.1,2.8-0.8,5.6-2.1,8.1
	C207.4,434.3,191.3,443.6,169.4,450.8z M186.6,420.7l3.4,1.4c3.5-5.1,10.2-10.4,10-15.4c-0.7-19,10.5-28.9,24.4-38.1
	c5.7-3.8,11.7-8.7,14.9-14.5c10.5-19.2,4.3-29.2-17.1-28.5c-16.3,0.5-31.1-1.8-40.9-17.1c-1.9-3-5.9-5.1-9.4-6.6
	c-17.7-7.7-27.9-1.4-27.9,17c0.1,25.9-1.9,21.8,22.3,22c14.9,0.2,19.1,4.1,19.2,18.8c0.1,16.7,0,33.4,0.1,50.1
	C185.6,413.3,186.3,417,186.6,420.7z"/>
</svg>
