<?xml version="1.0" encoding="utf-8"?>
<!-- Generator: Adobe Illustrator 25.0.1, SVG Export Plug-In . SVG Version: 6.00 Build 0)  -->
<svg version="1.1" id="Group_2093" xmlns="http://www.w3.org/2000/svg" xmlns:xlink="http://www.w3.org/1999/xlink" x="0px" y="0px"
	 viewBox="0 0 20.6 20.6" style="enable-background:new 0 0 20.6 20.6;" xml:space="preserve">
<style type="text/css">
	.st0{fill:#DEC18E;}
</style>
<g>
	<path id="Path_4215" class="st0" d="M12.1,0.2c-0.3-0.1-0.6-0.1-0.8-0.2C11.1,0,11,0,10.9,0H9.8l0,0c0,0-0.1,0-0.1,0
		C5.8,0.4,3,3.8,3.3,7.7c0,0.5,0.1,0.9,0.3,1.4C4,10.4,4.9,11.6,6,12.5c0.9,0.7,1.5,1.9,1.4,3c0,0.3,0,0.6,0,0.9c0,0.3,0,0.5,0,0.8
		c0,0.4,0.1,0.7,0.4,1c0.2,0.2,0.4,0.5,0.4,0.8c0.2,1.1,1.2,1.8,2.2,1.7c1-0.1,1.9-0.9,1.9-2c0-0.1,0.1-0.3,0.2-0.3
		c0.4-0.2,0.6-0.7,0.6-1.1v-0.4c0-0.4,0-0.8,0-1.2c0-1.2,0.5-2.4,1.5-3.2c3-2.4,3.5-6.9,1-9.9C14.8,1.4,13.5,0.6,12.1,0.2L12.1,0.2z
		 M11.4,18.7c-0.1,0.6-0.5,1-1.1,1h0c-0.6,0-1-0.4-1.1-1v-0.1h2.3L11.4,18.7z M12.3,17.2c0,0.1-0.1,0.3-0.4,0.3l0,0
		c-0.6,0-1.1,0-1.7,0H8.7c-0.2,0-0.4-0.1-0.4-0.3c0,0,0,0,0,0c0-0.2,0-0.5,0-0.7v-0.4h3.9v0.4C12.3,16.7,12.3,17,12.3,17.2
		L12.3,17.2z M14.2,11.6c-0.9,0.7-1.5,1.7-1.8,2.8c0,0.1,0,0.2-0.1,0.4l-0.1,0.3H8.4l0-0.3c0-0.1,0-0.2-0.1-0.4
		c-0.3-1.1-0.9-2.1-1.8-2.8C5,10.5,4.2,8.7,4.3,6.9c0-3.3,2.8-6,6.1-6c1.3,0,2.5,0.4,3.5,1.2c1.3,1,2.1,2.4,2.4,4
		C16.7,8.2,15.9,10.3,14.2,11.6L14.2,11.6z"/>
	<path id="Path_4216" class="st0" d="M20.3,1C20.3,1,20.2,1,20.3,1c-0.2,0-0.4,0.1-0.5,0.2l-0.1,0c-0.3,0.2-0.6,0.4-1,0.6
		c-0.2,0.1-0.3,0.4-0.2,0.7c0,0,0,0,0,0.1c0.1,0.1,0.2,0.2,0.3,0.2c0.2,0,0.3,0,0.5-0.1l0.3-0.2C19.8,2.3,20,2.2,20.2,2
		c0.1-0.1,0.2-0.2,0.3-0.3l0.1-0.1V1.4C20.6,1.2,20.4,1.1,20.3,1z"/>
	<path id="Path_4217" class="st0" d="M19.2,11.3c-0.1-0.1-0.2-0.1-0.3-0.1c0,0-0.1,0-0.1,0c-0.1,0-0.2,0.1-0.3,0.2
		c-0.1,0.2-0.1,0.5,0.1,0.7c0,0,0,0,0,0c0.3,0.2,0.6,0.4,0.9,0.6l0.2,0.1c0.1,0.1,0.3,0.2,0.5,0.2c0.2-0.1,0.3-0.2,0.4-0.3v-0.2
		c0,0,0-0.1-0.1-0.1c0-0.1-0.1-0.1-0.2-0.2C20,11.8,19.6,11.6,19.2,11.3z"/>
	<path id="Path_4218" class="st0" d="M20,6.5c-0.2,0-0.5,0-0.7,0c-0.1,0-0.2,0-0.4,0c-0.3,0-0.5,0.2-0.5,0.4c0,0,0,0,0,0
		c0,0.1,0,0.2,0.1,0.3c0.1,0.1,0.2,0.1,0.4,0.1c0.1,0,0.2,0,0.4,0h0.3c0.1,0,0.3,0,0.4,0c0.3,0,0.5-0.1,0.7-0.3V6.9
		C20.5,6.6,20.3,6.5,20,6.5z"/>
	<path id="Path_4219" class="st0" d="M0.7,1.1C0.6,1,0.6,1,0.5,1C0.3,1,0.2,1.1,0.1,1.2C-0.1,1.4,0,1.7,0.2,1.9
		C0.5,2.1,1,2.4,1.5,2.7c0.1,0.1,0.3,0.1,0.4,0c0.2-0.1,0.3-0.3,0.3-0.4c0,0,0-0.1-0.1-0.1C2.1,2.1,2.1,2,2,2
		C1.6,1.7,1.2,1.4,0.7,1.1z"/>
	<path id="Path_4220" class="st0" d="M1.9,11.3c-0.2-0.1-0.4-0.1-0.5,0c-0.4,0.3-0.8,0.5-1.2,0.8c-0.2,0.1-0.3,0.4-0.1,0.7
		c0.1,0.2,0.4,0.3,0.7,0.1c0.4-0.2,0.8-0.5,1.2-0.8L2,12.1c0.1-0.1,0.2-0.2,0.2-0.4C2.2,11.5,2.1,11.4,1.9,11.3z"/>
	<path id="Path_4221" class="st0" d="M0.5,7.5c0.4,0,0.8,0,1.2,0C2,7.5,2.2,7.3,2.2,7c0-0.2-0.2-0.4-0.5-0.5c-0.1,0-0.3,0-0.4,0H0.5
		C0.2,6.5,0,6.7,0,7c0,0,0,0,0,0C0,7.3,0.2,7.5,0.5,7.5C0.5,7.5,0.5,7.5,0.5,7.5z"/>
	<path id="Path_4222" class="st0" d="M12.4,6.8c-0.1-0.1-0.2-0.2-0.4-0.3L12,6.4l0.1-0.1c0.8-1,0.7-2.4-0.2-3.3
		c-0.9-0.8-2.2-0.8-3,0c-1,0.9-1.1,2.3-0.2,3.3c0,0,0,0,0,0l0.1,0.1L8.5,6.6c0,0-0.1,0-0.1,0.1C8.3,6.7,8.2,6.8,8.1,6.9
		C7.9,7,7.7,7.2,7.5,7.4c-0.7,0.8-1,1.8-0.9,2.8c0,0.4,0.2,0.6,0.6,0.6h4.7c0.6,0,1.1,0,1.7,0c0.2,0,0.5-0.2,0.5-0.4
		c0.1-1.1-0.2-2.1-0.9-2.9C12.9,7.2,12.7,7,12.4,6.8z M9.4,3.8c0.3-0.3,0.6-0.4,1-0.4c0.8,0,1.4,0.6,1.4,1.4c0,0.8-0.6,1.4-1.4,1.4
		l0,0h0C9.6,6.1,9,5.5,9,4.8C9,4.4,9.1,4.1,9.4,3.8L9.4,3.8z M7.6,9.8l0-0.1C7.7,8.1,9,7,10.5,7.1c1.4,0.1,2.5,1.2,2.6,2.6v0.1
		L7.6,9.8z"/>
</g>
</svg>
