<?xml version="1.0" encoding="utf-8"?>
<!-- Generator: Adobe Illustrator 25.0.1, SVG Export Plug-In . SVG Version: 6.00 Build 0)  -->
<svg version="1.1" id="Layer_1" xmlns="http://www.w3.org/2000/svg" xmlns:xlink="http://www.w3.org/1999/xlink" x="0px" y="0px"
	 viewBox="0 0 20.6 20.6" style="enable-background:new 0 0 20.6 20.6;" xml:space="preserve">
<style type="text/css">
	.st0{fill:#DEC18E;}
</style>
<g>
	<path id="Path_4211" class="st0" d="M20.1,14.1c-0.3,0-0.6,0-1,0h-0.4h-2.1l0-0.1c0.2-0.4,0.2-0.8,0-1.2c-0.3-0.8-0.6-1.5-0.9-2.3
		l-0.4-0.9c-0.1-0.3-0.3-0.5-0.6-0.7l-0.4-0.2c-0.2-0.1-0.5-0.3-0.7-0.4c-0.1-0.1-0.2-0.2-0.2-0.3c0-0.6,0-1.2,0-1.7V5.5
		c0,0,0-0.1,0-0.1l0-0.1l0,0l0.2,0c0.1,0,0.3-0.1,0.4-0.1c1.3-0.3,2.6-1,3.5-2c0.3-0.3,0.5-0.8,0.3-1.2c-0.1-0.4-0.5-0.8-0.9-0.9
		c-0.5-0.1-0.9,0-1.2,0.4c-0.6,0.6-1.3,1-2.1,1.2c-0.2,0-0.3,0.1-0.5,0.1c-0.1,0-0.2,0-0.3,0.1l-0.1,0L13,2.8
		c0.2-0.4,0.3-0.8,0.2-1.2c0-0.9-0.8-1.6-1.6-1.6c0,0,0,0,0,0h0C10.7,0,10,0.7,10,1.6c0,0.4,0,0.8,0.2,1.2l0,0.1l-0.1,0
		c-0.1,0-0.3,0-0.4,0C9.4,2.9,9.1,2.9,8.9,3c-1.6,0.3-3,1-4.1,2.1C4.4,5.4,4.3,5.9,4.5,6.4c0.1,0.4,0.4,0.7,0.8,0.8
		c0.4,0.1,0.9,0,1.2-0.3c0.3-0.3,0.7-0.6,1.1-0.8C8,5.8,8.5,5.6,8.9,5.5l0.1,0v0.8C9,6.9,9,7.4,9,8c0,0,0,0.1,0,0.1c0,0,0,0.1,0,0.1
		v0c0,0.1,0,0.2,0,0.2C8.9,8.8,8.7,9.1,8.6,9.4C8.4,9.8,8.2,10.2,8,10.5c-0.1,0.2-0.2,0.3-0.4,0.4c-1,0.5-1.9,0.9-2.7,1.3
		C4.2,12.6,4,13.4,4.3,14c0.3,0.6,1,0.9,1.7,0.6c0.6-0.3,1.2-0.6,1.8-0.9C7.9,13.7,8,13.6,8,13.5c0-0.1,0-0.3-0.1-0.3
		c-0.1-0.1-0.3-0.1-0.4,0c-0.2,0.1-0.3,0.1-0.5,0.2c-0.4,0.2-0.8,0.4-1.2,0.6C5.7,14,5.5,14,5.4,14c-0.3,0-0.5-0.3-0.5-0.6
		c0-0.3,0.1-0.6,0.4-0.7l0.2-0.1c0.9-0.4,1.8-0.8,2.6-1.2c0.2-0.1,0.3-0.2,0.4-0.4c0.2-0.4,0.4-0.8,0.6-1.3C9.3,9.4,9.5,9,9.7,8.7
		c0-0.1,0.2-0.2,0.3-0.2l0,0c0.8,0,1.6,0,2.4,0c0.1,0,0.2,0,0.3,0.1l0.1,0c0.5,0.3,1,0.6,1.5,0.9c0.2,0.1,0.3,0.3,0.4,0.4
		c0.2,0.4,0.3,0.8,0.5,1.2c0.1,0.2,0.1,0.3,0.2,0.5l0.2,0.4c0.1,0.3,0.3,0.7,0.4,1c0.1,0.2,0.1,0.4,0,0.6c-0.2,0.3-0.6,0.4-0.9,0.2
		c-0.1-0.1-0.2-0.2-0.3-0.4l-0.1-0.2c-0.3-0.8-0.7-1.7-1-2.6c-0.1-0.1-0.2-0.3-0.3-0.3c-0.3-0.1-0.7-0.3-1-0.5
		c-0.2-0.1-0.4-0.2-0.6-0.3c-0.6-0.3-0.6-0.3-1,0.3l-0.1,0.2c-0.2,0.3-0.4,0.6-0.6,0.9c-0.1,0.1-0.1,0.4,0,0.5c0,0,0,0,0,0
		c0.1,0.1,0.2,0.1,0.2,0.1c0.1,0,0.2-0.1,0.2-0.2c0.2-0.2,0.3-0.4,0.4-0.6c0.1-0.1,0.1-0.2,0.2-0.3c0,0,0.1-0.1,0.1-0.1l0.1-0.1
		l0.4,0.2c0.3,0.2,0.7,0.3,1,0.4c0.1,0.1,0.2,0.2,0.3,0.3c0.2,0.5,0.4,1,0.6,1.5l0.4,1.1c0.1,0.3,0.3,0.6,0.6,0.7
		c0.1,0.1,0.2,0.2,0.2,0.4c0,0.7,0,1.4,0,2c0,1.1,0,2.1,0,3.2c0,0.2,0.1,0.4,0.2,0.5h5.3v-6.3C20.5,14.1,20.3,14,20.1,14.1z
		 M10.7,1.8c-0.1-0.5,0.3-1,0.7-1.1c0.2-0.1,0.5,0,0.7,0.1c0.2,0.1,0.3,0.3,0.4,0.6c0,0.2,0,0.4,0,0.6c0,0.5-0.4,0.9-0.9,0.9h0
		c-0.5,0-0.9-0.4-0.9-0.9C10.7,1.9,10.7,1.9,10.7,1.8L10.7,1.8z M12.8,5.1c0,0.6,0,1.2,0,1.8v0.9H9.7V6.8c0-0.5,0-1.1,0-1.6
		c0-0.1,0-0.3-0.1-0.4C9.5,4.7,9.3,4.7,9.2,4.8C8,4.9,7,5.5,6.1,6.3C6,6.5,5.8,6.6,5.6,6.5c-0.2,0-0.4-0.2-0.4-0.4
		C5.1,6,5.1,5.7,5.3,5.6c0.6-0.6,1.2-1,2-1.4c0.9-0.4,1.9-0.6,2.9-0.6h0.4c0.8,0,1.6,0,2.4,0c1.3-0.1,2.6-0.6,3.5-1.6
		c0.1-0.1,0.2-0.2,0.4-0.2C17,1.7,17.3,1.8,17.4,2c0.1,0.2,0.1,0.5-0.1,0.7c-0.5,0.5-1,0.9-1.7,1.2c-0.7,0.4-1.6,0.6-2.4,0.7
		C13,4.6,12.8,4.8,12.8,5.1C12.8,5,12.8,5,12.8,5.1L12.8,5.1z M19.9,19.9h-4.1v-5.1h4.1V19.9z"/>
	<path id="Path_4212" class="st0" d="M13,15.8c0-0.3-0.1-0.4-0.4-0.4c-1.6,0-3.1,0-4.7,0c-0.3,0-0.4,0.1-0.4,0.4v1.2
		c0,1,0,2.1,0,3.2c0,0.2,0.1,0.4,0.2,0.5h5.1c0.2-0.1,0.3-0.3,0.2-0.5c0-1,0-2.1,0-3.2L13,15.8z M12.3,19.9H8.2V16h4.1V19.9z"/>
	<path id="Path_4213" class="st0" d="M5.5,18c0-0.3,0-0.6,0-0.9c0-0.3-0.1-0.4-0.4-0.4c-1.6,0-3.1,0-4.7,0c-0.3,0-0.4,0.1-0.4,0.4
		s0,0.6,0,0.9c0,0.7,0,1.4,0,2.1c0,0.2,0.1,0.4,0.2,0.5h5.1c0.2-0.1,0.3-0.3,0.2-0.5C5.5,19.4,5.5,18.7,5.5,18z M4.8,19.9H0.7v-2.4
		h4.1V19.9z"/>
	<path id="Path_4214" class="st0" d="M9.3,13c0.2,0,0.3-0.2,0.3-0.3c0-0.2-0.1-0.3-0.3-0.3c-0.1,0-0.2,0-0.3,0.1
		C9,12.5,9,12.6,9,12.7c0,0.1,0,0.2,0.1,0.3C9.1,13,9.2,13,9.3,13L9.3,13z"/>
</g>
</svg>
