<?xml version="1.0" encoding="utf-8"?>
<!-- Generator: Adobe Illustrator 25.0.1, SVG Export Plug-In . SVG Version: 6.00 Build 0)  -->
<svg version="1.1" id="Group_2082" xmlns="http://www.w3.org/2000/svg" xmlns:xlink="http://www.w3.org/1999/xlink" x="0px" y="0px"
	 viewBox="0 0 22.7 14.5" style="enable-background:new 0 0 22.7 14.5;" xml:space="preserve">
<style type="text/css">
	.st0{fill:#DEC18E;}
</style>
<g>
	<path id="Path_4199" class="st0" d="M19.8,0c-0.3,0-0.6,0.2-0.7,0.5c0,0.1-0.2,0.1-0.2,0.1c-2,0-4,0-6,0c-0.1,0-0.2,0-0.3-0.1
		C11.4,0,10-0.1,8.6,0.2l-0.2,0c-1,0.2-2,0.4-3,0.6c-0.4,0-0.8,0.1-1.1,0c-0.2,0-0.4,0-0.5,0H3.7l0-0.1C3.7,0.4,3.3,0,2.9,0H0.5
		C0.2,0.1,0.1,0.3,0.1,0.6c0,0.6,0,1.1,0,1.7c0,0.3,0,0.6,0,0.9c0,0.2,0.1,0.4,0.4,0.4c0,0,0,0,0,0l0,0c0.2,0,0.4-0.2,0.4-0.4
		c0,0,0,0,0,0c0,0,0-0.1,0-0.1V0.8h2.1v8.4H0.9l0-0.1c0-0.1,0-0.1,0-0.2V7c0-0.3-0.1-0.5-0.4-0.5c-0.1,0-0.2,0-0.3,0.1
		C0.2,6.7,0.1,6.8,0.1,6.9c0,0.9,0,1.7,0,2.6c0,0.4,0.1,0.5,0.5,0.5c0.7,0,1.4,0,2.2,0c0.6,0,0.8-0.3,0.9-0.9l0-0.1L4,9.2
		c0.2,0.1,0.4,0.2,0.5,0.3c0,0,0.1,0.1,0.1,0.1c0.1,0.6,0.7,1.1,1.3,1.1c0,0,0,0,0.1,0l0.1,0l0,0c0.1,0.7,0.7,1.2,1.4,1.2h0.1l0,0.1
		c0.1,0.5,0.4,0.9,0.8,1c0.1,0,0.2,0,0.3,0.1c0.1,0,0.3,0.1,0.4,0.1c0.1,0.1,0.2,0.2,0.2,0.3c0,0.1,0.1,0.2,0.1,0.2
		c0.4,0.6,1.2,0.8,1.8,0.4c0.1-0.1,0.1-0.1,0.2-0.2c0.2-0.2,0.4-0.4,0.5-0.6c0.1-0.1,0.2-0.2,0.2-0.3l0,0l0,0c0.7,0.3,1.6,0,1.9-0.7
		c0,0,0,0,0-0.1l0-0.1l0.1,0.1c0.3,0.4,0.8,0.6,1.3,0.5c0.5-0.1,0.9-0.4,1.1-0.9l0-0.1l0.1,0c0.6,0.3,1.4,0.1,1.8-0.5
		c0.4-0.7,0.3-1.4-0.5-2l-0.1-0.1L19,8.7V9c0,0.1,0,0.2,0,0.2c0,0.4,0.3,0.8,0.8,0.8c0.5,0,1,0,1.5,0c0.3,0,0.6,0,0.9,0l0,0
		c0.2,0,0.3-0.1,0.4-0.3V6.6c0,0-0.1-0.1-0.1-0.1c-0.1-0.1-0.1-0.1-0.2-0.2c-0.1,0-0.2,0-0.3,0c-0.1,0.1-0.2,0.2-0.2,0.4
		c0,0.5,0,1,0,1.6v0.9h-2.1V0.8h2.1V2c0,0.4,0,0.8,0,1.1c0,0.3,0,0.5,0.2,0.5c0.2,0.1,0.3,0,0.5-0.2V0.3L22.2,0L19.8,0z M6.3,9.9
		L6.3,9.9C6.1,10,6.1,10,6,10h0h0h0c-0.2,0-0.4-0.1-0.5-0.3c-0.1-0.2-0.1-0.4,0-0.5C5.6,9,5.7,8.8,5.9,8.6c0.2-0.2,0.5-0.2,0.7-0.1
		c0.2,0.1,0.3,0.4,0.2,0.7C6.7,9.4,6.5,9.7,6.3,9.9L6.3,9.9z M7.8,11.1c-0.1,0.1-0.2,0.1-0.3,0.1c-0.1,0-0.3,0-0.4-0.1
		c-0.2-0.2-0.3-0.5-0.1-0.7C7,10.2,7.2,10,7.4,9.8c0.1-0.1,0.1-0.1,0.2-0.1c0,0,0,0,0,0l0,0c0.2,0,0.5,0.1,0.6,0.3
		c0.1,0.2,0.1,0.4,0,0.5C8.1,10.7,8,10.9,7.8,11.1L7.8,11.1z M9.3,12.3c-0.1,0.1-0.1,0.1-0.2,0.1l0,0l0,0l0,0
		c-0.2,0-0.5-0.1-0.6-0.3c-0.1-0.2-0.1-0.4,0-0.5c0.1-0.2,0.3-0.4,0.5-0.6c0.2-0.2,0.5-0.2,0.7,0c0.2,0.2,0.3,0.5,0.1,0.7
		C9.6,12,9.4,12.2,9.3,12.3L9.3,12.3z M11.3,12.9c-0.2,0.2-0.3,0.5-0.5,0.7l-0.1,0.1c-0.1,0-0.1,0.1-0.2,0.1h0h0
		c-0.2,0-0.4-0.1-0.6-0.3c-0.1-0.1-0.1-0.3,0-0.4c0.2-0.3,0.4-0.6,0.6-0.8c0.2-0.1,0.5-0.1,0.6,0.1C11.3,12.4,11.4,12.6,11.3,12.9
		L11.3,12.9z M17.9,10.5c0.1,0.3-0.1,0.5-0.3,0.7c-0.3,0.1-0.6,0.1-0.8-0.1c-0.4-0.4-0.9-0.9-1.3-1.3l-0.4-0.4L14,8.3
		c-0.1-0.1-0.3-0.2-0.4-0.1c-0.1,0.1-0.2,0.2-0.2,0.3c0,0.1,0.1,0.3,0.2,0.4l0.9,0.8l1.3,1.2c0.2,0.2,0.3,0.4,0.2,0.7
		c-0.1,0.2-0.2,0.4-0.4,0.4c-0.2,0.1-0.4,0-0.6-0.1c-0.1-0.1-0.1-0.1-0.2-0.2l-3.2-3.1c-0.1-0.1-0.3-0.2-0.5-0.2
		c-0.1,0-0.2,0.1-0.3,0.2c0,0.1,0,0.2,0.1,0.3c0,0.1,0.1,0.1,0.2,0.2l0.6,0.6c0.5,0.5,1,1,1.5,1.5c0.1,0.1,0.2,0.3,0.2,0.4
		c0.1,0.3-0.1,0.5-0.3,0.6c-0.1,0.1-0.2,0.1-0.3,0.1c-0.1,0-0.3-0.1-0.4-0.1c-0.2-0.1-0.3-0.3-0.4-0.4l-0.1-0.1
		c-0.3-0.3-0.7-0.5-1.1-0.5h-0.1l0,0c-0.1-0.7-0.7-1.2-1.4-1.2h0l0,0c0-0.1-0.1-0.1-0.1-0.2C9,9.8,9,9.7,8.9,9.5
		C8.7,9.2,8.3,9,7.9,8.9C7.7,9,7.6,8.9,7.6,8.7C7.4,8,6.6,7.6,5.9,7.8C5.7,7.8,5.5,7.9,5.4,8.1C5.2,8.2,5.1,8.4,5,8.5L4.8,8.7l0,0
		L4.5,8.6C4.3,8.6,4,8.5,3.8,8.4c-0.1,0-0.1-0.1-0.1-0.2c0-0.1,0-0.3,0-0.4V1.7l0.1,0l0,0c0,0,0.1,0,0.1,0c1.2,0,2.3-0.1,3.5-0.4
		l0.5-0.1c0.1,0,0.3-0.1,0.4-0.1C9,0.9,9.7,0.8,10.5,0.8c0.1,0,0.2,0,0.3,0l0.2,0L10.9,1l0,0c0,0,0,0-0.1,0.1
		c-0.5,0.3-1,0.6-1.4,1.1C8.9,2.7,8.3,3.3,7.8,3.8C7.4,4.2,6.9,4.7,6.5,5.1C5.9,5.6,5.8,6.6,6.4,7.2c0.5,0.5,1.3,0.7,1.9,0.3
		c0.5-0.3,1-0.5,1.5-0.8l0.6-0.4c0.1-0.1,0.2-0.1,0.3-0.2c0.2-0.1,0.5-0.3,0.8-0.4c0.2-0.1,0.4-0.1,0.5-0.2l0.1,0
		c0.6-0.1,1.2,0.2,1.6,0.6c0.9,0.9,1.8,1.8,2.7,2.6c0.5,0.4,0.9,0.9,1.4,1.3C17.8,10.2,17.9,10.4,17.9,10.5L17.9,10.5z M18.8,8
		c-0.3,0.2-0.6,0.3-1,0.5l-0.4,0.2l0,0l-3.3-3.2l0.1,0l0.1,0c0.1,0,0.2,0,0.2,0c0.2,0,0.3-0.2,0.3-0.3c0-0.2-0.1-0.3-0.2-0.4
		c-0.1,0-0.2,0-0.2,0H14c-0.7,0-1.5,0-2.3,0c-0.1,0-0.3,0-0.4,0.1c-1,0.5-2,1.1-3,1.7L7.9,6.8C7.7,7,7.3,7,7,6.8
		c-0.3-0.2-0.4-0.7-0.2-1c0,0,0,0,0,0C6.9,5.7,7,5.6,7.1,5.6l1.1-1.1c0.7-0.7,1.4-1.3,2-2c0.7-0.7,1.6-1.1,2.5-1.1h6
		c0,0,0.1,0,0.1,0l0.1,0v1.5c0,1.6,0,3.1,0,4.7C19,7.7,18.9,7.9,18.8,8L18.8,8z"/>
	<path id="Path_4200" class="st0" d="M22.2,4.6c-0.2,0-0.4,0.2-0.4,0.4c0,0.2,0.2,0.4,0.4,0.4c0,0,0,0,0,0c0.2,0,0.2-0.1,0.3-0.3
		V4.9l0,0c0,0,0-0.1-0.1-0.1C22.4,4.7,22.3,4.6,22.2,4.6z"/>
	<path id="Path_4201" class="st0" d="M22.6,4.7c-0.2-0.2-0.5-0.2-0.7-0.1c-0.2,0.2-0.2,0.5-0.1,0.7c0.1,0.1,0.2,0.2,0.4,0.2h0
		c0.2,0,0.4-0.2,0.5-0.3l0,0V4.8L22.6,4.7C22.6,4.7,22.6,4.7,22.6,4.7z M22.6,5.1c-0.1,0.2-0.2,0.3-0.4,0.3c-0.2,0-0.4-0.1-0.5-0.3
		c0-0.2,0-0.4,0.2-0.5c0.2-0.1,0.4-0.1,0.6,0.1c0,0,0.1,0.1,0.1,0.1L22.6,5.1z"/>
	<path id="Path_4202" class="st0" d="M0.5,5.4c0.2,0,0.4-0.2,0.4-0.4c0-0.1,0-0.2-0.1-0.3C0.7,4.7,0.6,4.6,0.5,4.6
		C0.3,4.6,0.1,4.8,0.1,5C0.1,5.2,0.3,5.4,0.5,5.4C0.5,5.4,0.5,5.4,0.5,5.4L0.5,5.4z"/>
	<path id="Path_4203" class="st0" d="M0.5,5.5C0.8,5.5,1,5.3,1,5C1,4.9,1,4.8,0.9,4.7C0.8,4.6,0.6,4.5,0.5,4.5C0.2,4.5,0,4.7,0,5
		C0,5.3,0.2,5.5,0.5,5.5L0.5,5.5z M0.1,5c0-0.2,0.2-0.4,0.4-0.4S1,4.8,0.9,5S0.7,5.5,0.5,5.5S0.1,5.2,0.1,5z"/>
</g>
</svg>
