<?xml version="1.0" encoding="utf-8"?>
<!-- Generator: Adobe Illustrator 25.0.1, SVG Export Plug-In . SVG Version: 6.00 Build 0)  -->
<svg version="1.1" id="Group_2084" xmlns="http://www.w3.org/2000/svg" xmlns:xlink="http://www.w3.org/1999/xlink" x="0px" y="0px"
	 viewBox="0 0 18.5 24.7" style="enable-background:new 0 0 18.5 24.7;" xml:space="preserve">
<style type="text/css">
	.st0{fill:#DEC18E;}
</style>
<g>
	<path id="Path_4204" class="st0" d="M18.4,11.7L18.4,11.7c-0.1-0.3-0.2-0.7-0.3-1L18,10.4c-0.2-0.5-0.2-1.1,0-1.6
		c0-0.1,0.1-0.2,0.1-0.3c0.1-0.3,0.2-0.6,0.3-0.9c0.2-0.6,0-1.3-0.5-1.7c-0.3-0.2-0.7-0.5-1-0.7c-0.5-0.3-0.8-0.8-1-1.4
		c-0.1-0.5-0.3-1-0.5-1.4c-0.2-0.5-0.6-0.8-1.1-0.8c-0.5,0-1,0-1.5,0c-0.6,0-1.1-0.2-1.5-0.5c-0.3-0.2-0.7-0.5-1-0.8
		c-0.5-0.4-1.3-0.4-1.8,0C8,0.5,7.7,0.8,7.3,1.1c-0.4,0.4-1,0.6-1.6,0.5c-0.4,0-0.9,0-1.4,0c-0.5,0-1,0.3-1.2,0.8
		C3,2.9,2.8,3.4,2.6,3.9c-0.1,0.5-0.5,1-0.9,1.3C1.4,5.4,1,5.7,0.6,5.9C0.1,6.3-0.2,7,0.1,7.6c0.1,0.3,0.2,0.6,0.3,0.9
		c0,0.1,0.1,0.2,0.1,0.4c0.2,0.5,0.2,1.1,0,1.6l0,0.1c-0.1,0.4-0.3,0.8-0.4,1.1c-0.2,0.6,0,1.3,0.5,1.7c0.4,0.3,0.8,0.5,1.1,0.8
		c0.4,0.3,0.7,0.7,0.9,1.2c0.1,0.3,0.2,0.5,0.3,0.8C3,16.4,3,16.7,3.1,16.9c0,0.1,0,0.2,0,0.3c-0.1,0.3-0.3,0.7-0.4,1l-0.5,1.3
		c-0.3,0.8-0.6,1.7-1,2.5c-0.1,0.2-0.1,0.4,0,0.6c0.1,0.1,0.3,0.2,0.5,0.2c0.7-0.1,1.5-0.2,2.4-0.3c0.2,0,0.3,0,0.4,0.2
		c0.5,0.6,1,1.1,1.5,1.8c0.1,0.1,0.2,0.2,0.3,0.2c0,0,0.1,0.1,0.1,0.1h0.3c0.2-0.1,0.3-0.3,0.4-0.5c0.3-0.8,0.6-1.6,0.9-2.3
		c0.3-0.8,0.6-1.5,0.9-2.3c0-0.1,0.2-0.2,0.3-0.2c0.2,0,0.2,0.1,0.3,0.2l0,0l0.1,0.3c0.6,1.4,1.1,2.9,1.7,4.4
		c0.1,0.2,0.2,0.4,0.4,0.5H12c0,0,0.1-0.1,0.1-0.1c0.1-0.1,0.2-0.1,0.2-0.2c0.5-0.6,1-1.2,1.5-1.8c0.1-0.2,0.4-0.3,0.6-0.2
		c0.8,0.1,1.6,0.2,2.3,0.3c0.2,0,0.4,0,0.5-0.2c0.1-0.2,0.1-0.4,0-0.6l-0.5-1.2c-0.5-1.2-0.9-2.3-1.4-3.5c0-0.1-0.1-0.2,0-0.3
		c0.1-0.2,0.1-0.5,0.2-0.7s0.2-0.5,0.2-0.7c0.1-0.5,0.5-1,1-1.3c0.3-0.2,0.7-0.5,1.1-0.7C18.4,13,18.6,12.3,18.4,11.7z M8.2,18.9
		l-1.7,4.4l-0.2-0.2C6.2,23,6,22.8,5.9,22.7l-0.2-0.2c-0.2-0.3-0.5-0.5-0.7-0.8c-0.1-0.2-0.3-0.3-0.5-0.2c-0.4,0.1-0.9,0.1-1.3,0.2
		c-0.2,0-0.4,0-0.6,0.1l-0.2,0l-0.2,0l0-0.1l1.5-3.9h0.7c0.5,0,1,0,1.6,0c0.3,0,0.7,0.1,1,0.3c0.3,0.2,0.5,0.4,0.8,0.6L8.2,18.9
		L8.2,18.9L8.2,18.9z M16.2,21.7l-0.5-0.1c-0.4,0-0.7-0.1-1-0.1c-0.1,0-0.2,0-0.3,0l-0.4,0c-0.2,0-0.4,0.1-0.5,0.2
		c-0.3,0.3-0.6,0.7-0.9,1L12.3,23l-0.2,0.2L12,23.3l0-0.1l-0.6-1.6l-0.2-0.6c-0.3-0.7-0.5-1.3-0.8-2c-0.1-0.1,0-0.3,0.1-0.3
		c0,0,0,0,0,0c0.3-0.2,0.6-0.4,0.8-0.6c0.4-0.3,0.9-0.5,1.5-0.4c0.4,0,0.8,0,1.3,0h0.6l0,0L16.2,21.7z M17.4,12.6L17.4,12.6
		c-0.3,0.3-0.6,0.4-0.9,0.6c-0.8,0.5-1.4,1.3-1.6,2.2c-0.1,0.3-0.2,0.6-0.3,0.8l-0.1,0.2c-0.1,0.2-0.3,0.4-0.5,0.4l0,0
		c-0.2,0-0.4,0-0.6,0h-0.3c-0.6-0.1-1.3,0-1.9,0.3c-0.4,0.2-0.8,0.5-1.2,0.8L10,18c-0.4,0.3-0.6,0.4-0.8,0.4S8.8,18.2,8.5,18
		c-0.4-0.3-0.7-0.6-1.1-0.8c-0.5-0.3-1.1-0.4-1.6-0.4c-0.4,0-0.9,0-1.3,0h0c-0.2,0-0.4-0.1-0.5-0.4l-0.1-0.2
		c-0.1-0.3-0.2-0.6-0.3-0.9c-0.2-0.8-0.8-1.6-1.5-2c-0.3-0.2-0.5-0.4-0.8-0.5c-0.4-0.3-0.4-0.4-0.3-0.9l0-0.1
		c0.1-0.2,0.1-0.4,0.2-0.6c0.4-1,0.4-2,0-3C1.2,7.9,1.1,7.7,1,7.5C1,7.4,1,7.3,0.9,7.2C0.9,7,0.9,6.8,1.1,6.7l0.1-0.1
		C1.4,6.5,1.7,6.3,2,6.1c0.9-0.5,1.5-1.3,1.7-2.3c0.1-0.2,0.1-0.5,0.2-0.7l0.1-0.2C4,2.6,4.2,2.5,4.5,2.5c0.1,0,0.1,0,0.2,0
		c0.1,0,0.2,0,0.2,0c0.2,0,0.4,0,0.5,0C6.4,2.6,7.3,2.3,8,1.7c0.2-0.2,0.5-0.4,0.7-0.6L8.9,1c0.2-0.2,0.5-0.2,0.7,0l0.2,0.1
		c0.2,0.2,0.5,0.3,0.7,0.5c0.7,0.6,1.6,0.9,2.6,0.8c0.2,0,0.5,0,0.7,0H14c0.3,0,0.5,0.1,0.6,0.4l0.1,0.3c0.1,0.2,0.2,0.5,0.2,0.8
		c0.2,0.9,0.8,1.7,1.6,2.2c0.2,0.1,0.5,0.3,0.7,0.5c0.3,0.1,0.5,0.5,0.3,0.8c0,0,0,0,0,0.1l0,0c-0.1,0.3-0.2,0.6-0.3,0.8
		c-0.4,0.9-0.4,1.8,0,2.7c0.1,0.2,0.2,0.5,0.2,0.7c0,0.1,0.1,0.2,0.1,0.4C17.6,12.3,17.5,12.5,17.4,12.6z"/>
	<path id="Path_4205" class="st0" d="M9.3,3.3L9.3,3.3c-3.5,0-6.4,2.8-6.4,6.3c0,0,0,0,0,0c0,3.5,2.8,6.3,6.3,6.3h0
		c3.5,0,6.3-2.8,6.3-6.3c0-1.7-0.7-3.3-1.9-4.5C12.5,4,10.9,3.3,9.3,3.3z M13,13.5c-1,1-2.4,1.6-3.8,1.6h0c-3,0-5.4-2.5-5.4-5.4
		c0-1.4,0.6-2.8,1.6-3.8c1-1,2.4-1.6,3.8-1.6h0c3,0,5.4,2.4,5.4,5.4C14.7,11.1,14.1,12.5,13,13.5z"/>
	<path id="Path_4206" class="st0" d="M12.5,8.4c-0.6-0.1-1.1-0.2-1.7-0.2c-0.1,0-0.3-0.1-0.3-0.2c-0.1-0.3-0.3-0.5-0.4-0.8
		C9.9,6.9,9.8,6.6,9.7,6.4C9.7,6.2,9.5,6.1,9.2,6l0,0C9,6,8.9,6.2,8.8,6.4l0,0C8.5,6.9,8.3,7.4,8,7.9C8,8,7.9,8.1,7.8,8.1
		C7.2,8.2,6.6,8.3,6.1,8.4c-0.2,0-0.4,0.1-0.5,0.3c-0.1,0.2,0,0.4,0.2,0.6C5.9,9.4,6,9.5,6.1,9.6c0.2,0.2,0.5,0.5,0.8,0.7
		c0.2,0.1,0.3,0.4,0.2,0.6C7,11.3,7,11.7,6.9,12.1c0,0.1,0,0.3-0.1,0.4c0,0.2,0.1,0.4,0.2,0.5c0.1,0.1,0.3,0.1,0.5,0
		c0.5-0.3,1-0.5,1.5-0.8c0.1,0,0.2-0.1,0.3-0.1c0.1,0,0.2,0,0.3,0.1c0.5,0.3,1,0.5,1.5,0.8c0.1,0.1,0.3,0.1,0.5,0
		c0.1-0.1,0.2-0.3,0.2-0.4c0-0.1,0-0.1,0-0.2l0-0.2c-0.1-0.4-0.2-0.9-0.2-1.3c0-0.2,0-0.3,0.1-0.5c0.3-0.3,0.6-0.6,0.9-0.8l0.3-0.3
		c0.2-0.1,0.2-0.3,0.2-0.5C12.8,8.5,12.7,8.4,12.5,8.4z M11.4,9.2c-0.1,0.1-0.1,0.1-0.2,0.2c-0.1,0.2-0.3,0.3-0.4,0.4l0,0
		c-0.3,0.2-0.5,0.6-0.3,1c0,0.2,0.1,0.4,0.1,0.6c0,0.1,0,0.2,0,0.3l0,0.1l-0.1,0c-0.1-0.1-0.2-0.1-0.3-0.1c-0.2-0.1-0.4-0.2-0.6-0.3
		c-0.3-0.2-0.6-0.2-0.8,0c-0.2,0.1-0.4,0.2-0.6,0.3c-0.1,0-0.2,0.1-0.3,0.2l-0.1,0l0-0.1c0-0.1,0-0.3,0.1-0.4c0-0.3,0.1-0.5,0.1-0.8
		c0.1-0.2,0-0.4-0.2-0.6C7.7,9.8,7.5,9.6,7.4,9.4C7.3,9.4,7.2,9.3,7.1,9.2l0,0l0.1,0l0.3,0C7.7,9,8,9,8.2,9c0.2,0,0.4-0.1,0.5-0.3
		c0.1-0.2,0.2-0.5,0.4-0.7l0.2-0.4l0,0.1c0.1,0.1,0.1,0.2,0.2,0.3c0.1,0.2,0.2,0.4,0.3,0.7C9.8,8.8,10.1,9,10.3,9
		C10.5,9,10.8,9,11,9.1C11.1,9.1,11.3,9.1,11.4,9.2L11.4,9.2L11.4,9.2z"/>
</g>
</svg>
