<?xml version="1.0" encoding="utf-8"?>
<!-- Generator: Adobe Illustrator 24.0.1, SVG Export Plug-In . SVG Version: 6.00 Build 0)  -->
<svg version="1.1" id="Layer_1" xmlns="http://www.w3.org/2000/svg" xmlns:xlink="http://www.w3.org/1999/xlink" x="0px" y="0px"
	 viewBox="0 0 512 512" style="enable-background:new 0 0 512 512;" xml:space="preserve">
<style type="text/css">
	.st0{fill:#C3B39C;}
</style>
<title>services</title>
<path class="st0" d="M256.4,508.1c-64.3,0-128.6-0.6-192.9,0.3c-25,0.4-41.3-11.6-54.3-30.8c-5.3-7.9-7.7-16.4-7.6-26.4
	C2,321,2.4,190.6,1.4,60.3C1.2,31.4,28.7,4.6,56.2,4.2c23.4-0.3,46.8-0.1,70.2-0.1c104.1-0.1,208.2-0.3,312.3-0.5
	c21,0,41.2,1.9,56.8,18.5c9.6,10.2,15.1,21.5,15.1,36.4c-0.4,132.1-0.2,264.1-0.2,396.2c0,26.8-26.9,53.5-53.7,53.5L256.4,508.1z
	 M488.7,255.4c0-64,0-127.9,0-191.9c-0.1-28.4-11.6-39.6-40.3-39.6c-127.9,0-255.8,0-383.7,0c-28.9,0-40.9,11.9-40.9,40.5
	c0,127.2,0,254.4,0,381.6c0,28.8,11.7,40.4,40.8,40.4h322.9c21.7,0,43.3,0.2,65,0c19.8-0.2,31.5-8.3,35.2-24.6
	c1.3-5.7,1-11.8,1-17.7C488.7,381.2,488.7,318.3,488.7,255.4z"/>
<path class="st0" d="M267.2,240.2c0.2,31.9-10.2,55.8-22.8,78.9c-18.3,33.5-44.1,61-71.6,86.9c-6.4,6-15.1,6.4-21,1
	c-41.3-37.5-77.4-79.1-92.4-134.4C42.8,211.6,79.7,153,141.6,141.1C211.1,127.7,269.1,181.8,267.2,240.2z M163.3,389.9
	c20.6-26.5,41.3-50.6,59.1-76.7c17-24.8,27.3-53,22.4-83.8c-7.3-46.1-53.9-76.3-101.6-66.9c-45.1,8.9-75,56.5-63.6,101.7
	C92.3,314.7,126,351.3,163.3,389.9z"/>
<path class="st0" d="M455.3,286.8v20.5c-13,0-25.8,0.2-38.6-0.1c-7.8-0.2-11.7,2.3-11.4,10.8c0,5.9-0.7,11.8-2.2,17.6
	c-2.2,9.6-9,13.4-18.5,13.4c-26.9,0.1-53.8,0.3-80.7,0.5c-4.1,0-8.3,0.3-13.1,0.6v29.4c19.1,0,37.9,0,56.6,0c31.2,0,37.1,6,37,37.5
	c0.1,6.3-0.3,12.5-1.3,18.7c-2.4,12.9-7.4,17.9-20.3,18c-69.9,0.2-139.7,0-209.6-0.1c-0.3,0-0.6-0.3-1.7-0.8v-20.5h192.6
	c15.6,0,15.7,0,15.5-16.1c0-3.8-0.4-7.6-0.6-12.7c-16,0-31.2,0.1-46.5-0.1c-8.4-0.1-16.8,0-25-1.4c-15.1-2.5-20.1-7.4-21-22.6
	c-0.7-12.1,0.6-24.4,1.5-36.5c0.6-8.5,5.9-13.4,14.3-13.8c20.2-0.9,40.4-1.5,60.6-2.1c7.7-0.2,15.4,0,23.1,0
	c15.9,0,16.1-0.2,17.4-15.9c1.8-20.4,4.1-23.2,24.4-24.3C423.4,286.2,439.1,286.8,455.3,286.8z"/>
<path class="st0" d="M46.5,107.2V88.6h420.5v18.6H46.5z"/>
<path class="st0" d="M374.5,181.8c-0.5,3.4-1,6.9-1.7,10.3c-3.9,20.6,1.2,28.8,21.9,31.7c8,1.1,10.8,3.7,10.9,11.5
	c0.2,9.2-6.2,8.5-12,9.1c-28.5,3-41.9-9-43-39.5c-0.5-13.6-0.1-27.2-0.1-42.3h-83.3v-22.1h16c24.8,0,49.6-0.4,74.4,0.3
	c6,0.2,13.3,2.8,17.5,6.8c23.2,22.2,45.5,45.3,68.2,68c13.7,13.5,13.7,31.8,18.6,49.4h-26.2c4.8-26.3-13.8-39.9-29.9-55.4
	c-10-9.6-18.8-20.4-28.1-30.6L374.5,181.8z"/>
<path class="st0" d="M455.5,464l-18.7,1.6V329.8h18.7V464z"/>
<path class="st0" d="M76.3,46.7c4.1,19.1,1.5,22-19.1,20.6V46.7H76.3z"/>
<path class="st0" d="M98.8,65.1V46.7h18.7C123.3,64.9,120.8,67.5,98.8,65.1z"/>
<path class="st0" d="M436.5,65.6V46.9h18.9v18.8H436.5z"/>
<path class="st0" d="M161.4,286.2c-24.9,0-42.2-17.1-42.2-41.7c0-24,18.2-42,42.4-42.1c23.9,0,42.7,18.6,42.5,42.2
	C203.9,268.8,186.1,286.1,161.4,286.2z M162,264.7c11.5,0.3,19.8-7.4,20.2-18.8c0.4-12.4-7.7-21-20.1-21.3
	c-12.6-0.3-20.6,7-20.9,19.1C140.9,257.6,147.6,264.3,162,264.7z"/>
</svg>
