<?xml version="1.0" encoding="utf-8"?>
<!-- Generator: Adobe Illustrator 25.0.1, SVG Export Plug-In . SVG Version: 6.00 Build 0)  -->
<svg version="1.1" id="Layer_1" xmlns="http://www.w3.org/2000/svg" xmlns:xlink="http://www.w3.org/1999/xlink" x="0px" y="0px"
	 viewBox="0 0 17.9 14.8" style="enable-background:new 0 0 17.9 14.8;" xml:space="preserve">
<style type="text/css">
	.st0{fill:#DEC18E;}
</style>
<g>
	<path id="Path_4207" class="st0" d="M17.9,10.2c-0.1-1.3-1.3-2.3-2.6-2.3c-0.5,0-1.1,0-1.6,0c-0.2,0-0.4,0-0.5,0
		c-0.2,0.1-0.4,0-0.5-0.2c-0.4-0.7-1.2-1.2-2-1.2c-0.9,0-1.8,0-2.7,0H7.4C6.6,6.6,5.8,7,5.3,7.7C5.2,7.9,4.9,8,4.6,8
		C4,7.9,3.4,7.9,2.5,8c-1,0-1.9,0.6-2.3,1.5C0.2,9.6,0.1,9.8,0.1,9.9C0,10,0,10.1,0,10.2v3.4c0,0,0,0,0,0.1c0.2,0.7,0.8,1.2,1.6,1.2
		l0,0c3.1,0,6.3,0,9.4,0h5.4c0.2,0,0.3,0,0.5,0c0.7-0.2,1.1-0.8,1.1-1.5c0-0.7,0-1.4,0-2.1v-0.6C17.9,10.4,17.9,10.3,17.9,10.2z
		 M4.8,14l-0.2,0c0,0-0.1,0-0.1,0h-3c-0.4,0-0.7-0.2-0.7-0.6c0-0.1,0-0.1,0-0.2v-0.4c0-0.8,0-1.5,0-2.3c0-0.8,0.5-1.5,1.3-1.7
		c0.1,0,0.3-0.1,0.4-0.1c0.7,0,1.3,0,2,0c0.1,0,0.1,0,0.2,0l0.2,0L4.8,14z M12.2,14H5.7V9.2C5.6,8.3,6.3,7.5,7.3,7.4
		c0.1,0,0.1,0,0.2,0c1,0,2,0,3,0c0.9-0.1,1.7,0.7,1.8,1.6c0,0.1,0,0.1,0,0.2c0,1,0,2.1,0,3.1L12.2,14z M17.1,13.3
		c0,0.4-0.2,0.7-0.6,0.7c0,0-0.1,0-0.1,0h-3c0,0-0.1,0-0.1,0l-0.2,0V8.8l0.1,0c0,0,0.1,0,0.1,0c0.1,0,0.2,0,0.3,0h0.3
		c0.5,0,1.1,0,1.7,0c0.8,0.1,1.4,0.7,1.5,1.4c0,0.5,0,1,0,1.4c0,0.2,0,0.3,0,0.5C17.1,12.5,17.1,12.9,17.1,13.3L17.1,13.3z"/>
	<path id="Path_4208" class="st0" d="M9,6.1L9,6.1c1.7,0,3-1.4,3-3.1c0-1.6-1.3-2.9-3-3l0,0C7.3,0,6,1.4,6,3.1C6,4.7,7.3,6,9,6.1
		L9,6.1z M7.4,1.5C7.8,1,8.4,0.8,9,0.8h0c1.2,0,2.2,1,2.2,2.2c0,0.6-0.2,1.2-0.7,1.6C10.1,5,9.5,5.2,9,5.2h0c-1.2,0-2.2-1-2.2-2.2
		C6.7,2.4,7,1.9,7.4,1.5L7.4,1.5z"/>
	<path id="Path_4209" class="st0" d="M3.4,7.4L3.4,7.4c1.2,0,2.2-1,2.2-2.2c0-1.2-1-2.2-2.2-2.2h0c-1.2,0-2.2,1-2.2,2.2
		C1.2,6.4,2.2,7.4,3.4,7.4L3.4,7.4z M2.4,4.2c0.3-0.3,0.6-0.4,1-0.4l0,0c0.8,0,1.4,0.6,1.4,1.4c0,0.4-0.2,0.8-0.4,1
		c-0.3,0.3-0.6,0.4-1,0.4h0C2.6,6.6,2,5.9,2,5.2C2,4.8,2.2,4.4,2.4,4.2L2.4,4.2z"/>
	<path id="Path_4210" class="st0" d="M12.8,6.6c0.4,0.5,0.9,0.8,1.5,0.8c0.6,0.1,1.2-0.1,1.6-0.5c0.5-0.4,0.7-1,0.8-1.6
		c0.1-1.2-0.9-2.3-2.1-2.4c0,0,0,0,0,0l0,0c0,0-0.1,0-0.1,0c-1.2,0-2.1,0.9-2.2,2.1C12.2,5.6,12.4,6.2,12.8,6.6z M14.5,3.8
		c0.8,0,1.4,0.6,1.4,1.4s-0.6,1.4-1.4,1.4l0,0c-0.8,0-1.4-0.6-1.4-1.4C13.1,4.4,13.7,3.8,14.5,3.8L14.5,3.8z"/>
</g>
</svg>
