<?xml version="1.0" encoding="utf-8"?>
<!-- Generator: Adobe Illustrator 24.0.1, SVG Export Plug-In . SVG Version: 6.00 Build 0)  -->
<svg version="1.1" id="Layer_1" xmlns="http://www.w3.org/2000/svg" xmlns:xlink="http://www.w3.org/1999/xlink" x="0px" y="0px"
	 viewBox="0 0 512 512" style="enable-background:new 0 0 512 512;" xml:space="preserve">
<style type="text/css">
	.st0{fill:#F8DD89;}
</style>
<title>services</title>
<path class="st0" d="M68.8,76.3v67.1c-17.7,3.9-18.2,3.9-18.5-8.6c-0.5-20.7-0.4-41.4,0-62.1c0.3-14.4,3-17.4,18-17.7
	c30.7-0.5,61.4-0.2,92.2-0.2h74.3c0.5-10.8,0.8-20.5,1.4-30.1c0.9-15,3.1-17.4,17.8-17.9c10.7-0.3,21.4-0.4,32.1,0
	c14.6,0.6,16.8,3,17.3,18.2c0.3,9.2,0,18.4,0,29.8h23.6c44.7,0,89.5,0,134.2,0c6,0,12.5-0.7,17.8,1.4c4,1.5,8,6.5,9.5,10.8
	c1.7,4.8,0.6,10.6,0.6,15.9c0,74.1,0,148.3,0,222.4v22.1c28,10.5,11.9,32.5,16.8,51.5c-45.8,6.2-89.7-0.3-135.7,4.1
	c3.4,6.8,5.6,12,8.5,16.7c16.9,27.2,33.9,54.4,50.9,81.6c2.5,4,5.1,7.8,7.2,12c5.9,11.8,3,17.2-10.2,18.5c-4.7,0.3-9.3,0.3-14,0.1
	c-37.1-0.4-32.1,4.3-51.1-26.9c-1-1.7-2.7-2.9-4.5-4.9H181.8c-4.1,6.2-8.9,12.5-12.8,19.3c-5.2,9.3-12.6,13-23.1,12.5
	c-9.3-0.5-18.7,0.4-28-0.3c-6.3-0.5-12.4-2.7-21.3-4.8c4.3-8.7,6.9-15.4,10.6-21.3c17.2-27.8,34.7-55.5,52-83.3
	c3.4-5.5,6.2-11.2,10.5-18.9h-63.9c-4.5,42.8-9,84.8-13.4,126.5c-17.2,0.3-18.5-0.5-17.4-12.4c2.8-28.5,5.9-57,8.9-85.6
	c0.6-5.9,1.1-11.9,1.8-19.8c-17.6-3-34.4-2.8-53,0c2.9,30.1,5.8,59.1,8.6,88.2c0.7,6.7,1.3,13.3,1.8,19.9
	c0.9,10.8-5.3,12.2-16.4,9.9c-1.3-8.1-3.1-17.1-4-26.1c-4-39.1-7.8-78.3-11.8-117.5c-1.2-12.2-1.5-24,5.8-34.7
	c5.8-8.5,6.1-16.3-0.5-25.5c-21.2-29.7-22.6-79.1,10.5-112.2c10.4-10.4,19.3-22.2,29.1-33c5.3-5.9,5.6-5.6,20.1-4.8
	c0,12.3,0.4,24.8-0.1,37.3c-0.6,14.3,3.8,26.2,14.9,35.5c2,1.8,3.9,3.7,5.7,5.7c26.6,27.3,27.2,49,2.4,78.9c-1.1,1.6-2.1,3.3-3,5
	c2.3,8.5,8,12,16.2,12.3c4.7,0.2,9.3,0.2,14,0.2c107.5-0.1,215-0.1,322.6-0.2c6.5,0,13-0.6,20.7-0.9V76.3H68.8z M105.8,358.8
	l3.4,3.6h377c1.5-7.9,1.5-13.6-7.5-13.7c-4,0-8-0.1-12-0.1c-112.7,0-225.4,0-338.1,0c-4.7,0-9.9-1.1-13.8,0.7
	C111.1,350.8,108.7,355.5,105.8,358.8L105.8,358.8z M68.3,306.1c14.4-1,22.8-6.2,27.7-17.3c4.7-10.4,4.6-21-2.2-30.4
	c-4.4-5.9-9.3-11.3-14.8-16.2c-13.5-12.4-20.9-27.4-20.4-46c0-2.1-1-4.2-2.2-9.1c-8.5,9.9-15.1,17.3-21.5,24.9
	c-20,24.1-21.6,60-4,85.6c4.5,6.5,9.2,11.6,19.8,7.6c0-5.9-0.4-12.5,0.1-19.1c0.9-11,1.5-11.1,15.8-7L68.3,306.1z M213.3,426.8
	c32.7,4.2,96.5,3,110.9-1.8c-2.6-4.7-5-9.3-7.7-13.7c-4.8-7.9-9.4-16.1-15-23.5c-7.5-10-55.2-11.3-62.7-1.1
	C229.9,398.7,222.6,411.9,213.3,426.8L213.3,426.8z M122.8,493.8c16.4,0.5,27.8,3.5,36-10.2c18.7-31.5,38.6-62.3,58-93.5
	c1.3-2.1,1.6-4.8,2.5-7.5c-17-5.1-28.1-1-36.8,14.6c-12.5,22.8-27.2,44.3-41,66.3C136,472.5,130.4,481.4,122.8,493.8L122.8,493.8z
	 M415.5,492c-20.7-33.2-40.3-64.8-60.1-96.3c-10.7-17.1-10.8-17-35.7-12.5c3.3,6,6.2,11.8,9.6,17.3c15.8,25.5,32.7,50.4,47.4,76.5
	C385.3,492.3,395.7,498.1,415.5,492z M195.2,461.2c50.9-0.3,99.5,1.2,148.8-1c-2-11.3-7.1-15.1-15.6-15.1H210.7
	C202.1,445.2,197.4,449.3,195.2,461.2z M284.8,25.4h-28.9v29.3h28.9V25.4z M88.3,358H29.7c1.6,12.6,1.6,13.2,7.8,13.4
	c14.7,0.4,29.3,0.3,44,0C90.2,371.2,90.7,365.6,88.3,358z M84.2,338.7c-6.3-21.7-22.2-12.9-33.8-14.5c-9.4-1.3-15,3.4-14.3,14.5
	L84.2,338.7z"/>
<path class="st0" d="M124.1,315.7v-16.9h312.4v-59.3c-13-4.7-26.5-6.4-35.4-13.7c-8.2-6.8-11.4-19.6-16.6-29.5
	c-9.6,2.4-7.7,9.3-8.6,14.9c-2.5,16.2-12.1,25.1-26.2,24.6s-22.9-10.5-23.8-26.8c-0.4-8,0.4-16.1-0.5-24c-0.5-4.6-3.1-8.9-4.7-13.4
	H316c-1.9,4.4-3.8,8.9-5.7,13.3c-5.7,13.5-15.5,20-27.6,18.5s-20-10.2-21.8-24.9c-0.8-6.5-1.1-13.1-1.6-19.1
	c-26.9-11.8-26.9-11.8-33.8-51.1H101.1v100.3c-17.9,2.3-18.5,2.3-18.6-10.2c-0.3-31.4-0.3-62.8,0-94.2c0.2-12.9,2.6-15,15.2-16.1
	c4.6-0.4,9.3-0.2,14-0.2c105.5,0,211.1,0,316.7,0.1c8.5,0,17,1.2,27,2c0.6,8.1,1.4,14.6,1.4,21.1c0.1,60.8,0.1,121.6,0,182.4
	c0,4-0.1,8-0.3,12c-0.3,7.2-4.3,10.9-11.4,11.2c-4.7,0.2-9.4,0.2-14,0.2c-95.5,0-191.1,0-286.6,0C138,316.8,131.5,316.1,124.1,315.7
	z M247.7,106.7c-3.3,23.9-3.3,23.9,15.6,33.2c9.4,4.6,13.5,12.5,14.5,22.4c0.6,6,0.7,12,1.9,17.8c0.4,1.9,3.5,4.4,5.5,4.6
	s5.3-1.4,6.6-3.2c1.8-2.6,2-6.2,3.3-9.3c5.2-13.1,13.7-19,25.5-17.9c12.4,1.2,20.8,10,22.2,24.3c0.8,7.9,0.1,16,0.4,24
	c0.2,5.7-1.7,13.6,6.6,14.5s8.3-6.4,9-12.6c0.5-4.5,1.3-9.4,3.3-13.4c5.9-11.5,20-16.1,31.5-10.3c3.9,2,7.2,5.1,9.5,8.8
	c2.4,3.9,3.1,8.7,4.5,13.1c3.5,10.9,9.6,16.1,17.9,15s13.5-7.4,13.6-19c0.4-26,0.2-52.1,0-78.1c0-4.4-1.2-8.9-1.9-14.1L247.7,106.7z
	"/>
</svg>
