<?xml version="1.0" encoding="utf-8"?>
<!-- Generator: Adobe Illustrator 24.0.1, SVG Export Plug-In . SVG Version: 6.00 Build 0)  -->
<svg version="1.1" id="Layer_1" xmlns="http://www.w3.org/2000/svg" xmlns:xlink="http://www.w3.org/1999/xlink" x="0px" y="0px"
	 viewBox="0 0 512 512" style="enable-background:new 0 0 512 512;" xml:space="preserve">
<style type="text/css">
	.st0{fill:#DCA692;}
</style>
<title>services</title>
<path class="st0" d="M167.4,165.7c-2.6-8.5-5.7-14.2-5.8-20c-0.6-36.9-1.1-73.8-0.3-110.6c0.6-24.9,9.8-32.4,35.3-32.4
	c91.9,0,183.8,0,275.6,0c26.8,0,37.2,9.9,37.3,37.4c0.3,68.6,0.3,137.2,0,205.7c-0.2,29.2-9.5,38.2-38.8,38.3
	c-86.7,0.2-173.4,0.1-260.1,0.1c-9.2,0-18.4,0.2-22.4-10.3c3.7-10.6,12.2-10.5,20.9-10.4c31.7,0.1,63.4,0,95.1,0
	c53.7,0,107.4,0.1,161.1,0c21.4,0,23.6-2.3,23.6-23.4c0.1-55.6,0.1-111.3,0-166.9c0-3.8-0.5-7.6-0.7-11.2
	c-14.8-4.7-283.3-5.5-304.7-0.9c-7.6,31.7,4.1,65.3-6.6,97C176.2,160,173.1,161.2,167.4,165.7z M178.8,32.6
	c27,6.4,295.8,5,311.4-1.4c-3.8-3.3-6.4-7.2-9.8-8.1c-5.5-1.5-11.5-1.3-17.3-1.3c-85.3-0.1-170.7-0.1-256,0
	c-5.8,0-11.8-0.2-17.3,1.3C186.5,23.9,184,27.9,178.8,32.6z"/>
<path class="st0" d="M0.2,321.1c0-17.5-0.1-34.9,0-52.4c0.2-22.4,11.4-38.3,33-44.3c9.8-2.7,20.3-2.7,30.6-3.3
	c5.1-0.3,10.3,1,15.4,1.8c36.6,6.2,65.3-5.7,88.9-34.6c16.3-20,35.6-37.5,53.9-55.8c4.1-4.1,8.8-7.6,14-10.2
	c10-5.2,19.3-3.7,26.8,3.3c7.3,6.7,9.9,17,5.5,26.6c-2.6,5.7-6.8,11-11.1,15.7c-26.7,29-53.3,58.2-80.8,86.4
	c-14.4,14.8-21.8,30.4-20.6,51.7c1.7,31.6,0.6,63.4,0.4,95c-0.1,21.3-5.4,26.5-26.3,26.4c-23.3-0.1-46.6-0.3-69.8-0.3
	c-12,0-22.8-1.3-30.6-12.7c-3.8-5.6-10.5-9.6-16.6-13.2c-10.3-6-13.3-14.5-12.9-25.9C0.7,357.3,0.2,339.2,0.2,321.1z M24.1,386.4
	c11.9-4.3,10.5-12.6,10.6-20c0.4-22.6,0.4-45.3,1-67.9c0.2-8,0.1-16.7,9.1-21c8.9,6.4,8.4,15.2,8.5,23.5c0.3,27.8,0.3,55.6,0.6,83.4
	c0.1,6.9,0.8,13.8,1.3,21.7h79.4c0.4-7.3,1-13.5,1-19.9c0.2-29.8,0.6-59.5,0.2-89.2c-0.2-20,7.4-35.8,21.2-50
	c28.4-29.2,55.9-59.3,83.5-89.2c3.5-3.8,5.4-9,8-13.6l-3.9-3c-5.3,4.1-11,7.9-15.8,12.5c-21.3,20.8-43.1,41.1-63.3,62.9
	c-16.8,18.1-36.9,25.1-60.6,24.9c-18.1-0.1-36.2-0.3-54.3-0.1c-22.3,0.4-30,8.1-30.2,30.8c-0.3,31-0.3,62.1,0.1,93.1
	C20.6,371.9,22.7,378.6,24.1,386.4z"/>
<path class="st0" d="M146.8,154.6c-0.3,4.5-0.4,9.1-0.9,13.6c-3.1,29.7-22.3,47.7-51,47.7c-27.6,0-46.8-17.3-50-46.3
	c-1.2-10.8-2.2-22.1-0.2-32.6C50,108.5,71.8,93.4,101.3,96c26.3,2.3,44.2,21.3,45.9,48.9c0.2,3.2,0,6.4,0,9.7L146.8,154.6z M61,166
	c5.1,8.7,8.2,16.6,13.5,22.6c11.6,13,33.2,11.4,44.4-2.4c10.7-13,8.5-22.5-8.4-34.8c-1.7-1.1-3.5-2-5.3-2.8L61,166z M67.7,145
	l45.7-24.3C86.3,109,69.1,117.1,67.7,145L67.7,145z"/>
<path class="st0" d="M290.8,359.6c-1.5,7.2-2.3,17-5.5,25.9c-8.1,22.2-27.3,33.7-51.7,32.1c-22.4-1.5-37.7-14.2-43.9-37
	c-4.1-15.1-5.6-30.3-1-45.7c7.1-24.3,24.4-37.3,49.9-37.1c24.8,0.1,43.2,14.3,49.1,38.4C289.4,342.9,289.6,350.1,290.8,359.6z
	 M204.8,358.4c0.4,3.3,0.7,6.5,1.2,9.7c2.9,19.8,13.4,29.9,31.3,30.1c18.6,0.3,31.2-10.8,33.2-30.4c0.9-8.3,0.7-16.7-0.8-25
	c-3.3-17.8-14.6-26.2-32.9-25.8c-17.8,0.4-28.1,9.8-30.5,28C205.7,349.6,205.3,354,204.8,358.4L204.8,358.4z"/>
<path class="st0" d="M370.9,359.9c0.5-7.1,0.7-11.7,1.2-16.2c3.2-29.1,23.4-47,52.1-46.3s49.4,19.7,50.4,48.3
	c0.5,12.9-1,25.7-4.5,38.1c-6.8,23.4-24.4,34.8-48.1,33.9c-24.4-0.9-42.4-14.5-48.4-37.4C371.8,372.9,371.6,365,370.9,359.9z
	 M457,352.8c-0.8-4.7-1-10.6-2.8-15.9c-4.9-14-16.5-19.1-30.1-20.4c-12.4-1.1-25.1,6.5-29.6,17.8c-5.8,14.9-6.7,30.2-0.6,45.3
	c5.1,12.7,17.2,19.8,30.7,19c15.7-0.9,25.3-8.5,28.9-23.7C455.2,368.1,455.8,361,457,352.8z"/>
<path class="st0" d="M496.4,509c-2.4-4.9-5.3-9.5-7-14.6c-1-2.9-0.3-6.4-0.4-9.6c-0.6-37.5-4.3-41.2-41.1-41.3
	c-18.1,0-36.3-0.1-54.4,0c-29.8,0.2-35,5.5-35.3,35c-0.1,10.7,2.5,22.5-11.7,31c-2.9-4.3-7.9-8.5-8.2-13
	c-0.7-13.5-1.2-27.4,1.2-40.5c3.6-19.4,18.4-31.4,40.8-32.5c28.4-1.5,56.9-1.5,85.4-0.1c27.1,1.4,42.1,18.1,43.9,45.2
	c0.5,7.7,1.1,15.7-0.3,23.2c-1.2,6.1-5.3,11.7-8.1,17.5L496.4,509z"/>
<path class="st0" d="M162.3,506.9c-24.2-31.7-8.6-77.4,29.1-81.6c29.9-3.3,60.6-3.2,90.7-1.4c28,1.7,40.4,17.6,41.6,46.2
	c0.3,7.7,0.9,15.6-0.4,23.1c-1,5.6-4.9,10.7-7.4,16l-4.9-0.1c-2.3-6.1-5.7-12-6.7-18.3c-1.3-8.2-0.4-16.8-1.3-25.1
	c-1.4-13.7-7.1-21.2-20.2-21.6c-29.6-1-59.3-1-89,0c-12.8,0.4-19.3,8.4-20.9,21.5c-0.7,5.7,0,11.6-0.3,17.4
	C172.1,492.2,170.5,501,162.3,506.9z"/>
<path class="st0" d="M428.1,114.7c15.3-13.9,18.5-36.1,43-41.3c-1.4,8.3-0.9,15.6-3.9,21c-6.8,12.4-14.8,24.3-23.1,35.8
	c-8.5,11.8-13.1,12.1-25.7,3.3c-5.2-3.6-10.3-7.3-17.2-12.3c-6.3,13.1-12.4,24.3-17.2,36.1c-8.5,21-25.4,33.7-43.6,45.2
	c-5,3.2-12.1,4.9-14.9-2c-1.3-3.3,1.5-11,4.7-13c24.6-15.2,36.3-39.6,47.7-64.4c2.2-4.7,4.2-9.4,6.8-13.9
	c8.1-14.4,13.9-15.6,27.6-5.9C417.4,106.9,422.5,110.7,428.1,114.7z"/>
<path class="st0" d="M468.1,249.9c-14.1-16.1-14.6-16.2-12.7-85.7c0.5-17.1-5.4-36,8-51.3c10.1,4.2,11.7,11.6,11.7,19.7
	c0,31.7,0.3,63.4-0.3,95.1C474.7,234,471.1,240.3,468.1,249.9z"/>
<path class="st0" d="M312.1,80.2c-2.7,8.2-9.4,9.7-16.8,9.7c-27,0-53.9,0-80.9,0c-7.8,0-13.4-2.9-16.5-10
	c8.9-13.6,12-10.3,83.4-10.6C300.7,69.2,300.7,69.4,312.1,80.2z"/>
<path class="st0" d="M398.4,148.6c14.9,9.2,10.2,23.9,10.2,36.7c0,55.9,2.9,52.5-9.8,61.6c-7.9-2.4-10.5-8.4-10.6-16.1
	c-0.1-21.8,0-43.6-0.1-65.4C388.1,157.7,390.7,151.7,398.4,148.6z"/>
<path class="st0" d="M431.6,165.6c12.9,7.9,10,19.8,10.1,30.2c0.5,39.8,0.3,39.8-9.1,50.8c-9.6-2.4-10-10.3-10.7-18.1
	C418.5,193.8,420.8,177.6,431.6,165.6z"/>
<path class="st0" d="M363.2,198.4c16.8,19.7,18,29.5,6.9,44c-4.8,6.2-14.2,5.8-14.9-1.3c-1.3-12.4,0.2-25.1,1.2-37.7
	C356.5,201.8,360.3,200.5,363.2,198.4z"/>
<path class="st0" d="M330.9,80.8c15.3-12.3,17-12.2,33.4,0.3l-16.4,13.1L330.9,80.8z"/>
<path class="st0" d="M92.6,248.7c11.5,4.9,13.1,12.9,13.1,21.5c0.1,25.1,0,50.2,0,75.3c0,8.1-1.7,15.3-10,19.1
	c-7.5-3.1-10.6-8.8-10.6-16.6c0.1-27.7-0.3-55.3,0.4-83C85.7,259.6,90.1,254.2,92.6,248.7z"/>
</svg>
