<?xml version="1.0" encoding="utf-8"?>
<!-- Generator: Adobe Illustrator 24.0.1, SVG Export Plug-In . SVG Version: 6.00 Build 0)  -->
<svg version="1.1" id="Layer_1" xmlns="http://www.w3.org/2000/svg" xmlns:xlink="http://www.w3.org/1999/xlink" x="0px" y="0px"
	 viewBox="0 0 512 512" style="enable-background:new 0 0 512 512;" xml:space="preserve">
<style type="text/css">
	.st0{fill:#8296AC;}
</style>
<title>services</title>
<path class="st0" d="M441.5,323.5c13.1-18.3,23-38.6,24.1-60.1c2.2-43.7,0.6-87.6,0.6-132.5c-19.6-6.2-38.5-12-57.1-18.2
	c-6.7-2.2-13.8-4.3-19.2-8.3c-2.9-2.2-4.3-8.8-3.4-12.8c0.6-2.9,5.9-6.3,9.4-6.6c5.4-0.4,11.1,1.3,16.5,2.8
	c21,6.1,41.9,12.9,63,18.6c10.1,2.7,17,7.3,16.9,18.4c-0.4,44.5,0.6,89.2-2.4,133.6c-1.4,19.8-8.6,40.3-17.6,58.3
	c-32.2,65.3-79.6,118.3-138,161.4c-19.4,14.4-40.2,27-64.3,31.4c-10.9,2.1-22.2,1.9-33.1-0.5c-33.2-7.9-60.2-27.7-85.4-49.7
	c-42.4-37-79-79-106.6-128.4c-16.9-30.3-26.3-62.1-25.2-97.3c1-33.9,0.2-67.9,0.5-101.9c0.1-19.8,1-21.4,20.3-26
	C114.9,88.3,181.7,56.2,239.2,5.3c14.3-12.6,17.9-12,33-0.4c14,10.8,28,21.6,42,32.5c3.3,2.6,7.8,4.8,9.5,8.3
	c2.2,4.5,4.4,10.9,2.7,14.9c-2.8,7-10.1,7.4-16.2,3.6c-7.8-4.8-15.1-10.5-22.5-16c-10.2-7.6-20.3-15.3-32.3-24.4
	c-60.1,53.9-130.8,87.8-210.2,106.5c-0.5,7-1.2,13.2-1.2,19.4c-0.1,28.3,0.2,56.6-0.2,84.9c-0.4,33.6,9.6,63.8,29.7,95.2
	c0.7-33,10.3-58.5,38-74.5c-12-37.4-8.4-69.9,27.8-91.1c23.8-13.9,52.1-11.1,73.6,6.1c23.2,18.5,29.1,43.8,18.3,83.1l24.9,21.9
	l24-21.7c-1.7-8.2-3.8-15.7-4.7-23.3c-3.9-35.6,16.7-65,50.6-72.8c32.4-7.4,65.3,10.6,76.5,41.9c5.1,14.4,4.6,29,0.9,43.8
	c-1.1,4.6-0.5,12.6,2.4,14.7c21.3,15.5,29.6,37.1,32.4,62C438.3,320.8,439.8,321.6,441.5,323.5z M235.3,293.3
	c-13.8-20.9-16.5-22.1-37.1-12.7c-18.7,8.5-36.7,7.9-55.1-0.6c-16.4-7.6-24.2-6.2-33.9,8.2c-5.3,8.2-8.6,17.5-9.8,27.1
	c-1.7,13.2-0.2,26.8-0.7,40.2c-0.4,9.7,2.1,18.1,9,25c20.3,20.6,40.4,41.4,60.9,61.7c3,3,7.7,4.3,13.5,7.3c0-9,0.4-15.3-0.1-21.6
	c-1.7-22.2,2.4-42.3,20.6-57.2c6.9-5.6,4.7-12.4,3.3-19.4c-3.6-18.1,2.2-33.4,15.1-46.1C225.2,300.7,230.4,297.2,235.3,293.3z
	 M332.9,450.6c27.5-21.3,52.2-45.9,73.8-73.2c3.5-4.4,5.6-9.7,6-15.4c0.6-17,1.3-34.1-0.7-50.9c-1.1-9.2-6.1-18.8-11.9-26.3
	c-9-11.7-15.5-12.5-29.3-5.8c-19.8,9.6-39.1,10-59.2,0.5c-18.2-8.7-22.7-6.6-33.3,11.4c8.9,11.7,20.1,21.6,24.8,34
	s2.7,27.2,3.4,37.5c8.2,14.9,17.5,26.9,21.6,40.4S331.3,431.8,332.9,450.6z M307,434.7h0.5c-0.6-9.9-0.2-20-2.1-29.5
	c-3.4-16.5-13.5-21.6-29.2-15.8c-13.2,4.9-25.8,5.6-39.2,0.4c-17.1-6.6-29.5-0.2-31.3,17.8c-1.7,17.5-1.1,35.3-0.6,53
	c0.1,4.2,3.3,10.2,6.7,11.9c12.6,6.2,25.4,13.4,39,15.7c18.1,3.1,34.9-5.1,49.4-15.5c11.8-8.4,5.1-22.3,6.7-33.7
	C307.1,437.6,307.1,436.2,307,434.7z M298.8,221.6c0.1,23.9,17.6,41.9,41.1,42.1c24.4,0.3,43-18.5,42.5-43
	c-0.5-24.1-17.9-40.7-42.3-40.6S298.7,197.5,298.8,221.6L298.8,221.6z M213.1,220.9c-0.4-23.8-18.3-41.4-42.1-41.2
	c-23.5,0.1-42,18.5-42,41.6c-0.2,23.3,18.5,42.2,41.8,42.4c0.6,0,1.1,0,1.7,0C195.7,263.1,213.5,244.4,213.1,220.9L213.1,220.9z
	 M284,342c0-15.6-12.5-28.6-27.7-28.9c-14.3-0.3-28.9,13.5-29.3,27.9c-0.5,16.3,12.8,29.4,29.4,29.1
	C272.9,369.8,284.1,358.4,284,342z"/>
<path class="st0" d="M269.6,76.6c-6.7,5.4-10.1,10.2-14.4,11.3c-7.1,1.8-12.4-2.4-12.8-10s4.8-12.3,11.7-11.5
	C258.5,66.9,262.4,71.6,269.6,76.6z"/>
</svg>
