<?xml version="1.0" encoding="utf-8"?>
<!-- Generator: Adobe Illustrator 24.0.1, SVG Export Plug-In . SVG Version: 6.00 Build 0)  -->
<svg version="1.1" id="Layer_1" xmlns="http://www.w3.org/2000/svg" xmlns:xlink="http://www.w3.org/1999/xlink" x="0px" y="0px"
	 viewBox="0 0 512 512" style="enable-background:new 0 0 512 512;" xml:space="preserve">
<style type="text/css">
	.st0{fill:#9AB376;}
</style>
<title>services</title>
<path class="st0" d="M362.5,322.3c-33.4,15.2-40.6,42.4-38.4,74.5c0.4,6.1-0.3,14.3-4,18.3c-13,14-12.2,30.6-12.3,47.6
	c-0.1,8.7-0.5,17.9-3.5,25.9c-10.5,27.9-35.2,22.1-57.3,23.3c-19.5,1.1-33.3-5.8-39.7-24c-2.9-8.1-3.6-17.3-3.2-26
	c0.6-15.7-1.7-30-10.3-43.7c-5-7.9-7.1-17.6-9.5-23.8l-39.1-9.3c-4.8,12-8,28.6-29.8,27.1c-18.6-1.2-29.4-10.3-36.6-27.9
	C55,398.4,38.4,389.4,25,370c-7.7-11.1-7.7-12.2,4.6-33.6c-13-8.6-30.9-12.3-29.4-35.2c1.2-19.1,7.9-30,28.6-33.8
	c-14.7-21.1-5.4-35.8,8.8-50c13.5-13.6,26-8.2,40.9,2.7c3.6-8.6,7-15.5,9.5-22.8c5.2-15.2,9.7-30.6,14.9-45.9
	c22.7-66,76.4-107.1,146.1-110.8c14.1-0.8,26.6-3.2,38.4-11.4c14.9-10.5,15.9-9.9,28.5,2.1c4.6,4.4,9.1,9,13.9,13.3
	c1,0.9,2.9,0.7,6.4,1.4c2.5-7.1,4.5-14.8,7.8-21.8c2.6-5.5,7-14.7,10.3-14.6c15.7,0.5,31.7,2.2,46.8,6.3
	c12.2,3.3,11.7,15.7,12.1,26.3c0.2,5.5,1.2,10.9,2.3,20.1c9.6-4.5,17.7-7.1,24.5-11.7c10.9-7.3,19.4-5.6,27,4.4
	c1.5,1.9,3.1,3.7,4.7,5.5c25,29.7,25,29.7-1.5,57.1c-2.1,2.2-3.2,5.3-6.6,11.2l41.7,10.6c7.3,20.5-0.3,40.4-6.9,59.7
	c-1.4,4.1-11.9,6.2-18.5,7.1c-8.3,1.2-16.8,0.3-30.2,0.3c6.9,10.9,11.4,18.1,15.9,25.2c8,13.1,7.7,16.5-4.1,26.4
	c-7.4,6.2-15.3,11.8-23.1,17.4c-16.3,11.5-19.3,11.4-31.8-3.6c-4.6-5.5-7.6-12.3-12-18c-14,9-13,18.2-14.6,26.7
	c-3,15.7-7.3,18.6-23.2,17.5c-2.4-0.2-4.8-0.6-7.1-1.1c-12.4-2.8-28.2-2-35.9-9.5c-6.3-6.1-2.7-22.3-3.8-33.9
	c-0.2-2.2-1.6-4.3-3.6-9.6c-8.1,4.1-15.8,7.4-23,11.6c-10.8,6.4-19.8,4.8-27.6-4.7c-2.6-3.1-5.1-6.2-7.6-9.4
	c-21.2-27-21.2-26.9,2.9-51.7c2.6-2.7,4.1-6.4,7.8-12.4c-9.6-2.5-17-4.5-24.4-6.5c-17.3-4.6-19.1-7.2-17.4-25.4
	c0.4-4,1.1-8,1.6-11.9c4.3-33.6,4.3-33.5,37.5-33.8c3.8,0,7.6-1.3,11.5-2c-7-30.6-20.4-39.3-47.1-31.5
	C132.8,92,89.3,185.7,130.8,263.2c9.2,17.1,23.8,32.7,39.2,44.9c26.1,20.5,39.7,45,39.5,78.4c-0.2,25.6,2.1,27.1,27.7,27.6
	c13.7,0.3,27.4,0.4,41-0.1c20.4-0.8,23.5-4.4,24.3-24.4c0.5-11.2,0.6-22.5,2.7-33.5c3.9-20.3,17.2-34,34.2-44.6
	C350.4,304.5,357.3,307.8,362.5,322.3z M271.8,237.8c16.8-9.5,29.4-24,48.3-12.8s8.1,31,14,47.5l22.2,3.5
	c12.8-50.8,32.1-57,69.3-17.4l20.2-15.2c-6.7-16.4-23.5-28.7-12.7-47.6c10.7-18.7,29.6-11.2,46.8-12.6l4.3-26.5
	c-8.8-2.1-15.1-3.2-21.1-5.1c-24.1-8-29.3-28.3-11.5-46.1c5-5,11.8-8.1,19-12.9l-19.5-24c-16.4,8.3-28.3,24.3-47.7,12.3
	c-18.8-11.7-7.1-31.4-13.6-47.7L366,30c-2.1,8.5-3.4,15.5-5.5,22.2c-7,21.9-28.7,27.4-45.4,11.5c-5.6-5.3-10.6-11.3-16.8-17.8
	l-20.4,16.8c4.3,7.4,8,13.5,11.3,19.7c10.8,20.9,0.8,39-22.9,40.8c-7.7,0.6-15.5,0.1-24.7,0.1v25.9c7.3,2,13.6,3.4,19.6,5.5
	c24.1,8.6,28.6,28.2,10.2,46.4c-5,5-11.5,8.4-17.9,12.9C261.2,224.1,266,230.3,271.8,237.8z M157.3,329c-6.7,5.2-12.2,9.8-18.1,13.8
	c-22.8,15.3-51.7,10.3-68.4-11.7c-16.4-21.5-13-51.4,8.3-69c5.5-4.5,12.7-7,18.1-11.5c2.6-2.1,2.8-7,4.6-11.8
	c-10.2,1.1-18,3.5-25.3,2.3c-7.5-1.2-14.5-5.9-20.9-8.8c-9.6,4.9-12,10.3-8.5,20.1c8.3,23.1,7.9,23.7-12.6,35.7
	c-7.7,4.5-13.6,8.6-10.7,16c11.2,8.1,25.5,13.2,28.5,22.1c3.2,9.2-4.5,22.2-7.5,33.4c10.8,8.5,10.8,8.5,22.2,4.2
	c19.1-7.3,22.2-6.1,32.1,12c2.9,5.3,5.9,10.4,10.6,18.6c6.1-8,11-13,14.3-18.9c11.6-21.1,13.2-21.7,35.2-11.3
	c2.8,1.3,5.7,2.6,8.2,3.7C188.3,351.3,187,345.5,157.3,329z M75.1,301.2c7.2,8.9,12.3,16,18.3,22.4c8.8,9.3,19.8,10,31.1,5.5
	c13.1-5.1,16.1-14.9,8.6-26.7c-5.6-8.8-11.6-17.3-17.5-25.9s-13.5-8.9-20.1-1.8C88.5,282.3,82.8,291.1,75.1,301.2z M255.9,468.3v0.1
	c-6.4,0-13-0.9-19.2,0.4c-3.8,0.8-9.4,4.6-9.8,7.7c-0.5,3.5,3.6,10.9,6.2,11.1c15,1.1,30.1,1.2,45.2,0.2c2.5-0.2,6.7-7.4,6.3-11
	c-0.4-3.1-5.7-7.3-9.5-8.1C269,467.3,262.4,468.3,255.9,468.3L255.9,468.3z M288.9,442.9c-22.8-12-46-10.8-62,3.3
	C248,447.9,266.2,450.8,288.9,442.9L288.9,442.9z"/>
<path class="st0" d="M190.8,102c10.7,6.1,14.1,12,6.4,20.3c-4.9,5.3-10.3,10.2-14.9,15.7c-40.2,48.8-28.7,114.7,25.6,146.9
	c9,5.3,18.6,9.6,27.2,15.4c16.9,11.3,27.1,27.3,29.2,47.6c0.4,3.8-3.5,11.4-5,11.3c-4.8-0.3-9.4-3.4-14.1-5.5
	c-0.6-0.3-0.9-1.3-1.1-2.1c-4.4-25.6-24.2-35.7-44.6-46.5c-51.7-27.3-74.8-83.2-58.1-139C149.6,139,165.9,117.9,190.8,102z"/>
<path class="st0" d="M77,132.2c9.1,12.6,8.7,20-5,23.4c-14.8,3.6-29.6,7.6-44.4,11.4c-7.4,1.9-12.9-0.2-15-7.9
	c-2.2-8.3,2.9-11.5,10-13.2C40.5,141.5,58.3,136.9,77,132.2z"/>
<path class="st0" d="M112.5,78.3c-5.2-19.4-10.1-37.7-14.8-56c-1.7-6.7-1-12.8,7.1-15.1s11.8,2.6,13.6,9.4
	c3.9,14.6,7.4,29.2,11.3,43.8C133.1,72.7,128.1,78.2,112.5,78.3z"/>
<path class="st0" d="M95.1,91.6c-5.1,13.7-10.6,18.9-21,11.6C57.9,91.7,41.8,80.1,24.7,67.7c3.8-6.4,6.5-10.8,11-18.4L95.1,91.6z"/>
<path class="st0" d="M450.6,418.2c-15.9-13-29.5-24-43-35.1c-10.6-8.8-7.7-16,5.4-23.6l49.1,41L450.6,418.2z"/>
<path class="st0" d="M471.5,316.2c3,12.1,3.7,20.4-9.8,20.7c-12,0.3-24.1,0.3-36.1-0.2c-10.4-0.5-13-7.3-12.5-17.6
	C432,312.1,451,316.2,471.5,316.2z"/>
<path class="st0" d="M363.5,411.9c0-6.4-1-13,0.4-19c0.8-3.6,5-7.6,8.5-8.9c2-0.7,8.5,3.5,8.6,5.7c0.9,15.7,1,31.6,0.4,47.3
	c-0.1,2-6,5.3-9,5.2c-2.9-0.2-7.5-3.8-8-6.5c-1.5-7.7-1.2-15.8-1.6-23.7L363.5,411.9z"/>
<path class="st0" d="M271.8,388.6c-7.1,6-10.9,11.8-15.5,12.4c-10,1.5-11.1-6.6-10.9-14.3c0.2-6.7,1.7-14.4,10.1-12.5
	C260.7,375.4,264.6,381.9,271.8,388.6z"/>
<path class="st0" d="M361,221.3c-37.9-0.2-68.5-31.1-68.4-69c0-0.1,0-0.2,0-0.2c0.4-37.4,32.6-69,69.9-68.3
	c37.7,0.6,69,32.5,68.4,69.9C430.4,191.4,399.3,221.6,361,221.3z M361.3,200.4c27.4,0.2,49.3-21.5,48.9-48.3
	c-0.4-26.1-21.4-46.6-48-46.7c-27.3-0.2-49.7,21.8-49.2,48.2C313.5,179,335.4,200.2,361.3,200.4z"/>
</svg>
