<?xml version="1.0" encoding="utf-8"?>
<!-- Generator: Adobe Illustrator 24.0.1, SVG Export Plug-In . SVG Version: 6.00 Build 0)  -->
<svg version="1.1" id="Layer_1" xmlns="http://www.w3.org/2000/svg" xmlns:xlink="http://www.w3.org/1999/xlink" x="0px" y="0px"
	 viewBox="0 0 512 512" style="enable-background:new 0 0 512 512;" xml:space="preserve">
<style type="text/css">
	.st0{fill:#AE5E5D;}
</style>
<title>services</title>
<path class="st0" d="M369.3,184.8c20,6.8,30,21.7,26.5,44.1c12.7,4,22.2,11.6,25.9,25.1c3.7,13.5-0.3,24.9-9.6,35
	c8.9,9.4,17.6,18.7,26.5,27.9c4,4.1,8.9,5,14.2,3.1c11.6-4,21.5-0.8,30.2,7.2c6.4,5.9,12.6,12,18.6,18.3c13.9,14.6,14.1,33,0.6,47.9
	c-4.9,5.4-10.1,10.4-15.3,15.5c-30.3,30.3-60.7,60.5-91,90.8c-15.4,15.3-35,15.3-50.4-0.1c-5.3-5.3-10.7-10.6-15.9-16
	c-10-10.2-12.8-22.1-7.9-35.6c1.2-3.4,0.7-5.6-1.8-8.1c-11.4-11.1-22.4-22.4-33.8-33.3c-2.3-2.1-5.2-3.3-8.3-3.6
	c-11.6-0.7-23.2-0.9-34.8-1.2c-7.5-0.3-14.7,2.6-19.8,8.2c-9.6,10-19.4,19.7-29.3,29.5c-2.1,2.1-2.9,4-1.6,7
	c6.2,13.9,4,26.6-6.3,37.6c-6.2,6.6-12.6,13.1-19.4,19.2c-13.6,12.1-32.6,11.6-45.8-1c-7.3-7-14.5-14.3-21.6-21.5
	c-4.8-4.9-5.1-10.9-0.9-15.1s10.3-4.1,15.4,0.9c6.1,6,12.1,12.1,18.2,18.1c1.5,1.5,3.1,2.9,4.8,4.1c5.1,3.6,10.4,4,14.9-0.1
	c7.3-6.4,14.2-13.3,20.7-20.6c4.7-5.4,3.6-11.3-2.2-17.3c-9.5-9.8-18.9-19.5-28.5-29.1c-22.9-23-45.8-45.9-68.8-68.9
	c-3.4-3.4-6.9-6.5-10.5-9.6c-5.4-4.6-11.1-4.7-16.3,0.1c-6.2,5.7-12.3,11.6-18,17.8c-6.6,7.1-6.3,13.3,0.7,20.3
	c5.7,5.8,11.5,11.6,17.3,17.4c1.3,1.3,2.6,2.6,3.8,4c3.8,4.7,3.4,10.4-0.8,14.2s-9.5,3.7-13.8-0.4c-6.4-6.1-12.5-12.5-18.9-18.6
	c-5.8-5.5-10.4-11.9-12.3-19.4c-1.3-5.3-1.3-10.9,0-16.2c2.5-9.7,9.3-17,16.5-23.7c4.3-4,8.9-7.8,13.3-11.8c8.5-7.8,18.6-9,29.2-6.2
	c4.4,1.2,7.3,0.4,10.5-2.9c9.1-9.5,18.5-18.8,27.7-28.1C82,270.4,88.8,240.1,112.9,230c-3.2-6.7-5.7-13.7-5.1-21.2
	c1.2-15.4,9.4-25.6,23.6-31.2c2.3-0.9,3.2-1.8,3.1-4.4c-1.3-21.1,5.4-31.8,24.8-40c0.5-0.2,0.9-0.4,1.5-0.7c0-5-0.7-10.1,0.1-14.9
	c3.3-20,21-32.2,41.1-28.9c2.1,0.3,4.9,0.5,6.5-0.5c10.2-6.7,21-5.4,32.1-3.3c21.1,4,42.2,7.9,63.3,11.7c3.6,0.7,7.4,0.3,11,0.9
	c19.2,3.3,31.6,20.4,28.9,39.8c-0.2,1.3-0.3,2.6-0.5,4.2c9.2,2.9,17,7.8,22.1,16.2S371.3,175.1,369.3,184.8z M395.4,303.9
	c-1.1,1.4-2.1,2.8-3.3,4c-1.2,1.3-2.5,2.4-3.9,3.4c-4.2,2.8-8.5,2.5-12-0.7s-4.2-7.9-1.5-12.2c1.2-1.8,2.5-3.4,4-4.9
	c6.6-6.7,13.2-13.3,19.8-20c4-3.9,5.4-9.8,3.4-15c-1.6-5.3-6.2-9.2-11.7-10c-5.2-0.9-9.5,1.1-13.3,4.6c-3.4,3.2-6.5,6.6-10.2,9.3
	c-3.6,2.8-8.8,2.3-11.9-1c-3.3-3.3-3.9-7.7-1.4-11.9c1-1.5,2.2-3,3.5-4.3c4.8-4.9,9.7-9.7,14.5-14.6c4.1-4.3,6-9.3,4.5-15.2
	c-2.7-10.4-14.7-14.4-23.4-7.7c-4.3,3.3-7.9,7.4-11.8,11.1c-2.8,2.6-6.8,3.4-10.3,2c-3.5-1.2-5.5-4-6.1-7.6
	c-0.7-4.2,1.7-7.3,4.4-10.1c5.6-5.6,11.2-11.1,16.7-16.8c4-4.1,5.8-9.1,4.2-14.8c-3-10.9-15.9-14.4-24.6-6.7
	c-3.8,3.3-7.1,7.1-10.9,10.3c-4.6,3.8-9.8,3.4-13.5-0.5s-3.6-9,0.3-13.6c1.1-1.3,2.4-2.5,3.6-3.7c4.8-4.9,9.8-9.6,14.5-14.6
	c8.8-9.3,5.2-23.1-6.8-25.8c-6.1-1.4-11,1.5-15.3,5.6c-7.8,7.7-15.4,15.5-23.3,23.1c-2.8,2.7-3.4,5.2-1.8,8.8
	c2.5,5.7,3.9,11.8,2.8,18.1c-2.6,16.2-14.1,27.4-30.5,29.7c-2.5,0.4-4.2,0.9-4.7,3.9c-3.2,18.8-11.4,27.1-30.3,30.8
	c-2.8,0.5-4.2,1.7-4.7,4.8c-2.6,17-12.3,27.2-29.2,30.2c-4.5,0.8-5.5,2.7-6.3,6.6c-2.6,13.6-10.1,23.3-23.7,27.5
	c-8.1,2.5-16.1,1.3-24.1-1.3c-2.1-0.6-5.5-0.6-6.8,0.7c-10,9.2-19.5,18.7-29,27.9l93.5,93.4c0.7-0.9,1.4-1.9,2.2-2.7
	c10.2-10.3,20.5-20.5,30.6-31c7.1-7.4,15.4-11.3,25.6-11c10.5,0.3,21.1,0.5,31.6,0.9c13.4,0.5,25.4-2.4,33.9-13.9
	c0.5-0.6,1.1-1.2,1.7-1.7c4.9-4.2,10.6-4.3,14.5-0.3s3.6,9-0.7,14.1c-4.1,4.8-8.2,9.6-11.8,13.9l30.3,30.5l90.1-89.9L395.4,303.9z
	 M492,368.3c-1-1.9-2.4-5.3-4.6-8.1c-2.8-3.5-5.9-6.8-9.3-9.7c-4.9-4.1-10.1-7.9-15.3-11.7c-1-0.7-2.4-1-3.6-0.6
	c-3.5,1.8-7.3,3.5-10,6.2c-35.2,34.9-70.2,69.9-105.2,105c-6.6,6.6-6.5,13.8,0,20.5c4.3,4.5,8.7,8.8,13.1,13.2
	c10.7,10.7,16.4,10.7,27.1,0l86.1-86.1c5.3-5.3,10.6-10.6,16-15.9C489.9,377.8,492,373.1,492,368.3z M153.9,168.7
	c0.9,1.7,1.9,5.7,4.3,8.2c12,12.4,24.2,24.7,36.7,36.6c2.9,2.7,7.6,5.1,11.5,5c6.4-0.2,11.2-4.4,13.1-10.9c1.9-6.2,0-11.4-4.5-15.8
	c-6.6-6.5-13.1-13-19.6-19.5c-5.4-5.4-10.7-10.9-16.4-16.1c-4.8-4.4-10.4-5.6-16.4-2.7C157.1,156.1,154.2,160.6,153.9,168.7z
	 M180.2,123.1l-1,0.6c1.9,3.4,3.3,7.5,5.9,10.2c14.8,15.1,29.7,29.9,44.9,44.5c2.9,2.7,6.5,4.5,10.3,5.2c5.6,1,12.8-5.3,14.3-11.6
	c1.8-7.4,0.1-10.8-7.3-14.3c-19.4-9.2-34-23.2-42.5-43.2c-2.2-5.1-6.3-7.2-11.8-6.4C185.7,109.4,180.2,115.7,180.2,123.1z
	 M167.9,253.3c8.3-0.2,13.2-3.1,16.2-9c2.9-5.6,1.5-10.8-2.4-14.9c-9.9-10.4-20.1-20.5-30.4-30.5c-5.1-4.9-13.9-4-19.3,1.4
	s-6.2,13.9-1.1,19.2c10,10.3,20.2,20.4,30.5,30.4C163.4,251.8,166.5,252.6,167.9,253.3z M134.2,288.9l0.5-1c0.5,0.1,1,0.2,1.5,0.2
	c5.6-0.6,10-3.1,12.4-8.5c2-4.7,2.8-9.6-0.9-13.7c-4.2-4.8-8.8-9.4-13.6-13.7c-6.4-5.8-13.7-5.3-19.6,0.8c-5.6,5.4-5.8,14.3-0.5,20
	c3.7,4.1,7.6,8,11.8,11.6C128.1,286.6,131.3,287.5,134.2,288.9z M278,112.2c-16.5-3-33.8-6.1-51.1-9.3c-4.5-0.8-5.6,0.2-3.8,4.4
	c1.5,3.5,3.6,6.7,6.1,9.5c6,6.6,12.3,13,18.5,19.3c2,2,4.6,3.2,7,0.8C262.6,128.8,270.4,120.4,278,112.2z"/>
<path class="st0" d="M129.5,61.3c-2.2-1.3-5.1-2.4-7.1-4.4c-12-11.7-23.8-23.5-35.6-35.4c-3.9-3.7-4.3-9.8-0.7-13.9
	c3.3-4,9.1-4.6,13.8-1.4c0.9,0.6,1.7,1.3,2.4,2c11.5,11.4,23,22.8,34.4,34.3c5.7,5.7,5,13.4-1.5,17C133.7,60.3,132,60.5,129.5,61.3z
	"/>
<path class="st0" d="M384.6,60.8c-5.7-0.2-9-1.9-11-5.5c-1.9-3.2-1.9-6.5,0.5-9.6c0.9-1.3,1.9-2.5,2.9-3.7
	c11.3-11.3,22.6-22.6,33.9-33.8c2.6-2.6,5.5-4.6,9.4-4.2c5.5,0.5,9.6,5.3,9.1,10.8c-0.1,1.2-0.4,2.4-1,3.5c-0.7,1.4-1.6,2.7-2.7,3.8
	c-11.5,11.6-23,23.2-34.7,34.6C388.8,58.8,386,60,384.6,60.8z"/>
<path class="st0" d="M266.6,34.5c0,7.1,0.1,14.2,0,21.3c-0.2,5.6-3.4,9.5-8,10.3c-6.1,1-11.7-2.9-11.8-9.2
	c-0.4-14.7-0.4-29.5-0.3-44.2c0.2-2.6,1-5.1,2.4-7.4c3.2-6,13-5.8,15.9,0.3c1.3,3,2,6.2,2.1,9.4c0.3,6.4,0.1,12.9,0.1,19.3H266.6z"
	/>
<path d="M72.1,430.3c5.4-0.2,10,4.1,10.1,9.5c0,0.2,0,0.4,0,0.6c0,5.7-4.2,9.7-10,9.8c-6,0-10.3-4.2-10.2-10c0-5.4,4.3-9.8,9.7-9.9
	C71.8,430.3,72,430.3,72.1,430.3z"/>
<path class="st0" d="M333.6,342.6c0-5.5,4.4-10,9.9-10.3c5.4-0.1,10.6,4.8,10.6,10.2s-5,10.4-10.5,10.3
	C338.1,352.6,333.7,348.1,333.6,342.6z"/>
</svg>
