<?xml version="1.0" encoding="utf-8"?>
<!-- Generator: Adobe Illustrator 25.0.1, SVG Export Plug-In . SVG Version: 6.00 Build 0)  -->
<svg version="1.1" id="Layer_1" xmlns="http://www.w3.org/2000/svg" xmlns:xlink="http://www.w3.org/1999/xlink" x="0px" y="0px"
	 viewBox="0 0 23 18.8" style="enable-background:new 0 0 23 18.8;" xml:space="preserve">
<style type="text/css">
	.st0{fill:#DEC18E;}
</style>
<g id="JtvIXU.tif" transform="translate(0)">
	<g id="Group_2080" transform="translate(0)">
		<g id="Group_2076">
			<path id="Path_4195" class="st0" d="M17.1,0c-0.4,0-0.8,0.1-1.1,0.4c-0.2,0.2-0.4,0.5-0.4,0.8c0,0.4-0.2,0.7-0.5,0.9l-0.2,0.1
				c-0.1,0.1-0.2,0.2-0.3,0.3c-1.8,1.4-3.8,2.5-6,3.2C7.4,6.2,6.1,6.4,4.9,6.4c-0.7,0-1.4,0-2.1,0c-0.3,0-0.6,0-0.9,0
				C1,6.3,0.2,6.8,0,7.7l0,0v3.5c0,0.1,0.1,0.2,0.1,0.2c0.1,0.2,0.2,0.3,0.3,0.5c0.3,0.3,0.7,0.5,1.1,0.5c0.2,0,0.4,0,0.6,0h0.4v3.8
				c0,0.4,0.2,0.6,0.6,0.6c0.5,0,1.1,0,1.6,0c0.3,0,0.5-0.1,0.6-0.4c0.2-0.8,0.4-1.6,0.6-2.4l0.3-1.2c0,0,0-0.1,0-0.2l0.1-0.2l0.1,0
				c0.1,0,0.3,0.1,0.4,0.1c0.3,0.1,0.6,0.1,0.9,0.2c2.5,0.7,4.9,1.9,6.9,3.5c0.2,0.2,0.5,0.4,0.7,0.6l0.2,0.2
				c0.1,0.1,0.1,0.2,0.1,0.2c-0.1,0.7,0.4,1.4,1.1,1.5h0.5l0.1,0l0.2-0.1c0.5-0.2,0.9-0.7,0.9-1.3c0-5.4,0-10.8,0-16.1
				C18.3,0.6,17.7,0.1,17.1,0z M2.6,11.5L2.6,11.5c-0.2,0-0.3,0-0.4,0s-0.2,0-0.3,0c-0.1,0-0.3,0-0.4,0c-0.3,0-0.6-0.3-0.6-0.6
				c0-0.9,0-1.9,0-2.9c0-0.3,0.2-0.6,0.6-0.6c0.2,0,0.4,0,0.7,0c0.1,0,0.2,0,0.3,0h0.1L2.6,11.5z M4.5,15.9h-1v-3.4h1.8L4.5,15.9z
				 M5.5,11.5h-2V7.3h2L5.5,11.5z M15.5,15.8l-0.1-0.1c-1.3-1.1-2.7-2-4.2-2.7c-1.5-0.7-3.1-1.2-4.7-1.5l-0.1,0V7.3l0.1,0
				c3.3-0.6,6.3-2.1,8.9-4.2L15.5,3L15.5,15.8z M17.4,17.3c0,0.5-0.2,0.6-0.4,0.6l0,0c-0.1,0-0.2,0-0.3-0.1
				c-0.1-0.1-0.2-0.3-0.2-0.5V1.6c0-0.5,0.2-0.6,0.4-0.6l0,0c0.1,0,0.2,0,0.3,0.1c0.1,0.1,0.2,0.3,0.2,0.5V17.3z"/>
		</g>
		<path class="st0" d="M21.7,4.1c-0.2-0.1-0.4-0.1-0.6,0c-0.5,0.2-1,0.5-1.7,0.8c0,0,0,0,0,0c-0.3,0.2-0.4,0.5-0.3,0.8
			c0.1,0.2,0.3,0.4,0.6,0.4l0,0c0.1,0,0.2,0,0.3-0.1c0.5-0.2,1.1-0.5,1.7-0.8c0.2-0.1,0.3-0.3,0.3-0.6C22,4.5,21.8,4.3,21.7,4.1z"/>
		<path class="st0" d="M21.6,13.6c-0.6-0.3-1.2-0.6-1.7-0.8c-0.3-0.1-0.7,0-0.8,0.3c0,0,0,0,0,0c-0.2,0.3,0,0.7,0.3,0.8
			c0.5,0.2,1.1,0.6,1.7,0.8c0.1,0,0.2,0,0.2,0c0.1,0,0.2,0,0.3-0.1c0.2-0.1,0.3-0.3,0.3-0.5C22,14,21.8,13.7,21.6,13.6z"/>
		<path class="st0" d="M23,9.4c0-0.3-0.3-0.6-0.6-0.6c-0.6,0-1.2,0-1.8,0c0,0,0,0,0,0c-0.3,0-0.6,0.3-0.6,0.6c0,0.2,0.1,0.3,0.2,0.4
			c0.1,0.1,0.3,0.2,0.5,0.2c0.2,0,0.4,0,0.6,0h0.6H22l0.4,0c0.2,0,0.3-0.1,0.5-0.2C23,9.7,23,9.6,23,9.4C23,9.4,23,9.4,23,9.4z"/>
	</g>
</g>
</svg>
