<?xml version="1.0" encoding="utf-8"?>
<!-- Generator: Adobe Illustrator 24.0.1, SVG Export Plug-In . SVG Version: 6.00 Build 0)  -->
<svg version="1.1" id="Layer_1" xmlns="http://www.w3.org/2000/svg" xmlns:xlink="http://www.w3.org/1999/xlink" x="0px" y="0px"
	 viewBox="0 0 512 512" style="enable-background:new 0 0 512 512;" xml:space="preserve">
<style type="text/css">
	.st0{fill:#C19E6D;}
</style>
<title>services</title>
<path class="st0" d="M89.7,217.6c-43-58.1-16.8-116.7,35.5-124l-4.3-18.8L165,33.7c11.5,2.4,20.4,17.5,38.6,9.5
	c17.8-7.7,15.9-23.3,22.8-36.7h60.5c8.1,11.9,4.7,28.6,23.3,35.7C328,49,336.4,35.4,350.6,32c12.3,12.2,24.6,25.2,37.9,37.1
	c9.1,8.2-0.6,16.2,1.3,24c60.2,10.6,71.4,81.1,34,124.8c19.4,4.2,36,17,55.9,3.2c8.3-5.8,18.2-7.5,29.8-1.3c0,12.4,0,25.2,0,38.1
	c0,18.6-1.4,37.3,0.5,55.7c2,19.4-6.1,28.7-23,36.4c-36,16.4-71,35-106.5,52.6c-8.4,4.1-16.4,7.8-18.5,18.6
	c-0.9,4.3-4.9,9.2-8.8,11.4c-8.5,4.6-13.2,12-19.2,19c-10.9,12.8-24.5,23.1-36.8,34.7c-3.4,3.2-6.5,6.8-9.1,10.8
	c-9.5,14.6-23,19.1-38.2,10.6c-6.9-3.8-13-6.1-20.8-5c-12.4,1.9-21.2-3.6-28-14c-3.1-4.9-8.1-8.6-12.4-12.8
	c-3.5-3.4-8.5-6-10.5-10.1c-3.4-7.2-8-12.3-15.3-15c-0.6-0.2-1.1-0.5-1.6-1c-12-13.5-24.5-26.6-35.7-40.7
	c-7.3-9.2-14.5-13.1-26.2-12c-7.2,0.7-14.9,0.4-21.8-1.6c-20.8-6.1-41.1-13.5-61.8-19.9c-8.9-2.8-13-7.9-12.9-17.5
	C3,310.7,2.7,263,3,215.3c0.1-12.9,4.1-15.8,17.5-15.3c15,0.6,26.7,9.3,38.7,16.7C69.4,223.2,79.2,225.5,89.7,217.6z M489.5,238.9
	c-8.8,4.1-13.9,6.2-18.7,8.7c-37.3,19.5-74.9,38.3-111.5,59c-16.6,9.4-31.8,10.2-49.4,5c-53.7-16-41.5-15.4-92.6,9.4
	c-2.2,1.1-4.5,2.2-6.6,3.5s-5,2.4-5.8,4.3c-1.5,3.5-3.5,8.6-2,11.2c1.6,2.7,7,4.6,10.6,4.5c4-0.2,8-2.9,11.8-5
	c7-3.9,13.8-8.2,20.8-12.2c14.1-8,27.3-6.1,39.6,3.9c5.3,4.3,10.3,9,15.3,13.5c17.9,16,35.9,32.1,54.4,48.7
	c42.1-21.1,83.6-41.7,124.8-62.9c4.1-2.1,8.7-8.1,8.8-12.4C489.9,292.7,489.5,267.5,489.5,238.9z M131.5,385.6
	c6.3-5.6,11.9-11.3,18.1-16.2c12.9-10,28.7-8.6,37.5,4.3c5.3,7.8,9.9,15.1,19,19.1c3.5,1.6,5.5,6.4,8.4,9.6c3.6,4,7.2,7.9,11.1,11.5
	c3.1,2.9,8,4.6,9.9,8c9.9,17.9,28.9,26,42.3,40.2c3.8,4,9.9,7.9,14.6,2.6c6.3-7-1.5-10.9-5.7-14.7c-7.3-6.6-15.2-12.7-22.7-19.2
	c-4.1-3.6-7.9-7.5-15.4-14.5l12.1-11.9c15.3,12.6,27.2,22.4,39.1,32.1c5.9,4.9,12,8.9,20.1-0.1c-11.4-17.4-31.5-25.8-44.2-42.7
	l10.5-12.5c11.3,9.2,21.7,17.8,32.1,26.3c3.8,3.1,7.4,7.1,11.8,8.9c3.2,1.3,7.7-0.5,11.5-0.9c-0.5-3.4-0.3-7.2-1.8-10
	c-1.7-3.1-5.1-5.3-7.9-7.8c-18-16-36.2-31.9-54.2-48c-10.7-9.5-15.3-10.3-28.1-3.4c-9.2,5-17.9,11.2-27.4,15.5
	c-19.3,8.8-38.5-3.6-39.5-24.6c-0.6-13.3,5.5-22.5,16.9-28.4c10.5-5.5,21.1-10.9,31.7-16.3c-0.3-1.5-0.6-3-1-4.6
	c-11.5-1.3-23.2-4.8-34.3-3.5c-18.9,2.2-37.5,7.6-56.3,11.4c-7.7,1.5-11.6,6.2-13.6,13.3c-4.9,17.3-9.8,34.5-14.8,51.7
	c-2.4,8.4-0.3,14.5,7.8,18.3C123.3,381.2,127,383.3,131.5,385.6L131.5,385.6z M273.5,233.6c-1.8-12.2-5.4-22.5,5.1-32
	c17.8-16,22.6-42.6,13-64.2c-11.5-25.7-46.7-30.9-64.7-9.7c-13.6,16-13.6,55.2,2.4,68.8c12.6,10.7,14,21.8,10.2,36.9
	c-14.3,3.9-28.6,7.5-42.7,11.6c-9.7,2.8-18.4,7.1-17.4,20.9c6.8,0,12.9-0.5,18.9,0.1c11,1,22.3,1.5,32.9,4.2
	c29.3,7.4,58.3,16,87.6,23.8c4.9,1.3,10.2,1.4,17.2,2.3c0-8.5,0-14.6,0-20.7c-0.1-21.2-4.3-26.8-25.1-32.5
	C298.4,239.8,285.8,236.8,273.5,233.6L273.5,233.6z M438.4,243.7c-11.4-3.3-19.6-5.2-27.4-8.2c-3.5-1.4-8.2-4.5-8.9-7.6
	c-2.3-9.6-2.6-18.8,6.7-26.8c17.9-15.3,22.4-47.3,10.5-67.4c-7.9-13.4-19.9-19.8-35.5-18.9s-27,8.7-33.2,22.8
	c-8.8,20.3-2.4,48.8,13.6,64.5c13.4,13.1,10,28.9-7.6,35.1c-2.8,1-5.6,1.9-8.2,2.8l9.8,45.3L438.4,243.7z M165,240.8l-21.6-8.4
	c-0.4-10.4-5.6-21.8,3.9-28.5c21-14.9,19.9-35.6,17.5-56.8c-1.8-16.1-14.4-28.6-29.8-31.6c-16.3-3.2-32.1,3.2-40.6,16.2
	c-11.7,18-8,51.9,7.3,67.3c13.7,13.8,14,26.1,0.9,40.6c10.6,13.6,35.4,12.5,35.4,37.2l18-4.5C158.9,261.4,161.6,252,165,240.8
	L165,240.8z M161.7,217.2c21.8,10.2,39.9,10.6,58.8,0.3c-1.4-2.7-2-5.3-3.6-6.8c-18.8-17.6-20.6-40.1-17.7-63.6
	c3.8-29.9,27.4-51.2,56.4-51.8c27.7-0.5,52.2,19.8,57.4,48.5c4.6,25.4,2.6,49.5-17.6,68.8c-1.1,1.1-1.4,3.2-2,4.8
	c24.3,11.2,35.8,11,54.1,0.1c-5.8-12.2-14.1-23.7-16.6-36.4c-2.8-14.2-1.3-29.5,0.4-44c1-8.1,0.1-14.2-4.6-20.6
	c-32.1-43.7-101.4-46-136.4-4.5c-7.3,8.6-11,17.3-7.5,28.9c2.1,7,2.4,14.6,2.6,22C185.7,183.5,178.6,201.4,161.7,217.2L161.7,217.2z
	 M56,365.1c8.8-34.4,17.5-69,26.4-103.6c2-7.6-2.3-11.4-8.1-14.7c-13.4-7.6-26.7-15.6-40.2-23.1c-2.8-1.6-6.4-1.8-11.9-3.2v20.1
	c0,29.7,0,59.3,0,89c0,29.2,0,29.2,28.9,36.4C51.7,366.1,52.3,365.8,56,365.1z M345.5,55.1c-13.6,16.4-27.6,12.9-42,4.1
	c-3.2-1.8-6.7-3.1-10.4-3.8c-10.1-2.2-16.4-7.1-17.4-18.4c-1.1-12-10.5-11.7-19.5-11.6s-17.9-0.4-19,12.1
	c-0.8,9.9-6.4,15.4-16.1,17.4c-4.8,1.2-9.4,2.9-13.8,5.1c-23.5,11.6-15.8,10.3-38.3-2c-1-0.5-2.4-0.3-4.4-0.5
	c-3.6,3.4-7.8,7.1-11.7,11c-11.9,12.1-11.6,23.4,1.4,34.3c3.6,3,8.1,4.8,12.9,7.6c22.7-30.2,51.6-46.9,89-47.2
	c38.1-0.3,66.8,18.1,89.6,47c5.4-3.4,9.4-5.3,12.7-8c13.4-11.4,13.6-21.3,1.1-33.9C355.8,64.4,351.6,60.8,345.5,55.1z M73.8,372
	l12.2,6c2-4.9,4-8.6,5.1-12.6c7.7-26.5,15.3-53.1,22.7-79.8c4-14.3,3.7-14.4-13.3-19.9C91.6,300.9,82.8,336,73.8,372z M217.9,431.9
	c-8.6-0.6-24.2,13.8-24.4,20c-0.1,4.9,6.5,9.5,10.4,6.4c6.1-5,11.6-10.8,16.2-17.2C221.5,439.3,218.6,434.5,217.9,431.9L217.9,431.9
	z M174.8,433.9c7.2,0,22.9-13.3,22.6-18.9c-0.2-3-4.6-5.7-7-8.5c-6.6,6.7-13.5,13.3-19.6,20.4C170,427.5,173.6,431.9,174.8,433.9
	L174.8,433.9z M246.2,459.7c-2.3-1.1-7.4-4.9-8.5-4c-6.8,5.9-13,12.4-18.6,19.3c-0.4,0.5,3.3,6.5,5.7,7
	C231,483.3,246.2,468.4,246.2,459.7L246.2,459.7z M172.3,386.6c-2.5-0.8-7.4-3.8-9.2-2.5c-6.4,4.6-12.2,9.9-17.2,16
	c-3.1,3.9,1.4,10.6,6.2,10.5C158.4,410.5,173,395,172.3,386.6L172.3,386.6z M271.6,484.7c-3.7-3.1-6.6-7.1-8.5-6.7
	c-2.7,0.6-6.2,4.3-6.6,7c-0.3,1.9,4,6,6.5,6.2C265.4,491.3,268,487.6,271.6,484.7L271.6,484.7z"/>
</svg>
