<?xml version="1.0" encoding="utf-8"?>
<!-- Generator: Adobe Illustrator 24.1.0, SVG Export Plug-In . SVG Version: 6.00 Build 0)  -->
<svg version="1.1" id="Layer_1" xmlns="http://www.w3.org/2000/svg" xmlns:xlink="http://www.w3.org/1999/xlink" x="0px" y="0px"
	 viewBox="0 0 30.762 30" enable-background="new 0 0 30.762 30" xml:space="preserve">
<g>
	<defs>
		<polygon id="SVGID_18_" points="389.3,-526.167 491.3,31.167 786.634,54.5 927.3,-298.167 769.967,-667.5 		"/>
	</defs>
	<clipPath id="SVGID_1_">
		<use xlink:href="#SVGID_18_"  overflow="visible"/>
	</clipPath>
	<g clip-path="url(#SVGID_1_)">
		<polyline fill="none" stroke="#D1AB59" stroke-width="0.75" stroke-miterlimit="10" points="948.628,-1190.23 931.063,-1155.104 
			853.805,-1116.478 853.702,-1116.424 815.02,-1039.062 737.76,-1000.434 737.657,-1000.378 698.977,-923.019 621.717,-884.39 
			621.616,-884.336 582.934,-806.977 505.678,-768.343 505.575,-768.292 466.889,-690.933 389.631,-652.302 389.53,-652.251 
			350.848,-574.887 273.422,-536.361 273.319,-536.308 234.637,-458.946 157.379,-420.317 157.276,-420.262 118.596,-342.902 
			41.335,-304.273 41.233,-304.22 2.551,-226.86 -74.705,-188.227 -74.808,-188.176 -113.492,-110.816 -190.749,-72.186 
			-190.851,-72.135 -229.535,5.229 -264.658,22.789 		"/>
		<polyline fill="none" stroke="#D1AB59" stroke-width="0.75" stroke-miterlimit="10" points="958.83,-1181.98 941.266,-1146.854 
			864.007,-1108.228 863.904,-1108.174 825.222,-1030.812 747.963,-992.184 747.86,-992.128 709.18,-914.769 631.92,-876.14 
			631.818,-876.086 593.136,-798.727 515.88,-760.093 515.777,-760.042 477.092,-682.683 399.835,-644.052 399.733,-644.001 
			361.05,-566.637 283.626,-528.111 283.522,-528.058 244.84,-450.696 167.582,-412.067 167.478,-412.012 128.798,-334.652 
			51.538,-296.023 51.436,-295.97 12.754,-218.61 -64.501,-179.977 -64.605,-179.926 -103.289,-102.566 -180.547,-63.936 
			-180.649,-63.885 -219.331,13.479 -254.455,31.039 		"/>
		<polyline fill="none" stroke="#D1AB59" stroke-width="0.75" stroke-miterlimit="10" points="969.032,-1173.23 951.468,-1138.104 
			874.21,-1099.478 874.106,-1099.424 835.424,-1022.062 758.166,-983.434 758.062,-983.378 719.382,-906.019 642.122,-867.39 
			642.02,-867.336 603.338,-789.977 526.083,-751.343 525.979,-751.292 487.295,-673.933 410.037,-635.302 409.935,-635.251 
			371.253,-557.887 293.828,-519.361 293.724,-519.308 255.043,-441.946 177.784,-403.317 177.68,-403.262 139.001,-325.902 
			61.74,-287.273 61.638,-287.22 22.957,-209.86 -54.299,-171.227 -54.403,-171.176 -93.087,-93.816 -170.345,-55.186 
			-170.447,-55.135 -209.129,22.229 -244.252,39.789 		"/>
		<polyline fill="none" stroke="#D1AB59" stroke-width="0.75" stroke-miterlimit="10" points="979.235,-1164.98 961.67,-1129.854 
			884.413,-1091.228 884.309,-1091.174 845.628,-1013.812 768.368,-975.184 768.264,-975.128 729.585,-897.769 652.325,-859.14 
			652.223,-859.086 613.542,-781.727 536.286,-743.093 536.182,-743.042 497.497,-665.683 420.239,-627.052 420.137,-627.001 
			381.456,-549.637 304.03,-511.111 303.926,-511.058 265.245,-433.696 187.987,-395.067 187.883,-395.012 149.204,-317.652 
			71.942,-279.023 71.84,-278.97 33.159,-201.61 -44.097,-162.977 -44.201,-162.926 -82.884,-85.566 -160.142,-46.936 
			-160.244,-46.885 -198.927,30.479 -234.05,48.039 		"/>
		<polyline fill="none" stroke="#D1AB59" stroke-width="0.75" stroke-miterlimit="10" points="928.222,-1205.23 910.659,-1170.104 
			833.4,-1131.478 833.296,-1131.424 794.615,-1054.062 717.356,-1015.434 717.253,-1015.378 678.573,-938.019 601.312,-899.39 
			601.211,-899.336 562.529,-821.977 485.273,-783.343 485.17,-783.292 446.485,-705.933 369.227,-667.302 369.126,-667.251 
			330.443,-589.887 253.018,-551.361 252.915,-551.308 214.233,-473.946 136.974,-435.317 136.871,-435.262 98.191,-357.902 
			20.93,-319.273 20.829,-319.22 -17.853,-241.86 -95.109,-203.227 -95.212,-203.176 -133.897,-125.816 -211.155,-87.186 
			-211.256,-87.135 -249.939,-9.771 -285.062,7.789 		"/>
		<polyline fill="none" stroke="#D1AB59" stroke-width="0.75" stroke-miterlimit="10" points="938.424,-1196.98 920.862,-1161.854 
			843.602,-1123.228 843.499,-1123.174 804.817,-1045.812 727.559,-1007.184 727.456,-1007.128 688.776,-929.769 611.514,-891.14 
			611.413,-891.086 572.731,-813.727 495.475,-775.093 495.372,-775.042 456.688,-697.683 379.43,-659.052 379.329,-659.001 
			340.645,-581.637 263.221,-543.111 263.118,-543.058 224.436,-465.696 147.176,-427.067 147.073,-427.012 108.393,-349.652 
			31.133,-311.023 31.032,-310.97 -7.65,-233.61 -84.906,-194.977 -85.009,-194.926 -123.695,-117.566 -200.953,-78.936 
			-201.054,-78.885 -239.736,-1.52 -274.859,16.039 		"/>
		<polyline fill="none" stroke="#D1AB59" stroke-width="0.75" stroke-miterlimit="10" points="1111.866,-1063.23 
			1094.301,-1028.104 1017.044,-989.477 1016.94,-989.424 978.258,-912.062 900.999,-873.434 900.895,-873.378 862.215,-796.019 
			784.956,-757.39 784.854,-757.336 746.172,-679.977 668.917,-641.343 668.813,-641.292 630.128,-563.933 552.87,-525.302 
			552.768,-525.251 514.087,-447.887 436.661,-409.361 436.557,-409.308 397.876,-331.946 320.618,-293.317 320.514,-293.262 
			281.835,-215.902 204.573,-177.273 204.471,-177.22 165.79,-99.86 88.534,-61.227 88.43,-61.176 49.747,16.184 -27.511,54.814 
			-27.613,54.865 -66.296,132.23 -101.419,149.789 		"/>
		<polyline fill="none" stroke="#D1AB59" stroke-width="0.75" stroke-miterlimit="10" points="1122.067,-1054.98 
			1104.505,-1019.854 1027.245,-981.227 1027.141,-981.174 988.46,-903.812 911.202,-865.184 911.098,-865.128 872.419,-787.769 
			795.157,-749.14 795.055,-749.086 756.374,-671.727 679.118,-633.093 679.014,-633.042 640.331,-555.683 563.073,-517.052 
			562.971,-517.001 524.288,-439.637 446.864,-401.111 446.76,-401.058 408.079,-323.696 330.819,-285.067 330.715,-285.012 
			292.036,-207.652 214.776,-169.023 214.674,-168.97 175.993,-91.61 98.737,-52.977 98.633,-52.926 59.948,24.434 -17.31,63.064 
			-17.412,63.115 -56.093,140.48 -91.216,158.039 		"/>
		<polyline fill="none" stroke="#D1AB59" stroke-width="0.75" stroke-miterlimit="10" points="1132.27,-1046.23 1114.707,-1011.104 
			1037.448,-972.477 1037.344,-972.424 998.663,-895.062 921.404,-856.434 921.3,-856.378 882.621,-779.019 805.36,-740.39 
			805.258,-740.336 766.577,-662.977 689.321,-624.343 689.217,-624.292 650.533,-546.933 573.275,-508.302 573.173,-508.251 
			534.491,-430.887 457.066,-392.361 456.962,-392.308 418.281,-314.946 341.022,-276.317 340.919,-276.262 302.239,-198.902 
			224.978,-160.273 224.877,-160.22 186.195,-82.86 108.939,-44.227 108.836,-44.176 70.151,33.184 -7.107,71.814 -7.208,71.865 
			-45.891,149.23 -81.014,166.789 		"/>
		<polyline fill="none" stroke="#D1AB59" stroke-width="0.75" stroke-miterlimit="10" points="1142.472,-1037.98 
			1124.909,-1002.854 1047.65,-964.227 1047.547,-964.174 1008.865,-886.812 931.606,-848.184 931.503,-848.128 892.823,-770.769 
			815.562,-732.14 815.461,-732.086 776.779,-654.727 699.523,-616.093 699.42,-616.042 660.735,-538.683 583.477,-500.052 
			583.376,-500.001 544.693,-422.637 467.268,-384.111 467.165,-384.058 428.483,-306.696 351.224,-268.067 351.121,-268.012 
			312.441,-190.652 235.18,-152.023 235.079,-151.97 196.397,-74.61 119.141,-35.977 119.038,-35.926 80.353,41.434 3.095,80.064 
			2.994,80.115 -35.689,157.48 -70.812,175.039 		"/>
		<polyline fill="none" stroke="#D1AB59" stroke-width="0.75" stroke-miterlimit="10" points="1071.055,-1095.23 
			1053.493,-1060.104 976.233,-1021.477 976.129,-1021.424 937.448,-944.062 860.19,-905.434 860.087,-905.378 821.407,-828.019 
			744.145,-789.39 744.044,-789.336 705.362,-711.977 628.106,-673.343 628.003,-673.292 589.319,-595.933 512.061,-557.302 
			511.96,-557.251 473.276,-479.887 395.852,-441.361 395.749,-441.308 357.067,-363.946 279.807,-325.317 279.704,-325.262 
			241.024,-247.902 163.764,-209.273 163.663,-209.22 124.981,-131.86 47.725,-93.227 47.622,-93.176 8.936,-15.816 -68.322,22.814 
			-68.423,22.865 -107.105,100.229 -142.228,117.789 		"/>
		<polyline fill="none" stroke="#D1AB59" stroke-width="0.75" stroke-miterlimit="10" points="1081.258,-1086.98 
			1063.695,-1051.854 986.436,-1013.227 986.333,-1013.174 947.651,-935.812 870.392,-897.184 870.289,-897.128 831.609,-819.769 
			754.348,-781.14 754.247,-781.086 715.565,-703.727 638.309,-665.093 638.206,-665.042 599.521,-587.683 522.263,-549.052 
			522.162,-549.001 483.479,-471.637 406.054,-433.111 405.951,-433.058 367.269,-355.696 290.01,-317.067 289.907,-317.012 
			251.227,-239.652 173.966,-201.023 173.865,-200.97 135.183,-123.61 57.927,-84.977 57.824,-84.926 19.139,-7.566 -58.119,31.064 
			-58.22,31.115 -96.903,108.479 -132.026,126.039 		"/>
		<polyline fill="none" stroke="#D1AB59" stroke-width="0.75" stroke-miterlimit="10" points="1091.461,-1078.23 
			1073.897,-1043.104 996.638,-1004.477 996.535,-1004.424 957.853,-927.062 880.594,-888.434 880.491,-888.378 841.811,-811.019 
			764.55,-772.39 764.449,-772.336 725.767,-694.977 648.511,-656.343 648.408,-656.292 609.723,-578.933 532.465,-540.302 
			532.364,-540.251 493.681,-462.887 416.256,-424.361 416.153,-424.308 377.471,-346.946 300.212,-308.317 300.109,-308.262 
			261.429,-230.902 184.169,-192.273 184.067,-192.22 145.385,-114.86 68.129,-76.227 68.026,-76.176 29.341,1.184 -47.916,39.814 
			-48.018,39.865 -86.701,117.229 -121.824,134.789 		"/>
		<polyline fill="none" stroke="#D1AB59" stroke-width="0.75" stroke-miterlimit="10" points="1101.663,-1069.98 1084.1,-1034.854 
			1006.84,-996.227 1006.737,-996.174 968.055,-918.812 890.797,-880.184 890.694,-880.128 852.014,-802.769 774.753,-764.14 
			774.651,-764.086 735.969,-686.727 658.713,-648.093 658.61,-648.042 619.926,-570.683 542.669,-532.052 542.567,-532.001 
			503.883,-454.637 426.46,-416.111 426.356,-416.058 387.674,-338.696 310.415,-300.067 310.311,-300.012 271.631,-222.652 
			194.372,-184.023 194.27,-183.97 155.588,-106.61 78.333,-67.977 78.229,-67.926 39.544,9.434 -37.714,48.064 -37.816,48.115 
			-76.497,125.479 -111.621,143.039 		"/>
		<polyline fill="none" stroke="#D1AB59" stroke-width="0.75" stroke-miterlimit="10" points="1030.247,-1126.23 
			1012.682,-1091.104 935.424,-1052.478 935.321,-1052.424 896.639,-975.062 819.379,-936.434 819.276,-936.378 780.596,-859.019 
			703.337,-820.39 703.235,-820.336 664.553,-742.977 587.297,-704.343 587.194,-704.292 548.508,-626.933 471.251,-588.302 
			471.149,-588.251 432.467,-510.887 355.042,-472.361 354.938,-472.308 316.256,-394.946 238.999,-356.317 238.895,-356.262 
			200.215,-278.902 122.954,-240.273 122.852,-240.22 84.17,-162.86 6.915,-124.227 6.811,-124.176 -31.872,-46.816 -109.13,-8.186 
			-109.232,-8.135 -147.915,69.229 -183.038,86.789 		"/>
		<polyline fill="none" stroke="#D1AB59" stroke-width="0.75" stroke-miterlimit="10" points="1040.449,-1117.98 
			1022.885,-1082.854 945.627,-1044.228 945.523,-1044.174 906.841,-966.812 829.583,-928.184 829.479,-928.128 790.799,-850.769 
			713.539,-812.14 713.437,-812.086 674.755,-734.727 597.5,-696.093 597.396,-696.042 558.712,-618.683 481.454,-580.052 
			481.352,-580.001 442.67,-502.637 365.245,-464.111 365.141,-464.058 326.46,-386.696 249.201,-348.067 249.097,-348.012 
			210.418,-270.652 133.157,-232.023 133.055,-231.97 94.374,-154.61 17.118,-115.977 17.014,-115.926 -21.67,-38.566 
			-98.928,0.064 -99.03,0.115 -137.712,77.479 -172.835,95.039 		"/>
		<polyline fill="none" stroke="#D1AB59" stroke-width="0.75" stroke-miterlimit="10" points="1050.651,-1109.23 
			1033.087,-1074.104 955.829,-1035.478 955.725,-1035.424 917.044,-958.062 839.785,-919.434 839.681,-919.378 801.002,-842.019 
			723.741,-803.39 723.639,-803.336 684.958,-725.977 607.702,-687.343 607.598,-687.292 568.914,-609.933 491.656,-571.302 
			491.554,-571.251 452.872,-493.887 375.447,-455.361 375.343,-455.308 336.662,-377.946 259.403,-339.317 259.299,-339.262 
			220.62,-261.902 143.359,-223.273 143.257,-223.22 104.576,-145.86 27.32,-107.227 27.216,-107.176 -11.468,-29.816 
			-88.726,8.814 -88.828,8.865 -127.51,86.229 -162.633,103.789 		"/>
		<polyline fill="none" stroke="#D1AB59" stroke-width="0.75" stroke-miterlimit="10" points="1060.854,-1100.98 1043.29,-1065.854 
			966.032,-1027.228 965.928,-1027.174 927.247,-949.812 849.987,-911.184 849.883,-911.128 811.204,-833.769 733.944,-795.14 
			733.842,-795.086 695.161,-717.727 617.905,-679.093 617.801,-679.042 579.116,-601.683 501.858,-563.052 501.756,-563.001 
			463.075,-485.637 385.649,-447.111 385.545,-447.058 346.864,-369.696 269.606,-331.067 269.503,-331.012 230.823,-253.652 
			153.561,-215.023 153.46,-214.97 114.778,-137.61 37.522,-98.977 37.419,-98.926 -1.265,-21.566 -78.523,17.064 -78.624,17.115 
			-117.308,94.479 -152.431,112.039 		"/>
		<polyline fill="none" stroke="#D1AB59" stroke-width="0.75" stroke-miterlimit="10" points="989.436,-1157.23 971.874,-1122.104 
			894.614,-1083.478 894.51,-1083.424 855.829,-1006.062 778.571,-967.434 778.467,-967.378 739.788,-890.019 662.526,-851.39 
			662.424,-851.336 623.743,-773.977 546.487,-735.343 546.383,-735.292 507.7,-657.933 430.442,-619.302 430.34,-619.251 
			391.657,-541.887 314.233,-503.361 314.129,-503.308 275.448,-425.946 198.188,-387.317 198.085,-387.262 159.405,-309.902 
			82.145,-271.273 82.044,-271.22 43.362,-193.86 -33.894,-155.227 -33.997,-155.176 -72.683,-77.816 -149.941,-39.186 
			-150.042,-39.135 -188.724,38.229 -223.847,55.789 		"/>
		<polyline fill="none" stroke="#D1AB59" stroke-width="0.75" stroke-miterlimit="10" points="999.639,-1148.98 982.076,-1113.854 
			904.817,-1075.228 904.713,-1075.174 866.032,-997.812 788.773,-959.184 788.67,-959.128 749.99,-881.769 672.729,-843.14 
			672.628,-843.086 633.946,-765.727 556.69,-727.093 556.587,-727.042 517.902,-649.683 440.644,-611.052 440.543,-611.001 
			401.86,-533.637 324.435,-495.111 324.332,-495.058 285.65,-417.696 208.391,-379.067 208.288,-379.012 169.608,-301.652 
			92.347,-263.023 92.246,-262.97 53.564,-185.61 -23.692,-146.977 -23.795,-146.926 -62.48,-69.566 -139.738,-30.936 
			-139.839,-30.885 -178.522,46.479 -213.645,64.039 		"/>
		<polyline fill="none" stroke="#D1AB59" stroke-width="0.75" stroke-miterlimit="10" points="1009.841,-1140.23 992.278,-1105.104 
			915.019,-1066.478 914.916,-1066.424 876.234,-989.062 798.975,-950.434 798.872,-950.378 760.192,-873.019 682.931,-834.39 
			682.83,-834.336 644.148,-756.977 566.892,-718.343 566.789,-718.292 528.104,-640.933 450.846,-602.302 450.745,-602.251 
			412.062,-524.887 334.637,-486.361 334.534,-486.308 295.852,-408.946 218.593,-370.317 218.49,-370.262 179.81,-292.902 
			102.549,-254.273 102.448,-254.22 63.766,-176.86 -13.49,-138.227 -13.593,-138.176 -52.278,-60.816 -129.536,-22.186 
			-129.637,-22.135 -168.32,55.229 -203.443,72.789 		"/>
		<polyline fill="none" stroke="#D1AB59" stroke-width="0.75" stroke-miterlimit="10" points="1020.044,-1131.98 
			1002.481,-1096.854 925.221,-1058.228 925.118,-1058.174 886.436,-980.812 809.178,-942.184 809.075,-942.128 770.395,-864.769 
			693.133,-826.14 693.032,-826.086 654.35,-748.727 577.094,-710.093 576.991,-710.042 538.307,-632.683 461.049,-594.052 
			460.948,-594.001 422.264,-516.637 344.84,-478.111 344.737,-478.058 306.055,-400.696 228.795,-362.067 228.692,-362.012 
			190.012,-284.652 112.753,-246.023 112.651,-245.97 73.969,-168.61 -3.287,-129.977 -3.39,-129.926 -42.076,-52.566 
			-119.333,-13.936 -119.435,-13.885 -158.117,63.479 -193.24,81.039 		"/>
		<polyline fill="none" stroke="#D1AB59" stroke-width="0.75" stroke-miterlimit="10" points="1234.294,-968.23 1216.731,-933.104 
			1139.471,-894.477 1139.368,-894.424 1100.686,-817.062 1023.428,-778.434 1023.325,-778.378 984.645,-701.019 907.383,-662.39 
			907.282,-662.336 868.6,-584.977 791.344,-546.343 791.241,-546.292 752.557,-468.933 675.299,-430.302 675.198,-430.251 
			636.514,-352.887 559.09,-314.361 558.987,-314.308 520.305,-236.946 443.045,-198.317 442.942,-198.262 404.262,-120.902 
			327.003,-82.273 326.901,-82.22 288.219,-4.86 210.963,33.773 210.86,33.824 172.174,111.184 94.917,149.814 94.815,149.865 
			56.133,227.23 21.01,244.789 		"/>
		<polyline fill="none" stroke="#D1AB59" stroke-width="0.75" stroke-miterlimit="10" points="1193.485,-999.23 1175.92,-964.104 
			1098.663,-925.477 1098.559,-925.424 1059.878,-848.062 982.618,-809.434 982.514,-809.378 943.835,-732.019 866.575,-693.39 
			866.473,-693.336 827.792,-615.977 750.536,-577.343 750.432,-577.292 711.747,-499.933 634.489,-461.302 634.387,-461.251 
			595.706,-383.887 518.28,-345.361 518.176,-345.308 479.495,-267.946 402.237,-229.317 402.133,-229.262 363.454,-151.902 
			286.192,-113.273 286.09,-113.22 247.409,-35.86 170.153,2.773 170.049,2.824 131.366,80.184 54.108,118.814 54.006,118.865 
			15.323,196.23 -19.8,213.789 		"/>
		<polyline fill="none" stroke="#D1AB59" stroke-width="0.75" stroke-miterlimit="10" points="1203.686,-990.98 1186.124,-955.854 
			1108.864,-917.227 1108.76,-917.174 1070.079,-839.812 992.821,-801.184 992.717,-801.128 954.038,-723.769 876.776,-685.14 
			876.674,-685.086 837.993,-607.727 760.737,-569.093 760.633,-569.042 721.95,-491.683 644.692,-453.052 644.59,-453.001 
			605.907,-375.637 528.483,-337.111 528.379,-337.058 489.698,-259.696 412.438,-221.067 412.335,-221.012 373.655,-143.652 
			296.395,-105.023 296.294,-104.97 257.612,-27.61 180.356,11.023 180.253,11.074 141.567,88.434 64.309,127.064 64.208,127.115 
			25.526,204.48 -9.597,222.039 		"/>
		<polyline fill="none" stroke="#D1AB59" stroke-width="0.75" stroke-miterlimit="10" points="1213.889,-982.23 1196.326,-947.104 
			1119.067,-908.477 1118.964,-908.424 1080.282,-831.062 1003.023,-792.434 1002.92,-792.378 964.24,-715.019 886.979,-676.39 
			886.878,-676.336 848.196,-598.977 770.94,-560.343 770.837,-560.292 732.152,-482.933 654.894,-444.302 654.793,-444.251 
			616.11,-366.887 538.685,-328.361 538.582,-328.308 499.9,-250.946 422.641,-212.317 422.538,-212.262 383.858,-134.902 
			306.597,-96.273 306.496,-96.22 267.814,-18.86 190.558,19.773 190.455,19.824 151.77,97.184 74.512,135.814 74.411,135.865 
			35.728,213.23 0.605,230.789 		"/>
		<polyline fill="none" stroke="#D1AB59" stroke-width="0.75" stroke-miterlimit="10" points="1224.091,-973.98 1206.528,-938.854 
			1129.269,-900.227 1129.166,-900.174 1090.484,-822.812 1013.225,-784.184 1013.122,-784.128 974.442,-706.769 897.181,-668.14 
			897.08,-668.086 858.398,-590.727 781.142,-552.093 781.039,-552.042 742.354,-474.683 665.096,-436.052 664.995,-436.001 
			626.312,-358.637 548.887,-320.111 548.784,-320.058 510.102,-242.696 432.843,-204.067 432.74,-204.012 394.06,-126.652 
			316.799,-88.023 316.698,-87.97 278.016,-10.61 200.76,28.023 200.657,28.074 161.972,105.434 84.714,144.064 84.613,144.115 
			45.93,221.48 10.807,239.039 		"/>
		<polyline fill="none" stroke="#D1AB59" stroke-width="0.75" stroke-miterlimit="10" points="1152.674,-1030.23 1135.112,-995.104 
			1057.852,-956.477 1057.749,-956.424 1019.067,-879.062 941.809,-840.434 941.706,-840.378 903.026,-763.019 825.764,-724.39 
			825.663,-724.336 786.981,-646.977 709.725,-608.343 709.622,-608.292 670.938,-530.933 593.68,-492.302 593.579,-492.251 
			554.895,-414.887 477.471,-376.361 477.368,-376.308 438.686,-298.946 361.426,-260.317 361.323,-260.262 322.643,-182.902 
			245.383,-144.273 245.282,-144.22 206.6,-66.86 129.344,-28.227 129.241,-28.176 90.555,49.184 13.297,87.814 13.196,87.865 
			-25.486,165.23 -60.609,182.789 		"/>
		<polyline fill="none" stroke="#D1AB59" stroke-width="0.75" stroke-miterlimit="10" points="1162.878,-1021.98 1145.313,-986.854 
			1068.055,-948.227 1067.952,-948.174 1029.27,-870.812 952.01,-832.184 951.907,-832.128 913.227,-754.769 835.967,-716.14 
			835.866,-716.086 797.184,-638.727 719.928,-600.093 719.825,-600.042 681.139,-522.683 603.881,-484.052 603.78,-484.001 
			565.098,-406.637 487.672,-368.111 487.569,-368.058 448.887,-290.696 371.629,-252.067 371.526,-252.012 332.846,-174.652 
			255.585,-136.023 255.483,-135.97 216.801,-58.61 139.545,-19.977 139.442,-19.926 100.758,57.434 23.501,96.064 23.399,96.115 
			-15.285,173.48 -50.408,191.039 		"/>
		<polyline fill="none" stroke="#D1AB59" stroke-width="0.75" stroke-miterlimit="10" points="1173.08,-1013.23 1155.516,-978.104 
			1078.257,-939.477 1078.154,-939.424 1039.472,-862.062 962.213,-823.434 962.11,-823.378 923.43,-746.019 846.17,-707.39 
			846.068,-707.336 807.386,-629.977 730.13,-591.343 730.027,-591.292 691.342,-513.933 614.085,-475.302 613.983,-475.251 
			575.3,-397.887 497.876,-359.361 497.772,-359.308 459.09,-281.946 381.832,-243.317 381.728,-243.262 343.048,-165.902 
			265.788,-127.273 265.686,-127.22 227.004,-49.86 149.749,-11.227 149.645,-11.176 110.961,66.184 33.703,104.814 33.601,104.865 
			-5.081,182.23 -40.205,199.789 		"/>
		<polyline fill="none" stroke="#D1AB59" stroke-width="0.75" stroke-miterlimit="10" points="1183.282,-1004.98 1165.718,-969.854 
			1088.46,-931.227 1088.356,-931.174 1049.674,-853.812 972.416,-815.184 972.312,-815.128 933.632,-737.769 856.372,-699.14 
			856.27,-699.086 817.588,-621.727 740.333,-583.093 740.229,-583.042 701.545,-505.683 624.287,-467.052 624.185,-467.001 
			585.503,-389.637 508.078,-351.111 507.974,-351.058 469.293,-273.696 392.034,-235.067 391.93,-235.012 353.251,-157.652 
			275.99,-119.023 275.888,-118.97 237.207,-41.61 159.951,-2.977 159.847,-2.926 121.163,74.434 43.905,113.064 43.803,113.115 
			5.121,190.48 -30.002,208.039 		"/>
	</g>
</g>
<g>
	<g>
		<g>
			<path d="M10.4,0.795c-1.333,0-2.418,1.085-2.418,2.418c0,1.333,1.085,2.418,2.418,2.418c1.333,0,2.418-1.085,2.418-2.418
				C12.818,1.88,11.733,0.795,10.4,0.795z M10.4,4.506c-0.713,0-1.293-0.58-1.293-1.293s0.58-1.292,1.293-1.292
				s1.293,0.58,1.293,1.292S11.113,4.506,10.4,4.506z"/>
		</g>
	</g>
	<g>
		<g>
			<path d="M21.365,0.795c-1.333,0-2.418,1.085-2.418,2.418c0,1.333,1.085,2.418,2.418,2.418c1.333,0,2.418-1.085,2.418-2.418
				C23.784,1.88,22.699,0.795,21.365,0.795z M21.365,4.506c-0.713,0-1.293-0.58-1.293-1.293s0.58-1.292,1.293-1.292
				c0.713,0,1.293,0.58,1.293,1.292S22.078,4.506,21.365,4.506z"/>
		</g>
	</g>
	<g>
		<g>
			<path d="M29.345,28.079H26.46l-0.026-12.057c-0.001-0.31-0.253-0.562-0.563-0.562c0,0-0.001,0-0.001,0
				c-0.311,0.001-0.562,0.253-0.562,0.564l0.026,12.055H21.84l-0.026-13.173c0-0.034-0.004-0.067-0.009-0.099V14.17
				c0-0.558-0.084-1.105-0.25-1.631c0.596-0.329,1.266-0.503,1.962-0.504c0.003,0,0.006,0,0.009,0c1.064,0,2.064,0.4,2.817,1.127
				c0.75,0.724,1.164,1.687,1.167,2.712l0.009,2.514c0.001,0.31,0.253,0.561,0.563,0.561c0.001,0,0.001,0,0.002,0
				c0.311-0.001,0.562-0.254,0.561-0.565l-0.009-2.513c-0.003-1.331-0.539-2.581-1.51-3.519c-0.527-0.509-1.148-0.891-1.824-1.135
				c0.487-0.504,0.755-1.166,0.754-1.868c-0.003-1.476-1.205-2.675-2.68-2.675c-0.002,0-0.004,0-0.006,0
				c-1.478,0.003-2.678,1.208-2.675,2.686c0.002,0.716,0.282,1.389,0.789,1.894c0.017,0.017,0.034,0.032,0.051,0.048
				c-0.145,0.06-0.287,0.127-0.427,0.2c-0.687-1.228-1.808-2.141-3.135-2.588c0.568-0.54,0.923-1.302,0.923-2.146
				c0-1.635-1.33-2.964-2.964-2.964c-1.635,0-2.964,1.33-2.964,2.964c0,0.887,0.392,1.684,1.012,2.227
				c-1.223,0.47-2.255,1.342-2.903,2.492c-0.197-0.102-0.4-0.191-0.608-0.266c0.47-0.483,0.76-1.142,0.76-1.867
				c0-1.478-1.202-2.68-2.68-2.68s-2.68,1.202-2.68,2.68c0,0.765,0.322,1.455,0.837,1.944c-1.837,0.754-3.129,2.525-3.129,4.583
				v2.514c0,0.311,0.252,0.563,0.563,0.563s0.563-0.252,0.563-0.563v-2.514c0-2.121,1.787-3.847,3.984-3.847
				c0.686,0,1.349,0.168,1.94,0.487c-0.17,0.532-0.256,1.084-0.256,1.648v4.396v0.386v9.126H6.971V16.028
				c0-0.311-0.252-0.563-0.563-0.563c-0.311,0-0.563,0.252-0.563,0.563v12.051H1.652c-0.311,0-0.563,0.252-0.563,0.563
				s0.252,0.563,0.563,0.563h4.757h22.936c0.311,0,0.563-0.252,0.563-0.563S29.655,28.079,29.345,28.079z M23.369,7.8
				c0.001,0,0.002,0,0.003,0c0.856,0,1.553,0.695,1.555,1.551c0.001,0.415-0.16,0.806-0.453,1.1
				c-0.293,0.294-0.683,0.457-1.098,0.458c-0.001,0-0.002,0-0.003,0c-0.414,0-0.803-0.161-1.097-0.453
				c-0.294-0.293-0.457-0.683-0.458-1.098C21.816,8.501,22.512,7.802,23.369,7.8z M8.545,10.909c-0.857,0-1.555-0.697-1.555-1.555
				c0-0.857,0.697-1.555,1.555-1.555c0.857,0,1.555,0.697,1.555,1.555C10.099,10.211,9.402,10.909,8.545,10.909z M15.929,4.929
				c1.014,0,1.839,0.825,1.839,1.839s-0.825,1.839-1.839,1.839s-1.839-0.825-1.839-1.839S14.915,4.929,15.929,4.929z M12.944,28.079
				h-1.453v-6.931c0.412,0.302,0.911,0.496,1.453,0.54V28.079z M18.747,13.774c-0.311,0-0.563,0.252-0.563,0.563v13.742h-1.619
				v-6.796c0-0.311-0.252-0.563-0.563-0.563c-0.311,0-0.563,0.252-0.563,0.563v6.796H14.07V14.336c0-0.311-0.252-0.563-0.563-0.563
				s-0.563,0.252-0.563,0.563v6.22c-0.82-0.11-1.453-0.788-1.453-1.604v-0.386V14.17c0-0.576,0.113-1.137,0.335-1.667
				c0-0.001,0.001-0.002,0.001-0.003c0.708-1.681,2.378-2.768,4.257-2.768c1.888,0,3.562,1.094,4.265,2.786
				c0.218,0.525,0.329,1.081,0.329,1.652v4.782c0,0.789-0.59,1.447-1.369,1.591v-6.207C19.31,14.026,19.058,13.774,18.747,13.774z
				 M19.31,28.079V21.68c0.519-0.057,0.996-0.253,1.391-0.549l0.014,6.948L19.31,28.079L19.31,28.079z"/>
		</g>
	</g>
	<g>
		<g>
			<circle cx="28.08" cy="20.599" r="0.563"/>
		</g>
	</g>
	<g>
		<g>
			<circle cx="4.135" cy="20.599" r="0.563"/>
		</g>
	</g>
</g>
</svg>
