<?xml version="1.0" encoding="utf-8"?>
<!-- Generator: Adobe Illustrator 24.1.0, SVG Export Plug-In . SVG Version: 6.00 Build 0)  -->
<svg version="1.1" id="Layer_1" xmlns="http://www.w3.org/2000/svg" xmlns:xlink="http://www.w3.org/1999/xlink" x="0px" y="0px"
	 viewBox="0 0 30.269 30" enable-background="new 0 0 30.269 30" xml:space="preserve">
<g>
	<defs>
		<polygon id="SVGID_18_" points="549.308,-526.167 651.308,31.167 946.641,54.5 1087.308,-298.167 929.975,-667.5 		"/>
	</defs>
	<clipPath id="SVGID_1_">
		<use xlink:href="#SVGID_18_"  overflow="visible"/>
	</clipPath>
	<g clip-path="url(#SVGID_1_)">
		<polyline fill="none" stroke="#D1AB59" stroke-width="0.75" stroke-miterlimit="10" points="1108.635,-1190.23 
			1091.071,-1155.104 1013.813,-1116.478 1013.709,-1116.424 975.028,-1039.062 897.768,-1000.434 897.665,-1000.378 
			858.985,-923.019 781.725,-884.39 781.624,-884.336 742.942,-806.977 665.686,-768.343 665.582,-768.292 626.897,-690.933 
			549.639,-652.302 549.538,-652.251 510.856,-574.887 433.43,-536.361 433.327,-536.308 394.645,-458.946 317.387,-420.317 
			317.284,-420.262 278.604,-342.902 201.342,-304.273 201.241,-304.22 162.559,-226.86 85.303,-188.227 85.2,-188.176 
			46.516,-110.816 -30.742,-72.186 -30.843,-72.135 -69.527,5.229 -104.65,22.789 		"/>
		<polyline fill="none" stroke="#D1AB59" stroke-width="0.75" stroke-miterlimit="10" points="1118.837,-1181.98 
			1101.274,-1146.854 1024.015,-1108.228 1023.911,-1108.174 985.23,-1030.812 907.971,-992.184 907.868,-992.128 869.188,-914.769 
			791.927,-876.14 791.826,-876.086 753.144,-798.727 675.888,-760.093 675.785,-760.042 637.1,-682.683 559.842,-644.052 
			559.741,-644.001 521.058,-566.637 443.633,-528.111 443.53,-528.058 404.848,-450.696 327.589,-412.067 327.486,-412.012 
			288.806,-334.652 211.545,-296.023 211.444,-295.97 172.762,-218.61 95.506,-179.977 95.403,-179.926 56.718,-102.566 
			-20.54,-63.936 -20.641,-63.885 -59.324,13.479 -94.447,31.039 		"/>
		<polyline fill="none" stroke="#D1AB59" stroke-width="0.75" stroke-miterlimit="10" points="1129.04,-1173.23 1111.476,-1138.104 
			1034.217,-1099.478 1034.114,-1099.424 995.432,-1022.062 918.173,-983.434 918.07,-983.378 879.39,-906.019 802.129,-867.39 
			802.028,-867.336 763.346,-789.977 686.09,-751.343 685.987,-751.292 647.302,-673.933 570.044,-635.302 569.943,-635.251 
			531.26,-557.887 453.835,-519.361 453.732,-519.308 415.05,-441.946 337.791,-403.317 337.688,-403.262 299.008,-325.902 
			221.748,-287.273 221.646,-287.22 182.964,-209.86 105.708,-171.227 105.605,-171.176 66.92,-93.816 -10.337,-55.186 
			-10.439,-55.135 -49.122,22.229 -84.245,39.789 		"/>
		<polyline fill="none" stroke="#D1AB59" stroke-width="0.75" stroke-miterlimit="10" points="1139.243,-1164.98 
			1121.678,-1129.854 1044.42,-1091.228 1044.317,-1091.174 1005.635,-1013.812 928.375,-975.184 928.272,-975.128 
			889.592,-897.769 812.332,-859.14 812.231,-859.086 773.549,-781.727 696.293,-743.093 696.19,-743.042 657.504,-665.683 
			580.247,-627.052 580.145,-627.001 541.463,-549.637 464.038,-511.111 463.934,-511.058 425.252,-433.696 347.995,-395.067 
			347.891,-395.012 309.211,-317.652 231.95,-279.023 231.848,-278.97 193.166,-201.61 115.911,-162.977 115.807,-162.926 
			77.124,-85.566 -0.134,-46.936 -0.236,-46.885 -38.919,30.479 -74.043,48.039 		"/>
		<polyline fill="none" stroke="#D1AB59" stroke-width="0.75" stroke-miterlimit="10" points="1088.23,-1205.23 1070.666,-1170.104 
			993.408,-1131.478 993.304,-1131.424 954.622,-1054.062 877.364,-1015.434 877.26,-1015.378 838.581,-938.019 761.32,-899.39 
			761.218,-899.336 722.536,-821.977 645.281,-783.343 645.177,-783.292 606.493,-705.933 529.235,-667.302 529.133,-667.251 
			490.451,-589.887 413.026,-551.361 412.922,-551.308 374.241,-473.946 296.982,-435.317 296.878,-435.262 258.199,-357.902 
			180.938,-319.273 180.836,-319.22 142.155,-241.86 64.899,-203.227 64.795,-203.176 26.111,-125.816 -51.147,-87.186 
			-51.249,-87.135 -89.931,-9.771 -125.054,7.789 		"/>
		<polyline fill="none" stroke="#D1AB59" stroke-width="0.75" stroke-miterlimit="10" points="1098.432,-1196.98 1080.87,-1161.854 
			1003.61,-1123.228 1003.506,-1123.174 964.825,-1045.812 887.567,-1007.184 887.463,-1007.128 848.784,-929.769 771.522,-891.14 
			771.42,-891.086 732.739,-813.727 655.483,-775.093 655.379,-775.042 616.696,-697.683 539.438,-659.052 539.336,-659.001 
			500.653,-581.637 423.229,-543.111 423.125,-543.058 384.444,-465.696 307.184,-427.067 307.081,-427.012 268.401,-349.652 
			191.141,-311.023 191.04,-310.97 152.358,-233.61 75.102,-194.977 74.999,-194.926 36.313,-117.566 -40.945,-78.936 
			-41.046,-78.885 -79.728,-1.52 -114.851,16.039 		"/>
		<polyline fill="none" stroke="#D1AB59" stroke-width="0.75" stroke-miterlimit="10" points="1231.063,-1095.23 1213.5,-1060.104 
			1136.241,-1021.477 1136.137,-1021.424 1097.456,-944.062 1020.198,-905.434 1020.094,-905.378 981.415,-828.019 904.153,-789.39 
			904.051,-789.336 865.37,-711.977 788.114,-673.343 788.01,-673.292 749.327,-595.933 672.069,-557.302 671.967,-557.251 
			633.284,-479.887 555.86,-441.361 555.756,-441.308 517.075,-363.946 439.815,-325.317 439.711,-325.262 401.032,-247.902 
			323.772,-209.273 323.67,-209.22 284.989,-131.86 207.733,-93.227 207.629,-93.176 168.944,-15.816 91.686,22.814 91.584,22.865 
			52.903,100.229 17.78,117.789 		"/>
		<polyline fill="none" stroke="#D1AB59" stroke-width="0.75" stroke-miterlimit="10" points="1241.266,-1086.98 
			1223.703,-1051.854 1146.444,-1013.227 1146.34,-1013.174 1107.659,-935.812 1030.4,-897.184 1030.296,-897.128 991.617,-819.769 
			914.356,-781.14 914.254,-781.086 875.573,-703.727 798.317,-665.093 798.213,-665.042 759.529,-587.683 682.271,-549.052 
			682.169,-549.001 643.487,-471.637 566.062,-433.111 565.958,-433.058 527.277,-355.696 450.018,-317.067 449.915,-317.012 
			411.235,-239.652 333.974,-201.023 333.873,-200.97 295.191,-123.61 217.935,-84.977 217.832,-84.926 179.147,-7.566 
			101.889,31.064 101.788,31.115 63.105,108.479 27.982,126.039 		"/>
		<polyline fill="none" stroke="#D1AB59" stroke-width="0.75" stroke-miterlimit="10" points="1190.254,-1126.23 1172.69,-1091.104 
			1095.432,-1052.478 1095.328,-1052.424 1056.647,-975.062 979.387,-936.434 979.284,-936.378 940.604,-859.019 863.344,-820.39 
			863.243,-820.336 824.561,-742.977 747.305,-704.343 747.202,-704.292 708.516,-626.933 631.258,-588.302 631.157,-588.251 
			592.475,-510.887 515.049,-472.361 514.946,-472.308 476.264,-394.946 399.006,-356.317 398.903,-356.262 360.223,-278.902 
			282.961,-240.273 282.86,-240.22 244.178,-162.86 166.922,-124.227 166.819,-124.176 128.135,-46.816 50.877,-8.186 
			50.776,-8.135 12.092,69.229 -23.031,86.789 		"/>
		<polyline fill="none" stroke="#D1AB59" stroke-width="0.75" stroke-miterlimit="10" points="1200.457,-1117.98 
			1182.893,-1082.854 1105.634,-1044.228 1105.531,-1044.174 1066.849,-966.812 989.59,-928.184 989.487,-928.128 950.807,-850.769 
			873.546,-812.14 873.445,-812.086 834.763,-734.727 757.507,-696.093 757.404,-696.042 718.719,-618.683 641.461,-580.052 
			641.36,-580.001 602.677,-502.637 525.252,-464.111 525.149,-464.058 486.467,-386.696 409.208,-348.067 409.105,-348.012 
			370.425,-270.652 293.165,-232.023 293.063,-231.97 254.381,-154.61 177.125,-115.977 177.022,-115.926 138.337,-38.566 
			61.08,0.064 60.978,0.115 22.295,77.479 -12.828,95.039 		"/>
		<polyline fill="none" stroke="#D1AB59" stroke-width="0.75" stroke-miterlimit="10" points="1210.659,-1109.23 
			1193.095,-1074.104 1115.836,-1035.478 1115.733,-1035.424 1077.051,-958.062 999.792,-919.434 999.689,-919.378 
			961.009,-842.019 883.749,-803.39 883.647,-803.336 844.965,-725.977 767.709,-687.343 767.606,-687.292 728.921,-609.933 
			651.664,-571.302 651.562,-571.251 612.879,-493.887 535.455,-455.361 535.351,-455.308 496.669,-377.946 419.411,-339.317 
			419.307,-339.262 380.627,-261.902 303.367,-223.273 303.265,-223.22 264.583,-145.86 187.328,-107.227 187.224,-107.176 
			148.54,-29.816 71.282,8.814 71.18,8.865 32.497,86.229 -2.626,103.789 		"/>
		<polyline fill="none" stroke="#D1AB59" stroke-width="0.75" stroke-miterlimit="10" points="1220.862,-1100.98 
			1203.297,-1065.854 1126.04,-1027.228 1125.936,-1027.174 1087.254,-949.812 1009.995,-911.184 1009.891,-911.128 
			971.211,-833.769 893.952,-795.14 893.85,-795.086 855.168,-717.727 777.913,-679.093 777.809,-679.042 739.124,-601.683 
			661.866,-563.052 661.764,-563.001 623.082,-485.637 545.657,-447.111 545.553,-447.058 506.872,-369.696 429.614,-331.067 
			429.51,-331.012 390.831,-253.652 313.569,-215.023 313.467,-214.97 274.786,-137.61 197.53,-98.977 197.426,-98.926 
			158.743,-21.566 81.485,17.064 81.383,17.115 42.7,94.479 7.577,112.039 		"/>
		<polyline fill="none" stroke="#D1AB59" stroke-width="0.75" stroke-miterlimit="10" points="1149.444,-1157.23 
			1131.881,-1122.104 1054.622,-1083.478 1054.518,-1083.424 1015.836,-1006.062 938.579,-967.434 938.475,-967.378 
			899.795,-890.019 822.534,-851.39 822.432,-851.336 783.75,-773.977 706.495,-735.343 706.391,-735.292 667.707,-657.933 
			590.45,-619.302 590.348,-619.251 551.665,-541.887 474.241,-503.361 474.137,-503.308 435.456,-425.946 358.196,-387.317 
			358.092,-387.262 319.413,-309.902 242.153,-271.273 242.051,-271.22 203.37,-193.86 126.114,-155.227 126.01,-155.176 
			87.325,-77.816 10.067,-39.186 9.965,-39.135 -28.716,38.229 -63.839,55.789 		"/>
		<polyline fill="none" stroke="#D1AB59" stroke-width="0.75" stroke-miterlimit="10" points="1159.647,-1148.98 
			1142.083,-1113.854 1064.825,-1075.228 1064.721,-1075.174 1026.04,-997.812 948.781,-959.184 948.677,-959.128 909.997,-881.769 
			832.737,-843.14 832.635,-843.086 793.954,-765.727 716.698,-727.093 716.594,-727.042 677.91,-649.683 600.652,-611.052 
			600.55,-611.001 561.868,-533.637 484.443,-495.111 484.339,-495.058 445.658,-417.696 368.399,-379.067 368.295,-379.012 
			329.616,-301.652 252.355,-263.023 252.253,-262.97 213.572,-185.61 136.316,-146.977 136.212,-146.926 97.528,-69.566 
			20.27,-30.936 20.168,-30.885 -18.514,46.479 -53.637,64.039 		"/>
		<polyline fill="none" stroke="#D1AB59" stroke-width="0.75" stroke-miterlimit="10" points="1169.849,-1140.23 
			1152.286,-1105.104 1075.027,-1066.478 1074.923,-1066.424 1036.242,-989.062 958.983,-950.434 958.879,-950.378 920.2,-873.019 
			842.939,-834.39 842.837,-834.336 804.156,-756.977 726.9,-718.343 726.796,-718.292 688.112,-640.933 610.854,-602.302 
			610.752,-602.251 572.07,-524.887 494.645,-486.361 494.541,-486.308 455.86,-408.946 378.601,-370.317 378.498,-370.262 
			339.818,-292.902 262.557,-254.273 262.456,-254.22 223.774,-176.86 146.518,-138.227 146.415,-138.176 107.73,-60.816 
			30.472,-22.186 30.37,-22.135 -8.312,55.229 -43.435,72.789 		"/>
		<polyline fill="none" stroke="#D1AB59" stroke-width="0.75" stroke-miterlimit="10" points="1180.051,-1131.98 
			1162.489,-1096.854 1085.229,-1058.228 1085.125,-1058.174 1046.444,-980.812 969.186,-942.184 969.082,-942.128 
			930.403,-864.769 853.141,-826.14 853.04,-826.086 814.358,-748.727 737.102,-710.093 736.999,-710.042 698.315,-632.683 
			621.057,-594.052 620.956,-594.001 582.272,-516.637 504.848,-478.111 504.745,-478.058 466.063,-400.696 388.803,-362.067 
			388.7,-362.012 350.02,-284.652 272.76,-246.023 272.659,-245.97 233.977,-168.61 156.721,-129.977 156.618,-129.926 
			117.932,-52.566 40.674,-13.936 40.573,-13.885 1.891,63.479 -33.232,81.039 		"/>
	</g>
</g>
<g id="Share">
	<path d="M16.76,6.474h-0.012c0.309-0.401,0.477-0.893,0.479-1.4V3.588c0.557-0.197,0.931-0.723,0.933-1.314V1.341
		c0-0.258-0.209-0.467-0.467-0.467H13.96c-0.773,0-1.4,0.627-1.4,1.4v2.8c0.002,0.506,0.17,0.998,0.479,1.4h-0.012
		c-1.288,0.002-2.331,1.045-2.333,2.333v5.599c0,0.258,0.209,0.467,0.467,0.467h7.466c0.258,0,0.467-0.209,0.467-0.467V8.807
		C19.091,7.519,18.048,6.475,16.76,6.474z M13.493,2.274c0-0.258,0.209-0.467,0.467-0.467h3.266v0.467
		c0,0.258-0.209,0.467-0.467,0.467h-3.266V2.274z M13.493,5.074v-1.4h2.8v1.4c0,0.773-0.627,1.4-1.4,1.4S13.493,5.847,13.493,5.074z
		 M18.159,13.939h-0.933V8.807h-0.933v5.133h-2.8V8.807H12.56v5.133h-0.933V8.807c0-0.773,0.627-1.4,1.4-1.4h3.733
		c0.773,0,1.4,0.627,1.4,1.4V13.939z"/>
	<path d="M6.961,20.472H6.949c0.309-0.401,0.477-0.893,0.479-1.4v-1.486c0.557-0.197,0.931-0.723,0.933-1.314v-0.933
		c0-0.258-0.209-0.467-0.467-0.467H4.161c-0.773,0-1.4,0.627-1.4,1.4v2.8c0.002,0.506,0.17,0.998,0.479,1.4H3.228
		c-1.288,0.002-2.331,1.045-2.333,2.333v5.599c0,0.258,0.209,0.467,0.467,0.467h7.466c0.258,0,0.467-0.209,0.467-0.467v-5.599
		C9.293,21.517,8.249,20.473,6.961,20.472z M3.695,16.272c0-0.258,0.209-0.467,0.467-0.467h3.266v0.467
		c0,0.258-0.209,0.467-0.467,0.467H3.695V16.272z M3.695,19.072v-1.4h2.8v1.4c0,0.773-0.627,1.4-1.4,1.4S3.695,19.845,3.695,19.072z
		 M8.361,27.937H7.428v-5.133H6.494v5.133h-2.8v-5.133H2.762v5.133H1.828v-5.133c0-0.773,0.627-1.4,1.4-1.4h3.733
		c0.773,0,1.4,0.627,1.4,1.4V27.937z"/>
	<path d="M26.558,20.472h-0.012c0.309-0.401,0.477-0.893,0.479-1.4v-1.486c0.557-0.197,0.931-0.723,0.933-1.314v-0.933
		c0-0.258-0.209-0.467-0.467-0.467h-3.733c-0.773,0-1.4,0.627-1.4,1.4v2.8c0.002,0.506,0.17,0.998,0.479,1.4h-0.012
		c-1.288,0.002-2.331,1.045-2.333,2.333v5.599c0,0.258,0.209,0.467,0.467,0.467h7.466c0.258,0,0.467-0.209,0.467-0.467v-5.599
		C28.89,21.517,27.846,20.473,26.558,20.472z M23.292,16.272c0-0.258,0.209-0.467,0.467-0.467h3.266v0.467
		c0,0.258-0.209,0.467-0.467,0.467h-3.266V16.272z M23.292,19.072v-1.4h2.8v1.4c0,0.773-0.627,1.4-1.4,1.4
		C23.919,20.472,23.292,19.845,23.292,19.072z M27.958,27.937h-0.933v-5.133h-0.933v5.133h-2.8v-5.133h-0.933v5.133h-0.933v-5.133
		c0-0.773,0.627-1.4,1.4-1.4h3.733c0.773,0,1.4,0.627,1.4,1.4V27.937z"/>
	<path d="M6.028,4.141h5.133V3.207H5.561c-0.258,0-0.467,0.209-0.467,0.467v9.332h0.933V4.141z"/>
	<path d="M23.759,13.006h0.933V3.674c0-0.258-0.209-0.467-0.467-0.467h-5.599v0.933h5.133V13.006z"/>
	<rect x="11.16" y="22.338" width="7.466" height="0.933"/>
</g>
</svg>
