<?xml version="1.0" encoding="utf-8"?>
<!-- Generator: Adobe Illustrator 24.1.0, SVG Export Plug-In . SVG Version: 6.00 Build 0)  -->
<svg version="1.1" id="Layer_1" xmlns="http://www.w3.org/2000/svg" xmlns:xlink="http://www.w3.org/1999/xlink" x="0px" y="0px"
	 viewBox="0 0 32.154 30" enable-background="new 0 0 32.154 30" xml:space="preserve">
<g>
	<defs>
		<polygon id="SVGID_18_" points="658.326,-526.167 760.326,31.167 1055.659,54.5 1196.326,-298.167 1038.993,-667.5 		"/>
	</defs>
	<clipPath id="SVGID_1_">
		<use xlink:href="#SVGID_18_"  overflow="visible"/>
	</clipPath>
	<g clip-path="url(#SVGID_1_)">
		<polyline fill="none" stroke="#D1AB59" stroke-width="0.75" stroke-miterlimit="10" points="1217.653,-1190.23 
			1200.089,-1155.104 1122.831,-1116.478 1122.727,-1116.424 1084.046,-1039.062 1006.786,-1000.434 1006.683,-1000.378 
			968.003,-923.019 890.743,-884.39 890.642,-884.336 851.96,-806.977 774.704,-768.343 774.6,-768.292 735.915,-690.933 
			658.657,-652.302 658.556,-652.251 619.874,-574.887 542.448,-536.361 542.345,-536.308 503.663,-458.946 426.405,-420.317 
			426.302,-420.262 387.622,-342.902 310.36,-304.273 310.259,-304.22 271.577,-226.86 194.321,-188.227 194.218,-188.176 
			155.534,-110.816 78.276,-72.186 78.175,-72.135 39.491,5.229 4.368,22.789 		"/>
		<polyline fill="none" stroke="#D1AB59" stroke-width="0.75" stroke-miterlimit="10" points="1227.855,-1181.98 
			1210.292,-1146.854 1133.033,-1108.228 1132.93,-1108.174 1094.248,-1030.812 1016.989,-992.184 1016.886,-992.128 
			978.206,-914.769 900.945,-876.14 900.844,-876.086 862.162,-798.727 784.906,-760.093 784.803,-760.042 746.118,-682.683 
			668.86,-644.052 668.759,-644.001 630.076,-566.637 552.651,-528.111 552.548,-528.058 513.866,-450.696 436.607,-412.067 
			436.504,-412.012 397.824,-334.652 320.563,-296.023 320.462,-295.97 281.78,-218.61 204.524,-179.977 204.421,-179.926 
			165.736,-102.566 88.478,-63.936 88.377,-63.885 49.694,13.479 14.571,31.039 		"/>
		<polyline fill="none" stroke="#D1AB59" stroke-width="0.75" stroke-miterlimit="10" points="1238.058,-1173.23 
			1220.494,-1138.104 1143.235,-1099.478 1143.132,-1099.424 1104.45,-1022.062 1027.191,-983.434 1027.088,-983.378 
			988.408,-906.019 911.147,-867.39 911.046,-867.336 872.364,-789.977 795.108,-751.343 795.005,-751.292 756.32,-673.933 
			679.062,-635.302 678.961,-635.251 640.278,-557.887 562.853,-519.361 562.75,-519.308 524.068,-441.946 446.809,-403.317 
			446.706,-403.262 408.026,-325.902 330.766,-287.273 330.664,-287.22 291.982,-209.86 214.726,-171.227 214.623,-171.176 
			175.938,-93.816 98.681,-55.186 98.579,-55.135 59.896,22.229 24.773,39.789 		"/>
		<polyline fill="none" stroke="#D1AB59" stroke-width="0.75" stroke-miterlimit="10" points="1197.248,-1205.23 
			1179.684,-1170.104 1102.426,-1131.478 1102.322,-1131.424 1063.641,-1054.062 986.382,-1015.434 986.278,-1015.378 
			947.599,-938.019 870.338,-899.39 870.236,-899.336 831.555,-821.977 754.299,-783.343 754.195,-783.292 715.511,-705.933 
			638.253,-667.302 638.151,-667.251 599.469,-589.887 522.044,-551.361 521.94,-551.308 483.259,-473.946 406,-435.317 
			405.896,-435.262 367.217,-357.902 289.956,-319.273 289.854,-319.22 251.173,-241.86 173.917,-203.227 173.813,-203.176 
			135.129,-125.816 57.871,-87.186 57.769,-87.135 19.087,-9.771 -16.036,7.789 		"/>
		<polyline fill="none" stroke="#D1AB59" stroke-width="0.75" stroke-miterlimit="10" points="1207.45,-1196.98 1189.888,-1161.854 
			1112.628,-1123.228 1112.524,-1123.174 1073.843,-1045.812 996.585,-1007.184 996.481,-1007.128 957.802,-929.769 880.54,-891.14 
			880.438,-891.086 841.757,-813.727 764.501,-775.093 764.397,-775.042 725.714,-697.683 648.456,-659.052 648.354,-659.001 
			609.671,-581.637 532.247,-543.111 532.143,-543.058 493.462,-465.696 416.202,-427.067 416.099,-427.012 377.419,-349.652 
			300.159,-311.023 300.058,-310.97 261.376,-233.61 184.12,-194.977 184.017,-194.926 145.331,-117.566 68.073,-78.936 
			67.972,-78.885 29.29,-1.52 -5.833,16.039 		"/>
	</g>
</g>
<g id="XMLID_1351_">
	<g id="XMLID_595_">
		<path id="XMLID_596_" d="M29.473,16.476l-8.608-4.627l10.734-5.77c0.294-0.158,0.404-0.524,0.246-0.817
			c-0.158-0.294-0.524-0.404-0.817-0.246L23.15,9.25c-0.601-2.2-1.875-4.193-3.637-5.671c-1.972-1.653-4.476-2.587-7.05-2.628
			c-3.017-0.05-5.868,1.073-8.026,3.158c-2.158,2.086-3.375,4.896-3.426,7.913c-0.047,2.752,0.879,5.835,2.416,8.046
			c0.502,0.722,0.767,1.569,0.767,2.451v5.928c0,0.333,0.27,0.603,0.603,0.603s0.603-0.27,0.603-0.603v-5.928
			c0-1.129-0.34-2.215-0.983-3.14c-1.379-1.983-2.243-4.863-2.201-7.336c0.094-5.54,4.679-9.976,10.225-9.884
			c4.559,0.074,8.543,3.282,9.612,7.681l-2.75,1.478c-0.196,0.105-0.318,0.309-0.318,0.532s0.122,0.426,0.318,0.532l3.591,1.93
			l1.096,3.946h-2.556c-0.333,0-0.603,0.27-0.603,0.603v3.125c0,1.152-0.937,2.089-2.089,2.089h-1.851
			c-1.207,0-2.189,0.982-2.189,2.189v2.184c0,0.333,0.27,0.603,0.603,0.603c0.333,0,0.603-0.27,0.603-0.603v-2.184
			c0-0.541,0.44-0.982,0.982-0.982h1.851c1.817,0,3.296-1.479,3.296-3.296v-2.522h2.746c0.189,0,0.366-0.088,0.48-0.238
			c0.114-0.15,0.152-0.345,0.101-0.527l-0.998-3.597l4.533,2.437c0.091,0.049,0.189,0.072,0.285,0.072
			c0.215,0,0.423-0.115,0.532-0.318C29.877,16.999,29.767,16.634,29.473,16.476z"/>
		<path id="XMLID_611_" d="M31.314,17.547L31.314,17.547c-0.334,0-0.604,0.27-0.604,0.603s0.27,0.603,0.604,0.603
			s0.603-0.27,0.603-0.603S31.648,17.547,31.314,17.547z"/>
		<path id="XMLID_612_" d="M28.156,10.976c-0.236-0.236-0.618-0.236-0.853,0l-1.53,1.53c-0.236,0.236-0.236,0.618,0,0.853
			c0.118,0.118,0.272,0.177,0.427,0.177s0.309-0.059,0.427-0.177l1.104-1.104l0.743,0.743c0.236,0.236,0.618,0.236,0.853,0
			l1.489-1.488c0.109,0.16,0.292,0.265,0.499,0.265c0.333,0,0.603-0.27,0.603-0.603v-1.014c0-0.333-0.27-0.603-0.603-0.603H30.3
			c-0.333,0-0.603,0.27-0.603,0.603c0,0.208,0.105,0.391,0.265,0.499l-1.062,1.062L28.156,10.976z"/>
		<path id="XMLID_613_" d="M9.861,4.246c-3.422,1.058-5.762,4.182-5.823,7.776c-0.006,0.333,0.26,0.608,0.593,0.614
			c0.003,0,0.007,0,0.01,0c0.329,0,0.598-0.263,0.603-0.593c0.052-3.07,2.05-5.74,4.973-6.643c0.318-0.098,0.497-0.436,0.398-0.755
			C10.517,4.326,10.179,4.148,9.861,4.246z"/>
		<path id="XMLID_614_" d="M12.453,3.877c-0.159,0-0.314,0.065-0.427,0.177C11.914,4.166,11.85,4.322,11.85,4.48
			c0,0.159,0.064,0.314,0.176,0.427c0.113,0.112,0.268,0.176,0.427,0.176c0.159,0,0.315-0.064,0.427-0.176
			c0.113-0.113,0.177-0.269,0.177-0.427c0-0.159-0.065-0.314-0.177-0.427C12.768,3.942,12.612,3.877,12.453,3.877z"/>
	</g>
</g>
</svg>
