<?xml version="1.0" encoding="utf-8"?>
<!-- Generator: Adobe Illustrator 24.1.0, SVG Export Plug-In . SVG Version: 6.00 Build 0)  -->
<svg version="1.1" id="Layer_1" xmlns="http://www.w3.org/2000/svg" xmlns:xlink="http://www.w3.org/1999/xlink" x="0px" y="0px"
	 viewBox="0 0 28.994 30" enable-background="new 0 0 28.994 30" xml:space="preserve">
<g>
	<defs>
		<polygon id="SVGID_18_" points="499.039,-526.167 601.039,31.167 896.372,54.5 1037.039,-298.167 879.706,-667.5 		"/>
	</defs>
	<clipPath id="SVGID_1_">
		<use xlink:href="#SVGID_18_"  overflow="visible"/>
	</clipPath>
	<g clip-path="url(#SVGID_1_)">
		<polyline fill="none" stroke="#D1AB59" stroke-width="0.75" stroke-miterlimit="10" points="1058.366,-1190.23 
			1040.802,-1155.104 963.544,-1116.478 963.44,-1116.424 924.759,-1039.062 847.499,-1000.434 847.395,-1000.378 808.716,-923.019 
			731.456,-884.39 731.354,-884.336 692.673,-806.977 615.417,-768.343 615.313,-768.292 576.628,-690.933 499.37,-652.302 
			499.268,-652.251 460.587,-574.887 383.161,-536.361 383.057,-536.308 344.376,-458.946 267.118,-420.317 267.014,-420.262 
			228.335,-342.902 151.073,-304.273 150.972,-304.22 112.29,-226.86 35.034,-188.227 34.931,-188.176 -3.753,-110.816 
			-81.011,-72.186 -81.112,-72.135 -119.796,5.229 -154.919,22.789 		"/>
		<polyline fill="none" stroke="#D1AB59" stroke-width="0.75" stroke-miterlimit="10" points="1068.568,-1181.98 
			1051.005,-1146.854 973.746,-1108.228 973.642,-1108.174 934.961,-1030.812 857.702,-992.184 857.599,-992.128 818.919,-914.769 
			741.658,-876.14 741.557,-876.086 702.875,-798.727 625.619,-760.093 625.516,-760.042 586.831,-682.683 509.573,-644.052 
			509.471,-644.001 470.789,-566.637 393.364,-528.111 393.261,-528.058 354.579,-450.696 277.32,-412.067 277.217,-412.012 
			238.537,-334.652 161.276,-296.023 161.175,-295.97 122.493,-218.61 45.237,-179.977 45.134,-179.926 6.449,-102.566 
			-70.809,-63.936 -70.91,-63.885 -109.593,13.479 -144.716,31.039 		"/>
		<polyline fill="none" stroke="#D1AB59" stroke-width="0.75" stroke-miterlimit="10" points="1078.77,-1173.23 1061.207,-1138.104 
			983.948,-1099.478 983.845,-1099.424 945.163,-1022.062 867.904,-983.434 867.801,-983.378 829.121,-906.019 751.86,-867.39 
			751.759,-867.336 713.077,-789.977 635.821,-751.343 635.718,-751.292 597.033,-673.933 519.775,-635.302 519.674,-635.251 
			480.991,-557.887 403.566,-519.361 403.463,-519.308 364.781,-441.946 287.522,-403.317 287.419,-403.262 248.739,-325.902 
			171.478,-287.273 171.377,-287.22 132.695,-209.86 55.439,-171.227 55.336,-171.176 16.651,-93.816 -60.607,-55.186 
			-60.708,-55.135 -99.391,22.229 -134.514,39.789 		"/>
		<polyline fill="none" stroke="#D1AB59" stroke-width="0.75" stroke-miterlimit="10" points="1088.974,-1164.98 
			1071.409,-1129.854 994.151,-1091.228 994.048,-1091.174 955.366,-1013.812 878.106,-975.184 878.003,-975.128 839.323,-897.769 
			762.063,-859.14 761.962,-859.086 723.28,-781.727 646.024,-743.093 645.921,-743.042 607.235,-665.683 529.977,-627.052 
			529.876,-627.001 491.194,-549.637 413.768,-511.111 413.665,-511.058 374.983,-433.696 297.725,-395.067 297.622,-395.012 
			258.942,-317.652 181.681,-279.023 181.579,-278.97 142.897,-201.61 65.642,-162.977 65.538,-162.926 26.854,-85.566 
			-50.404,-46.936 -50.505,-46.885 -89.189,30.479 -124.312,48.039 		"/>
		<polyline fill="none" stroke="#D1AB59" stroke-width="0.75" stroke-miterlimit="10" points="1037.961,-1205.23 
			1020.397,-1170.104 943.138,-1131.478 943.035,-1131.424 904.353,-1054.062 827.095,-1015.434 826.991,-1015.378 
			788.311,-938.019 711.051,-899.39 710.949,-899.336 672.267,-821.977 595.012,-783.343 594.908,-783.292 556.224,-705.933 
			478.966,-667.302 478.864,-667.251 440.182,-589.887 362.757,-551.361 362.653,-551.308 323.971,-473.946 246.713,-435.317 
			246.609,-435.262 207.93,-357.902 130.669,-319.273 130.567,-319.22 91.886,-241.86 14.63,-203.227 14.526,-203.176 
			-24.158,-125.816 -101.416,-87.186 -101.518,-87.135 -140.2,-9.771 -175.323,7.789 		"/>
		<polyline fill="none" stroke="#D1AB59" stroke-width="0.75" stroke-miterlimit="10" points="1048.163,-1196.98 1030.6,-1161.854 
			953.341,-1123.228 953.237,-1123.174 914.555,-1045.812 837.298,-1007.184 837.194,-1007.128 798.515,-929.769 721.253,-891.14 
			721.151,-891.086 682.47,-813.727 605.214,-775.093 605.11,-775.042 566.427,-697.683 489.169,-659.052 489.067,-659.001 
			450.384,-581.637 372.96,-543.111 372.856,-543.058 334.175,-465.696 256.915,-427.067 256.811,-427.012 218.132,-349.652 
			140.872,-311.023 140.77,-310.97 102.089,-233.61 24.833,-194.977 24.729,-194.926 -13.956,-117.566 -91.214,-78.936 
			-91.316,-78.885 -129.997,-1.52 -165.12,16.039 		"/>
		<polyline fill="none" stroke="#D1AB59" stroke-width="0.75" stroke-miterlimit="10" points="1221.604,-1063.23 1204.04,-1028.104 
			1126.782,-989.477 1126.679,-989.424 1087.997,-912.062 1010.737,-873.434 1010.634,-873.378 971.954,-796.019 894.694,-757.39 
			894.593,-757.336 855.911,-679.977 778.655,-641.343 778.552,-641.292 739.866,-563.933 662.608,-525.302 662.507,-525.251 
			623.825,-447.887 546.399,-409.361 546.296,-409.308 507.614,-331.946 430.356,-293.317 430.253,-293.262 391.573,-215.902 
			314.311,-177.273 314.21,-177.22 275.528,-99.86 198.272,-61.227 198.169,-61.176 159.485,16.184 82.227,54.814 82.126,54.865 
			43.442,132.23 8.319,149.789 		"/>
		<polyline fill="none" stroke="#D1AB59" stroke-width="0.75" stroke-miterlimit="10" points="1231.806,-1054.98 
			1214.243,-1019.854 1136.983,-981.227 1136.88,-981.174 1098.198,-903.812 1020.94,-865.184 1020.837,-865.128 982.157,-787.769 
			904.895,-749.14 904.794,-749.086 866.112,-671.727 788.856,-633.093 788.753,-633.042 750.069,-555.683 672.811,-517.052 
			672.71,-517.001 634.026,-439.637 556.602,-401.111 556.499,-401.058 517.817,-323.696 440.557,-285.067 440.454,-285.012 
			401.774,-207.652 324.514,-169.023 324.413,-168.97 285.731,-91.61 208.475,-52.977 208.372,-52.926 169.686,24.434 
			92.429,63.064 92.327,63.115 53.645,140.48 18.522,158.039 		"/>
		<polyline fill="none" stroke="#D1AB59" stroke-width="0.75" stroke-miterlimit="10" points="1242.009,-1046.23 
			1224.445,-1011.104 1147.186,-972.477 1147.083,-972.424 1108.401,-895.062 1031.142,-856.434 1031.039,-856.378 
			992.359,-779.019 915.099,-740.39 914.997,-740.336 876.315,-662.977 799.059,-624.343 798.956,-624.292 760.271,-546.933 
			683.013,-508.302 682.912,-508.251 644.229,-430.887 566.805,-392.361 566.701,-392.308 528.019,-314.946 450.761,-276.317 
			450.657,-276.262 411.977,-198.902 334.717,-160.273 334.615,-160.22 295.934,-82.86 218.678,-44.227 218.574,-44.176 
			179.89,33.184 102.632,71.814 102.53,71.865 63.848,149.23 28.725,166.789 		"/>
		<polyline fill="none" stroke="#D1AB59" stroke-width="0.75" stroke-miterlimit="10" points="1180.794,-1095.23 
			1163.231,-1060.104 1085.972,-1021.477 1085.868,-1021.424 1047.186,-944.062 969.929,-905.434 969.825,-905.378 
			931.145,-828.019 853.884,-789.39 853.782,-789.336 815.1,-711.977 737.845,-673.343 737.741,-673.292 699.057,-595.933 
			621.8,-557.302 621.698,-557.251 583.015,-479.887 505.591,-441.361 505.487,-441.308 466.806,-363.946 389.546,-325.317 
			389.442,-325.262 350.763,-247.902 273.503,-209.273 273.401,-209.22 234.72,-131.86 157.464,-93.227 157.36,-93.176 
			118.675,-15.816 41.417,22.814 41.315,22.865 2.634,100.229 -32.489,117.789 		"/>
		<polyline fill="none" stroke="#D1AB59" stroke-width="0.75" stroke-miterlimit="10" points="1190.997,-1086.98 
			1173.433,-1051.854 1096.175,-1013.227 1096.071,-1013.174 1057.39,-935.812 980.131,-897.184 980.027,-897.128 941.348,-819.769 
			864.087,-781.14 863.985,-781.086 825.304,-703.727 748.048,-665.093 747.944,-665.042 709.26,-587.683 632.002,-549.052 
			631.9,-549.001 593.218,-471.637 515.793,-433.111 515.689,-433.058 477.008,-355.696 399.749,-317.067 399.645,-317.012 
			360.966,-239.652 283.705,-201.023 283.603,-200.97 244.922,-123.61 167.666,-84.977 167.562,-84.926 128.878,-7.566 
			51.62,31.064 51.518,31.115 12.836,108.479 -22.287,126.039 		"/>
		<polyline fill="none" stroke="#D1AB59" stroke-width="0.75" stroke-miterlimit="10" points="1201.199,-1078.23 
			1183.636,-1043.104 1106.377,-1004.477 1106.273,-1004.424 1067.592,-927.062 990.333,-888.434 990.229,-888.378 951.55,-811.019 
			874.289,-772.39 874.187,-772.336 835.506,-694.977 758.25,-656.343 758.146,-656.292 719.462,-578.933 642.204,-540.302 
			642.102,-540.251 603.42,-462.887 525.995,-424.361 525.891,-424.308 487.21,-346.946 409.951,-308.317 409.848,-308.262 
			371.168,-230.902 293.907,-192.273 293.806,-192.22 255.124,-114.86 177.868,-76.227 177.765,-76.176 139.08,1.184 61.822,39.814 
			61.721,39.865 23.038,117.229 -12.085,134.789 		"/>
		<polyline fill="none" stroke="#D1AB59" stroke-width="0.75" stroke-miterlimit="10" points="1211.401,-1069.98 
			1193.839,-1034.854 1116.579,-996.227 1116.475,-996.174 1077.794,-918.812 1000.536,-880.184 1000.432,-880.128 
			961.753,-802.769 884.491,-764.14 884.39,-764.086 845.708,-686.727 768.452,-648.093 768.349,-648.042 729.665,-570.683 
			652.407,-532.052 652.305,-532.001 613.622,-454.637 536.198,-416.111 536.095,-416.058 497.413,-338.696 420.153,-300.067 
			420.05,-300.012 381.37,-222.652 304.11,-184.023 304.009,-183.97 265.327,-106.61 188.071,-67.977 187.968,-67.926 
			149.282,9.434 72.024,48.064 71.923,48.115 33.241,125.479 -1.882,143.039 		"/>
		<polyline fill="none" stroke="#D1AB59" stroke-width="0.75" stroke-miterlimit="10" points="1139.985,-1126.23 
			1122.421,-1091.104 1045.163,-1052.478 1045.059,-1052.424 1006.378,-975.062 929.118,-936.434 929.015,-936.378 
			890.335,-859.019 813.075,-820.39 812.974,-820.336 774.292,-742.977 697.036,-704.343 696.932,-704.292 658.247,-626.933 
			580.989,-588.302 580.888,-588.251 542.206,-510.887 464.78,-472.361 464.677,-472.308 425.995,-394.946 348.737,-356.317 
			348.634,-356.262 309.954,-278.902 232.692,-240.273 232.591,-240.22 193.909,-162.86 116.653,-124.227 116.55,-124.176 
			77.866,-46.816 0.608,-8.186 0.507,-8.135 -38.177,69.229 -73.3,86.789 		"/>
		<polyline fill="none" stroke="#D1AB59" stroke-width="0.75" stroke-miterlimit="10" points="1150.187,-1117.98 
			1132.624,-1082.854 1055.365,-1044.228 1055.262,-1044.174 1016.58,-966.812 939.321,-928.184 939.218,-928.128 900.538,-850.769 
			823.277,-812.14 823.176,-812.086 784.494,-734.727 707.238,-696.093 707.135,-696.042 668.45,-618.683 591.192,-580.052 
			591.091,-580.001 552.408,-502.637 474.983,-464.111 474.88,-464.058 436.198,-386.696 358.939,-348.067 358.836,-348.012 
			320.156,-270.652 242.895,-232.023 242.794,-231.97 204.112,-154.61 126.856,-115.977 126.753,-115.926 88.068,-38.566 
			10.81,0.064 10.709,0.115 -27.974,77.479 -63.097,95.039 		"/>
		<polyline fill="none" stroke="#D1AB59" stroke-width="0.75" stroke-miterlimit="10" points="1160.39,-1109.23 1142.826,-1074.104 
			1065.567,-1035.478 1065.464,-1035.424 1026.782,-958.062 949.523,-919.434 949.42,-919.378 910.74,-842.019 833.479,-803.39 
			833.378,-803.336 794.696,-725.977 717.44,-687.343 717.337,-687.292 678.652,-609.933 601.394,-571.302 601.293,-571.251 
			562.61,-493.887 485.185,-455.361 485.082,-455.308 446.4,-377.946 369.142,-339.317 369.038,-339.262 330.358,-261.902 
			253.098,-223.273 252.996,-223.22 214.314,-145.86 137.059,-107.227 136.955,-107.176 98.27,-29.816 21.013,8.814 20.911,8.865 
			-17.772,86.229 -52.895,103.789 		"/>
		<polyline fill="none" stroke="#D1AB59" stroke-width="0.75" stroke-miterlimit="10" points="1170.593,-1100.98 
			1153.028,-1065.854 1075.77,-1027.228 1075.667,-1027.174 1036.985,-949.812 959.725,-911.184 959.622,-911.128 920.942,-833.769 
			843.682,-795.14 843.581,-795.086 804.899,-717.727 727.643,-679.093 727.54,-679.042 688.854,-601.683 611.596,-563.052 
			611.495,-563.001 572.813,-485.637 495.388,-447.111 495.284,-447.058 456.602,-369.696 379.345,-331.067 379.241,-331.012 
			340.561,-253.652 263.3,-215.023 263.198,-214.97 224.517,-137.61 147.261,-98.977 147.157,-98.926 108.474,-21.566 
			31.216,17.064 31.114,17.115 -7.569,94.479 -42.692,112.039 		"/>
		<polyline fill="none" stroke="#D1AB59" stroke-width="0.75" stroke-miterlimit="10" points="1099.175,-1157.23 
			1081.612,-1122.104 1004.352,-1083.478 1004.249,-1083.424 965.567,-1006.062 888.309,-967.434 888.206,-967.378 
			849.526,-890.019 772.265,-851.39 772.163,-851.336 733.481,-773.977 656.225,-735.343 656.122,-735.292 617.438,-657.933 
			540.18,-619.302 540.079,-619.251 501.395,-541.887 423.971,-503.361 423.868,-503.308 385.186,-425.946 307.927,-387.317 
			307.823,-387.262 269.143,-309.902 191.884,-271.273 191.782,-271.22 153.1,-193.86 75.845,-155.227 75.741,-155.176 
			37.056,-77.816 -40.202,-39.186 -40.304,-39.135 -78.986,38.229 -114.109,55.789 		"/>
		<polyline fill="none" stroke="#D1AB59" stroke-width="0.75" stroke-miterlimit="10" points="1109.378,-1148.98 
			1091.814,-1113.854 1014.555,-1075.228 1014.452,-1075.174 975.77,-997.812 898.512,-959.184 898.408,-959.128 859.728,-881.769 
			782.468,-843.14 782.366,-843.086 743.684,-765.727 666.429,-727.093 666.325,-727.042 627.641,-649.683 550.383,-611.052 
			550.281,-611.001 511.599,-533.637 434.174,-495.111 434.07,-495.058 395.389,-417.696 318.13,-379.067 318.026,-379.012 
			279.346,-301.652 202.086,-263.023 201.984,-262.97 163.303,-185.61 86.047,-146.977 85.943,-146.926 47.259,-69.566 
			-29.999,-30.936 -30.101,-30.885 -68.783,46.479 -103.906,64.039 		"/>
		<polyline fill="none" stroke="#D1AB59" stroke-width="0.75" stroke-miterlimit="10" points="1119.58,-1140.23 1102.016,-1105.104 
			1024.758,-1066.478 1024.654,-1066.424 985.973,-989.062 908.714,-950.434 908.61,-950.378 869.93,-873.019 792.67,-834.39 
			792.568,-834.336 753.887,-756.977 676.631,-718.343 676.527,-718.292 637.843,-640.933 560.585,-602.302 560.483,-602.251 
			521.801,-524.887 444.376,-486.361 444.272,-486.308 405.591,-408.946 328.332,-370.317 328.228,-370.262 289.549,-292.902 
			212.288,-254.273 212.186,-254.22 173.505,-176.86 96.249,-138.227 96.145,-138.176 57.461,-60.816 -19.797,-22.186 
			-19.899,-22.135 -58.581,55.229 -93.704,72.789 		"/>
		<polyline fill="none" stroke="#D1AB59" stroke-width="0.75" stroke-miterlimit="10" points="1129.782,-1131.98 1112.22,-1096.854 
			1034.96,-1058.228 1034.856,-1058.174 996.175,-980.812 918.917,-942.184 918.813,-942.128 880.134,-864.769 802.872,-826.14 
			802.77,-826.086 764.089,-748.727 686.833,-710.093 686.729,-710.042 648.046,-632.683 570.788,-594.052 570.686,-594.001 
			532.003,-516.637 454.579,-478.111 454.475,-478.058 415.794,-400.696 338.534,-362.067 338.431,-362.012 299.751,-284.652 
			222.491,-246.023 222.39,-245.97 183.708,-168.61 106.452,-129.977 106.349,-129.926 67.663,-52.566 -9.595,-13.936 
			-9.696,-13.885 -48.378,63.479 -83.501,81.039 		"/>
	</g>
</g>
<g>
	<path d="M17.674,12.147c-0.684,0-1.298-0.38-1.605-0.992l-0.139-0.278c1.02-0.531,1.718-1.596,1.718-2.823v-0.91
		c0-1.755-1.428-3.184-3.184-3.184s-3.184,1.429-3.184,3.184v0.91c0,1.227,0.699,2.292,1.718,2.823l-0.139,0.278
		c-0.306,0.612-0.921,0.992-1.605,0.992c-1.491,0-2.703,1.213-2.703,2.703v3.209c0,0.252,0.204,0.455,0.455,0.455h10.915
		c0.251,0,0.455-0.203,0.455-0.455V14.85C20.377,13.36,19.164,12.147,17.674,12.147L17.674,12.147z M12.191,8.053v-0.91
		c0-1.254,1.02-2.274,2.274-2.274s2.274,1.02,2.274,2.274v0.91c0,1.254-1.02,2.274-2.274,2.274S12.191,9.307,12.191,8.053z
		 M14.465,11.237c0.205,0,0.405-0.021,0.599-0.059l0.191,0.383c0.142,0.284,0.332,0.529,0.552,0.74
		c-0.336,0.189-0.712,0.299-1.108,0.299h-0.468c-0.396,0-0.772-0.11-1.108-0.299c0.22-0.211,0.41-0.457,0.552-0.74l0.191-0.383
		C14.06,11.216,14.26,11.237,14.465,11.237L14.465,11.237z M19.467,17.604h-1.819v-2.729h-0.91v2.729h-4.548v-2.729h-0.91v2.729
		H9.462V14.85c0-0.989,0.805-1.794,1.794-1.794c0.364,0,0.713-0.075,1.035-0.208c0.554,0.428,1.228,0.663,1.94,0.663h0.468
		c0.712,0,1.386-0.235,1.94-0.663c0.322,0.133,0.671,0.208,1.035,0.208c0.989,0,1.794,0.805,1.794,1.794L19.467,17.604
		L19.467,17.604z"/>
	<path d="M27.199,3.96H21.5c-1.93-1.757-4.418-2.729-7.035-2.729c-1.949,0-3.818,0.529-5.458,1.536V2.596
		c0-0.752-0.612-1.364-1.364-1.364H1.731c-0.752,0-1.364,0.612-1.364,1.364v2.729c0,0.752,0.612,1.364,1.364,1.364h2.086l0.99,0.99
		c-0.529,1.272-0.801,2.62-0.801,4.013c0,3.632,1.91,7.026,5.003,8.922v1.993c0,0.252,0.204,0.455,0.455,0.455h0.455v1.364
		c0,0.252,0.204,0.455,0.455,0.455h0.455v3.184c0,0.752,0.612,1.364,1.364,1.364h4.548c0.752,0,1.364-0.612,1.364-1.364v-3.184
		h0.455c0.251,0,0.455-0.203,0.455-0.455v-1.364h0.455c0.251,0,0.455-0.203,0.455-0.455v-1.993c3.093-1.896,5.003-5.291,5.003-8.922
		c0-0.641-0.062-1.282-0.177-1.908l0.366-0.366h2.086c0.752,0,1.364-0.612,1.364-1.364V5.325C28.563,4.572,27.951,3.96,27.199,3.96
		L27.199,3.96z M4.004,5.78H1.731c-0.251,0-0.455-0.204-0.455-0.455V2.596c0-0.251,0.204-0.455,0.455-0.455h5.912
		c0.251,0,0.455,0.204,0.455,0.455v2.729c0,0.251-0.204,0.455-0.455,0.455H5.824c-0.251,0-0.455,0.203-0.455,0.455v0.721
		L4.326,5.913C4.241,5.828,4.125,5.78,4.004,5.78z M16.739,28.519h-4.548c-0.251,0-0.455-0.204-0.455-0.455v-0.91h5.458v0.91
		C17.193,28.315,16.989,28.519,16.739,28.519z M17.193,26.245h-5.458v-1.364h5.458V26.245z M18.103,23.971h-7.277v-0.91h7.277
		V23.971z M24.015,11.692c0,3.396-1.83,6.565-4.776,8.27c-0.141,0.081-0.227,0.231-0.227,0.393v1.796H9.917v-1.796
		c0-0.162-0.086-0.312-0.227-0.393c-2.946-1.705-4.776-4.874-4.776-8.27c0-1.145,0.201-2.256,0.593-3.314
		c0.086,0.085,0.2,0.13,0.317,0.13c0.059,0,0.118-0.011,0.174-0.035c0.17-0.07,0.281-0.236,0.281-0.42V6.689h1.364
		c0.752,0,1.364-0.612,1.364-1.364V3.861c1.606-1.122,3.486-1.72,5.458-1.72c2.196,0,4.291,0.749,5.984,2.115
		c-0.318,0.25-0.527,0.634-0.527,1.068v2.729c0,0.752,0.612,1.364,1.364,1.364h1.364v1.364c0,0.184,0.111,0.35,0.281,0.42
		c0.056,0.024,0.116,0.035,0.174,0.035c0.118,0,0.235-0.046,0.322-0.133l0.519-0.519C23.989,10.952,24.015,11.321,24.015,11.692
		L24.015,11.692z M27.654,8.053c0,0.251-0.204,0.455-0.455,0.455h-2.274c-0.121,0-0.236,0.048-0.322,0.133l-1.043,1.043V8.963
		c0-0.252-0.204-0.455-0.455-0.455h-1.819c-0.251,0-0.455-0.204-0.455-0.455V5.325c0-0.251,0.204-0.455,0.455-0.455h5.912
		c0.251,0,0.455,0.204,0.455,0.455V8.053z"/>
	<path d="M21.87,22.74l2.274-2.274l0.643,0.643l-2.274,2.274L21.87,22.74z"/>
	<path d="M22.651,23.971h3.184v0.91h-3.184V23.971z"/>
	<path d="M4.135,21.108l0.643-0.643l2.274,2.274l-0.643,0.643L4.135,21.108z"/>
	<path d="M21.869,26.112l0.643-0.643l2.274,2.274l-0.643,0.643L21.869,26.112z"/>
	<path d="M4.134,27.741l2.274-2.274l0.643,0.643l-2.274,2.274L4.134,27.741z"/>
	<path d="M3.095,23.971h3.184v0.91H3.095V23.971z"/>
	<path d="M21.741,6.234h5.003v0.91h-5.003V6.234z"/>
	<path d="M2.185,3.506h5.003v0.91H2.185V3.506z"/>
</g>
</svg>
