<?xml version="1.0" encoding="utf-8"?>
<!-- Generator: Adobe Illustrator 24.1.0, SVG Export Plug-In . SVG Version: 6.00 Build 0)  -->
<svg version="1.1" id="Layer_1" xmlns="http://www.w3.org/2000/svg" xmlns:xlink="http://www.w3.org/1999/xlink" x="0px" y="0px"
	 viewBox="0 0 36.865 30" enable-background="new 0 0 36.865 30" xml:space="preserve">
<g>
	<defs>
		<polygon id="SVGID_18_" points="606.173,-526.167 708.173,31.167 1003.506,54.5 1144.172,-298.167 986.839,-667.5 		"/>
	</defs>
	<clipPath id="SVGID_1_">
		<use xlink:href="#SVGID_18_"  overflow="visible"/>
	</clipPath>
	<g clip-path="url(#SVGID_1_)">
		<polyline fill="none" stroke="#D1AB59" stroke-width="0.75" stroke-miterlimit="10" points="1165.5,-1190.23 1147.935,-1155.104 
			1070.677,-1116.478 1070.574,-1116.424 1031.892,-1039.062 954.633,-1000.434 954.529,-1000.378 915.849,-923.019 838.59,-884.39 
			838.488,-884.336 799.806,-806.977 722.551,-768.343 722.447,-768.292 683.761,-690.933 606.504,-652.302 606.402,-652.251 
			567.72,-574.887 490.295,-536.361 490.191,-536.308 451.509,-458.946 374.252,-420.317 374.148,-420.262 335.468,-342.902 
			258.207,-304.273 258.105,-304.22 219.424,-226.86 142.168,-188.227 142.064,-188.176 103.381,-110.816 26.123,-72.186 
			26.021,-72.135 -12.662,5.229 -47.785,22.789 		"/>
		<polyline fill="none" stroke="#D1AB59" stroke-width="0.75" stroke-miterlimit="10" points="1175.702,-1181.98 
			1158.138,-1146.854 1080.88,-1108.228 1080.776,-1108.174 1042.094,-1030.812 964.836,-992.184 964.732,-992.128 
			926.052,-914.769 848.792,-876.14 848.69,-876.086 810.009,-798.727 732.753,-760.093 732.649,-760.042 693.965,-682.683 
			616.707,-644.052 616.605,-644.001 577.923,-566.637 500.498,-528.111 500.394,-528.058 461.713,-450.696 384.454,-412.067 
			384.35,-412.012 345.671,-334.652 268.41,-296.023 268.308,-295.97 229.627,-218.61 152.371,-179.977 152.267,-179.926 
			113.583,-102.566 36.325,-63.936 36.223,-63.885 -2.459,13.479 -37.582,31.039 		"/>
		<polyline fill="none" stroke="#D1AB59" stroke-width="0.75" stroke-miterlimit="10" points="1185.904,-1173.23 
			1168.341,-1138.104 1091.082,-1099.478 1090.978,-1099.424 1052.297,-1022.062 975.038,-983.434 974.934,-983.378 
			936.255,-906.019 858.994,-867.39 858.892,-867.336 820.211,-789.977 742.955,-751.343 742.851,-751.292 704.167,-673.933 
			626.909,-635.302 626.807,-635.251 588.125,-557.887 510.7,-519.361 510.596,-519.308 471.915,-441.946 394.656,-403.317 
			394.552,-403.262 355.873,-325.902 278.612,-287.273 278.51,-287.22 239.829,-209.86 162.573,-171.227 162.469,-171.176 
			123.785,-93.816 46.527,-55.186 46.426,-55.135 7.743,22.229 -27.38,39.789 		"/>
		<polyline fill="none" stroke="#D1AB59" stroke-width="0.75" stroke-miterlimit="10" points="1196.107,-1164.98 
			1178.543,-1129.854 1101.285,-1091.228 1101.181,-1091.174 1062.5,-1013.812 985.24,-975.184 985.136,-975.128 946.457,-897.769 
			869.197,-859.14 869.095,-859.086 830.414,-781.727 753.158,-743.093 753.054,-743.042 714.369,-665.683 637.111,-627.052 
			637.009,-627.001 598.328,-549.637 520.902,-511.111 520.799,-511.058 482.117,-433.696 404.859,-395.067 404.756,-395.012 
			366.076,-317.652 288.814,-279.023 288.713,-278.97 250.031,-201.61 172.775,-162.977 172.672,-162.926 133.988,-85.566 
			56.73,-46.936 56.629,-46.885 17.945,30.479 -17.178,48.039 		"/>
		<polyline fill="none" stroke="#D1AB59" stroke-width="0.75" stroke-miterlimit="10" points="1145.094,-1205.23 
			1127.531,-1170.104 1050.272,-1131.478 1050.169,-1131.424 1011.487,-1054.062 934.228,-1015.434 934.125,-1015.378 
			895.445,-938.019 818.184,-899.39 818.083,-899.336 779.401,-821.977 702.145,-783.343 702.042,-783.292 663.357,-705.933 
			586.099,-667.302 585.998,-667.251 547.315,-589.887 469.89,-551.361 469.787,-551.308 431.105,-473.946 353.846,-435.317 
			353.743,-435.262 315.063,-357.902 237.802,-319.273 237.701,-319.22 199.019,-241.86 121.763,-203.227 121.66,-203.176 
			82.975,-125.816 5.717,-87.186 5.616,-87.135 -33.067,-9.771 -68.19,7.789 		"/>
		<polyline fill="none" stroke="#D1AB59" stroke-width="0.75" stroke-miterlimit="10" points="1155.297,-1196.98 
			1137.734,-1161.854 1060.474,-1123.228 1060.371,-1123.174 1021.689,-1045.812 944.431,-1007.184 944.328,-1007.128 
			905.648,-929.769 828.386,-891.14 828.285,-891.086 789.603,-813.727 712.347,-775.093 712.244,-775.042 673.56,-697.683 
			596.302,-659.052 596.201,-659.001 557.517,-581.637 480.093,-543.111 479.99,-543.058 441.308,-465.696 364.049,-427.067 
			363.945,-427.012 325.265,-349.652 248.006,-311.023 247.904,-310.97 209.222,-233.61 131.967,-194.977 131.863,-194.926 
			93.177,-117.566 15.92,-78.936 15.818,-78.885 -22.864,-1.52 -57.987,16.039 		"/>
		<polyline fill="none" stroke="#D1AB59" stroke-width="0.75" stroke-miterlimit="10" points="1247.119,-1126.23 
			1229.554,-1091.104 1152.297,-1052.478 1152.193,-1052.424 1113.511,-975.062 1036.252,-936.434 1036.148,-936.378 
			997.468,-859.019 920.209,-820.39 920.107,-820.336 881.426,-742.977 804.17,-704.343 804.066,-704.292 765.381,-626.933 
			688.123,-588.302 688.021,-588.251 649.34,-510.887 571.914,-472.361 571.81,-472.308 533.129,-394.946 455.871,-356.317 
			455.767,-356.262 417.088,-278.902 339.826,-240.273 339.724,-240.22 301.043,-162.86 223.787,-124.227 223.683,-124.176 
			185,-46.816 107.742,-8.186 107.64,-8.135 68.957,69.229 33.834,86.789 		"/>
		<polyline fill="none" stroke="#D1AB59" stroke-width="0.75" stroke-miterlimit="10" points="1206.308,-1157.23 
			1188.746,-1122.104 1111.486,-1083.478 1111.383,-1083.424 1072.701,-1006.062 995.443,-967.434 995.34,-967.378 956.66,-890.019 
			879.398,-851.39 879.297,-851.336 840.615,-773.977 763.359,-735.343 763.256,-735.292 724.572,-657.933 647.314,-619.302 
			647.213,-619.251 608.529,-541.887 531.105,-503.361 531.002,-503.308 492.32,-425.946 415.06,-387.317 414.957,-387.262 
			376.277,-309.902 299.017,-271.273 298.916,-271.22 260.234,-193.86 182.978,-155.227 182.875,-155.176 144.189,-77.816 
			66.931,-39.186 66.83,-39.135 28.148,38.229 -6.975,55.789 		"/>
		<polyline fill="none" stroke="#D1AB59" stroke-width="0.75" stroke-miterlimit="10" points="1216.511,-1148.98 
			1198.948,-1113.854 1121.689,-1075.228 1121.586,-1075.174 1082.904,-997.812 1005.645,-959.184 1005.542,-959.128 
			966.862,-881.769 889.601,-843.14 889.5,-843.086 850.818,-765.727 773.562,-727.093 773.459,-727.042 734.774,-649.683 
			657.516,-611.052 657.415,-611.001 618.732,-533.637 541.307,-495.111 541.204,-495.058 502.522,-417.696 425.263,-379.067 
			425.16,-379.012 386.48,-301.652 309.219,-263.023 309.118,-262.97 270.436,-185.61 193.18,-146.977 193.077,-146.926 
			154.392,-69.566 77.134,-30.936 77.033,-30.885 38.35,46.479 3.227,64.039 		"/>
		<polyline fill="none" stroke="#D1AB59" stroke-width="0.75" stroke-miterlimit="10" points="1226.714,-1140.23 1209.15,-1105.104 
			1131.891,-1066.478 1131.788,-1066.424 1093.106,-989.062 1015.847,-950.434 1015.744,-950.378 977.064,-873.019 899.803,-834.39 
			899.702,-834.336 861.02,-756.977 783.764,-718.343 783.661,-718.292 744.976,-640.933 667.718,-602.302 667.617,-602.251 
			628.934,-524.887 551.509,-486.361 551.406,-486.308 512.724,-408.946 435.466,-370.317 435.362,-370.262 396.682,-292.902 
			319.422,-254.273 319.32,-254.22 280.638,-176.86 203.383,-138.227 203.279,-138.176 164.594,-60.816 87.337,-22.186 
			87.235,-22.135 48.552,55.229 13.429,72.789 		"/>
		<polyline fill="none" stroke="#D1AB59" stroke-width="0.75" stroke-miterlimit="10" points="1236.916,-1131.98 
			1219.353,-1096.854 1142.093,-1058.228 1141.99,-1058.174 1103.308,-980.812 1026.051,-942.184 1025.947,-942.128 
			987.267,-864.769 910.006,-826.14 909.904,-826.086 871.222,-748.727 793.967,-710.093 793.863,-710.042 755.179,-632.683 
			677.922,-594.052 677.82,-594.001 639.136,-516.637 561.713,-478.111 561.609,-478.058 522.927,-400.696 445.668,-362.067 
			445.564,-362.012 406.884,-284.652 329.625,-246.023 329.523,-245.97 290.842,-168.61 213.586,-129.977 213.482,-129.926 
			174.797,-52.566 97.539,-13.936 97.437,-13.885 58.756,63.479 23.633,81.039 		"/>
	</g>
</g>
<g>
	<path d="M5.677,10.275h6.566l1.472,1.652c0.258,0.29,0.725,0.296,0.991,0.013l1.562-1.665h2.162c0.371,0,0.672-0.301,0.672-0.671
		V1.755c0-0.371-0.301-0.671-0.672-0.671h-5.843c-0.371,0-0.672,0.301-0.672,0.671c0,0.371,0.301,0.672,0.672,0.672h5.172v6.505
		h-1.781c-0.185,0-0.363,0.077-0.49,0.212l-1.258,1.341l-1.184-1.328c-0.127-0.143-0.31-0.225-0.501-0.225H6.348V2.427h0.766
		c0.371,0,0.672-0.301,0.672-0.672c0-0.371-0.301-0.671-0.672-0.671H5.677c-0.371,0-0.671,0.301-0.671,0.671v7.848
		C5.005,9.974,5.306,10.275,5.677,10.275z"/>
	<path d="M21.625,11.501h2.162l1.562,1.665c0.266,0.284,0.732,0.278,0.991-0.013l1.472-1.652h6.566c0.371,0,0.671-0.301,0.671-0.672
		V2.981c0-0.371-0.3-0.672-0.671-0.672H21.625c-0.371,0-0.671,0.301-0.671,0.672v7.848C20.954,11.2,21.254,11.501,21.625,11.501z
		 M22.296,3.653h11.41v6.505h-6.196c-0.191,0-0.374,0.082-0.501,0.225l-1.184,1.329l-1.259-1.341
		c-0.127-0.135-0.304-0.212-0.49-0.212h-1.781V3.653z"/>
	<path d="M25.971,7.541c0.28,0,0.537-0.181,0.632-0.444c0.095-0.263,0.012-0.566-0.204-0.745c-0.217-0.178-0.528-0.203-0.769-0.06
		c-0.241,0.142-0.371,0.429-0.318,0.704C25.373,7.308,25.653,7.541,25.971,7.541z"/>
	<path d="M28.202,7.541c0.28,0,0.537-0.181,0.632-0.444c0.095-0.263,0.012-0.567-0.204-0.745c-0.216-0.178-0.528-0.203-0.77-0.06
		c-0.241,0.142-0.371,0.429-0.318,0.704C27.603,7.307,27.884,7.541,28.202,7.541z"/>
	<path d="M30.433,7.541c0.28,0,0.536-0.181,0.631-0.444c0.095-0.263,0.012-0.567-0.204-0.745c-0.216-0.178-0.528-0.203-0.769-0.06
		c-0.241,0.142-0.371,0.429-0.318,0.704C29.834,7.308,30.115,7.541,30.433,7.541z"/>
	<path d="M34.512,27.243h-5.085c0.023-0.11,0.034-0.224,0.034-0.34v-3.235c0-1.456-0.825-2.717-2.055-3.325
		c0.604-0.71,0.969-1.628,0.969-2.631c0-2.242-1.824-4.066-4.066-4.066c-2.242,0-4.066,1.824-4.066,4.066
		c0,1.003,0.365,1.921,0.969,2.631c-0.557,0.276-1.032,0.685-1.384,1.187c-0.352-0.502-0.826-0.911-1.384-1.187
		c0.604-0.71,0.969-1.628,0.969-2.63c0-2.242-1.824-4.066-4.066-4.066c-2.242,0-4.066,1.824-4.066,4.066
		c0,1.003,0.366,1.921,0.969,2.631c-0.557,0.276-1.032,0.685-1.383,1.187c-0.352-0.501-0.826-0.911-1.384-1.187
		c0.604-0.71,0.969-1.628,0.969-2.631c0-2.242-1.824-4.066-4.066-4.066s-4.066,1.824-4.066,4.066c0,1.003,0.365,1.921,0.969,2.631
		c-1.229,0.608-2.055,1.87-2.055,3.325v3.235c0,0.928,0.755,1.683,1.683,1.683h31.593c0.371,0,0.672-0.301,0.672-0.671
		C35.184,27.543,34.883,27.243,34.512,27.243z M24.31,14.988c1.502,0,2.723,1.222,2.723,2.723c0,1.502-1.222,2.723-2.723,2.723
		c-1.502,0-2.723-1.222-2.723-2.723C21.586,16.21,22.808,14.988,24.31,14.988z M15.349,14.988c1.502,0,2.723,1.222,2.723,2.723
		c0,1.502-1.222,2.723-2.723,2.723s-2.723-1.222-2.723-2.723C12.626,16.21,13.847,14.988,15.349,14.988z M6.388,14.988
		c1.502,0,2.723,1.222,2.723,2.723c0,1.502-1.222,2.723-2.723,2.723c-1.501,0-2.723-1.222-2.723-2.723
		C3.665,16.21,4.886,14.988,6.388,14.988z M2.919,27.243c-0.188,0-0.34-0.153-0.34-0.34v-3.235c0-1.169,0.834-2.142,1.966-2.333
		c0.554,0.283,1.18,0.444,1.843,0.444c0.663,0,1.289-0.161,1.843-0.444c1.133,0.191,1.966,1.164,1.966,2.333v3.235
		c0,0.188-0.153,0.34-0.34,0.34H2.919z M11.88,27.243c-0.188,0-0.34-0.153-0.34-0.34v-3.235c0-1.169,0.834-2.142,1.966-2.333
		c0.554,0.283,1.18,0.444,1.843,0.444c0.663,0,1.289-0.161,1.843-0.444c1.133,0.191,1.966,1.164,1.966,2.333v3.235
		c0,0.188-0.153,0.34-0.34,0.34H11.88z M20.841,27.243c-0.188,0-0.34-0.153-0.34-0.34v-3.235c0-1.169,0.834-2.142,1.966-2.333
		c0.553,0.283,1.179,0.444,1.843,0.444c0.663,0,1.289-0.161,1.843-0.443c1.133,0.191,1.966,1.163,1.966,2.333v3.235
		c0,0.188-0.153,0.34-0.34,0.34H20.841z"/>
	<path d="M9.833,2.427c0.28,0,0.536-0.181,0.631-0.444c0.095-0.263,0.012-0.566-0.204-0.745c-0.216-0.178-0.528-0.203-0.769-0.06
		C9.251,1.32,9.121,1.607,9.174,1.881C9.235,2.194,9.515,2.427,9.833,2.427z"/>
</g>
</svg>
