<?xml version="1.0" encoding="utf-8"?>
<!-- Generator: Adobe Illustrator 24.1.0, SVG Export Plug-In . SVG Version: 6.00 Build 0)  -->
<svg version="1.1" id="Layer_1" xmlns="http://www.w3.org/2000/svg" xmlns:xlink="http://www.w3.org/1999/xlink" x="0px" y="0px"
	 viewBox="0 0 31.924 30" enable-background="new 0 0 31.924 30" xml:space="preserve">
<g>
	<defs>
		<polygon id="SVGID_18_" points="710.25,-526.167 812.25,31.167 1107.583,54.5 1248.25,-298.167 1090.917,-667.5 		"/>
	</defs>
	<clipPath id="SVGID_1_">
		<use xlink:href="#SVGID_18_"  overflow="visible"/>
	</clipPath>
	<g clip-path="url(#SVGID_1_)">
	</g>
</g>
<g>
	<path d="M10.376,14.233c3.668,0,6.642-2.974,6.642-6.642c0-3.668-2.974-6.642-6.642-6.642S3.734,3.923,3.734,7.591
		C3.737,11.258,6.709,14.23,10.376,14.233z M10.376,2.206c2.974,0,5.385,2.411,5.385,5.385c0,2.974-2.411,5.385-5.385,5.385
		c-2.974,0-5.385-2.411-5.385-5.385C4.994,4.619,7.403,2.21,10.376,2.206z"/>
	<g>
		<path d="M28.842,23.055c0.738-1.121,1.168-2.461,1.168-3.9c0-3.921-3.19-7.112-7.112-7.112s-7.112,3.19-7.112,7.112
			c0,1.439,0.43,2.78,1.168,3.9l-2.782,4.057l3.183-0.593l0.594,3.183l2.623-3.826c0.729,0.253,1.511,0.391,2.325,0.391
			c0.814,0,1.596-0.138,2.325-0.391l2.623,3.826l0.593-3.183l3.183,0.593L28.842,23.055z M18.512,27.041l-0.324-1.736l-1.736,0.324
			l1.172-1.709c0.561,0.621,1.23,1.142,1.977,1.534L18.512,27.041z M16.828,19.155c0-3.347,2.723-6.071,6.071-6.071
			c3.348,0,6.071,2.723,6.071,6.071c0,3.348-2.723,6.071-6.071,6.071C19.551,25.226,16.828,22.502,16.828,19.155z M27.608,25.304
			l-0.324,1.736l-1.088-1.587c0.747-0.393,1.416-0.914,1.977-1.534l1.172,1.709L27.608,25.304z"/>
		<path d="M21.631,20.717l-1.692-1.692l-0.736,0.736l2.428,2.428l4.964-4.963l-0.736-0.736L21.631,20.717z"/>
	</g>
	<g>
		<path d="M16.587,25.398H0.369l0.023-0.727c0.053-1.655,0.523-3.455,1.325-5.066c0.853-1.716,2.017-3.12,3.364-4.06
			c1.362-0.95,2.837-1.574,4.387-1.854c1.61-0.291,3.215-0.193,4.771,0.29c1.341,0.417,2.552,1.045,3.502,1.816l-0.888,1.093
			c-0.813-0.66-1.861-1.201-3.032-1.565c-1.338-0.415-2.718-0.499-4.103-0.249C8.369,15.32,7.08,15.866,5.886,16.7
			c-1.154,0.806-2.16,2.027-2.909,3.533c-0.596,1.199-0.987,2.509-1.126,3.757h14.736V25.398z"/>
	</g>
</g>
</svg>
