<?xml version="1.0" encoding="utf-8"?>
<!-- Generator: Adobe Illustrator 24.0.1, SVG Export Plug-In . SVG Version: 6.00 Build 0)  -->
<svg version="1.1" id="Capa_1" xmlns="http://www.w3.org/2000/svg" xmlns:xlink="http://www.w3.org/1999/xlink" x="0px" y="0px"
	 viewBox="0 0 426.7 426.7" style="enable-background:new 0 0 426.7 426.7;" xml:space="preserve">
<g>
	<g>
		<path style="fill:#DEC18C;" d="M341.3,96h-224C52.5,96,0,148.6,0,213.3s52.5,117.3,117.3,117.3H320v-32H117.3
			c-47.1,0-85.3-38.2-85.3-85.3S70.2,128,117.3,128h224c29.4,0,53.3,23.9,53.3,53.3s-23.9,53.3-53.3,53.3H160
			c-11.7,0-21.3-9.5-21.3-21.3c0-11.8,9.6-21.3,21.3-21.3h160v-32H160c-29.4,0-53.3,23.9-53.3,53.3s23.9,53.3,53.3,53.3h181.3
			c47.1,0,85.3-38.2,85.3-85.3S388.5,96,341.3,96z"/>
	</g>
</g>
</svg>
