<?xml version="1.0" encoding="utf-8"?>
<!-- Generator: Adobe Illustrator 22.0.1, SVG Export Plug-In . SVG Version: 6.00 Build 0)  -->
<svg version="1.1" id="Layer_1" xmlns="http://www.w3.org/2000/svg" xmlns:xlink="http://www.w3.org/1999/xlink" x="0px" y="0px"
	 viewBox="0 0 120.333 59" enable-background="new 0 0 120.333 59" xml:space="preserve">
<polygon fill="#DEC18E" points="4,58 0.667,24 119.333,0.667 107.333,58 "/>
<g>
	<defs>
		<polygon id="SVGID_18_" points="913.5,-118.667 1015.5,438.667 1310.833,462 1451.5,109.333 1294.167,-260 		"/>
	</defs>
	<clipPath id="SVGID_1_">
		<use xlink:href="#SVGID_18_"  overflow="visible"/>
	</clipPath>
	<g clip-path="url(#SVGID_1_)">
		<polyline fill="none" stroke="#D1AB59" stroke-width="0.75" stroke-miterlimit="10" points="1309.589,-909.73 1292.025,-874.604 
			1214.767,-835.977 1214.663,-835.924 1175.981,-758.562 1098.723,-719.934 1098.619,-719.878 1059.939,-642.519 982.679,-603.89 
			982.577,-603.836 943.896,-526.477 866.64,-487.843 866.536,-487.792 827.852,-410.433 750.594,-371.802 750.492,-371.751 
			711.81,-294.387 634.385,-255.861 634.281,-255.808 595.6,-178.446 518.341,-139.817 518.237,-139.762 479.558,-62.402 
			402.297,-23.773 402.195,-23.72 363.514,53.64 286.258,92.273 286.154,92.324 247.47,169.684 170.212,208.314 170.11,208.365 
			131.428,285.729 96.305,303.289 		"/>
		<polyline fill="none" stroke="#D1AB59" stroke-width="0.75" stroke-miterlimit="10" points="1319.791,-901.48 1302.228,-866.354 
			1224.969,-827.727 1224.865,-827.674 1186.184,-750.312 1108.925,-711.684 1108.821,-711.628 1070.142,-634.269 992.881,-595.64 
			992.779,-595.586 954.098,-518.227 876.842,-479.593 876.738,-479.542 838.054,-402.183 760.796,-363.552 760.694,-363.501 
			722.012,-286.137 644.587,-247.611 644.483,-247.558 605.802,-170.196 528.543,-131.567 528.44,-131.512 489.76,-54.152 
			412.499,-15.523 412.397,-15.47 373.716,61.89 296.46,100.523 296.356,100.574 257.672,177.934 180.414,216.564 180.312,216.615 
			141.63,293.979 106.507,311.539 		"/>
		<polyline fill="none" stroke="#D1AB59" stroke-width="0.75" stroke-miterlimit="10" points="1329.993,-892.73 1312.431,-857.604 
			1235.171,-818.977 1235.067,-818.924 1196.386,-741.562 1119.128,-702.934 1119.024,-702.878 1080.345,-625.519 1003.083,-586.89 
			1002.982,-586.836 964.3,-509.477 887.044,-470.843 886.94,-470.792 848.257,-393.433 770.999,-354.802 770.898,-354.751 
			732.214,-277.387 654.79,-238.861 654.687,-238.808 616.005,-161.446 538.745,-122.817 538.642,-122.762 499.962,-45.402 
			422.702,-6.773 422.601,-6.72 383.919,70.64 306.663,109.273 306.56,109.324 267.874,186.684 190.616,225.314 190.515,225.365 
			151.833,302.729 116.71,320.289 		"/>
		<polyline fill="none" stroke="#D1AB59" stroke-width="0.75" stroke-miterlimit="10" points="1268.779,-941.73 1251.216,-906.604 
			1173.957,-867.977 1173.854,-867.924 1135.172,-790.562 1057.913,-751.934 1057.81,-751.878 1019.13,-674.519 941.869,-635.89 
			941.768,-635.836 903.086,-558.477 825.83,-519.843 825.727,-519.792 787.042,-442.433 709.784,-403.802 709.683,-403.751 
			671,-326.387 593.575,-287.861 593.472,-287.808 554.79,-210.446 477.531,-171.817 477.428,-171.762 438.748,-94.402 
			361.487,-55.773 361.386,-55.72 322.704,21.64 245.448,60.273 245.345,60.324 206.66,137.684 129.402,176.314 129.301,176.365 
			90.618,253.73 55.495,271.289 		"/>
		<polyline fill="none" stroke="#D1AB59" stroke-width="0.75" stroke-miterlimit="10" points="1278.981,-933.48 1261.418,-898.354 
			1184.159,-859.727 1184.056,-859.674 1145.374,-782.312 1068.115,-743.684 1068.012,-743.628 1029.332,-666.269 952.071,-627.64 
			951.97,-627.586 913.288,-550.227 836.032,-511.593 835.929,-511.542 797.244,-434.183 719.986,-395.552 719.885,-395.501 
			681.202,-318.137 603.777,-279.611 603.674,-279.558 564.992,-202.196 487.733,-163.567 487.63,-163.512 448.95,-86.152 
			371.689,-47.523 371.588,-47.47 332.906,29.89 255.65,68.523 255.547,68.574 216.862,145.934 139.604,184.564 139.503,184.615 
			100.82,261.979 65.697,279.539 		"/>
		<polyline fill="none" stroke="#D1AB59" stroke-width="0.75" stroke-miterlimit="10" points="1289.185,-924.73 1271.62,-889.604 
			1194.362,-850.977 1194.259,-850.924 1155.577,-773.562 1078.317,-734.934 1078.214,-734.878 1039.534,-657.519 962.274,-618.89 
			962.173,-618.836 923.491,-541.477 846.235,-502.843 846.132,-502.792 807.446,-425.433 730.188,-386.802 730.087,-386.751 
			691.405,-309.387 613.979,-270.861 613.876,-270.808 575.194,-193.446 497.936,-154.817 497.833,-154.762 459.153,-77.402 
			381.892,-38.773 381.79,-38.72 343.108,38.64 265.853,77.273 265.749,77.324 227.066,154.684 149.808,193.314 149.706,193.365 
			111.022,270.729 75.899,288.289 		"/>
		<polyline fill="none" stroke="#D1AB59" stroke-width="0.75" stroke-miterlimit="10" points="1299.386,-916.48 1281.823,-881.354 
			1204.563,-842.727 1204.46,-842.674 1165.778,-765.312 1088.521,-726.684 1088.417,-726.628 1049.737,-649.269 972.476,-610.64 
			972.374,-610.586 933.692,-533.227 856.437,-494.593 856.333,-494.542 817.649,-417.183 740.392,-378.552 740.29,-378.501 
			701.607,-301.137 624.183,-262.611 624.079,-262.558 585.398,-185.196 508.138,-146.567 508.034,-146.512 469.354,-69.152 
			392.095,-30.523 391.993,-30.47 353.311,46.89 276.056,85.523 275.952,85.574 237.267,162.934 160.009,201.564 159.907,201.615 
			121.226,278.979 86.103,296.539 		"/>
		<polyline fill="none" stroke="#D1AB59" stroke-width="0.75" stroke-miterlimit="10" points="1227.97,-972.73 1210.406,-937.604 
			1133.147,-898.977 1133.044,-898.924 1094.362,-821.562 1017.104,-782.934 1017,-782.878 978.32,-705.519 901.06,-666.89 
			900.958,-666.836 862.276,-589.477 785.021,-550.843 784.917,-550.792 746.232,-473.433 668.975,-434.802 668.873,-434.751 
			630.19,-357.387 552.766,-318.861 552.662,-318.808 513.981,-241.446 436.722,-202.817 436.618,-202.762 397.938,-125.402 
			320.678,-86.773 320.576,-86.72 281.895,-9.36 204.639,29.273 204.535,29.324 165.851,106.684 88.593,145.314 88.491,145.365 
			49.809,222.73 14.686,240.289 		"/>
		<polyline fill="none" stroke="#D1AB59" stroke-width="0.75" stroke-miterlimit="10" points="1238.172,-964.48 1220.608,-929.354 
			1143.35,-890.727 1143.246,-890.674 1104.564,-813.312 1027.306,-774.684 1027.202,-774.628 988.523,-697.269 911.262,-658.64 
			911.16,-658.586 872.479,-581.227 795.223,-542.593 795.119,-542.542 756.435,-465.183 679.177,-426.552 679.075,-426.501 
			640.393,-349.137 562.968,-310.611 562.864,-310.558 524.183,-233.196 446.924,-194.567 446.82,-194.512 408.141,-117.152 
			330.88,-78.523 330.778,-78.47 292.097,-1.11 214.841,37.523 214.737,37.574 176.053,114.934 98.795,153.564 98.693,153.615 
			60.011,230.98 24.888,248.539 		"/>
		<polyline fill="none" stroke="#D1AB59" stroke-width="0.75" stroke-miterlimit="10" points="1248.374,-955.73 1230.812,-920.604 
			1153.552,-881.977 1153.448,-881.924 1114.767,-804.562 1037.509,-765.934 1037.405,-765.878 998.726,-688.519 921.464,-649.89 
			921.362,-649.836 882.681,-572.477 805.425,-533.843 805.321,-533.792 766.638,-456.433 689.38,-417.802 689.278,-417.751 
			650.595,-340.387 573.171,-301.861 573.067,-301.808 534.386,-224.446 457.126,-185.817 457.022,-185.762 418.343,-108.402 
			341.083,-69.773 340.981,-69.72 302.3,7.64 225.044,46.273 224.941,46.324 186.255,123.684 108.997,162.314 108.896,162.365 
			70.214,239.73 35.091,257.289 		"/>
		<polyline fill="none" stroke="#D1AB59" stroke-width="0.75" stroke-miterlimit="10" points="1258.577,-947.48 1241.013,-912.354 
			1163.755,-873.727 1163.651,-873.674 1124.97,-796.312 1047.71,-757.684 1047.606,-757.628 1008.927,-680.269 931.667,-641.64 
			931.565,-641.586 892.884,-564.227 815.628,-525.593 815.524,-525.542 776.839,-448.183 699.581,-409.552 699.479,-409.501 
			660.798,-332.137 583.372,-293.611 583.269,-293.558 544.587,-216.196 467.329,-177.567 467.226,-177.512 428.546,-100.152 
			351.284,-61.523 351.183,-61.47 312.501,15.89 235.245,54.523 235.142,54.574 196.458,131.934 119.2,170.564 119.099,170.615 
			80.415,247.98 45.292,265.539 		"/>
		<polyline fill="none" stroke="#D1AB59" stroke-width="0.75" stroke-miterlimit="10" points="1187.16,-1003.73 1169.597,-968.604 
			1092.338,-929.977 1092.234,-929.924 1053.553,-852.562 976.294,-813.934 976.19,-813.878 937.511,-736.519 860.25,-697.89 
			860.148,-697.836 821.467,-620.477 744.211,-581.843 744.107,-581.792 705.423,-504.433 628.165,-465.802 628.063,-465.751 
			589.381,-388.387 511.956,-349.861 511.853,-349.808 473.171,-272.446 395.912,-233.817 395.809,-233.762 357.129,-156.402 
			279.868,-117.773 279.767,-117.72 241.085,-40.36 163.829,-1.727 163.726,-1.676 125.041,75.684 47.783,114.314 47.682,114.365 
			8.999,191.73 -26.124,209.289 		"/>
		<polyline fill="none" stroke="#D1AB59" stroke-width="0.75" stroke-miterlimit="10" points="1197.362,-995.48 1179.799,-960.354 
			1102.54,-921.727 1102.437,-921.674 1063.755,-844.312 986.496,-805.684 986.393,-805.628 947.713,-728.269 870.452,-689.64 
			870.351,-689.586 831.669,-612.227 754.413,-573.593 754.31,-573.542 715.625,-496.183 638.367,-457.552 638.266,-457.501 
			599.583,-380.137 522.158,-341.611 522.055,-341.558 483.373,-264.196 406.114,-225.567 406.011,-225.512 367.331,-148.152 
			290.07,-109.523 289.969,-109.47 251.287,-32.11 174.031,6.523 173.928,6.574 135.243,83.934 57.985,122.564 57.884,122.615 
			19.201,199.98 -15.922,217.539 		"/>
		<polyline fill="none" stroke="#D1AB59" stroke-width="0.75" stroke-miterlimit="10" points="1207.566,-986.73 1190.001,-951.604 
			1112.743,-912.977 1112.64,-912.924 1073.958,-835.562 996.698,-796.934 996.595,-796.878 957.915,-719.519 880.655,-680.89 
			880.554,-680.836 841.872,-603.477 764.616,-564.843 764.513,-564.792 725.827,-487.433 648.569,-448.802 648.468,-448.751 
			609.786,-371.387 532.36,-332.861 532.257,-332.808 493.575,-255.446 416.317,-216.817 416.214,-216.762 377.534,-139.402 
			300.272,-100.773 300.171,-100.72 261.489,-23.36 184.233,15.273 184.13,15.324 145.446,92.684 68.188,131.314 68.087,131.365 
			29.403,208.73 -5.72,226.289 		"/>
		<polyline fill="none" stroke="#D1AB59" stroke-width="0.75" stroke-miterlimit="10" points="1217.767,-978.48 1200.204,-943.354 
			1122.944,-904.727 1122.841,-904.674 1084.159,-827.312 1006.901,-788.684 1006.798,-788.628 968.118,-711.269 890.857,-672.64 
			890.755,-672.586 852.073,-595.227 774.817,-556.593 774.714,-556.542 736.03,-479.183 658.773,-440.552 658.671,-440.501 
			619.987,-363.137 542.563,-324.611 542.46,-324.558 503.778,-247.196 426.519,-208.567 426.415,-208.512 387.735,-131.152 
			310.476,-92.523 310.374,-92.47 271.692,-15.11 194.436,23.523 194.333,23.574 155.648,100.934 78.39,139.564 78.288,139.615 
			39.606,216.98 4.483,234.539 		"/>
	</g>
</g>
</svg>
