<?xml version="1.0" encoding="utf-8"?>
<!-- Generator: Adobe Illustrator 22.0.1, SVG Export Plug-In . SVG Version: 6.00 Build 0)  -->
<svg version="1.1" id="Layer_1" xmlns="http://www.w3.org/2000/svg" xmlns:xlink="http://www.w3.org/1999/xlink" x="0px" y="0px"
	 viewBox="0 0 216.125 49" enable-background="new 0 0 216.125 49" xml:space="preserve">
<polygon fill="#DEC18D" points="0.857,47.705 8.857,0.705 215.857,8.705 209.857,35.705 "/>
<g>
	<defs>
		<polygon id="SVGID_18_" points="912.5,-50.667 1014.5,506.667 1309.833,530 1450.5,177.333 1293.167,-192 		"/>
	</defs>
	<clipPath id="SVGID_1_">
		<use xlink:href="#SVGID_18_"  overflow="visible"/>
	</clipPath>
	<g clip-path="url(#SVGID_1_)">
		<polyline fill="none" stroke="#D1AB59" stroke-width="0.75" stroke-miterlimit="10" points="1308.589,-841.73 1291.025,-806.604 
			1213.767,-767.977 1213.663,-767.924 1174.981,-690.562 1097.723,-651.934 1097.619,-651.878 1058.939,-574.519 981.679,-535.89 
			981.577,-535.836 942.896,-458.477 865.64,-419.843 865.536,-419.792 826.852,-342.433 749.594,-303.802 749.492,-303.751 
			710.81,-226.387 633.385,-187.861 633.281,-187.808 594.6,-110.446 517.341,-71.817 517.237,-71.762 478.558,5.598 
			401.297,44.227 401.195,44.28 362.514,121.64 285.258,160.273 285.154,160.324 246.47,237.684 169.212,276.314 169.11,276.365 
			130.428,353.729 95.305,371.289 		"/>
		<polyline fill="none" stroke="#D1AB59" stroke-width="0.75" stroke-miterlimit="10" points="1318.791,-833.48 1301.228,-798.354 
			1223.969,-759.727 1223.865,-759.674 1185.184,-682.312 1107.925,-643.684 1107.821,-643.628 1069.142,-566.269 991.881,-527.64 
			991.779,-527.586 953.098,-450.227 875.842,-411.593 875.738,-411.542 837.054,-334.183 759.796,-295.552 759.694,-295.501 
			721.012,-218.137 643.587,-179.611 643.483,-179.558 604.802,-102.196 527.543,-63.567 527.44,-63.512 488.76,13.848 
			411.499,52.477 411.397,52.53 372.716,129.89 295.46,168.523 295.356,168.574 256.672,245.934 179.414,284.564 179.312,284.615 
			140.63,361.979 105.507,379.539 		"/>
		<polyline fill="none" stroke="#D1AB59" stroke-width="0.75" stroke-miterlimit="10" points="1328.993,-824.73 1311.431,-789.604 
			1234.171,-750.977 1234.067,-750.924 1195.386,-673.562 1118.128,-634.934 1118.024,-634.878 1079.345,-557.519 1002.083,-518.89 
			1001.982,-518.836 963.3,-441.477 886.044,-402.843 885.94,-402.792 847.257,-325.433 769.999,-286.802 769.898,-286.751 
			731.214,-209.387 653.79,-170.861 653.687,-170.808 615.005,-93.446 537.745,-54.817 537.642,-54.762 498.962,22.598 
			421.702,61.227 421.601,61.28 382.919,138.64 305.663,177.273 305.56,177.324 266.874,254.684 189.616,293.314 189.515,293.365 
			150.833,370.729 115.71,388.289 		"/>
		<polyline fill="none" stroke="#D1AB59" stroke-width="0.75" stroke-miterlimit="10" points="1339.196,-816.48 1321.632,-781.354 
			1244.374,-742.727 1244.271,-742.674 1205.589,-665.312 1128.329,-626.684 1128.226,-626.628 1089.546,-549.269 1012.286,-510.64 
			1012.185,-510.586 973.503,-433.227 896.247,-394.593 896.144,-394.542 857.458,-317.183 780.2,-278.552 780.099,-278.501 
			741.417,-201.137 663.991,-162.611 663.888,-162.558 625.206,-85.196 547.948,-46.567 547.845,-46.512 509.165,30.848 
			431.903,69.477 431.802,69.53 393.12,146.89 315.864,185.523 315.761,185.574 277.077,262.934 199.819,301.564 199.718,301.615 
			161.034,378.979 125.911,396.539 		"/>
		<polyline fill="none" stroke="#D1AB59" stroke-width="0.75" stroke-miterlimit="10" points="1267.779,-873.73 1250.216,-838.604 
			1172.957,-799.977 1172.854,-799.924 1134.172,-722.562 1056.913,-683.934 1056.81,-683.878 1018.13,-606.519 940.869,-567.89 
			940.768,-567.836 902.086,-490.477 824.83,-451.843 824.727,-451.792 786.042,-374.433 708.784,-335.802 708.683,-335.751 
			670,-258.387 592.575,-219.861 592.472,-219.808 553.79,-142.446 476.531,-103.817 476.428,-103.762 437.748,-26.402 
			360.487,12.227 360.386,12.28 321.704,89.64 244.448,128.273 244.345,128.324 205.66,205.684 128.402,244.314 128.301,244.365 
			89.618,321.729 54.495,339.289 		"/>
		<polyline fill="none" stroke="#D1AB59" stroke-width="0.75" stroke-miterlimit="10" points="1277.981,-865.48 1260.418,-830.354 
			1183.159,-791.727 1183.056,-791.674 1144.374,-714.312 1067.115,-675.684 1067.012,-675.628 1028.332,-598.269 951.071,-559.64 
			950.97,-559.586 912.288,-482.227 835.032,-443.593 834.929,-443.542 796.244,-366.183 718.986,-327.552 718.885,-327.501 
			680.202,-250.137 602.777,-211.611 602.674,-211.558 563.992,-134.196 486.733,-95.567 486.63,-95.512 447.95,-18.152 
			370.689,20.477 370.588,20.53 331.906,97.89 254.65,136.523 254.547,136.574 215.862,213.934 138.604,252.564 138.503,252.615 
			99.82,329.979 64.697,347.539 		"/>
		<polyline fill="none" stroke="#D1AB59" stroke-width="0.75" stroke-miterlimit="10" points="1288.185,-856.73 1270.62,-821.604 
			1193.362,-782.977 1193.259,-782.924 1154.577,-705.562 1077.317,-666.934 1077.214,-666.878 1038.534,-589.519 961.274,-550.89 
			961.173,-550.836 922.491,-473.477 845.235,-434.843 845.132,-434.792 806.446,-357.433 729.188,-318.802 729.087,-318.751 
			690.405,-241.387 612.979,-202.861 612.876,-202.808 574.194,-125.446 496.936,-86.817 496.833,-86.762 458.153,-9.402 
			380.892,29.227 380.79,29.28 342.108,106.64 264.853,145.273 264.749,145.324 226.066,222.684 148.808,261.314 148.706,261.365 
			110.022,338.729 74.899,356.289 		"/>
		<polyline fill="none" stroke="#D1AB59" stroke-width="0.75" stroke-miterlimit="10" points="1298.386,-848.48 1280.823,-813.354 
			1203.563,-774.727 1203.46,-774.674 1164.778,-697.312 1087.521,-658.684 1087.417,-658.628 1048.737,-581.269 971.476,-542.64 
			971.374,-542.586 932.692,-465.227 855.437,-426.593 855.333,-426.542 816.649,-349.183 739.392,-310.552 739.29,-310.501 
			700.607,-233.137 623.183,-194.611 623.079,-194.558 584.398,-117.196 507.138,-78.567 507.034,-78.512 468.354,-1.152 
			391.095,37.477 390.993,37.53 352.311,114.89 275.056,153.523 274.952,153.574 236.267,230.934 159.009,269.564 158.907,269.615 
			120.226,346.979 85.103,364.539 		"/>
		<polyline fill="none" stroke="#D1AB59" stroke-width="0.75" stroke-miterlimit="10" points="1226.97,-904.73 1209.406,-869.604 
			1132.147,-830.977 1132.044,-830.924 1093.362,-753.562 1016.104,-714.934 1016,-714.878 977.32,-637.519 900.06,-598.89 
			899.958,-598.836 861.276,-521.477 784.021,-482.843 783.917,-482.792 745.232,-405.433 667.975,-366.802 667.873,-366.751 
			629.19,-289.387 551.766,-250.861 551.662,-250.808 512.981,-173.446 435.722,-134.817 435.618,-134.762 396.938,-57.402 
			319.678,-18.773 319.576,-18.72 280.895,58.64 203.639,97.273 203.535,97.324 164.851,174.684 87.593,213.314 87.491,213.365 
			48.809,290.729 13.686,308.289 		"/>
		<polyline fill="none" stroke="#D1AB59" stroke-width="0.75" stroke-miterlimit="10" points="1237.172,-896.48 1219.608,-861.354 
			1142.35,-822.727 1142.246,-822.674 1103.564,-745.312 1026.306,-706.684 1026.202,-706.628 987.523,-629.269 910.262,-590.64 
			910.16,-590.586 871.479,-513.227 794.223,-474.593 794.119,-474.542 755.435,-397.183 678.177,-358.552 678.075,-358.501 
			639.393,-281.137 561.968,-242.611 561.864,-242.558 523.183,-165.196 445.924,-126.567 445.82,-126.512 407.141,-49.152 
			329.88,-10.523 329.778,-10.47 291.097,66.89 213.841,105.523 213.737,105.574 175.053,182.934 97.795,221.564 97.693,221.615 
			59.011,298.979 23.888,316.539 		"/>
		<polyline fill="none" stroke="#D1AB59" stroke-width="0.75" stroke-miterlimit="10" points="1247.374,-887.73 1229.812,-852.604 
			1152.552,-813.977 1152.448,-813.924 1113.767,-736.562 1036.509,-697.934 1036.405,-697.878 997.726,-620.519 920.464,-581.89 
			920.362,-581.836 881.681,-504.477 804.425,-465.843 804.321,-465.792 765.638,-388.433 688.38,-349.802 688.278,-349.751 
			649.595,-272.387 572.171,-233.861 572.067,-233.808 533.386,-156.446 456.126,-117.817 456.022,-117.762 417.343,-40.402 
			340.083,-1.773 339.981,-1.72 301.3,75.64 224.044,114.273 223.941,114.324 185.255,191.684 107.997,230.314 107.896,230.365 
			69.214,307.729 34.091,325.289 		"/>
		<polyline fill="none" stroke="#D1AB59" stroke-width="0.75" stroke-miterlimit="10" points="1257.577,-879.48 1240.013,-844.354 
			1162.755,-805.727 1162.651,-805.674 1123.97,-728.312 1046.71,-689.684 1046.606,-689.628 1007.927,-612.269 930.667,-573.64 
			930.565,-573.586 891.884,-496.227 814.628,-457.593 814.524,-457.542 775.839,-380.183 698.581,-341.552 698.479,-341.501 
			659.798,-264.137 582.372,-225.611 582.269,-225.558 543.587,-148.196 466.329,-109.567 466.226,-109.512 427.546,-32.152 
			350.284,6.477 350.183,6.53 311.501,83.89 234.245,122.523 234.142,122.574 195.458,199.934 118.2,238.564 118.099,238.615 
			79.415,315.979 44.292,333.539 		"/>
		<polyline fill="none" stroke="#D1AB59" stroke-width="0.75" stroke-miterlimit="10" points="1186.16,-935.73 1168.597,-900.604 
			1091.338,-861.977 1091.234,-861.924 1052.553,-784.562 975.294,-745.934 975.19,-745.878 936.511,-668.519 859.25,-629.89 
			859.148,-629.836 820.467,-552.477 743.211,-513.843 743.107,-513.792 704.423,-436.433 627.165,-397.802 627.063,-397.751 
			588.381,-320.387 510.956,-281.861 510.853,-281.808 472.171,-204.446 394.912,-165.817 394.809,-165.762 356.129,-88.402 
			278.868,-49.773 278.767,-49.72 240.085,27.64 162.829,66.273 162.726,66.324 124.041,143.684 46.783,182.314 46.682,182.365 
			7.999,259.729 -27.124,277.289 		"/>
		<polyline fill="none" stroke="#D1AB59" stroke-width="0.75" stroke-miterlimit="10" points="1196.362,-927.48 1178.799,-892.354 
			1101.54,-853.727 1101.437,-853.674 1062.755,-776.312 985.496,-737.684 985.393,-737.628 946.713,-660.269 869.452,-621.64 
			869.351,-621.586 830.669,-544.227 753.413,-505.593 753.31,-505.542 714.625,-428.183 637.367,-389.552 637.266,-389.501 
			598.583,-312.137 521.158,-273.611 521.055,-273.558 482.373,-196.196 405.114,-157.567 405.011,-157.512 366.331,-80.152 
			289.07,-41.523 288.969,-41.47 250.287,35.89 173.031,74.523 172.928,74.574 134.243,151.934 56.985,190.564 56.884,190.615 
			18.201,267.979 -16.922,285.539 		"/>
		<polyline fill="none" stroke="#D1AB59" stroke-width="0.75" stroke-miterlimit="10" points="1206.566,-918.73 1189.001,-883.604 
			1111.743,-844.977 1111.64,-844.924 1072.958,-767.562 995.698,-728.934 995.595,-728.878 956.915,-651.519 879.655,-612.89 
			879.554,-612.836 840.872,-535.477 763.616,-496.843 763.513,-496.792 724.827,-419.433 647.569,-380.802 647.468,-380.751 
			608.786,-303.387 531.36,-264.861 531.257,-264.808 492.575,-187.446 415.317,-148.817 415.214,-148.762 376.534,-71.402 
			299.272,-32.773 299.171,-32.72 260.489,44.64 183.233,83.273 183.13,83.324 144.446,160.684 67.188,199.314 67.087,199.365 
			28.403,276.729 -6.72,294.289 		"/>
		<polyline fill="none" stroke="#D1AB59" stroke-width="0.75" stroke-miterlimit="10" points="1216.767,-910.48 1199.204,-875.354 
			1121.944,-836.727 1121.841,-836.674 1083.159,-759.312 1005.901,-720.684 1005.798,-720.628 967.118,-643.269 889.857,-604.64 
			889.755,-604.586 851.073,-527.227 773.817,-488.593 773.714,-488.542 735.03,-411.183 657.773,-372.552 657.671,-372.501 
			618.987,-295.137 541.563,-256.611 541.46,-256.558 502.778,-179.196 425.519,-140.567 425.415,-140.512 386.735,-63.152 
			309.476,-24.523 309.374,-24.47 270.692,52.89 193.436,91.523 193.333,91.574 154.648,168.934 77.39,207.564 77.288,207.615 
			38.606,284.979 3.483,302.539 		"/>
		<polyline fill="none" stroke="#D1AB59" stroke-width="0.75" stroke-miterlimit="10" points="1390.208,-777.73 1372.645,-742.604 
			1295.386,-703.977 1295.282,-703.924 1256.601,-626.562 1179.342,-587.934 1179.238,-587.878 1140.559,-510.519 1063.298,-471.89 
			1063.196,-471.836 1024.515,-394.477 947.259,-355.843 947.155,-355.792 908.471,-278.433 831.213,-239.802 831.111,-239.751 
			792.429,-162.387 715.004,-123.861 714.9,-123.808 676.219,-46.446 598.96,-7.817 598.857,-7.762 560.177,69.598 482.916,108.227 
			482.815,108.28 444.133,185.64 366.877,224.273 366.773,224.324 328.089,301.684 250.831,340.314 250.729,340.365 
			212.047,417.729 176.924,435.289 		"/>
		<polyline fill="none" stroke="#D1AB59" stroke-width="0.75" stroke-miterlimit="10" points="1400.41,-769.48 1382.847,-734.354 
			1305.588,-695.727 1305.484,-695.674 1266.803,-618.312 1189.544,-579.684 1189.441,-579.628 1150.761,-502.269 1073.5,-463.64 
			1073.399,-463.586 1034.717,-386.227 957.461,-347.593 957.357,-347.542 918.673,-270.183 841.415,-231.552 841.313,-231.501 
			802.631,-154.137 725.206,-115.611 725.103,-115.558 686.421,-38.196 609.162,0.433 609.059,0.488 570.379,77.848 
			493.118,116.477 493.017,116.53 454.335,193.89 377.079,232.523 376.976,232.574 338.291,309.934 261.033,348.564 
			260.932,348.615 222.249,425.979 187.126,443.539 		"/>
		<polyline fill="none" stroke="#D1AB59" stroke-width="0.75" stroke-miterlimit="10" points="1410.612,-760.73 1393.05,-725.604 
			1315.79,-686.977 1315.687,-686.924 1277.005,-609.562 1199.747,-570.934 1199.644,-570.878 1160.964,-493.519 1083.702,-454.89 
			1083.601,-454.836 1044.919,-377.477 967.663,-338.843 967.56,-338.792 928.876,-261.433 851.618,-222.802 851.517,-222.751 
			812.833,-145.387 735.409,-106.861 735.306,-106.808 696.624,-29.446 619.364,9.183 619.261,9.238 580.581,86.598 
			503.321,125.227 503.22,125.28 464.538,202.64 387.282,241.273 387.179,241.324 348.493,318.684 271.235,357.314 271.134,357.365 
			232.452,434.729 197.329,452.289 		"/>
		<polyline fill="none" stroke="#D1AB59" stroke-width="0.75" stroke-miterlimit="10" points="1420.816,-752.48 1403.251,-717.354 
			1325.993,-678.727 1325.89,-678.674 1287.208,-601.312 1209.948,-562.684 1209.845,-562.628 1171.165,-485.269 1093.905,-446.64 
			1093.804,-446.586 1055.122,-369.227 977.866,-330.593 977.763,-330.542 939.077,-253.183 861.819,-214.552 861.718,-214.501 
			823.036,-137.137 745.61,-98.611 745.507,-98.558 706.825,-21.196 629.567,17.433 629.464,17.488 590.784,94.848 513.523,133.477 
			513.421,133.53 474.739,210.89 397.483,249.523 397.38,249.574 358.696,326.934 281.438,365.564 281.337,365.615 242.653,442.979 
			207.53,460.539 		"/>
		<polyline fill="none" stroke="#D1AB59" stroke-width="0.75" stroke-miterlimit="10" points="1349.399,-808.73 1331.835,-773.604 
			1254.576,-734.977 1254.473,-734.924 1215.791,-657.562 1138.532,-618.934 1138.429,-618.878 1099.749,-541.519 1022.488,-502.89 
			1022.387,-502.836 983.705,-425.477 906.449,-386.843 906.346,-386.792 867.661,-309.433 790.403,-270.802 790.302,-270.751 
			751.619,-193.387 674.194,-154.861 674.091,-154.808 635.409,-77.446 558.15,-38.817 558.047,-38.762 519.367,38.598 
			442.107,77.227 442.005,77.28 403.323,154.64 326.067,193.273 325.964,193.324 287.279,270.684 210.021,309.314 209.92,309.365 
			171.237,386.729 136.114,404.289 		"/>
		<polyline fill="none" stroke="#D1AB59" stroke-width="0.75" stroke-miterlimit="10" points="1359.601,-800.48 1342.037,-765.354 
			1264.778,-726.727 1264.675,-726.674 1225.993,-649.312 1148.734,-610.684 1148.631,-610.628 1109.951,-533.269 1032.691,-494.64 
			1032.589,-494.586 993.907,-417.227 916.651,-378.593 916.548,-378.542 877.863,-301.183 800.606,-262.552 800.504,-262.501 
			761.821,-185.137 684.396,-146.611 684.293,-146.558 645.611,-69.196 568.353,-30.567 568.249,-30.512 529.569,46.848 
			452.309,85.477 452.207,85.53 413.525,162.89 336.27,201.523 336.166,201.574 297.481,278.934 220.224,317.564 220.122,317.615 
			181.439,394.979 146.316,412.539 		"/>
		<polyline fill="none" stroke="#D1AB59" stroke-width="0.75" stroke-miterlimit="10" points="1369.804,-791.73 1352.239,-756.604 
			1274.981,-717.977 1274.878,-717.924 1236.196,-640.562 1158.937,-601.934 1158.833,-601.878 1120.153,-524.519 1042.894,-485.89 
			1042.792,-485.836 1004.11,-408.477 926.854,-369.843 926.751,-369.792 888.065,-292.433 810.808,-253.802 810.706,-253.751 
			772.024,-176.387 694.599,-137.861 694.495,-137.808 655.813,-60.446 578.556,-21.817 578.452,-21.762 539.773,55.598 
			462.511,94.227 462.409,94.28 423.728,171.64 346.472,210.273 346.368,210.324 307.685,287.684 230.427,326.314 230.325,326.365 
			191.642,403.729 156.519,421.289 		"/>
		<polyline fill="none" stroke="#D1AB59" stroke-width="0.75" stroke-miterlimit="10" points="1380.005,-783.48 1362.442,-748.354 
			1285.183,-709.727 1285.079,-709.674 1246.397,-632.312 1169.14,-593.684 1169.036,-593.628 1130.356,-516.269 1053.095,-477.64 
			1052.993,-477.586 1014.312,-400.227 937.056,-361.593 936.952,-361.542 898.269,-284.183 821.011,-245.552 820.909,-245.501 
			782.226,-168.137 704.802,-129.611 704.698,-129.558 666.017,-52.196 588.757,-13.567 588.653,-13.512 549.974,63.848 
			472.714,102.477 472.612,102.53 433.931,179.89 356.675,218.523 356.571,218.574 317.886,295.934 240.628,334.564 
			240.526,334.615 201.845,411.979 166.722,429.539 		"/>
	</g>
</g>
</svg>
