<?xml version="1.0" encoding="utf-8"?>
<!-- Generator: Adobe Illustrator 22.0.1, SVG Export Plug-In . SVG Version: 6.00 Build 0)  -->
<svg version="1.1" id="Layer_1" xmlns="http://www.w3.org/2000/svg" xmlns:xlink="http://www.w3.org/1999/xlink" x="0px" y="0px"
	 viewBox="0 0 134 101" enable-background="new 0 0 134 101" xml:space="preserve">
<polygon fill="#DEC18E" points="0.667,78.333 78.667,1.667 132,99.667 39.333,95.667 "/>
<g>
	<defs>
		<polygon id="SVGID_18_" points="912.5,-201.667 1014.5,355.667 1309.833,379 1450.5,26.333 1293.167,-343 		"/>
	</defs>
	<clipPath id="SVGID_1_">
		<use xlink:href="#SVGID_18_"  overflow="visible"/>
	</clipPath>
	<g clip-path="url(#SVGID_1_)">
		<polyline fill="none" stroke="#D1AB59" stroke-width="0.75" stroke-miterlimit="10" points="1308.589,-992.73 1291.025,-957.604 
			1213.767,-918.977 1213.663,-918.924 1174.981,-841.562 1097.723,-802.934 1097.619,-802.878 1058.939,-725.519 981.679,-686.89 
			981.577,-686.836 942.896,-609.477 865.64,-570.843 865.536,-570.792 826.852,-493.433 749.594,-454.802 749.492,-454.751 
			710.81,-377.387 633.385,-338.861 633.281,-338.808 594.6,-261.446 517.341,-222.817 517.237,-222.762 478.558,-145.402 
			401.297,-106.773 401.195,-106.72 362.514,-29.36 285.258,9.273 285.154,9.324 246.47,86.684 169.212,125.314 169.11,125.365 
			130.428,202.73 95.305,220.289 		"/>
		<polyline fill="none" stroke="#D1AB59" stroke-width="0.75" stroke-miterlimit="10" points="1318.791,-984.48 1301.228,-949.354 
			1223.969,-910.727 1223.865,-910.674 1185.184,-833.312 1107.925,-794.684 1107.821,-794.628 1069.142,-717.269 991.881,-678.64 
			991.779,-678.586 953.098,-601.227 875.842,-562.593 875.738,-562.542 837.054,-485.183 759.796,-446.552 759.694,-446.501 
			721.012,-369.137 643.587,-330.611 643.483,-330.558 604.802,-253.196 527.543,-214.567 527.44,-214.512 488.76,-137.152 
			411.499,-98.523 411.397,-98.47 372.716,-21.11 295.46,17.523 295.356,17.574 256.672,94.934 179.414,133.564 179.312,133.615 
			140.63,210.98 105.507,228.539 		"/>
		<polyline fill="none" stroke="#D1AB59" stroke-width="0.75" stroke-miterlimit="10" points="1328.993,-975.73 1311.431,-940.604 
			1234.171,-901.977 1234.067,-901.924 1195.386,-824.562 1118.128,-785.934 1118.024,-785.878 1079.345,-708.519 1002.083,-669.89 
			1001.982,-669.836 963.3,-592.477 886.044,-553.843 885.94,-553.792 847.257,-476.433 769.999,-437.802 769.898,-437.751 
			731.214,-360.387 653.79,-321.861 653.687,-321.808 615.005,-244.446 537.745,-205.817 537.642,-205.762 498.962,-128.402 
			421.702,-89.773 421.601,-89.72 382.919,-12.36 305.663,26.273 305.56,26.324 266.874,103.684 189.616,142.314 189.515,142.365 
			150.833,219.73 115.71,237.289 		"/>
		<polyline fill="none" stroke="#D1AB59" stroke-width="0.75" stroke-miterlimit="10" points="1339.196,-967.48 1321.632,-932.354 
			1244.374,-893.727 1244.271,-893.674 1205.589,-816.312 1128.329,-777.684 1128.226,-777.628 1089.546,-700.269 1012.286,-661.64 
			1012.185,-661.586 973.503,-584.227 896.247,-545.593 896.144,-545.542 857.458,-468.183 780.2,-429.552 780.099,-429.501 
			741.417,-352.137 663.991,-313.611 663.888,-313.558 625.206,-236.196 547.948,-197.567 547.845,-197.512 509.165,-120.152 
			431.903,-81.523 431.802,-81.47 393.12,-4.11 315.864,34.523 315.761,34.574 277.077,111.934 199.819,150.564 199.718,150.615 
			161.034,227.98 125.911,245.539 		"/>
		<polyline fill="none" stroke="#D1AB59" stroke-width="0.75" stroke-miterlimit="10" points="1267.779,-1024.73 1250.216,-989.604 
			1172.957,-950.977 1172.854,-950.924 1134.172,-873.562 1056.913,-834.934 1056.81,-834.878 1018.13,-757.519 940.869,-718.89 
			940.768,-718.836 902.086,-641.477 824.83,-602.843 824.727,-602.792 786.042,-525.433 708.784,-486.802 708.683,-486.751 
			670,-409.387 592.575,-370.861 592.472,-370.808 553.79,-293.446 476.531,-254.817 476.428,-254.762 437.748,-177.402 
			360.487,-138.773 360.386,-138.72 321.704,-61.36 244.448,-22.727 244.345,-22.676 205.66,54.684 128.402,93.314 128.301,93.365 
			89.618,170.73 54.495,188.289 		"/>
		<polyline fill="none" stroke="#D1AB59" stroke-width="0.75" stroke-miterlimit="10" points="1277.981,-1016.48 1260.418,-981.354 
			1183.159,-942.727 1183.056,-942.674 1144.374,-865.312 1067.115,-826.684 1067.012,-826.628 1028.332,-749.269 951.071,-710.64 
			950.97,-710.586 912.288,-633.227 835.032,-594.593 834.929,-594.542 796.244,-517.183 718.986,-478.552 718.885,-478.501 
			680.202,-401.137 602.777,-362.611 602.674,-362.558 563.992,-285.196 486.733,-246.567 486.63,-246.512 447.95,-169.152 
			370.689,-130.523 370.588,-130.47 331.906,-53.11 254.65,-14.477 254.547,-14.426 215.862,62.934 138.604,101.564 
			138.503,101.615 99.82,178.98 64.697,196.539 		"/>
		<polyline fill="none" stroke="#D1AB59" stroke-width="0.75" stroke-miterlimit="10" points="1288.185,-1007.73 1270.62,-972.604 
			1193.362,-933.977 1193.259,-933.924 1154.577,-856.562 1077.317,-817.934 1077.214,-817.878 1038.534,-740.519 961.274,-701.89 
			961.173,-701.836 922.491,-624.477 845.235,-585.843 845.132,-585.792 806.446,-508.433 729.188,-469.802 729.087,-469.751 
			690.405,-392.387 612.979,-353.861 612.876,-353.808 574.194,-276.446 496.936,-237.817 496.833,-237.762 458.153,-160.402 
			380.892,-121.773 380.79,-121.72 342.108,-44.36 264.853,-5.727 264.749,-5.676 226.066,71.684 148.808,110.314 148.706,110.365 
			110.022,187.73 74.899,205.289 		"/>
		<polyline fill="none" stroke="#D1AB59" stroke-width="0.75" stroke-miterlimit="10" points="1298.386,-999.48 1280.823,-964.354 
			1203.563,-925.727 1203.46,-925.674 1164.778,-848.312 1087.521,-809.684 1087.417,-809.628 1048.737,-732.269 971.476,-693.64 
			971.374,-693.586 932.692,-616.227 855.437,-577.593 855.333,-577.542 816.649,-500.183 739.392,-461.552 739.29,-461.501 
			700.607,-384.137 623.183,-345.611 623.079,-345.558 584.398,-268.196 507.138,-229.567 507.034,-229.512 468.354,-152.152 
			391.095,-113.523 390.993,-113.47 352.311,-36.11 275.056,2.523 274.952,2.574 236.267,79.934 159.009,118.564 158.907,118.615 
			120.226,195.98 85.103,213.539 		"/>
		<polyline fill="none" stroke="#D1AB59" stroke-width="0.75" stroke-miterlimit="10" points="1226.97,-1055.73 1209.406,-1020.604 
			1132.147,-981.977 1132.044,-981.924 1093.362,-904.562 1016.104,-865.934 1016,-865.878 977.32,-788.519 900.06,-749.89 
			899.958,-749.836 861.276,-672.477 784.021,-633.843 783.917,-633.792 745.232,-556.433 667.975,-517.802 667.873,-517.751 
			629.19,-440.387 551.766,-401.861 551.662,-401.808 512.981,-324.446 435.722,-285.817 435.618,-285.762 396.938,-208.402 
			319.678,-169.773 319.576,-169.72 280.895,-92.36 203.639,-53.727 203.535,-53.676 164.851,23.684 87.593,62.314 87.491,62.365 
			48.809,139.73 13.686,157.289 		"/>
		<polyline fill="none" stroke="#D1AB59" stroke-width="0.75" stroke-miterlimit="10" points="1237.172,-1047.48 
			1219.608,-1012.354 1142.35,-973.727 1142.246,-973.674 1103.564,-896.312 1026.306,-857.684 1026.202,-857.628 987.523,-780.269 
			910.262,-741.64 910.16,-741.586 871.479,-664.227 794.223,-625.593 794.119,-625.542 755.435,-548.183 678.177,-509.552 
			678.075,-509.501 639.393,-432.137 561.968,-393.611 561.864,-393.558 523.183,-316.196 445.924,-277.567 445.82,-277.512 
			407.141,-200.152 329.88,-161.523 329.778,-161.47 291.097,-84.11 213.841,-45.477 213.737,-45.426 175.053,31.934 97.795,70.564 
			97.693,70.615 59.011,147.98 23.888,165.539 		"/>
		<polyline fill="none" stroke="#D1AB59" stroke-width="0.75" stroke-miterlimit="10" points="1247.374,-1038.73 
			1229.812,-1003.604 1152.552,-964.977 1152.448,-964.924 1113.767,-887.562 1036.509,-848.934 1036.405,-848.878 
			997.726,-771.519 920.464,-732.89 920.362,-732.836 881.681,-655.477 804.425,-616.843 804.321,-616.792 765.638,-539.433 
			688.38,-500.802 688.278,-500.751 649.595,-423.387 572.171,-384.861 572.067,-384.808 533.386,-307.446 456.126,-268.817 
			456.022,-268.762 417.343,-191.402 340.083,-152.773 339.981,-152.72 301.3,-75.36 224.044,-36.727 223.941,-36.676 
			185.255,40.684 107.997,79.314 107.896,79.365 69.214,156.73 34.091,174.289 		"/>
		<polyline fill="none" stroke="#D1AB59" stroke-width="0.75" stroke-miterlimit="10" points="1257.577,-1030.48 1240.013,-995.354 
			1162.755,-956.727 1162.651,-956.674 1123.97,-879.312 1046.71,-840.684 1046.606,-840.628 1007.927,-763.269 930.667,-724.64 
			930.565,-724.586 891.884,-647.227 814.628,-608.593 814.524,-608.542 775.839,-531.183 698.581,-492.552 698.479,-492.501 
			659.798,-415.137 582.372,-376.611 582.269,-376.558 543.587,-299.196 466.329,-260.567 466.226,-260.512 427.546,-183.152 
			350.284,-144.523 350.183,-144.47 311.501,-67.11 234.245,-28.477 234.142,-28.426 195.458,48.934 118.2,87.564 118.099,87.615 
			79.415,164.98 44.292,182.539 		"/>
		<polyline fill="none" stroke="#D1AB59" stroke-width="0.75" stroke-miterlimit="10" points="1186.16,-1086.73 1168.597,-1051.604 
			1091.338,-1012.977 1091.234,-1012.924 1052.553,-935.562 975.294,-896.934 975.19,-896.878 936.511,-819.519 859.25,-780.89 
			859.148,-780.836 820.467,-703.477 743.211,-664.843 743.107,-664.792 704.423,-587.433 627.165,-548.802 627.063,-548.751 
			588.381,-471.387 510.956,-432.861 510.853,-432.808 472.171,-355.446 394.912,-316.817 394.809,-316.762 356.129,-239.402 
			278.868,-200.773 278.767,-200.72 240.085,-123.36 162.829,-84.727 162.726,-84.676 124.041,-7.316 46.783,31.314 46.682,31.365 
			7.999,108.729 -27.124,126.289 		"/>
		<polyline fill="none" stroke="#D1AB59" stroke-width="0.75" stroke-miterlimit="10" points="1196.362,-1078.48 
			1178.799,-1043.354 1101.54,-1004.727 1101.437,-1004.674 1062.755,-927.312 985.496,-888.684 985.393,-888.628 946.713,-811.269 
			869.452,-772.64 869.351,-772.586 830.669,-695.227 753.413,-656.593 753.31,-656.542 714.625,-579.183 637.367,-540.552 
			637.266,-540.501 598.583,-463.137 521.158,-424.611 521.055,-424.558 482.373,-347.196 405.114,-308.567 405.011,-308.512 
			366.331,-231.152 289.07,-192.523 288.969,-192.47 250.287,-115.11 173.031,-76.477 172.928,-76.426 134.243,0.934 56.985,39.564 
			56.884,39.615 18.201,116.979 -16.922,134.539 		"/>
		<polyline fill="none" stroke="#D1AB59" stroke-width="0.75" stroke-miterlimit="10" points="1206.566,-1069.73 
			1189.001,-1034.604 1111.743,-995.977 1111.64,-995.924 1072.958,-918.562 995.698,-879.934 995.595,-879.878 956.915,-802.519 
			879.655,-763.89 879.554,-763.836 840.872,-686.477 763.616,-647.843 763.513,-647.792 724.827,-570.433 647.569,-531.802 
			647.468,-531.751 608.786,-454.387 531.36,-415.861 531.257,-415.808 492.575,-338.446 415.317,-299.817 415.214,-299.762 
			376.534,-222.402 299.272,-183.773 299.171,-183.72 260.489,-106.36 183.233,-67.727 183.13,-67.676 144.446,9.684 67.188,48.314 
			67.087,48.365 28.403,125.729 -6.72,143.289 		"/>
		<polyline fill="none" stroke="#D1AB59" stroke-width="0.75" stroke-miterlimit="10" points="1216.767,-1061.48 
			1199.204,-1026.354 1121.944,-987.727 1121.841,-987.674 1083.159,-910.312 1005.901,-871.684 1005.798,-871.628 
			967.118,-794.269 889.857,-755.64 889.755,-755.586 851.073,-678.227 773.817,-639.593 773.714,-639.542 735.03,-562.183 
			657.773,-523.552 657.671,-523.501 618.987,-446.137 541.563,-407.611 541.46,-407.558 502.778,-330.196 425.519,-291.567 
			425.415,-291.512 386.735,-214.152 309.476,-175.523 309.374,-175.47 270.692,-98.11 193.436,-59.477 193.333,-59.426 
			154.648,17.934 77.39,56.564 77.288,56.615 38.606,133.98 3.483,151.539 		"/>
	</g>
</g>
</svg>
