<?xml version="1.0" encoding="utf-8"?>
<!-- Generator: Adobe Illustrator 22.0.1, SVG Export Plug-In . SVG Version: 6.00 Build 0)  -->
<svg version="1.1" id="Layer_1" xmlns="http://www.w3.org/2000/svg" xmlns:xlink="http://www.w3.org/1999/xlink" x="0px" y="0px"
	 viewBox="0 0 419 540.5" enable-background="new 0 0 419 540.5" xml:space="preserve">
<g>
	<path d="M341.887,407.766c-0.201,0.1-0.302,0.2-0.504,0.302c-37.277,22.567-79.794,38.184-124.225,39.494
		c-2.115,1.611-7.153,5.642-7.153,5.642s-5.038-3.828-7.254-5.642c-44.431-1.209-87.048-16.927-124.225-39.494
		c-0.202-0.102-0.303-0.202-0.504-0.302c-0.302,0.2-39.192,24.381-39.192,24.381v51.886c49.771,29.521,104.68,47.253,163.82,48.462
		c2.015,2.015,7.254,5.943,7.254,5.943s5.24-4.029,7.154-5.943c59.241-1.209,114.049-18.941,163.82-48.462v-51.886
		C380.978,432.147,342.19,408.068,341.887,407.766z"/>
</g>
<linearGradient id="SVGID_1_" gradientUnits="userSpaceOnUse" x1="170.9572" y1="-189.7476" x2="488.8582" y2="-189.7476" gradientTransform="matrix(1.0281 0 0 -1.0281 -129.1745 277.6704)">
	<stop  offset="0" style="stop-color:#BD1B21"/>
	<stop  offset="0.5169" style="stop-color:#ED1C24"/>
	<stop  offset="1" style="stop-color:#BD1B21"/>
</linearGradient>
<path fill="url(#SVGID_1_)" d="M343.399,416.329c-37.178,21.358-81.91,37.781-125.133,39.191c-1.007,0.806-8.261,6.246-8.261,6.246
	s-7.254-5.44-8.262-6.246c-43.323-1.31-87.955-17.731-125.132-39.191l-30.024,20.553v43.222
	c47.755,27.001,101.153,42.819,156.264,43.927h0.906c0,0,4.131,3.427,6.247,5.14l0,0l0,0l0,0l0,0c2.016-1.613,6.246-5.14,6.246-5.14
	h0.907c55.11-1.107,108.608-16.926,156.264-43.927v-43.222L343.399,416.329z"/>
<g>
	<path fill="#FFFFFF" d="M154.592,25.618c-9.874,5.44-10.377,12.09-8.161,16.422c0.806-0.604,5.038-0.705,9.873-3.124
		c2.116-0.403,13.098,1.511,20.251,7.456c0.807-2.72,1.209-5.743,1.209-8.665c0-9.672-4.232-18.034-10.881-23.273
		c-0.705,0.403-1.511,0.806-2.317,1.209C156.305,20.581,157.313,24.107,154.592,25.618z"/>
	<path fill="#CF9234" d="M409.29,235.28c-0.303-2.418-0.604-4.836-0.807-7.254c-2.316-19.948-1.611-39.595-1.208-59.645
		c0.402-18.639-2.418-35.867-11.688-52.188c-8.16-14.508-22.871-33.349-40.703-35.766c-16.221-2.217-27.102,12.191-42.114,16.221
		c-16.724,4.332-26.195,4.03-41.71-7.456c-6.448-6.146-28.814-52.894-34.961-62.566c-6.951-10.881-16.019-17.43-29.016-20.453
		c-14.206-3.224-39.494,2.62-44.834,9.471c-3.728,4.735-5.743,3.929-5.743,7.355c-0.202,5.642,11.184,17.53,20.856,23.878
		c-7.153,0.604,3.828,17.026,2.115,21.158c-1.612,4.03-1.411,25.188-25.49,29.721c-19.042,4.836-41.71,0.403-47.353-1.108
		C91.521,92.719,79.532,78.916,63.21,81.132c-17.833,2.418-31.232,20.654-39.494,34.96c-9.37,16.322-12.09,33.65-11.688,52.189
		c0.403,20.049,1.008,39.695-1.209,59.644c-0.302,2.418-0.604,4.735-0.806,7.254c-0.202-0.705,83.32-44.229,85.839-46.748
		c3.728-3.728,5.441-6.247,9.773-10.579l0.302,112.135c0,0,13.299-17.329,16.826-13.702c2.216,2.217-6.75,60.753-14.206,88.358
		c1.713,0.101,11.788-5.944,13.198-5.139c1.612,0.807,0.907,14.71,1.511,15.919c0.907-1.611,4.433-8.061,7.254-7.254
		c2.72,0.705,3.022,8.161,3.022,10.378c2.418-5.139,4.433-12.292,7.053-17.531c2.619-4.938,7.858-14.407,11.384-19.848
		c2.821-4.231,14.508-16.825,21.46-18.941c8.866-2.82,31.837-0.402,35.867,11.485h1.511c6.548-16.221,29.017-16.925,40.502-7.959
		c5.742,4.433,20.452,24.18,22.87,29.117c2.62,4.937,9.772,18.639,12.191,24.079c0-2.217-0.202-9.974,2.519-10.68
		c2.821-0.705,6.347,5.743,7.354,7.255c0.604-1.21-0.102-15.214,1.512-15.92c1.31-0.704,11.385,5.239,13.197,5.139
		c-7.656-24.18-13.197-72.641-13.399-75.966c-0.201-2.619-1.107-23.173,0.202-31.232c0.705,14.407,2.417,17.631,15.817,32.644
		c0.201-3.728,1.209-101.96,0.303-112.136c4.332,4.333,5.339,7.556,9.772,10.579C337.152,198.003,409.491,234.474,409.29,235.28z"/>
	
		<linearGradient id="SVGID_2_" gradientUnits="userSpaceOnUse" x1="468.7723" y1="-29.0898" x2="484.5298" y2="8.3787" gradientTransform="matrix(1.0281 0 0 -1.0281 -129.1745 277.6704)">
		<stop  offset="0" style="stop-color:#FFFFFF"/>
		<stop  offset="0.1047" style="stop-color:#F5E5D1"/>
		<stop  offset="0.2762" style="stop-color:#EACA9E"/>
		<stop  offset="0.4438" style="stop-color:#E1B577"/>
		<stop  offset="0.6035" style="stop-color:#D9A55C"/>
		<stop  offset="0.7534" style="stop-color:#D39A46"/>
		<stop  offset="0.8897" style="stop-color:#D09439"/>
		<stop  offset="1" style="stop-color:#CF9234"/>
	</linearGradient>
	<path fill="url(#SVGID_2_)" d="M314.382,268.125c0.202-0.302,0.403-0.705,0.706-1.007c1.611,1.511,3.223,3.022,4.734,4.634
		c6.75,6.952,11.284,15.314,16.825,23.072c5.945,8.363,13.602,14.811,21.058,21.661c6.247,5.845,35.866,27.606,50.273,36.674
		c2.217-11.486-0.604-34.658-0.503-46.445c0.201-10.58-0.101-17.833-9.37-24.282c-11.889-8.362-25.993-13.903-38.587-21.158
		c-11.184-6.448-21.562-14.911-32.644-21.56c-8.261-4.937-11.485-10.579-12.694-17.229
		C312.67,237.799,313.274,252.912,314.382,268.125z"/>
	
		<linearGradient id="SVGID_3_" gradientUnits="userSpaceOnUse" x1="-5036.313" y1="-29.19" x2="-5020.5557" y2="8.2786" gradientTransform="matrix(-1.0281 0 0 -1.0281 -5111.207 277.6704)">
		<stop  offset="0" style="stop-color:#FFFFFF"/>
		<stop  offset="0.1188" style="stop-color:#F4E2CB"/>
		<stop  offset="0.2846" style="stop-color:#E9C89A"/>
		<stop  offset="0.4474" style="stop-color:#E0B475"/>
		<stop  offset="0.6035" style="stop-color:#D9A55B"/>
		<stop  offset="0.7512" style="stop-color:#D39A46"/>
		<stop  offset="0.8871" style="stop-color:#D09439"/>
		<stop  offset="1" style="stop-color:#CF9234"/>
	</linearGradient>
	<path fill="url(#SVGID_3_)" d="M105.023,268.125c-0.201-0.302-0.403-0.705-0.705-1.007c-1.511,1.511-3.224,3.022-4.735,4.634
		c-6.75,6.952-11.284,15.314-16.826,23.072c-5.944,8.363-13.702,14.811-21.057,21.661c-6.246,5.845-35.867,27.606-50.274,36.674
		c-2.217-11.486,0.604-34.658,0.403-46.445c-0.101-10.58,0.101-17.833,9.37-24.282c11.989-8.362,25.994-13.903,38.587-21.158
		c11.184-6.448,21.561-14.911,32.643-21.56c8.262-4.937,11.485-10.579,12.695-17.229
		C106.736,237.799,106.132,252.912,105.023,268.125z"/>
	<path fill="#FFFFFF" d="M252.723,325.25c-8.362-8.362-29.218-10.478-43.021,6.65c-13.803-17.128-34.557-15.013-43.02-6.65
		c-1.511,8.362-24.08,82.615-27.001,90.374c11.385,3.324,11.083,1.511,18.639-0.605c1.411,21.058,14.307,8.563,17.127,5.743
		c9.975,18.034,19.244,6.952,24.382-1.21c0,6.65,2.922,9.976,9.975,15.013c7.153-5.037,9.974-8.362,9.974-15.013
		c5.037,8.061,14.408,19.144,24.382,1.21c2.82,2.922,15.616,15.314,17.127-5.743c7.456,2.116,7.255,3.93,18.64,0.605
		C276.803,407.865,254.336,333.713,252.723,325.25z"/>
	<path fill="#FFFFFF" d="M314.382,228.53c7.759,22.77,79.996,54.204,94.504,63.171c0-14.811-1.41-24.483-1.209-36.271
		c0.202-10.579-0.101-17.833-9.369-24.281c-11.889-8.363-25.994-13.904-38.588-21.158c-11.184-6.448-21.561-14.911-32.644-21.661
		c-8.262-4.937-11.484-10.579-12.694-17.229C312.67,186.416,314.081,228.933,314.382,228.53z"/>
	<path fill="#FFFFFF" d="M314.382,308.324c0,10.579,7.455,18.84,15.415,25.49c0.302,6.246,3.627,21.762,16.422,26.799
		c0,8.665,7.354,20.957,20.452,27.103c0,11.082,13.703,20.956,20.957,22.366c-5.037,35.363,16.12,45.942,21.258,49.066
		c0-14.811-1.41-75.866-1.209-87.653c0.202-10.579-0.302-17.531-9.369-24.281c-36.875-27.304-70.525-65.992-84.731-82.616
		C311.965,279.812,314.081,308.626,314.382,308.324z"/>
	<path fill="#FFFFFF" d="M105.023,228.53c-7.757,22.77-79.996,54.204-94.504,63.171c0-14.811,1.411-24.483,1.209-36.271
		c-0.101-10.579,0.101-17.833,9.37-24.281c11.989-8.363,25.993-13.904,38.587-21.158c11.184-6.448,21.561-14.911,32.643-21.661
		c8.262-4.937,11.486-10.579,12.695-17.229C106.736,186.416,105.225,228.933,105.023,228.53z"/>
	<path fill="#FFFFFF" d="M105.023,308.324c0,10.579-7.456,18.84-15.415,25.49c-0.303,6.246-3.627,21.762-16.423,26.799
		c0,8.665-7.354,20.957-20.452,27.103c0,11.082-13.702,20.956-20.956,22.366c5.038,35.363-16.12,45.942-21.259,49.066
		c0-14.811,1.411-75.866,1.209-87.653c-0.101-10.579,0.302-17.531,9.37-24.281c36.975-27.304,70.525-65.992,84.731-82.616
		C107.441,279.812,105.225,308.626,105.023,308.324z"/>
	
		<linearGradient id="SVGID_4_" gradientUnits="userSpaceOnUse" x1="329.7132" y1="-141.5439" x2="329.7132" y2="-36.607" gradientTransform="matrix(1.0281 0 0 -1.0281 -129.1745 277.6704)">
		<stop  offset="0" style="stop-color:#FFFFFF"/>
		<stop  offset="0.1603" style="stop-color:#F9F9F9"/>
		<stop  offset="0.3649" style="stop-color:#EAEAEA"/>
		<stop  offset="0.5937" style="stop-color:#CFCFCF"/>
		<stop  offset="0.8382" style="stop-color:#ABABAB"/>
		<stop  offset="1" style="stop-color:#8F8F8F"/>
	</linearGradient>
	<path fill="url(#SVGID_4_)" d="M252.723,325.25c-8.362-8.362-29.218-10.478-43.021,6.65c-13.803-17.128-34.557-15.013-43.02-6.65
		c-1.511,8.362-24.08,82.615-27.001,90.374c11.385,3.324,11.083,1.511,18.639-0.605c1.411,21.058,14.307,8.563,17.127,5.743
		c9.975,18.034,19.244,6.952,24.382-1.21c0,6.65,2.922,9.976,9.975,15.013c7.153-5.037,9.974-8.362,9.974-15.013
		c5.037,8.061,14.408,19.144,24.382,1.21c2.82,2.922,15.616,15.314,17.127-5.743c7.456,2.116,7.255,3.93,18.64,0.605
		C276.803,407.865,254.336,333.713,252.723,325.25z"/>
	
		<linearGradient id="SVGID_5_" gradientUnits="userSpaceOnUse" x1="465.3351" y1="20.2769" x2="483.0851" y2="56.8209" gradientTransform="matrix(1.0281 0 0 -1.0281 -129.1745 277.6704)">
		<stop  offset="0" style="stop-color:#FFFFFF"/>
		<stop  offset="0.1603" style="stop-color:#F9F9F9"/>
		<stop  offset="0.3649" style="stop-color:#EAEAEA"/>
		<stop  offset="0.5937" style="stop-color:#CFCFCF"/>
		<stop  offset="0.8382" style="stop-color:#ABABAB"/>
		<stop  offset="1" style="stop-color:#8F8F8F"/>
	</linearGradient>
	<path fill="url(#SVGID_5_)" d="M314.382,228.53c7.759,22.77,79.996,54.204,94.504,63.07c0-14.811-1.41-24.482-1.209-36.27
		c0.202-10.579-0.101-17.833-9.369-24.281c-11.889-8.362-25.994-13.903-38.588-21.157c-11.184-6.448-21.561-14.911-32.644-21.662
		c-8.262-4.937-11.484-10.579-12.694-17.229C312.67,186.416,314.081,228.933,314.382,228.53z"/>
	
		<linearGradient id="SVGID_6_" gradientUnits="userSpaceOnUse" x1="477.477" y1="-81.3483" x2="496.7354" y2="-58.9386" gradientTransform="matrix(1.0281 0 0 -1.0281 -129.1745 277.6704)">
		<stop  offset="0" style="stop-color:#FFFFFF"/>
		<stop  offset="0.1603" style="stop-color:#F9F9F9"/>
		<stop  offset="0.3649" style="stop-color:#EAEAEA"/>
		<stop  offset="0.5937" style="stop-color:#CFCFCF"/>
		<stop  offset="0.8382" style="stop-color:#ABABAB"/>
		<stop  offset="1" style="stop-color:#8F8F8F"/>
	</linearGradient>
	<path fill="url(#SVGID_6_)" d="M314.382,308.324c0,10.579,7.455,18.84,15.415,25.49c0.302,6.246,3.627,21.762,16.422,26.799
		c0,8.665,7.354,20.957,20.452,27.103c0,11.082,13.703,20.956,20.957,22.366c-5.037,35.363,16.12,45.942,21.258,49.066
		c0-14.811-1.41-75.866-1.209-87.653c0.202-10.579-0.302-17.531-9.369-24.281c-36.875-27.304-70.525-65.992-84.731-82.616
		C311.965,279.812,314.081,308.626,314.382,308.324z"/>
	
		<linearGradient id="SVGID_7_" gradientUnits="userSpaceOnUse" x1="273.6069" y1="20.2873" x2="291.355" y2="56.8278" gradientTransform="matrix(-1.0281 0 0 -1.0281 351.4577 277.6704)">
		<stop  offset="0" style="stop-color:#FFFFFF"/>
		<stop  offset="0.1603" style="stop-color:#F9F9F9"/>
		<stop  offset="0.3649" style="stop-color:#EAEAEA"/>
		<stop  offset="0.5937" style="stop-color:#CFCFCF"/>
		<stop  offset="0.8382" style="stop-color:#ABABAB"/>
		<stop  offset="1" style="stop-color:#8F8F8F"/>
	</linearGradient>
	<path fill="url(#SVGID_7_)" d="M105.023,228.53c-7.757,22.77-79.996,54.204-94.504,63.07c0-14.811,1.411-24.482,1.209-36.27
		c-0.101-10.579,0.101-17.833,9.37-24.281c11.989-8.362,25.993-13.903,38.587-21.157c11.184-6.448,21.561-14.911,32.643-21.662
		c8.262-4.937,11.486-10.579,12.695-17.229C106.736,186.416,105.225,228.933,105.023,228.53z"/>
	
		<linearGradient id="SVGID_8_" gradientUnits="userSpaceOnUse" x1="285.7538" y1="-81.337" x2="305.0132" y2="-58.9262" gradientTransform="matrix(-1.0281 0 0 -1.0281 351.4577 277.6704)">
		<stop  offset="0" style="stop-color:#FFFFFF"/>
		<stop  offset="0.1603" style="stop-color:#F9F9F9"/>
		<stop  offset="0.3649" style="stop-color:#EAEAEA"/>
		<stop  offset="0.5937" style="stop-color:#CFCFCF"/>
		<stop  offset="0.8382" style="stop-color:#ABABAB"/>
		<stop  offset="1" style="stop-color:#8F8F8F"/>
	</linearGradient>
	<path fill="url(#SVGID_8_)" d="M105.023,308.324c0,10.579-7.456,18.84-15.415,25.49c-0.303,6.246-3.627,21.762-16.423,26.799
		c0,8.665-7.354,20.957-20.452,27.103c0,11.082-13.702,20.956-20.956,22.366c5.038,35.363-16.12,45.942-21.259,49.066
		c0-14.811,1.411-75.866,1.209-87.653c-0.101-10.579,0.101-17.732,9.37-24.281c51.08-36.371,70.525-65.992,84.731-82.616
		C107.441,279.812,105.225,308.626,105.023,308.324z"/>
	
		<linearGradient id="SVGID_9_" gradientUnits="userSpaceOnUse" x1="211.3129" y1="-45.3081" x2="268.3114" y2="-20.3908" gradientTransform="matrix(1.0281 0 0 -1.0281 -129.1745 277.6704)">
		<stop  offset="0" style="stop-color:#FFFFFF"/>
		<stop  offset="0.3005" style="stop-color:#EFDABA"/>
		<stop  offset="0.6362" style="stop-color:#DEB372"/>
		<stop  offset="0.8782" style="stop-color:#D39B45"/>
		<stop  offset="1" style="stop-color:#CF9234"/>
	</linearGradient>
	<path fill="url(#SVGID_9_)" d="M123.461,376.532c0-3.426,1.612-12.694-2.216-15.616c-2.418-1.713-8.463,3.425-13.5,6.447
		c8.765-27.303,29.318-109.616,26.094-134.098c25.086,13.198,38.487,21.561,54.002,32.744c15.415,11.083,17.127,43.625,7.052,39.696
		c-21.863-8.463-50.678,20.955-60.35,69.215C132.125,368.673,130.11,364.039,123.461,376.532z"/>
	
		<linearGradient id="SVGID_10_" gradientUnits="userSpaceOnUse" x1="-5519.29" y1="-45.4648" x2="-5462.2939" y2="-20.5485" gradientTransform="matrix(-1.0281 0 0 -1.0281 -5342.8857 277.6704)">
		<stop  offset="0" style="stop-color:#FFFFFF"/>
		<stop  offset="0.3005" style="stop-color:#EFDABA"/>
		<stop  offset="0.6362" style="stop-color:#DEB372"/>
		<stop  offset="0.8782" style="stop-color:#D39B45"/>
		<stop  offset="1" style="stop-color:#CF9234"/>
	</linearGradient>
	<path fill="url(#SVGID_10_)" d="M295.844,376.532c0-3.426-1.611-12.694,2.217-15.616c2.418-1.713,8.464,3.425,13.399,6.447
		c-8.664-27.303-29.317-109.616-26.094-134.098c-25.087,13.198-38.486,21.561-54.003,32.744
		c-15.414,11.083-17.127,43.625-7.053,39.696c21.863-8.463,50.678,20.955,60.351,69.215
		C287.281,368.673,289.296,364.039,295.844,376.532z"/>
	
		<linearGradient id="SVGID_11_" gradientUnits="userSpaceOnUse" x1="132.5664" y1="144.461" x2="191.8527" y2="121.5294" gradientTransform="matrix(1.0281 0 0 -1.0281 -129.1745 277.6704)">
		<stop  offset="0" style="stop-color:#FFFFFF"/>
		<stop  offset="1" style="stop-color:#CF9234"/>
	</linearGradient>
	<path fill="url(#SVGID_11_)" d="M166.985,95.64c-48.864,35.363-94.503-16.927-110.019-2.116
		c-9.471,8.866-37.278,39.796-37.278,53.096c0,13.5,1.612,77.074-2.922,81.608c13.299,0.101,80.298-42.013,84.126-45.741
		c13.198-13.198,17.531-6.347,34.255-6.347c6.045-4.232,13.198-7.254,19.848-11.083C179.578,149.945,167.488,120.122,166.985,95.64z
		"/>
	
		<linearGradient id="SVGID_12_" gradientUnits="userSpaceOnUse" x1="425.1087" y1="200.1192" x2="388.4027" y2="130.7222" gradientTransform="matrix(1.0281 0 0 -1.0281 -129.1745 277.6704)">
		<stop  offset="0" style="stop-color:#FFFFFF"/>
		<stop  offset="0.1071" style="stop-color:#F6EBDA"/>
		<stop  offset="0.2701" style="stop-color:#EAD0A8"/>
		<stop  offset="0.4313" style="stop-color:#E1BA7E"/>
		<stop  offset="0.5875" style="stop-color:#D9A85E"/>
		<stop  offset="0.7373" style="stop-color:#D39C47"/>
		<stop  offset="0.8779" style="stop-color:#D09539"/>
		<stop  offset="1" style="stop-color:#CF9234"/>
	</linearGradient>
	<path fill="url(#SVGID_12_)" d="M398.712,144.201c-4.434-12.795-33.35-51.886-45.842-51.886c-15.616,0-41.207,25.591-71.332,13.601
		c-36.472-14.508-31.635-68.812-72.439-87.954c13.4,3.627,26.799,11.083,22.668,8.765c-19.646-35.363-65.689-20.855-75.563-5.34
		c-1.511,6.146,9.873,17.329,19.344,24.785c8.665,13.5,9.773,14.609,2.62,38.083c-6.952,22.871,47.353,15.919,62.567,33.953
		c16.32,19.848,34.959,35.363,60.047,41.207c0.806,0.101,1.611,0.302,2.417,0.503c4.938,13.5,43.928,50.778,100.046,69.014
		C395.185,218.455,403.144,156.997,398.712,144.201z"/>
	<g>
		<path fill="#FFFFFF" d="M79.332,431.139c1.411,2.217,3.325,2.62,6.146,2.519c1.007,0,2.217-0.302,3.224,0
			c1.007,0.303,2.115,3.729,3.526,4.03c1.31,0.303,5.138,0,6.549,0.102c2.519,0.302,4.433,3.022,6.952,3.122
			c2.116,0.102,3.828-1.713,4.332-3.828c0.604-2.619-0.302-10.881,2.116-12.997c1.108,0.807,4.131,3.325,5.743,3.93
			c1.31,0.504,5.038,2.015,6.246,2.418c0.604,0.201-7.052-12.393-7.254-14.911c-0.907-8.564,6.75-19.848,8.866-24.885
			c1.007-2.318,3.526-10.882,4.433-13.4c0.907-2.519,1.713-8.261-0.503-6.649c-8.564,5.944-6.347-8.464-9.068-7.858
			c-6.549,1.31-8.06,11.989-9.672,17.228c-1.209,4.132-10.579,26.397-12.19,26.901c-1.511-0.907-4.434,0-6.75,3.828
			c-2.519-3.022-5.239-7.153-9.168-6.851c-5.038,0.403-3.124,8.06-2.62,11.183c0.303,2.217-1.914,10.075-1.612,12.09
			c0.101,0.907,0.403,2.419,0.604,3.325L79.332,431.139z"/>
	</g>
	<g>
		<path fill="#FFFFFF" d="M340.881,430.837c-1.411,2.216-5.038,3.627-7.759,3.525c-1.007,0-3.626,1.31-4.332,2.117
			c-1.007,1.007-2.619,0.806-4.029,1.007c-1.31,0.303-2.52,0.504-3.829,0.604c-2.519,0.302-4.533,2.619-7.052,2.721
			c-2.117,0.1-3.93-1.915-4.434-3.93c-0.604-2.619-2.115-11.284-3.627-10.68c-1.411,0.604-7.354,3.123-10.579,4.332
			c-0.604,0.202,6.649-12.795,7.557-15.213c1.008-2.62,1.31-4.131-0.302-7.959c-0.304-0.604-5.643-10.881-7.758-15.717
			c-1.008-2.318-4.232-11.99-5.239-14.408c-0.907-2.519-1.915-8.261,0.503-6.649c8.564,5.944,6.348-8.464,9.068-7.858
			c6.549,1.31,8.06,11.989,9.671,17.228c1.21,4.132,3.628,8.666,4.938,12.695c1.411,4.03,5.34,10.276,5.34,16.725
			c0,0,1.209-1.512,2.62-1.713c2.921-0.202,4.433-0.504,5.238,3.324c2.317-3.727,5.34-7.354,9.37-6.951
			c5.038,0.402,3.627,8.061,3.123,11.183c-0.302,2.217-0.101,3.325,0.705,5.239C342.996,428.218,340.881,430.837,340.881,430.837z"
			/>
	</g>
	
		<linearGradient id="SVGID_13_" gradientUnits="userSpaceOnUse" x1="305.3416" y1="232.7775" x2="301.5179" y2="250.2333" gradientTransform="matrix(1.0281 0 0 -1.0281 -129.1745 277.6704)">
		<stop  offset="0" style="stop-color:#FFFFFF"/>
		<stop  offset="1" style="stop-color:#000000"/>
	</linearGradient>
	<path fill="url(#SVGID_13_)" d="M189.755,23.503c0,4.03-3.728,7.354-8.262,7.354s-8.261-3.324-8.261-7.354
		c0-4.03,3.727-7.354,8.261-7.354C186.127,16.249,189.755,19.473,189.755,23.503z"/>
	<g>
		<path d="M157.111,30.857c0.302,0,0.503,0,0.806,0.101l0,0c0-1.209-1.208-2.216-2.72-2.216c-1.411,0-2.721,1.007-2.721,2.216
			c0,1.108,0.907,2.015,2.317,2.217c-0.1-0.202-0.201-0.403-0.201-0.604C154.694,31.563,155.801,30.857,157.111,30.857z"/>
	</g>
	<path d="M174.843,25.014c2.317,8.161,14.911,3.829,11.183-5.138c4.937-1.914,8.665-2.015,12.594-2.72
		c-10.377-1.612-22.568-2.922-30.125,0.504c-3.727,1.612-2.72,3.929-2.116,4.836c0.604-2.015,3.93-2.116,6.348-1.31
		c-1.713,15.213,17.732,13.5,16.926,1.007C188.344,32.57,175.246,32.57,174.843,25.014z"/>
	<path fill="#FFFFFF" d="M184.818,21.487c-0.906-0.906-4.634-1.713-6.448,0c0-1.612,1.411-3.022,3.224-3.022
		C183.306,18.566,184.818,19.876,184.818,21.487z"/>
	<path d="M411.002,296.335c2.016,0.706,3.628,1.311,4.938,1.915c-5.34-8.161-4.938-21.359-4.938-24.482v-31.535
		c2.016,0.705,3.628,1.31,4.938,1.914c-5.34-8.161-4.938-21.359-4.938-24.482v-73.246c0-20.251-30.93-69.417-57.124-70.021
		c-18.639-0.403-40.401,25.691-67.101,18.941c-8.563-2.216-15.415-11.385-21.057-22.769c-9.975-20.251-19.546-47.555-43.726-63.271
		c-26.8-17.43-57.73,2.116-61.256,5.037c-3.022,2.821-7.859,11.184-10.479,12.393c-8.362,4.332-9.772,11.687-9.772,14.508
		c0,2.821,0.604,9.571,5.743,13.399c-0.705-3.325-0.907-5.138-0.101-6.851c3.325,0.503,10.679,2.116,15.415,0.101
		c2.317,2.418,7.858,6.851,10.377,11.385c3.426,6.448,3.426,7.354,3.426,9.873c0,6.549-3.022,15.818-12.292,21.863
		c-9.773,6.952-32.744,10.881-61.559,0.907c-15.515-5.34-21.963-16.12-35.967-15.717c-26.195,0.604-57.126,49.67-57.126,70.021
		v73.246c0,3.123,0.403,16.221-4.937,24.482c1.31-0.504,3.123-1.108,4.937-1.914v31.535c0,3.123,0.403,16.22-4.937,24.482
		c1.31-0.504,3.123-1.108,4.937-1.915v40.401c0,3.123,0.403,16.221-4.937,24.482c1.31-0.504,3.123-1.008,4.937-1.915v81.307
		c0,2.316,0.202,10.377-2.015,17.631c-0.705,2.419,0.907,5.34,3.526,4.332c10.478-4.13,25.792-12.291,25.792-35.161v-12.796
		c7.556-3.324,16.523-9.067,19.444-23.374c8.564-4.231,18.034-11.586,20.049-26.497c8.665-5.038,17.43-13.903,17.531-30.931
		c7.656-5.844,12.09-12.493,13.097-17.832c0.604-3.526,1.008-11.989,1.209-21.763c5.44-4.03,9.571-8.564,11.788-12.695
		c-0.907,21.158-5.038,49.57-15.012,88.963c1.712,0,4.13-0.403,6.549-0.907c-1.31,7.96-8.06,26.8-12.594,35.464
		c-0.604-0.1-1.209,0-2.015,0.101c-1.411,0.303-2.62,1.612-3.325,3.526c-2.116-3.123-4.534-8.16-10.579-6.246
		c-6.045,2.016-4.635,9.168-3.627,12.493c2.116,6.448-2.619,8.463-1.712,13.903c0.504,3.728,2.821,6.348,5.44,7.456
		c0.706,1.611,2.116,2.922,3.829,3.626c1.915,0.706,1.612-0.906,1.511-3.223c0.403-0.102,0.806-0.202,1.108-0.403
		c0.503,1.713,1.612,3.022,3.123,3.728c0.604,1.31,1.914,2.619,4.232,4.13c2.418,1.109,0.705-1.409,0.302-3.728
		c0.806-0.2,1.713-0.604,2.62-1.107c0.302,0.705,0.705,1.31,1.31,1.713c0.202,0.201,0.403,0.302,0.604,0.503
		c0.605,2.418,2.317,3.829,4.736,5.139c1.712,0.504,1.007-1.31,0.806-3.225c2.418,0,4.433-1.208,5.339-5.138
		c1.31-5.441-1.511-4.938,1.612-11.385c0.706,0.101,5.44,2.115,6.348,2.317c-4.534-1.713-7.254-12.796-7.96-9.672
		c-3.929,7.053-0.403,20.15-4.835,20.553c-12.796,0.806-3.325-15.213-2.821-19.243c0.604-5.037,0.1-12.594,5.038-11.083
		c4.433,1.31,10.175,15.919,12.997,20.15c0.403,0.604,6.75,4.332,7.052,2.721c-5.944-5.944-9.37-15.112-10.075-18.135
		c-0.907-4.132-0.504-6.247,0.705-9.472c1.209-3.022,8.363-15.717,11.385-21.963c0.806,2.519,1.612,4.735,2.116,6.648
		c0.907-13.299,15.818-38.587,28.814-53.598c-4.735,15.111-15.415,52.087-18.336,62.363c-2.418,8.362-8.06,17.229-9.571,18.539
		c4.937,1.913,14.004,3.324,20.452,0.806c-0.907,3.324-0.806,6.347,2.015,9.168c3.526,3.526,13.299,6.045,18.034-2.217
		c3.829,13.702,18.539,12.997,24.382,3.426c2.519,7.858,7.657,8.866,10.68,11.889c3.023-3.022,8.161-3.929,10.68-11.889
		c5.844,9.571,20.554,10.176,24.381-3.426c4.736,8.161,14.608,5.743,18.034,2.217c2.821-2.821,2.923-5.944,2.016-9.168
		c6.448,2.519,15.414,1.008,20.452-0.806c-1.31-1.311-7.153-10.177-9.571-18.539c-2.921-10.276-13.602-47.252-18.337-62.363
		c12.997,14.91,27.908,40.198,28.815,53.598c0.403-1.913,1.209-4.13,2.115-6.648c3.022,6.246,10.276,18.94,11.386,21.963
		c1.208,3.123,1.611,5.138,0.704,9.472c-0.604,3.022-3.425,12.19-9.369,18.135c0.302,1.611,5.742-1.311,6.045-1.915
		c2.82-4.533,8.766-19.546,13.299-21.057c4.938-1.512,4.434,5.944,5.038,11.082c0.403,4.03,9.975,20.05-2.821,19.244
		c-4.434-0.302-1.008-13.501-4.836-20.554c-0.705-3.224-3.325,8.262-7.859,10.075c0.807-0.202,5.341-2.721,6.146-2.82
		c3.225,6.448,0.402,6.045,1.713,11.485c0.906,3.828,3.022,5.138,5.34,5.138c-0.202,1.915-0.806,3.729,0.906,3.225
		c2.62-1.411,4.231-2.821,4.735-5.239c0.201-0.101,0.403-0.302,0.605-0.403c0.604-0.402,1.007-1.008,1.31-1.712
		c0.806,0.604,1.713,0.906,2.619,1.107c-0.403,2.317-2.116,4.836,0.302,3.729c2.418-1.512,3.628-2.821,4.231-4.132
		c1.411-0.704,2.62-2.015,3.124-3.727c0.402,0.2,0.806,0.302,1.209,0.402c0,2.418-0.303,3.93,1.512,3.224
		c1.712-0.705,3.123-2.115,3.828-3.626c2.721-1.209,4.937-3.829,5.439-7.456c0.807-5.239-3.728-7.456-1.611-13.903
		c1.008-3.325,2.418-10.579-3.628-12.493c-5.943-2.016-8.462,3.123-10.578,6.246c-0.705-1.713-1.712-3.224-3.325-3.526
		c-0.705-0.1-1.31-0.1-2.015-0.1c-4.534-8.564-11.284-27.404-12.594-35.465c2.418,0.504,4.735,0.906,6.549,0.906
		c-9.974-39.394-14.205-67.805-15.012-88.962c2.317,4.131,6.247,8.665,11.688,12.694c0.201,9.774,0.604,18.236,1.209,21.762
		c0.907,5.239,5.44,11.989,13.098,17.833c0.1,17.026,8.766,25.894,17.53,30.931c2.116,14.911,11.485,22.266,20.049,26.497
		c2.923,14.307,11.889,20.049,19.445,23.375v12.794c0,22.469,14.91,30.729,25.389,34.961c2.721,1.007,4.836-0.906,4.232-2.921
		c-2.619-7.658-2.419-16.424-2.419-18.942v-81.204c2.015,0.705,3.628,1.107,4.938,1.713c-5.34-8.162-4.938-21.359-4.938-24.483
		L411.002,296.335L411.002,296.335z M163.257,44.358L163.257,44.358c-1.713,0.504-11.284,2.116-12.393,0.907
		c2.116-1.007,3.526-1.713,7.456-4.231c2.922,0.202,5.743,2.015,10.176,4.634C165.977,44.761,165.675,43.855,163.257,44.358z
		 M28.756,371.293v22.871c0,2.921-0.303,11.283-0.303,20.956l0,0v15.313c0,9.672-9.168,18.236-16.019,21.158
		c1.31-1.612,2.72-6.448,2.72-13.4v-82.01c4.231-2.116,8.664-4.938,12.392-9.168c0.403-0.202,0.806-0.303,1.31-0.504
		C28.856,359.405,28.756,369.379,28.756,371.293z M28.756,301.172c0,3.727-0.303,22.97-0.303,25.388
		c0,10.075-9.168,18.235-16.019,21.258c1.31-1.712,2.72-6.447,2.72-13.398v-41.006c3.626-1.712,7.354-4.131,10.679-7.456
		c1.007-0.403,2.217-0.806,3.426-1.209C28.957,289.887,28.756,297.04,28.756,301.172z M12.434,284.849
		c1.31-1.712,2.72-6.448,2.72-13.399v-32.14c3.626-1.713,7.354-4.131,10.679-7.456c0.907-0.403,2.116-0.705,3.224-1.209
		c-0.202,2.62-0.302,5.44-0.302,8.665v19.747C28.756,273.566,20.091,281.424,12.434,284.849z M35.404,227.925
		c4.03-2.015,8.161-4.635,11.788-8.463c0.706-0.302,1.41-0.504,2.317-0.806c-0.201,2.519-0.302,5.44-0.302,8.967v20.049
		c0,13.803-7.959,21.661-15.314,25.188c1.108-3.526,1.713-7.556,1.713-12.191v-19.646C35.506,236.59,35.304,232.056,35.404,227.925z
		 M49.208,359.505v19.949c0,14.407-9.168,22.467-14.911,24.985c1.31-1.611,1.31-5.642,1.31-12.694v-7.254v-0.101v-11.788
		c0-2.316-0.101-14.104-0.101-28.915c4.735-2.115,9.974-5.138,14.004-10.579C49.308,343.184,49.208,356.079,49.208,359.505z
		 M49.208,289.383v20.05c0,13.601-8.262,22.165-15.012,25.287c0.906-3.323,1.41-6.951,1.41-11.183v-0.403l0,0
		c0-0.402,0-0.906,0-1.309v-7.255l0,0v-11.687c0-4.836-0.302-14.105-0.101-20.754c4.03-2.015,8.161-4.635,11.687-8.363
		c0.706-0.302,1.41-0.604,2.317-0.806C49.308,278.3,49.208,285.857,49.208,289.383z M54.547,260.468
		c0.907-3.325,1.511-7.153,1.511-11.385v-31.535c0-0.604,0-1.209,0-2.015c2.317-1.108,4.635-2.62,6.852-4.333
		c2.116-0.504,4.03-1.108,5.944-1.915c-0.101,2.116,0,4.534,0,8.262v18.236C68.753,248.982,61.499,256.74,54.547,260.468z
		 M68.753,338.65v18.136c0,12.09-6.246,19.646-12.695,23.676v-31.03c0-1.21,0-16.12,0-24.685c4.534-2.417,9.168-5.742,12.795-10.478
		C68.854,321.523,68.753,333.411,68.753,338.65z M68.753,272.86v18.135c0,12.191-6.347,19.748-12.795,23.777
		c0.1-1.311,0.1-2.62,0.1-4.029v-31.435c0-1.008,0-5.643,0-9.773c2.62-1.31,5.139-3.022,7.556-4.937
		c1.511-0.604,3.426-1.208,5.239-2.115C68.854,266.11,68.753,266.009,68.753,272.86z M75.705,259.259
		c2.62-1.511,5.138-3.426,7.456-5.843c0.906-0.404,1.712-0.907,2.72-1.31c0,1.511,0,3.425,0,5.44v18.236
		c0,10.78-4.836,17.934-10.579,22.266c0.202-1.713,0.302-3.526,0.302-5.441v-26.799C75.604,263.692,75.604,261.375,75.705,259.259z
		 M85.881,313.766v18.235c0,10.578-4.735,17.731-10.276,22.063v-22.567c0-2.318,0-15.717,0.201-23.476
		c3.627-2.216,7.254-5.038,10.277-8.865C85.881,303.991,85.881,310.339,85.881,313.766z M85.881,208.582v18.235
		c0,11.788-5.944,19.344-12.191,23.374c1.209-3.728,2.015-7.959,2.015-12.997v-26.8c0-1.41,0-2.921,0-4.433
		c3.426-2.116,6.247-4.433,8.463-7.153c0.705-0.302,1.41-0.706,2.115-1.008C85.982,200.522,85.881,203.947,85.881,208.582z
		 M103.311,308.324c0,5.642-4.534,11.283-10.579,15.919v-12.997c0-3.123-0.202-20.553,0.1-28.815
		c5.038-3.828,8.665-8.06,10.881-11.989C103.613,284.749,103.311,304.395,103.311,308.324z M92.631,247.673
		c4.937-3.828,8.665-7.959,10.881-11.888c-0.101,9.974-0.201,18.941-0.201,21.561c0,5.642-4.534,11.284-10.579,15.918v-18.236
		C92.732,252.912,92.631,250.292,92.631,247.673z M103.411,222.283c0,6.146-5.34,12.09-11.989,17.127
		c0.906-3.224,1.31-6.851,1.31-10.982c0-10.075,0-8.161,0-22.064c0-3.526-0.303-8.564,0.302-12.594
		c4.836-3.627,8.362-7.557,10.781-11.688C103.714,196.189,103.411,218.052,103.411,222.283z M88.601,416.027
		c0.403,2.015,2.72,15.616-2.418,17.026c-4.534,1.108-9.874-2.216-6.045-11.989c2.015-4.937-1.108-15.213,2.116-15.918
		c4.03-0.906,7.657,4.937,8.866,9.369c0.403,1.209,0.302,3.124,0.201,3.426C90.112,416.027,88.5,412.803,88.601,416.027z
		 M102.605,420.36c-0.101,1.007-0.302,2.015-0.503,2.921c-0.907-2.015-2.821-7.455-2.821-3.929c0,2.519,0.201,16.926-4.434,17.43
		c-4.634,0.402-5.743-3.729-3.224-8.766c2.418-4.938,0.604-19.143,3.929-19.444c3.324-0.202,5.843,3.022,7.153,6.347
		C102.706,416.329,102.907,417.941,102.605,420.36z M124.367,390.436c-1.511,3.123-3.929,3.729-5.138,5.844
		c-1.612,2.619-0.806,6.952-2.922,8.967c-1.31,1.31-2.116,2.52-1.511,6.146c-1.209-2.115-2.821-3.324-4.131-4.231
		c-2.62-1.611-6.146-1.209-7.556,1.915c-0.403-0.706-0.907-1.411-1.511-2.217c0.504-0.806,0.907-1.713,1.31-2.821
		c0.907-2.116,0.604-4.938,1.31-6.146c0.504-0.806,2.418-2.115,3.325-3.727c0.806-1.612,0.604-5.341,1.41-7.254
		c0.806-1.915,2.015-2.62,2.721-4.938c0.202-0.806,0.806-5.44,1.41-7.053c1.007-2.721,4.131-6.649,7.355-9.369
		c0,6.347,0.101,8.06,1.108,15.414c3.124-3.123,5.34-5.239,7.456-7.858c-0.101,4.735-0.504,5.844-2.317,9.37
		C125.274,385.7,125.98,387.313,124.367,390.436z M143.107,413.307c2.519-2.62,4.13-8.061,5.642-14.105
		c1.108-4.937,14.609-55.11,17.934-67.604c2.116-2.116,4.03-3.728,5.843-4.938c1.108-1.008,2.921-1.611,4.836-2.115
		c-3.325,12.594-15.919,69.921-18.438,81.406C156.809,413.507,151.167,414.918,143.107,413.307z M174.037,412.4
		c-1.411,7.456-2.216,12.292-10.881,10.276c-5.642-1.31-0.706-10.176,0.302-16.221c0.906-5.238,14.608-71.936,16.523-82.011
		c2.519-0.101,5.138,0.101,7.959,0.604C186.329,332.001,174.138,412.197,174.037,412.4z M198.419,402.123
		c-0.504,7.354-1.007,12.795-1.411,14.71c-2.72,14.407-21.157,13.399-17.934-5.239c0.806-4.938,10.277-71.836,12.292-85.941
		c3.728,1.008,7.456,2.519,10.579,4.434C201.744,337.542,199.729,377.237,198.419,402.123z M209.703,430.534
		c-3.626-2.217-6.448-6.045-6.448-16.523c0-9.771,1.41-71.531,1.713-81.606c2.519,2.216,4.131,4.634,4.634,7.455
		c0.504-2.821,2.216-5.34,4.635-7.455c0.303,9.974,1.713,71.835,1.713,81.606C216.05,424.59,213.43,428.419,209.703,430.534z
		 M222.499,416.833c-0.303-1.915-0.807-7.355-1.41-14.71c-1.311-25.087-3.426-64.682-3.526-72.237
		c3.123-2.016,6.85-3.427,10.579-4.434c2.115,14.104,11.484,81.003,12.29,85.939C243.554,430.233,225.218,431.24,222.499,416.833z
		 M256.25,422.575c-8.665,2.216-9.571-2.72-10.881-10.276c0-0.201-12.292-80.298-14.005-87.553c2.822-0.503,5.441-0.705,7.96-0.604
		c1.712,8.767,15.717,77.075,16.523,82.011C256.855,412.5,261.891,421.266,256.25,422.575z M270.758,399.302
		c1.409,6.045,3.022,11.586,5.642,14.105c-8.061,1.511-13.804,0-15.717-7.354c-2.52-11.486-15.113-68.813-18.438-81.407
		c2.016,0.403,3.627,1.007,4.835,2.116c1.714,1.209,3.729,3.022,5.944,5.037C256.148,344.192,269.649,394.265,270.758,399.302z
		 M328.287,414.414c1.309-4.231,4.835-10.276,8.865-9.369c3.225,0.705,0.102,10.981,2.116,15.918
		c3.728,9.874-1.511,13.198-6.146,11.99c-5.037-1.21-2.82-15.013-2.417-17.027c0.101-3.225-1.512-0.101-2.721,1.713
		C327.882,416.934,327.682,416.43,328.287,414.414z M324.054,408.571c3.325,0.201,1.411,14.507,3.828,19.444
		c2.52,5.037,1.311,9.168-3.223,8.766c-4.735-0.403-4.434-14.811-4.434-17.43c0-3.628-1.713,1.914-2.82,3.929
		c-0.202-0.906-0.404-1.914-0.504-2.921c-0.303-2.52-0.102-4.03,0.1-5.441C318.212,411.492,320.73,408.269,324.054,408.571z
		 M311.762,394.265c0.808,1.611,2.721,2.922,3.225,3.728c0.705,1.107,0.403,4.03,1.31,6.146c0.403,0.907,0.907,1.915,1.311,2.82
		c-0.605,0.706-1.108,1.411-1.511,2.217c-1.411-3.224-4.837-3.526-7.557-1.913c-1.311,0.806-2.922,2.216-4.132,4.23
		c0.504-3.627-0.201-4.734-1.511-6.146c-2.115-2.115-1.209-6.448-2.921-8.967c-1.21-2.016-3.729-2.72-5.14-5.844
		c-1.511-3.123-0.705-4.735-2.417-7.858c-1.713-3.526-2.217-4.533-2.318-9.369c2.016,2.619,4.333,4.735,7.456,7.858
		c1.108-7.354,1.209-9.067,1.209-15.415c3.123,2.721,6.348,6.649,7.354,9.37c0.604,1.511,1.108,6.246,1.31,7.052
		c0.706,2.419,1.915,3.225,2.721,4.938C311.159,388.925,310.957,392.653,311.762,394.265z M312.972,258.151
		c0,0.403,0.101,0.706,0.101,1.108C312.972,259.057,312.872,258.654,312.972,258.151z M326.573,311.347v13.098
		c-6.045-4.735-10.679-10.378-10.679-15.919c0-3.929-0.302-23.575-0.302-37.781c2.216,3.929,5.843,8.161,10.881,12.09
		C326.775,290.794,326.573,308.224,326.573,311.347z M315.692,235.683c2.217,3.929,5.945,8.161,10.881,11.989
		c0,2.62-0.1,5.239-0.1,7.354v18.135c-6.045-4.634-10.681-10.377-10.681-16.02C315.995,254.725,315.894,245.657,315.692,235.683z
		 M315.995,222.283c0-4.13-0.303-26.094-0.303-40.3c2.419,4.131,5.844,8.06,10.68,11.687c0.504,4.03,0.303,9.067,0.303,12.594
		c0,14.004,0,11.989,0,22.064c0,4.131,0.504,7.758,1.31,10.982C321.334,234.373,315.995,228.228,315.995,222.283z M343.802,331.397
		v22.567c-5.643-4.332-10.277-11.385-10.277-22.063v-18.236c0-3.425,0-9.773-0.201-14.71c2.922,3.829,6.549,6.751,10.176,8.866
		C343.802,315.679,343.802,329.179,343.802,331.397z M333.525,275.681v-18.235c0-2.116,0-3.829-0.101-5.441
		c0.807,0.504,1.713,0.907,2.72,1.31c2.419,2.418,4.836,4.231,7.456,5.843c0.202,2.217,0.202,4.433,0.202,6.448v26.8
		c0,2.015,0.101,3.728,0.302,5.44C338.361,293.615,333.525,286.462,333.525,275.681z M333.525,226.918v-18.236
		c0-4.634-0.101-8.16-0.302-10.679c0.604,0.302,1.31,0.705,2.115,1.008c2.317,2.619,5.038,5.037,8.464,7.153
		c0,1.511,0,3.022,0,4.433v26.799c0,4.937,0.704,9.168,2.015,12.997C339.369,246.161,333.525,238.706,333.525,226.918z
		 M363.347,349.53v31.133c-6.549-4.03-12.694-11.587-12.694-23.677v-18.135c0-5.239-0.102-17.229-0.201-24.382
		c3.626,4.837,8.361,8.06,12.795,10.479C363.347,333.311,363.347,348.221,363.347,349.53z M350.653,290.995V272.86
		c0-6.952-0.201-6.952-0.201-10.277c2.015,0.807,3.728,1.511,5.339,2.116c2.52,2.015,5.038,3.627,7.557,4.937
		c0,4.03,0,8.665,0,9.773v31.535c0,1.411,0.102,2.822,0.102,4.03C356.9,310.944,350.653,303.387,350.653,290.995z M350.653,235.884
		v-18.135c0-3.727,0-6.246-0.102-8.261c1.915,0.705,3.83,1.31,5.945,1.915c2.217,1.713,4.533,3.123,6.851,4.332
		c0,0.604,0,1.31,0,2.015v31.536c0,4.332,0.504,8.06,1.411,11.384C357.806,256.74,350.653,248.982,350.653,235.884z
		 M370.198,379.555v-19.949c0-3.526-0.101-16.321-0.302-26.094c4.03,5.238,9.169,8.362,14.005,10.579
		c-0.102,14.811-0.102,26.598-0.102,28.915v11.688c0,0,0,0,0,0.1v7.255c0,6.952,0,10.981,1.311,12.695
		C379.467,402.023,370.198,393.862,370.198,379.555z M370.198,309.433v-19.949c0-3.526-0.101-11.083-0.302-16.826
		c0.806,0.303,1.511,0.604,2.317,0.806c3.627,3.829,7.758,6.448,11.787,8.362c0.102,6.75-0.1,15.918-0.1,20.754v11.688l0,0v7.254
		c0,0.504,0,0.907,0,1.311l0,0v0.402c0,4.231,0.504,7.858,1.409,11.184C378.46,331.598,370.198,322.934,370.198,309.433z
		 M370.198,247.673v-19.948c0-3.526-0.101-6.549-0.302-8.967c0.705,0.302,1.511,0.604,2.317,0.806
		c3.627,3.829,7.758,6.549,11.787,8.463c0.102,4.232-0.1,8.564-0.1,13.098v19.646c0,4.634,0.604,8.665,1.713,12.191
		C378.158,269.233,370.198,261.375,370.198,247.673z M390.953,430.434v-15.313l0,0c0-9.673-0.302-18.136-0.302-20.956v-22.871
		c0-2.015,0-11.888-0.102-24.784c0.403,0.201,0.907,0.302,1.31,0.504c3.628,4.23,8.061,7.153,12.394,9.168v82.011
		c0,6.952,1.41,11.688,2.72,13.4C400.121,448.67,390.953,440.106,390.953,430.434z M390.953,326.459
		c0-2.317-0.302-21.561-0.302-25.389c0-4.131-0.201-11.184-0.504-16.523c1.209,0.504,2.418,0.907,3.425,1.209
		c3.325,3.325,7.053,5.642,10.681,7.456v41.105c0,6.951,1.41,11.688,2.72,13.4C400.121,344.695,390.953,336.534,390.953,326.459z
		 M390.651,259.259v-19.748c0-3.324-0.102-6.146-0.303-8.665c1.108,0.403,2.217,0.807,3.224,1.209
		c3.325,3.324,7.053,5.743,10.681,7.455v32.14c0,6.952,1.41,11.687,2.72,13.4C399.315,281.424,390.752,273.566,390.651,259.259z
		 M390.651,205.055v-7.153l0,0c0-3.627,0-7.153,0-8.766c0-6.75-1.007-15.616-7.456-20.049c2.016,7.556,0.604,8.866,0.604,21.561
		v8.866c0,0,0,0.302,0,1.31v5.642c0,4.635,0.605,8.665,1.713,12.191c-7.455-3.627-15.314-11.385-15.314-25.188
		c0-4.635-1.107-23.676-6.851-31.636v33.047c0,4.332,0.504,8.161,1.511,11.485c-17.429-8.766-15.616-38.89-21.358-50.577
		c0,10.075,0.201,17.229,0.201,27.203c0,4.938,0.705,9.168,2.015,12.997c-15.213-9.773-17.025-28.814-18.235-43.121
		c-1.41,5.239-3.93,19.143,0.202,32.341c-10.276-7.758-15.92-24.482-15.214-36.472c-1.512,6.549-3.123,16.322,0.102,26.195
		c-0.504,11.184-0.403,99.643-0.403,109.314c-5.844-4.836-11.788-13.5-11.083-26.699c0.202-2.216,0.403-4.231,0.705-6.247
		c4.03-27.505,4.937-67.301-6.549-99.239c9.168,49.67-2.316,100.75-3.93,111.027c-2.921,18.337,3.325,56.42,16.322,98.635
		c-2.519-2.519-11.183-6.146-14.608-9.571c0,3.829,1.41,7.858,1.41,16.221c-4.434-7.455-6.146-7.758-10.882-16.019
		c1.411,9.771,1.008,10.579,1.008,18.94c-4.534-8.665-7.053-20.149-17.731-36.773c-23.475-36.774-57.428-14.005-57.428-7.557
		c0-6.448-33.852-29.218-57.428,7.557c-10.579,16.422-13.097,28.108-17.732,36.773c0-8.361-0.403-9.169,1.007-18.94
		c-4.735,8.261-6.448,8.563-10.881,16.019c0-8.262,1.31-12.392,1.31-16.221c-3.425,3.426-12.09,7.053-14.609,9.571
		c12.997-42.114,19.143-80.298,16.322-98.635c-1.612-10.276-13.097-61.458-3.829-111.027c-11.385,31.837-10.579,71.533-6.549,99.239
		c0.303,2.015,0.504,4.03,0.706,6.247c0.604,13.299-5.34,21.964-11.184,26.699c0-9.672,0.101-98.03-0.403-109.415
		c3.224-9.874,1.612-19.646,0.101-26.195c0.705,11.888-4.937,28.613-15.214,36.472c4.131-13.199,1.713-27.001,0.202-32.341
		c-1.209,14.307-2.922,33.349-18.236,43.122C74.194,192.16,75,187.929,75,182.891c0-10.075,0.201-17.229,0.201-27.203
		c-5.742,11.687-3.929,41.71-21.359,50.576c0.907-3.324,1.511-7.153,1.511-11.485v-33.046c-5.743,7.858-6.851,26.9-6.851,31.636
		c0,13.802-7.959,21.661-15.314,25.188c1.108-3.526,1.712-7.557,1.712-12.191v-5.642c0-1.008,0-1.31,0-1.31v-8.866
		c0-12.694-1.31-14.105,0.605-21.561c-6.448,4.333-7.557,13.299-7.456,20.049c0,1.612,0,5.139,0,8.766l0,0v7.153
		c0,14.407-8.665,22.266-16.322,25.691c1.31-1.713,2.72-6.448,2.72-13.4V147.93c0-19.444,22.77-41.811,31.132-51.786
		c23.273-27.303,33.45-5.037,56.924,2.821c39.091,13.299,59.846-1.511,59.846-1.511c20.855-13.198,20.956-25.489,20.956-33.248
		c0-5.239-2.015-11.989-5.844-16.321c-7.153-7.153-19.747-9.471-22.064-8.967c-4.735,2.418-8.967,2.519-9.874,3.124
		c-2.217-4.332-1.612-10.982,8.161-16.422c2.821-1.511,1.713-4.937,10.176-9.974c24.583-14.307,48.562-9.067,62.566,6.549
		c-4.937-1.713-9.772-3.426-18.034-4.231c11.688,4.03,25.59,13.803,34.558,29.822c3.626,6.448,11.889,24.079,14.911,29.418
		c6.246,11.385,17.631,35.364,57.427,21.863c23.476-7.959,33.651-30.125,56.925-2.821c8.362,9.874,31.132,32.34,31.132,51.786
		v69.417c0,6.952,1.411,11.586,2.721,13.399C399.315,227.422,390.651,219.463,390.651,205.055z"/>
	<path fill="none" d="M121.647,381.167c-1.108-7.354-1.108-9.067-1.108-15.415c-3.123,2.721-6.347,6.649-7.354,9.37
		c-0.605,1.511-1.108,6.246-1.411,7.052c-0.706,2.419-1.914,3.225-2.72,4.938c-0.806,1.914-0.605,5.642-1.411,7.253
		c-0.806,1.613-2.72,2.923-3.325,3.729c-0.705,1.108-0.403,4.03-1.31,6.146c-0.403,0.906-0.906,1.913-1.31,2.82
		c0.605,0.604,1.108,1.41,1.511,2.217c1.411-3.124,4.836-3.526,7.557-1.914c1.31,0.806,2.921,2.216,4.131,4.231
		c-0.504-3.628,0.1-4.735,1.511-6.146c2.115-2.115,1.208-6.447,2.921-8.966c1.209-2.016,3.728-2.721,5.139-5.844
		c1.511-3.124,0.705-4.735,2.418-7.859c1.712-3.526,2.216-4.534,2.317-9.369C127.088,375.827,124.77,378.044,121.647,381.167z"/>
	<path fill="none" d="M306.323,375.022c-1.008-2.721-4.231-6.65-7.354-9.371c0,6.349-0.102,8.061-1.209,15.416
		c-3.124-3.124-5.34-5.239-7.456-7.859c0.102,4.735,0.504,5.845,2.316,9.37c1.512,3.123,0.808,4.735,2.419,7.858
		c1.511,3.123,3.93,3.729,5.138,5.844c1.612,2.619,0.807,6.952,2.922,8.967c1.31,1.31,2.116,2.52,1.512,6.146
		c1.209-2.115,2.82-3.324,4.13-4.231c2.62-1.611,6.146-1.209,7.557,1.915c0.403-0.706,0.907-1.411,1.512-2.217
		c-0.504-0.806-0.906-1.713-1.31-2.821c-0.906-2.116-0.604-4.938-1.31-6.146c-0.504-0.806-2.419-2.115-3.225-3.727
		s-0.604-5.341-1.41-7.254c-0.807-1.915-2.015-2.62-2.721-4.938C307.43,381.267,306.827,376.633,306.323,375.022z"/>
	<path fill="none" d="M312.972,259.36c0-0.403-0.101-0.706-0.101-1.108C312.872,258.654,312.972,259.057,312.972,259.36z"/>
	<path fill="#FFFFFF" d="M158.32,41.134c-3.929,2.519-5.339,3.124-7.456,4.232c1.209,1.108,10.68-0.403,12.393-0.907l0,0
		c2.418-0.504,2.72,0.403,5.138,1.31C163.861,43.048,161.041,41.336,158.32,41.134z"/>
</g>
<path fill="#DCDDDE" d="M285.971,203.544c0,42.013-34.054,76.167-76.167,76.167s-76.167-34.054-76.167-76.167
	c0-42.114,34.054-76.167,76.167-76.167S285.971,161.43,285.971,203.544z"/>
<g>
	<path fill="none" stroke="#000000" stroke-width="5.227" d="M286.375,203.745c0,42.315-34.256,76.671-76.672,76.671
		s-76.671-34.356-76.671-76.671s34.355-76.671,76.671-76.671C252.119,126.974,286.375,161.329,286.375,203.745z"/>
	<g>
		<path d="M255.746,270.946c0,0-6.549-1.914-8.262-2.519l-2.216-8.262c0-0.101-0.101-0.101-0.202-0.101
			c-0.101,0-0.101,0-0.201,0.101c0,0-3.728,5.34-4.837,6.851c-1.913,0-8.36-0.504-8.462-0.504s-0.102,0-0.202,0.101
			c0,0,0,0.101,0,0.202l5.138,6.952c-0.604,1.713-3.323,8.161-3.323,8.161c0,0.101,0,0.101,0,0.202c0.101,0.1,0.101,0.1,0.201,0
			l7.959-3.325l6.348,4.937h0.101c0,0,0,0,0.101,0s0.101-0.1,0.101-0.201c0,0,0.101-7.052,0.101-8.06
			c1.612-0.907,7.456-4.231,7.456-4.231c0.1,0,0.1-0.101,0.1-0.201C255.847,271.047,255.847,270.946,255.746,270.946"/>
		<path fill="#FFFFFF" d="M249.095,272.054C249.095,271.953,249.095,271.953,249.095,272.054c0-0.202,0-0.202-0.1-0.303
			l-0.907-0.302l-2.82-0.907l-0.403-1.612l-0.604-2.418l0,0l0,0c0-0.101-0.102-0.101-0.102-0.101c-0.102,0-0.102,0-0.202,0.101
			l-2.519,3.325l-4.03-0.101c0,0,0,0-0.1,0c0,0-0.101,0-0.101,0.101v0.101v0.101l2.619,3.425l-0.807,2.216l-0.604,1.511v0.101v0.101
			l0,0c0,0,0.101,0,0.202,0l0,0l0,0l1.409-0.604l2.116-0.806l3.426,2.72h0.101h0.102c0.101,0,0.101-0.101,0.101-0.202v-4.332
			L249.095,272.054L249.095,272.054"/>
		<path d="M186.934,266.613c0-0.101-0.101-0.101-0.202-0.101c0,0-6.65,0.504-8.463,0.504c-1.108-1.411-4.836-6.851-4.836-6.851
			c0-0.101-0.101-0.101-0.201-0.101c-0.101,0-0.101,0.101-0.101,0.101l-2.217,8.262c-1.712,0.604-8.261,2.519-8.261,2.519
			c-0.101,0-0.101,0.101-0.101,0.201c0,0.101,0,0.101,0.101,0.202c0,0,5.843,3.325,7.456,4.232c0,1.007,0.101,8.06,0.101,8.06
			c0,0.1,0.101,0.1,0.101,0.201h0.101c0,0,0.101,0,0.101-0.101l6.348-4.937l7.959,3.325c0.101,0,0.201,0,0.201,0
			c0.101-0.101,0.101-0.101,0-0.202c0,0-2.619-6.448-3.224-8.161l5.139-6.952C186.934,266.714,187.034,266.613,186.934,266.613"/>
		<path fill="#FFFFFF" d="M179.982,271.752l1.411-2.015v-0.101v-0.101c0-0.101-0.101-0.101-0.202-0.101l-4.03,0.101l-1.209-1.612
			l-1.208-1.612l0,0c0-0.101-0.101-0.101-0.202-0.101s-0.101,0.101-0.101,0.101l-1.007,4.131l-1.915,0.605l-1.914,0.604
			c-0.101,0-0.101,0.101-0.101,0.202c0,0.101,0,0.101,0.101,0.202l3.325,1.712v4.333c0,0.101,0,0.101,0.101,0.201c0,0,0,0,0.101,0
			l0,0h0.101l2.116-1.612l1.208-1.008l2.62,1.008l0.907,0.403c0,0,0.101,0,0.202,0l0,0c0.101-0.101,0.101-0.101,0-0.202
			l-0.806-2.217l-0.604-1.511L179.982,271.752z"/>
		<path d="M161.947,156.191l-7.757-4.03l-0.604-8.665c0-0.101-0.101-0.101-0.101-0.202c-0.101,0-0.101,0-0.202,0.101
			c0,0-4.433,4.836-5.742,6.347l-7.859-1.712c-0.101,0-0.101,0-0.201,0.101c0,0.101-0.101,0.101,0,0.201c0,0,2.62,5.743,3.425,7.355
			c-1.108,1.41-4.735,7.052-4.735,7.052c0,0.101,0,0.101,0,0.201c0,0.101,0.101,0.101,0.202,0.101c0,0,6.649-1.108,8.463-1.31
			l5.44,6.549l0.101,0.1l0,0c0.101,0,0.101-0.1,0.101-0.1s1.108-6.449,1.411-8.161c1.713-0.705,7.858-3.123,7.858-3.224
			c0.101,0,0.101-0.101,0.101-0.201C162.048,156.292,162.048,156.191,161.947,156.191"/>
		<path d="M221.692,122.44c0-0.101-0.1-0.101-0.201-0.101c0,0-6.751-0.403-8.463-0.504c-0.807-1.612-3.627-7.254-3.627-7.254v-0.101
			c0,0-0.101-0.1-0.202,0c-0.1,0-0.1,0-0.1,0.101c0,0-2.821,5.44-3.627,7.254c-1.914,0.101-8.463,0.504-8.463,0.504
			c-0.101,0-0.101,0.101-0.202,0.101c0,0.101,0,0.101,0.101,0.202c0,0,5.038,4.534,6.448,5.844l-1.612,8.362
			c0,0.101,0,0.101,0.101,0.202h0.101h0.101c0,0,5.743-3.325,7.354-4.131c1.612,0.806,7.355,4.03,7.355,4.03
			c0.101,0,0.101,0,0.201,0c0.102,0,0.102-0.101,0.102-0.202l-1.612-8.362C216.554,126.974,221.692,122.44,221.692,122.44
			C221.692,122.54,221.692,122.54,221.692,122.44"/>
		<path fill="#FFFFFF" d="M215.244,124.555c0-0.101-0.1-0.101-0.2-0.101l-3.83-0.202l-1.914-3.929c0-0.101-0.101-0.101-0.201-0.101
			c-0.101,0-0.101,0-0.202,0.101l-1.914,3.929l-3.829,0.202c-0.1,0-0.1,0-0.201,0.101c0,0.101,0,0.202,0,0.202l2.922,2.821
			l-0.806,4.131c0,0.101,0,0.101,0.101,0.202c0.101,0,0.101,0,0.202,0l3.627-1.914l3.627,1.914h0.101h0.101
			c0.102,0,0.102-0.101,0.102-0.202l-0.807-4.131l2.923-2.821C215.244,124.757,215.244,124.656,215.244,124.555"/>
		<path d="M280.33,162.538c0,0-3.729-5.44-4.735-7.052c0.806-1.612,3.425-7.355,3.425-7.355c0-0.101,0-0.101,0-0.202
			s-0.101-0.101-0.201-0.101l-7.859,1.713c-1.208-1.411-5.742-6.448-5.742-6.448c0-0.101-0.101-0.101-0.201-0.101
			c-0.102,0-0.102,0.101-0.102,0.201l-0.604,8.665l-7.759,4.03c-0.1,0-0.1,0.101-0.1,0.202s0,0.101,0.1,0.201
			c0,0,6.146,2.418,7.858,3.224c0.403,1.713,1.411,8.161,1.411,8.161c0,0.101,0.101,0.101,0.101,0.101l0,0
			c0.102,0,0.102,0,0.102-0.101l5.439-6.549c1.915,0.201,8.464,1.31,8.464,1.31c0.1,0,0.201,0,0.201-0.101
			C280.429,162.74,280.429,162.639,280.33,162.538"/>
		<path fill="#FFFFFF" d="M274.687,158.911l-2.317-3.124l2.015-3.929c0-0.101,0-0.101,0-0.201s-0.1-0.101-0.201-0.101l-4.332,0.906
			l-2.519-2.921c0-0.101-0.101-0.101-0.202-0.101c-0.101,0-0.101,0.101-0.101,0.202l-0.302,4.03l-3.829,2.015
			c-0.101,0-0.101,0.1-0.101,0.201s0,0.101,0.101,0.202l3.728,1.612l0.806,4.03c0,0.1,0.102,0.1,0.102,0.1s0,0,0.101,0
			c0,0,0.102,0,0.102-0.1l2.719-3.224l3.93,0.503c0.101,0,0.101,0,0.202-0.101C274.788,159.012,274.788,159.012,274.687,158.911"/>
		<path fill="#FFFFFF" d="M155.499,155.788l-3.828-2.015l-0.303-4.03c0-0.1-0.101-0.1-0.101-0.201c-0.101,0-0.202,0-0.202,0.101
			l-2.519,2.921l-4.333-0.907c-0.101,0-0.101,0-0.201,0.101c0,0.101-0.101,0.101,0,0.202l2.015,3.929l-2.318,3.022
			c0,0.101-0.1,0.101,0,0.202c0,0.101,0.101,0.101,0.202,0.101l3.929-0.504l2.721,3.224l0.101,0.101l0,0
			c0.101,0,0.101-0.101,0.101-0.101l0.806-4.03l3.728-1.612c0.101,0,0.101-0.101,0.101-0.201
			C155.6,155.889,155.6,155.788,155.499,155.788"/>
		<path d="M146.331,226.011c0,0-4.231-4.835-5.44-6.347c0.504-1.915,2.317-8.06,2.317-8.06c0-0.101,0-0.101-0.101-0.202
			c-0.101-0.101-0.101-0.101-0.202,0l-7.858,3.425c-1.511-1.007-7.052-4.836-7.052-4.836c-0.101-0.101-0.101-0.101-0.202,0
			c-0.101,0-0.101,0.101-0.101,0.201c0,0,0.907,6.549,1.209,8.363l-6.347,5.038c-0.101,0.101-0.101,0.101-0.101,0.201
			s0.101,0.101,0.101,0.202c0,0,6.146,1.41,7.959,1.914c0.504,1.914,2.519,8.06,2.519,8.06c0,0.101,0.101,0.101,0.201,0.101l0,0
			c0.101,0,0.101,0,0.202-0.101c0,0,3.224-5.944,4.231-7.456l8.463-0.202c0.101,0,0.101,0,0.201-0.1
			C146.432,226.112,146.432,226.112,146.331,226.011"/>
		<path fill="#FFFFFF" d="M140.689,223.492l-2.72-3.124l1.007-4.03c0-0.101,0-0.101-0.101-0.201c-0.101,0-0.101-0.101-0.202,0
			l-3.828,1.712l-3.325-2.216c-0.101,0-0.101,0-0.202,0s-0.101,0.101-0.101,0.201l0.705,3.728l-3.425,2.72
			c0,0-0.101,0.101-0.101,0.202c0,0.101,0.101,0.101,0.101,0.101l4.231,0.907l0.907,3.728c0,0.1,0.101,0.1,0.202,0.1l0,0
			c0.101,0,0.101,0,0.202-0.1l2.115-3.426l4.232-0.101c0.101,0,0.101-0.101,0.202-0.101
			C140.689,223.593,140.689,223.593,140.689,223.492"/>
		<path d="M295.744,223.593l-6.347-5.038c0.302-1.914,1.208-8.363,1.208-8.363c0-0.1,0-0.1-0.101-0.201c-0.1,0-0.1,0-0.201,0
			c0,0-5.44,3.929-7.053,4.836l-7.858-3.425c-0.101,0-0.101,0-0.201,0c-0.101,0.101-0.101,0.101-0.101,0.202
			c0,0,1.713,6.246,2.316,8.06c-1.209,1.41-5.44,6.347-5.44,6.347c-0.101,0.101-0.101,0.101,0,0.202c0,0.1,0.102,0.1,0.201,0.1
			l8.464,0.202c1.008,1.511,4.231,7.456,4.231,7.456c0,0.101,0.101,0.101,0.201,0.101l0,0c0.102,0,0.102-0.101,0.201-0.101
			c0,0,2.016-6.347,2.52-8.06c1.914-0.403,7.959-1.914,7.959-1.914c0.101,0,0.101-0.101,0.101-0.101
			C295.844,223.694,295.844,223.593,295.744,223.593"/>
		<path fill="#FFFFFF" d="M289.901,222.384l-3.426-2.72l0.705-3.728c0-0.101,0-0.202-0.102-0.202c-0.101,0-0.2,0-0.2,0l-3.426,2.217
			l-3.829-1.713c-0.101,0-0.101,0-0.201,0s-0.101,0.101-0.101,0.202l1.008,4.03l-2.721,3.124c0,0.101-0.102,0.101,0,0.201
			c0,0.101,0.101,0.101,0.201,0.101l4.231,0.101l2.116,3.425c0,0.101,0.101,0.101,0.101,0.101l0,0c0.101,0,0.101-0.101,0.201-0.101
			l0.907-3.728l4.23-0.907c0.102,0,0.102-0.1,0.102-0.1C290.001,222.485,289.901,222.384,289.901,222.384"/>
	</g>
</g>
<g>
	
		<linearGradient id="SVGID_14_" gradientUnits="userSpaceOnUse" x1="266.6035" y1="71.9552" x2="392.6263" y2="71.9552" gradientTransform="matrix(1.0281 0 0 -1.0281 -129.1745 277.6704)">
		<stop  offset="0.0112" style="stop-color:#D9D9D9"/>
		<stop  offset="0.0784" style="stop-color:#E6E6E6"/>
		<stop  offset="0.1845" style="stop-color:#F4F4F4"/>
		<stop  offset="0.3157" style="stop-color:#FDFDFD"/>
		<stop  offset="0.544" style="stop-color:#FFFFFF"/>
		<stop  offset="0.6673" style="stop-color:#FBFBFB"/>
		<stop  offset="0.7843" style="stop-color:#F0F0F0"/>
		<stop  offset="0.8983" style="stop-color:#DDDDDD"/>
		<stop  offset="0.9725" style="stop-color:#CCCCCC"/>
	</linearGradient>
	<path fill="url(#SVGID_14_)" d="M274.485,203.544c0,35.766-29.016,64.782-64.782,64.782c-7.757,0-15.213-1.31-22.165-3.828
		c-24.885-8.967-42.617-32.845-42.617-60.753c0-28.109,17.833-51.987,42.92-60.854c6.851-2.519,14.206-3.828,21.862-3.828
		C245.469,138.761,274.485,167.778,274.485,203.544z"/>
	<path fill="#009247" d="M270.758,181.983L270.758,181.983c-56.422-15.113-122.11,0.101-122.11,0.101
		c6.448-18.336,20.956-32.845,39.192-39.394c6.851-2.519,14.206-3.828,21.862-3.828
		C237.913,138.761,261.891,156.796,270.758,181.983z"/>
	<path d="M270.758,225.004L270.758,225.004c-56.422,15.113-122.11-0.101-122.11-0.101c6.448,18.336,20.956,32.845,39.192,39.394
		c6.851,2.519,14.206,3.828,21.862,3.828C237.913,268.125,261.891,250.091,270.758,225.004z"/>
	
		<linearGradient id="SVGID_15_" gradientUnits="userSpaceOnUse" x1="341.9875" y1="71.6459" x2="301.6922" y2="46.4847" gradientTransform="matrix(1.0281 0 0 -1.0281 -129.1745 277.6704)">
		<stop  offset="0" style="stop-color:#FFFFFF"/>
		<stop  offset="0.6292" style="stop-color:#CCCCCC"/>
	</linearGradient>
	<path fill="url(#SVGID_15_)" d="M219.778,177.853c27.605,1.31,46.043,5.239,46.043,5.239c5.844,5.844,5.441,30.225,0.202,40.603
		c0,0-19.849,4.231-42.115,5.239c-16.119,0.706-36.168-0.907-36.168-0.907s-0.806-7.052-0.806-24.482
		c0-17.531,0.806-24.785,0.806-24.785S204.665,177.147,219.778,177.853z"/>
	<path fill="#ED1C24" d="M183.407,202.133c0,36.875,4.231,62.264,4.231,62.264c-24.885-8.967-42.617-32.845-42.617-60.753
		c0-28.109,17.833-51.987,42.92-60.853C187.941,142.59,183.407,164.553,183.407,202.133z"/>
</g>
<g>
	<path fill="#FFFFFF" d="M317.708,488.97c1.007,3.123-1.108,6.649-4.836,7.858c-3.225,1.008-6.549-0.202-7.858-2.619
		c1.008,1.31,3.022,2.015,4.937,1.31c2.519-0.705,4.029-3.123,3.324-5.138l0,0c-1.008-3.225-2.015-6.349-2.921-9.571
		c-0.303-1.109-1.411-1.613-2.821-1.209c1.512-2.62,3.123-5.14,4.635-7.759C313.979,477.585,315.793,483.227,317.708,488.97z"/>
	<path fill="#FFFFFF" d="M187.034,510.934c1.209,0.101,2.418-0.706,2.519-1.914c0.101-1.008-0.907-2.116-2.216-2.217
		c-1.31-0.102-2.418,0.705-2.519,1.713C184.818,509.926,185.724,510.833,187.034,510.934z"/>
	<path fill="#FFFFFF" d="M125.274,467.813c-1.108-0.303-2.418,0.302-2.72,1.31c-0.302,1.007,0.403,2.216,1.511,2.519
		c1.108,0.302,2.317-0.202,2.62-1.31C127.088,469.323,126.382,468.114,125.274,467.813z"/>
	<path fill="#FFFFFF" d="M277.71,475.167c-1.108,0.201-2.016,1.31-1.713,2.418c0.201,1.008,1.311,1.713,2.62,1.41
		c1.107-0.201,2.015-1.31,1.611-2.418C280.026,475.671,278.818,474.965,277.71,475.167z"/>
	<path fill="#FFFFFF" d="M196.505,511.437c1.31,0.102,2.418-0.705,2.418-1.913c0-1.008-0.907-2.116-2.318-2.116
		c-1.31-0.101-2.418,0.806-2.418,1.914C194.187,510.53,195.195,511.437,196.505,511.437z"/>
	<path fill="#FFFFFF" d="M181.493,510.53c1.209,0.101,2.418-0.604,2.519-1.713c0.101-1.007-0.907-2.116-2.216-2.217
		c-1.31-0.1-2.519,0.706-2.62,1.714C179.075,509.524,180.183,510.43,181.493,510.53z"/>
	<path fill="#FFFFFF" d="M130.211,469.223c-1.108-0.303-2.418,0.303-2.62,1.31c-0.302,1.008,0.404,2.217,1.612,2.52
		c1.108,0.302,2.317-0.303,2.62-1.31C132.125,470.633,131.319,469.526,130.211,469.223z"/>
	<path fill="#FFFFFF" d="M282.747,474.159c-1.107,0.302-1.913,1.31-1.611,2.519c0.201,1.008,1.31,1.713,2.619,1.411
		c1.108-0.302,1.914-1.31,1.612-2.418C285.064,474.563,283.956,473.858,282.747,474.159z"/>
	<path fill="#FFFFFF" d="M364.96,467.409L364.96,467.409L364.96,467.409c-0.604-1.209-1.209-2.418-1.713-3.627l0,0
		c-4.735-9.571-9.571-19.042-14.407-28.513c2.72,0.706,5.44,1.31,8.261,2.116c-1.31,1.108-1.208,2.418-0.604,3.525
		c4.231,8.162,8.463,16.222,12.694,24.482C367.679,465.999,366.269,466.704,364.96,467.409z"/>
	<path fill="#FFFFFF" d="M252.119,501.362L252.119,501.362L252.119,501.362c-1.41-11.889-2.922-23.677-4.231-35.666
		c2.317,1.612,4.534,3.224,6.952,4.735c-1.612,0.604-1.914,1.914-1.612,3.123c1.209,9.068,2.417,18.235,3.628,27.203
		C255.242,500.959,253.63,501.16,252.119,501.362z"/>
	<path fill="#FFFFFF" d="M157.615,499.549L157.615,499.549L157.615,499.549c1.915-11.788,3.728-23.576,5.743-35.565
		c1.713,2.217,3.526,4.332,5.34,6.448c-1.713,0.101-2.417,1.209-2.519,2.519c-1.31,9.067-2.72,18.135-3.929,27.202
		C160.638,500.053,159.126,499.75,157.615,499.549z"/>
	<path fill="#FFFFFF" d="M303.905,491.187L303.905,491.187L303.905,491.187c-0.303-1.209-0.706-2.62-1.008-3.828l0,0
		c-2.921-10.277-5.844-20.554-8.563-30.729c2.519,1.209,5.037,2.52,7.657,3.627c-1.512,0.806-1.612,2.217-1.209,3.324
		c2.619,8.766,5.138,17.632,7.758,26.397C306.827,490.179,305.315,490.683,303.905,491.187z"/>
	<path fill="#FFFFFF" d="M299.371,492.294c-1.611-6.447-3.425-12.795-5.037-19.242c-1.612,2.417-3.325,4.634-5.038,7.052
		c1.915,0,2.519,1.008,2.821,2.217c0.604,2.519,1.209,4.937,1.914,7.354c-6.648,1.612-13.299,3.123-19.948,4.332
		c-0.907,0.202-1.713,0.303-2.721,0.504c-1.31-0.806-2.82-1.611-4.13-2.519c3.123-3.225,5.037-8.766,3.929-13.602
		c-0.706,6.649-3.729,11.284-11.184,14.005c3.325,2.216,6.751,4.332,10.277,6.447c1.511-0.302,3.022-0.504,4.533-0.806l0,0
		C282.848,496.426,291.211,494.41,299.371,492.294z"/>
	<path fill="#FFFFFF" d="M332.014,467.712L332.014,467.712c2.82,1.008,5.743,2.115,8.563,3.022c0.906,2.216,1.914,4.433,2.821,6.649
		c-2.217,0.907-4.332,1.713-6.549,2.72c-0.504-1.209-0.907-2.519-1.411-3.728c0.705-0.302,1.411-0.604,2.217-0.806
		c-0.202-0.504-0.402-1.008-0.604-1.411c-0.907-0.302-2.015-0.604-2.922-0.906l0,0C333.424,471.137,332.719,469.424,332.014,467.712
		z M321.536,485.646L321.536,485.646L321.536,485.646c-0.402-1.21-0.806-2.52-1.209-3.829l0,0
		c-3.425-10.074-6.851-20.149-10.276-30.225c2.619,1.107,5.139,2.216,7.858,3.223c-1.41,0.907-1.41,2.318-1.108,3.427
		c2.62,7.354,5.239,14.811,7.859,22.165c1.41-0.504,2.921-1.008,4.433-1.512c-0.402-1.008-0.706-2.015-1.108-3.022
		c1.41-2.721,2.922-5.34,4.231-8.06c0.705,1.713,1.31,3.525,2.116,5.138c-0.403,0.907-0.907,1.713-1.411,2.721
		c0.201,0.503,0.403,1.007,0.604,1.41c0.706-0.302,1.41-0.504,2.217-0.806c0.504,1.208,0.906,2.519,1.41,3.728
		c-3.627,1.41-7.354,2.821-10.981,4.131c-0.303,0.101-0.705,0.202-1.007,0.402C323.652,484.839,322.544,485.242,321.536,485.646z"/>
	<path fill="#FFFFFF" d="M227.032,483.429L227.032,483.429c1.612,0.1,3.828,1.511,4.534,2.922c1.713-0.102,3.526-0.202,5.239-0.403
		c-2.016,4.434-4.03,8.766-6.247,13.299c4.03-0.201,8.061-0.503,11.989-0.907c-0.705-7.758-1.41-15.616-2.216-23.374
		c-0.101-1.208-0.604-2.417-2.419-2.619c2.016-2.115,3.829-4.13,5.743-6.246c1.209,11.888,2.519,23.777,3.828,35.766l0,0l0,0
		c-1.31,0.102-2.619,0.303-3.93,0.403c-0.2,0-0.402,0-0.604,0.101c-4.938,0.403-9.975,0.806-15.013,1.008
		c-0.101-2.721-0.2-5.239-0.402-7.959l0,0c0.806-1.612,1.612-3.325,2.519-4.937c-0.402,0-0.906,0-1.31,0.1
		c-0.201-1.107-0.604-1.712-1.411-2.417l0,0C227.234,486.653,227.133,485.142,227.032,483.429z M213.43,505.896
		c0,3.324-3.123,6.045-6.951,6.045c-3.325,0-6.146-2.217-6.75-4.836c0.604,1.512,2.317,2.821,4.333,2.821
		c2.619,0.102,4.634-1.713,4.634-3.929l0,0c0-3.326,0.101-6.65,0.101-9.975c0-1.209-0.806-2.115-2.216-2.115
		c2.317-2.016,4.433-3.93,6.649-6.045c0,4.029,0,7.958,0.101,11.988c3.93,0,7.859-0.101,11.789-0.302
		c-2.62-4.131-5.038-8.362-7.456-12.494c1.712,0,3.526-0.1,5.238-0.1c0.604-1.411,2.62-3.123,4.131-3.325
		c0.102,1.512,0.102,3.225,0.202,4.735c-0.706,0.705-1.108,1.31-1.108,2.52c-0.403,0-0.907,0-1.311,0.1
		c0.907,1.512,1.915,3.123,2.923,4.635c0.1,2.72,0.2,5.239,0.403,7.959c-4.837,0.202-9.774,0.403-14.609,0.403
		C213.43,504.486,213.43,505.09,213.43,505.896z"/>
	<path fill="#FFFFFF" d="M137.162,495.619c3.728,0.807,7.557,1.612,11.385,2.317c0.201,0,0.302,0.101,0.504,0.101
		c1.31,0.202,2.72,0.504,4.03,0.706l0,0l0,0c2.116-11.788,4.03-23.576,6.146-35.465c-2.418,1.411-4.735,2.922-7.153,4.332
		c1.612,0.705,1.712,2.015,1.511,3.124c-1.411,7.656-2.922,15.414-4.333,23.071c-1.511-0.302-3.022-0.604-4.433-0.806
		c0.202-1.008,0.403-2.115,0.604-3.123c-1.914-2.419-3.627-4.837-5.339-7.254c-0.403,1.913-0.806,3.626-1.209,5.439
		c0.604,0.807,1.209,1.612,1.914,2.419c-0.101,0.503-0.201,1.007-0.302,1.511c-0.706-0.202-1.511-0.302-2.317-0.504
		C137.767,493,137.465,494.31,137.162,495.619z M108.046,483.63L108.046,483.63c0.202-0.504,0.303-1.007,0.504-1.511
		c1.007-3.325-1.108-7.053-4.836-8.362c-0.302-0.102-0.504-0.202-0.806-0.303l0,0c-8.261-2.922-16.523-6.246-24.784-9.772
		c0.503-1.209,1.007-2.519,1.611-3.628c0.504-1.007,1.612-1.409,2.821-0.905c-1.209-2.721-2.519-5.441-3.627-8.162
		c-2.217,4.836-4.433,9.673-6.649,14.509c9.874,4.534,19.848,8.563,30.024,12.09c1.41,0.504,2.317,1.914,1.914,3.123l0,0
		c-0.202,0.504-0.303,1.008-0.504,1.511l0,0c-0.504,1.31-0.907,2.821-1.41,4.132c-0.907,0.402-1.915,0.704-2.821,1.107
		c-0.504-0.906-1.008-1.914-1.511-2.72c0.503-1.31,0.906-2.721,1.41-4.03c-1.007-0.402-2.216-0.705-3.224-1.107
		c-0.403-0.102-0.706-0.303-1.108-0.404c-8.161-3.022-16.322-6.447-24.382-10.074c-0.504,1.209-1.108,2.418-1.612,3.627
		c8.06,3.728,16.321,7.153,24.684,10.176c-0.202,0.604-0.403,1.209-0.706,1.914c1.511,2.72,3.124,5.34,4.735,8.061l0,0l0,0
		c2.922-1.109,5.743-2.217,8.564-3.426c0.201-0.604,0.403-1.31,0.604-2.016c3.224,1.008,6.449,2.016,9.672,3.023
		c0.604,0.906,1.31,1.611,2.418,2.418c-0.403-0.605-0.806-1.311-1.108-2.015c2.72,0.704,5.339,1.409,8.06,2.215
		c3.728,0.907,7.556,1.915,11.284,2.721c0.303-1.31,0.604-2.619,0.806-3.929c-0.706-0.201-1.411-0.303-2.217-0.504
		c0.101-0.503,0.202-1.007,0.302-1.511c0.907-0.504,1.713-0.907,2.62-1.411l0,0c0.403-1.914,0.806-3.627,1.209-5.44l0,0
		c-2.62,1.41-5.239,2.922-7.959,4.332c-0.202,1.007-0.504,2.116-0.706,3.124c-1.511-0.404-3.022-0.706-4.534-1.109
		c1.108-4.332,2.317-8.765,3.425-13.198c-2.62,1.21-5.239,2.52-7.858,3.627c1.612,0.807,1.713,2.217,1.411,3.325
		c-0.403,1.612-0.907,3.325-1.31,5.038c-0.604-0.202-1.31-0.303-2.015-0.504l0,0c-1.209-0.303-2.519-0.705-3.728-1.008
		c-0.101-1.511,0.202-3.224,0.504-4.735c1.007-4.836,2.418-10.479-3.828-17.127c-1.713,0.806-3.627,1.611-5.34,2.519
		c4.333,1.31,6.146,5.339,6.75,8.563c0.604,3.929-1.41,6.851-0.403,10.176C112.278,484.94,110.262,484.336,108.046,483.63
		L108.046,483.63z"/>
	<path fill="#FFFFFF" d="M176.355,497.937c0.705,0.101,1.511,0.201,2.317,0.201c0.202-1.611,0.302-3.425,0.503-5.038
		c-0.705,0.304-1.511,0.504-2.418,0.605c0.201-1.411,0.302-3.022,0.504-4.434c1.007-0.402,2.418-1.209,2.62-3.022
		c0.403-3.828,0.705-7.656,1.108-11.484c0.101-1.21-0.201-2.52-1.712-3.022c2.317-1.613,4.534-3.326,6.75-4.938
		c-0.907,10.679-1.712,21.258-2.72,31.938c2.418,0.201,4.836,0.402,7.355,0.503c0.101-1.713,0.202-3.526,0.302-5.139
		c0.101-1.208-0.302-2.519-2.116-2.921c2.418-1.713,4.635-3.426,6.952-5.139c-0.202,4.533-0.403,9.067-0.604,13.601
		c1.511,0.102,3.022,0.102,4.534,0.202c0.101-1.713,0.101-3.526,0.202-5.138c0-1.209-0.303-2.419-2.116-2.923
		c2.317-1.713,4.534-3.525,6.851-5.339c-0.1,5.944-0.201,11.687-0.403,17.631c-6.851-0.101-13.601-0.504-20.452-1.007l0,0
		c-2.62-0.202-5.138-0.404-7.758-0.706C175.951,500.656,176.254,499.347,176.355,497.937z M176.455,493.806L176.455,493.806
		c-1.108,0.102-2.015,0.806-2.115,1.914c-0.101,0.706-0.202,1.31-0.303,2.116c0.706,0.101,1.511,0.201,2.317,0.201
		c-0.101,1.31-0.302,2.619-0.403,3.93c-0.504-0.102-1.007-0.102-1.41-0.201l0,0c-1.915-0.202-3.627-0.403-5.44-0.605
		c0.202-2.015,0.503-4.03,0.705-6.045c0.403-2.921,3.023-5.038,6.146-5.238c0.101-0.102,0.604-0.202,1.31-0.504
		c-0.202,1.41-0.303,3.022-0.504,4.433C176.657,493.806,176.556,493.806,176.455,493.806z"/>
	<path fill="#FFFFFF" d="M59.988,463.782c0.705,0.302,1.411,0.705,2.115,1.008c0.706-1.512,1.411-3.023,2.318-4.534
		c-0.706,0-1.612-0.101-2.519-0.302c0.605-1.31,1.31-2.721,2.015-4.03c1.108,0,2.72-0.302,3.526-1.915
		c1.612-3.425,3.425-6.851,5.038-10.377c0.503-1.008,0.705-2.418-0.605-3.426c2.821-0.704,5.44-1.41,8.161-2.216
		c-5.138,10.779-10.377,21.661-15.415,32.441c-2.216-1.008-4.231-2.116-6.448-3.123C58.779,466.301,59.383,464.991,59.988,463.782z
		 M61.499,459.954L61.499,459.954c-1.108-0.303-2.317,0.1-2.72,0.906c-0.302,0.604-0.605,1.209-0.907,1.713
		c0.705,0.403,1.31,0.705,2.116,1.108c-0.604,1.208-1.209,2.418-1.713,3.627c-2.116-1.008-4.232-2.217-6.347-3.225
		c0.907-1.913,1.914-3.626,2.821-5.34c1.31-2.619,4.635-3.626,7.657-2.72c0.101-0.101,0.705,0,1.41,0
		c-0.604,1.31-1.309,2.72-2.015,4.029C61.801,460.054,61.6,459.954,61.499,459.954z"/>
	<g>
		<path fill="#FFFFFF" d="M177.463,467.912c0.101-1.007-0.604-2.115-1.914-2.216c-1.108-0.101-2.216,0.604-2.317,1.713
			c-0.101,1.108,0.705,2.116,1.914,2.216C176.355,469.827,177.362,469.122,177.463,467.912z"/>
		<path fill="#FFFFFF" d="M176.959,472.749c0.101-1.007-0.705-2.116-1.914-2.217c-1.108-0.101-2.216,0.604-2.317,1.713
			s0.705,2.216,1.914,2.317C175.75,474.663,176.859,473.858,176.959,472.749z"/>
	</g>
	<g>
		<path fill="#FFFFFF" d="M65.529,438.393c-0.504,1.008-0.101,2.317,0.906,2.821c1.008,0.504,2.418,0.201,2.821-0.806
			c0.504-0.906,0.101-2.217-1.007-2.821C67.242,437.083,66.033,437.487,65.529,438.393z"/>
		<path fill="#FFFFFF" d="M67.745,434.161c-0.503,1.008-0.101,2.217,0.907,2.821c1.008,0.504,2.318,0.201,2.821-0.807
			c0.504-0.906,0.101-2.216-0.907-2.719C69.559,432.852,68.249,433.255,67.745,434.161z"/>
	</g>
	<path fill="#FFFFFF" d="M350.049,457.838c-2.922-6.246-5.944-12.493-8.765-18.739c2.921,0.907,5.943,1.914,8.865,2.82
		c-1.31,1.109-1.612,2.62-1.108,3.628c2.015,3.929,3.829,7.858,5.844,11.888c-0.604,1.41-1.209,3.023-1.914,4.433
		c1.511,0.403,3.123,0.807,4.634,1.209c1.008,2.217,2.116,4.333,3.124,6.549c-2.217,1.008-4.231,2.117-6.448,3.022
		c-0.504-1.209-1.108-2.417-1.612-3.626c0.706-0.302,1.41-0.605,2.217-1.008c-0.201-0.504-0.403-0.907-0.705-1.411
		c-1.008-0.302-2.015-0.503-3.022-0.806l0,0c-0.806-1.611-1.512-3.426-2.419-5.037l0,0
		C349.142,459.652,349.545,458.744,350.049,457.838z M354.382,472.648c-2.217,1.008-4.232,2.016-6.449,2.923
		c-0.907-2.217-2.015-4.434-2.922-6.65c0.705-1.41,1.311-2.921,2.116-4.332c-1.511-0.504-3.124-0.906-4.533-1.41
		c-0.102-0.201-0.202-0.504-0.303-0.705c-1.612-3.828-3.325-7.557-4.937-11.385c-0.504-1.008-1.713-1.915-3.526-1.511
		c1.209-2.923,2.519-5.743,3.728-8.564c2.921,6.348,5.743,12.594,8.564,18.941c0.905,0.302,1.913,0.604,2.921,0.906
		c0.807,1.612,1.511,3.426,2.418,5.037c-0.403,0.907-0.806,1.915-1.209,2.822c0.202,0.503,0.403,0.905,0.605,1.409
		c0.704-0.302,1.409-0.604,2.115-0.906C353.172,470.129,353.776,471.338,354.382,472.648z"/>
	<path fill="#FFFFFF" d="M358.813,477.081c0.907,0.303,1.915,0.604,2.821,0.906c-2.921,1.311-5.742,2.721-8.563,3.93
		c0.403-0.806,0.705-1.511,1.108-2.418c0.302,0.303,0.705,0.303,1.31,0c-1.611-1.41,0.302-3.828,2.519-3.123
		c-0.201-0.101-0.403,0-0.705,0.101c-0.604,0.303-0.906,0.907-0.604,1.41c0.202,0.504,0.906,0.706,1.41,0.404
		C358.612,478.089,358.915,477.585,358.813,477.081z"/>
</g>
</svg>
