<?xml version="1.0" encoding="utf-8"?>
<!-- Generator: Adobe Illustrator 16.0.0, SVG Export Plug-In . SVG Version: 6.00 Build 0)  -->
<!DOCTYPE svg PUBLIC "-//W3C//DTD SVG 1.1//EN" "http://www.w3.org/Graphics/SVG/1.1/DTD/svg11.dtd">
<svg version="1.1" xmlns="http://www.w3.org/2000/svg" xmlns:xlink="http://www.w3.org/1999/xlink" x="0px" y="0px" width="71.3px"
	 height="80px" viewBox="0 0 71.3 80" enable-background="new 0 0 71.3 80" xml:space="preserve">
<style>
	

	.base_.b1 {
		
		-webkit-transform-origin: center;
		
		    -ms-transform-origin: center;
		
		        transform-origin: center;
		
		-webkit-animation: base_1 2s cubic-bezier(0.390, 0.575, 0.565, 1.000) infinite alternate both;
		
		        animation: base_1 2s cubic-bezier(0.390, 0.575, 0.565, 1.000) infinite alternate both;
	}

	@-webkit-keyframes base_1 {
		from {
			opacity: 0;
			-webkit-transform: translateY(1px);
			        transform: translateY(1px);
		}
		20% , to {
			-webkit-transform: translateY(0px);
			        transform: translateY(0px);
			opacity: 1;
		}
		
		
	}

	@keyframes base_1 {
		from {
			opacity: 0;
			-webkit-transform: translateY(1px);
			        transform: translateY(1px);
		}
		20% , to {
			-webkit-transform: translateY(0px);
			        transform: translateY(0px);
			opacity: 1;
		}
		
		
	}
	.base_.b2 {
		
		-webkit-transform-origin: center;
		
		    -ms-transform-origin: center;
		
		        transform-origin: center;
		
		-webkit-animation: base_2 2s cubic-bezier(0.390, 0.575, 0.565, 1.000) infinite alternate both;
		
		        animation: base_2 2s cubic-bezier(0.390, 0.575, 0.565, 1.000) infinite alternate both;
	}

	@-webkit-keyframes base_2 {
		from,10%  {
			opacity: 0;
			-webkit-transform: translateY(1px);
			        transform: translateY(1px);
		}
		15% , to {
			-webkit-transform: translateY(0px);
			        transform: translateY(0px);
			opacity: 1;
		}
		
		
	}

	@keyframes base_2 {
		from,10%  {
			opacity: 0;
			-webkit-transform: translateY(1px);
			        transform: translateY(1px);
		}
		15% , to {
			-webkit-transform: translateY(0px);
			        transform: translateY(0px);
			opacity: 1;
		}
		
		
	}
	.base_.b3 {
		
		-webkit-transform-origin: center;
		
		    -ms-transform-origin: center;
		
		        transform-origin: center;
		
		-webkit-animation: base_3 2s cubic-bezier(0.390, 0.575, 0.565, 1.000) infinite alternate both;
		
		        animation: base_3 2s cubic-bezier(0.390, 0.575, 0.565, 1.000) infinite alternate both;
	}

	@-webkit-keyframes base_3 {
		from,15%  {
			opacity: 0;
			-webkit-transform: translateY(1px);
			        transform: translateY(1px);
		}
		20% , to {
			-webkit-transform: translateY(0px);
			        transform: translateY(0px);
			opacity: 1;
		}				
	}

	@keyframes base_3 {
		from,15%  {
			opacity: 0;
			-webkit-transform: translateY(1px);
			        transform: translateY(1px);
		}
		20% , to {
			-webkit-transform: translateY(0px);
			        transform: translateY(0px);
			opacity: 1;
		}				
	}

	.base_.b4 {
		
		-webkit-transform-origin: center;
		
		    -ms-transform-origin: center;
		
		        transform-origin: center;
		
		-webkit-animation: base_4 2s cubic-bezier(0.390, 0.575, 0.565, 1.000) infinite alternate both;
		
		        animation: base_4 2s cubic-bezier(0.390, 0.575, 0.565, 1.000) infinite alternate both;
	}

	@-webkit-keyframes base_4 {
		from,20%  {
			opacity: 0;
			-webkit-transform: translateY(1px);
			        transform: translateY(1px);
		}
		25% , to {
			-webkit-transform: translateY(0px);
			        transform: translateY(0px);
			opacity: 1;
		}				
	}

	@keyframes base_4 {
		from,20%  {
			opacity: 0;
			-webkit-transform: translateY(1px);
			        transform: translateY(1px);
		}
		25% , to {
			-webkit-transform: translateY(0px);
			        transform: translateY(0px);
			opacity: 1;
		}				
	}

	.head_ {
		-webkit-transform-origin: center;
		    -ms-transform-origin: center;
		        transform-origin: center;
		
		-webkit-animation: he_ 2s cubic-bezier(0.390, 0.575, 0.565, 1.000) infinite alternate both;
		
		        animation: he_ 2s cubic-bezier(0.390, 0.575, 0.565, 1.000) infinite alternate both;
	}

	@-webkit-keyframes he_ {
		from,30%  {
			opacity: 0;
			-webkit-transform: scale(.8);
			        transform: scale(.8);
		}
		60% , to {
			-webkit-transform: scale(1);
			        transform: scale(1);
			opacity: 1;
		}				
	}

	@keyframes he_ {
		from,30%  {
			opacity: 0;
			-webkit-transform: scale(.8);
			        transform: scale(.8);
		}
		60% , to {
			-webkit-transform: scale(1);
			        transform: scale(1);
			opacity: 1;
		}				
	}
</style>

<g id="Layer_4">
	<g>
			<path class="base_ b4" fill="none" stroke="#0C0C0C" stroke-width="1.7" stroke-linecap="round" stroke-linejoin="round" stroke-miterlimit="10" d="
			M32.5,28.6c0,0-1,4.9-1.1,6s0.3,1.9,2.2,1.9s4.7,0,6.3,0s1.6-1.2,1.5-2.4s-1-5.4-1-5.4"/>

			<path class="base_ b3" fill="none" stroke="#0C0C0C" stroke-width="1.7" stroke-linecap="round" stroke-linejoin="round" stroke-miterlimit="10" d="
			M32.6,36.8c0,0-1.1,8.7-1.2,9.8s0.3,1.9,2.2,1.9s4.7,0,6.3,0s1.6-1.2,1.5-2.4s-1-9.2-1-9.2"/>
		
			<path class="base_ b2" fill="none" stroke="#0C0C0C" stroke-width="1.7" stroke-linecap="round" stroke-linejoin="round" stroke-miterlimit="10" d="
			M32.6,48.3c0,0-1.1,8.7-1.2,9.8s0.3,1.9,2.2,1.9s4.7,0,6.3,0s1.6-1.2,1.5-2.4s-1-9.2-1-9.2"/>
		
			<path class="base_ b1" fill="none" stroke="#0C0C0C" stroke-width="1.7" stroke-linecap="round" stroke-linejoin="round" stroke-miterlimit="10" d="
			M32.6,60.4c0,0-1.1,8.7-1.2,9.8s0.3,1.9,2.2,1.9s4.7,0,6.3,0s1.6-1.2,1.5-2.4s-1-9.2-1-9.2"/>
		
			
	</g>
	<g class="head_">
		
			<path fill="none" stroke="#0C0C0C" stroke-width="1.7" stroke-linecap="round" stroke-linejoin="round" stroke-miterlimit="10" d="
			M59,23.5c-2.1-4.1-6.4-6.9-11.3-6.9s-9.2,2.8-11.3,6.9H59z"/>
		
			<path fill="none" stroke="#0C0C0C" stroke-width="1.7" stroke-linecap="round" stroke-linejoin="round" stroke-miterlimit="10" d="
			M53.8,6.4c-4.3-1.6-9.4-0.7-13,2.6c-3.6,3.3-4.9,8.3-3.6,12.7L53.8,6.4z"/>
		
			<path fill="none" stroke="#0C0C0C" stroke-width="1.7" stroke-linecap="round" stroke-linejoin="round" stroke-miterlimit="10" d="
			M29.3,31.5l7.4-7.3c-4.4-1.4-9.4-0.5-12.9,3c-3.5,3.4-4.6,8.4-3.3,12.8l3.4-3.3"/>
		
			<path fill="none" stroke="#0C0C0C" stroke-width="1.7" stroke-linecap="round" stroke-linejoin="round" stroke-miterlimit="10" d="
			M36.1,23.5c-2.1-4.1-6.4-6.9-11.3-6.9s-9.2,2.8-11.3,6.9H36.1z"/>
		
			<path fill="none" stroke="#0C0C0C" stroke-width="1.7" stroke-linecap="round" stroke-linejoin="round" stroke-miterlimit="10" d="
			M52.4,40.3c1.4-4.4,0.4-9.4-3.1-12.9c-3.5-3.5-8.5-4.6-12.9-3.2L52.4,40.3z"/>
		
			<path fill="none" stroke="#0C0C0C" stroke-width="1.7" stroke-linecap="round" stroke-linejoin="round" stroke-miterlimit="10" d="
			M36,22.9c1.4-4.4,0.4-9.4-3.1-12.9C29.4,6.5,24.4,5.4,20,6.8L36,22.9z"/>

			<path fill="#D7AA62" d="M46,36.9c0-0.1-0.1-0.2-0.2-0.3c-0.1-0.1-0.2-0.3-0.4-0.4c0.2-0.2,0.1-0.4,0-0.5c0,0,0,0,0-0.1
		c-0.3-0.4-0.7-0.7-1.2-0.9c-0.3-0.2-0.7-0.2-1,0.1c-0.1-0.4-0.3-0.9-0.4-1.3c0,0,0,0,0.1,0c0.5,0.3,1,0.5,1.6,0.5
		c0.2,0,0.3,0,0.5-0.1c0.2-0.1,0.2-0.2,0.2-0.4c-0.1-0.1-0.1-0.3-0.2-0.4c-0.2-0.2-0.4-0.4-0.6-0.6c0,0,0,0,0.1-0.1
		c0.1-0.1,0.2-0.2,0.3-0.4c0.1-0.2,0-0.4-0.2-0.5c-0.1,0-0.2-0.1-0.3-0.1c-0.3,0-0.6,0-0.8,0.1c-0.2,0-0.3,0.1-0.5,0.1c0,0,0,0,0,0
		c0,0,0,0,0,0c0-0.3-0.1-0.5-0.4-0.6c0,0-0.1-0.1-0.1-0.1c-0.1-0.3-0.1-0.5-0.2-0.8c0-0.1-0.1-0.2-0.2-0.2s-0.1,0.1-0.1,0.2
		c0,0.2,0.1,0.5,0.1,0.8c-0.3,0-0.5,0.2-0.6,0.4c-0.3,0.5-0.4,1.1-0.4,1.7c0,0.2,0,0.4,0.2,0.5c0,0,0,0.1,0,0.1
		c-0.1,0.4-0.2,0.7-0.1,1.1c0,0.2,0.1,0.4,0.3,0.5c0,0.1,0,0.1,0,0.2c0,0.2,0,0.4,0.1,0.6c0.1,0.2,0.2,0.3,0.4,0.2
		c0.2,0,0.3-0.2,0.4-0.3c0.3-0.3,0.6-0.7,0.8-1.2c0,0,0-0.1,0-0.1c0.1,0.1,0.1,0.2,0.1,0.3c0,0,0,0.1,0,0.1c0,0.2,0,0.3,0.1,0.5
		c0,0,0,0.1,0,0.1c-0.2,0.2-0.2,0.4-0.2,0.6c0,0.2,0.1,0.5,0.2,0.7c0.2,0.4,0.4,0.7,0.6,0.9c0.2,0.2,0.4,0.3,0.6,0.2
		c0.2,0.3,0.2,0.2,0.4,0.4c0.1,0.1,0.2,0.1,0.2,0c0-0.1,0-0.1,0-0.2c-0.3-0.2-0.2-0.2-0.3-0.4c0,0,0-0.1,0-0.1c0-0.2,0-0.4,0.1-0.6
		c0.3,0,0.5,0.1,0.8,0.1c0.1,0,0.3,0,0.4-0.1C46,37.3,46,37.1,46,36.9z M44.8,33.5c0.1,0.2,0.1,0.3-0.1,0.3c-0.3,0-0.7,0-1-0.1
		c-0.2-0.1-0.4-0.2-0.6-0.3c0,0,0,0-0.1-0.1c0.4-0.1,0.7-0.3,1-0.5c0,0,0.1,0,0.1,0C44.3,33,44.6,33.2,44.8,33.5z M42.7,32.2
		c0.3-0.2,0.7-0.2,1-0.3c0.1,0,0.3,0,0.4,0c0.2,0,0.2,0.1,0.1,0.3c-0.2,0.2-0.3,0.4-0.6,0.5c-0.3,0.2-0.5,0.3-0.8,0.4
		c-0.1,0-0.1,0-0.2,0c-0.1-0.2-0.1-0.4-0.2-0.6C42.5,32.4,42.6,32.2,42.7,32.2z M41.5,31.8c0.1-0.1,0.2-0.3,0.3-0.3
		c0.3-0.1,0.6,0.1,0.6,0.4c0,0.2-0.1,0.4-0.1,0.6c-0.2,0.4-0.4,0.7-0.6,0.9c-0.1,0.1-0.1,0.1-0.2,0.2c-0.1,0-0.1,0-0.2-0.1
		c0-0.1,0-0.1,0-0.2C41.2,32.7,41.3,32.2,41.5,31.8z M41.4,35.1c-0.1,0.1-0.1,0-0.2-0.1c0-0.1,0-0.2,0-0.2c0-0.3,0.1-0.7,0.2-1
		c0,0,0-0.1,0.1-0.1c0.3-0.1,0.5-0.3,0.6-0.6c0,0,0-0.1,0.1-0.1c0.2,0.1,0.3,0.2,0.3,0.4c0,0.1,0,0.3-0.1,0.4
		c-0.2,0.4-0.4,0.7-0.7,1C41.6,35,41.5,35.1,41.4,35.1z M42.6,34.9c-0.2,0.4-0.4,0.7-0.7,1c-0.1,0.1-0.1,0.1-0.2,0.2
		c-0.1,0.1-0.1,0-0.2-0.1c-0.1-0.2,0-0.4,0-0.6c0,0,0,0,0-0.1c0.3-0.2,0.5-0.4,0.7-0.7c0.1-0.2,0.2-0.4,0.3-0.6
		c0.1,0.1,0.1,0.2,0.2,0.3C42.7,34.6,42.7,34.8,42.6,34.9z M43.5,35L43.5,35c0.1,0,0.2,0,0.4,0c0.4,0.1,0.7,0.3,1.1,0.6
		c0.1,0.1,0.2,0.2,0.3,0.4c0,0,0,0.1,0,0.1c0,0,0,0.1,0,0.1c0,0-0.1,0-0.1,0c-0.2-0.1-0.4-0.2-0.6-0.3c-0.2-0.1-0.4-0.1-0.6-0.1
		c0,0-0.1,0-0.1,0c-0.1-0.1-0.3-0.1-0.5-0.1c-0.1,0-0.1,0-0.1-0.1C43.2,35.4,43.3,35.1,43.5,35z M44.3,37.9c0,0.1-0.1,0.1-0.2,0.1
		c0,0-0.1,0-0.1-0.1c-0.4-0.4-0.7-0.9-0.8-1.5c-0.1-0.3,0-0.4,0.2-0.5c0.2-0.1,0.3-0.1,0.5,0.1c0.1,0.1,0.2,0.3,0.3,0.4c0,0,0,0,0,0
		c0.1,0.4,0.2,0.7,0.2,1.1C44.3,37.7,44.3,37.8,44.3,37.9z M45.7,37.2c-0.1,0-0.2,0-0.2,0c-0.3,0-0.6,0-0.9-0.1c0,0-0.1-0.1-0.1-0.1
		c-0.1-0.3-0.2-0.5-0.2-0.8c0-0.1-0.1-0.1-0.1-0.2c0.1,0,0.2,0,0.3,0.1c0.5,0.2,0.9,0.4,1.2,0.8c0,0.1,0.1,0.1,0.1,0.2
		C45.8,37.1,45.7,37.1,45.7,37.2z"/>
	<path fill="#D7AA62" d="M48.5,40.5c-0.3,0-0.6-0.1-0.9-0.2c0,0-0.1,0-0.1,0c-0.1-0.2-0.2-0.3-0.3-0.5c0.2-0.1,0.5-0.3,0.7-0.4
		c0.1-0.1,0.2-0.2,0.3-0.3c0.1-0.2,0.1-0.4-0.1-0.5c-0.1-0.1-0.2-0.1-0.3-0.1c-0.2,0-0.3-0.1-0.5-0.1c0-0.2-0.2-0.3-0.3-0.4
		c0,0,0,0-0.1,0c-0.5-0.1-1-0.1-1.5,0c-0.4,0.1-0.7,0.3-0.7,0.7c-0.4-0.3-0.7-0.5-1.1-0.8l-1.1-1.2c0,0,0,0,0,0
		c-0.2-0.2-0.4-0.3-0.7-0.3c0,0-0.1,0-0.1,0c-0.2-0.2-0.4-0.3-0.6-0.5c-0.1-0.1-0.2-0.1-0.2,0s0,0.1,0.1,0.2
		c0.2,0.2,0.4,0.3,0.6,0.5c-0.2,0.2-0.3,0.5-0.2,0.7c0.1,0.6,0.3,1.1,0.7,1.6c0.1,0.1,0.3,0.3,0.4,0.2c0,0,0,0.1,0,0.1
		c0.1,0.4,0.3,0.7,0.6,1c0.1,0.1,0.3,0.2,0.5,0.2c0,0.1,0.1,0.1,0.1,0.2c0.1,0.2,0.2,0.3,0.4,0.4c0.2,0.1,0.3,0.1,0.4-0.1
		c0.1-0.1,0.1-0.3,0.2-0.5c0.1-0.5,0-1-0.1-1.4c0,0,0,0,0-0.1c0.1,0.1,0.2,0.1,0.3,0.2c0,0,0,0,0,0.1c0.1,0.2,0.2,0.3,0.3,0.3
		c0,0,0.1,0.1,0.1,0.1c0,0.3,0.1,0.5,0.2,0.6c0.2,0.1,0.4,0.3,0.6,0.4c0.3,0.2,0.7,0.3,1.1,0.3c0.2,0,0.5,0,0.6-0.2
		c0.3,0.1,0.6,0.1,1,0.2c0.1,0,0.2,0,0.2-0.1C48.7,40.6,48.6,40.5,48.5,40.5z M42.5,38.5c0,0.1,0,0.2-0.1,0.3c0,0.1-0.1,0.1-0.2,0
		c0,0-0.1-0.1-0.1-0.1c-0.3-0.4-0.5-0.9-0.6-1.4c0-0.2,0-0.3,0-0.4c0.2-0.3,0.5-0.3,0.7-0.1c0.1,0.2,0.2,0.3,0.2,0.5
		C42.5,37.7,42.5,38.1,42.5,38.5z M43.5,39.7c0,0.1,0,0.2-0.1,0.3c0,0.1-0.1,0.1-0.2,0C43.1,40,43.1,40,43,39.9
		c-0.2-0.3-0.4-0.6-0.5-0.9c0,0,0-0.1,0-0.1c0.1-0.3,0.2-0.6,0.2-0.8c0,0,0-0.1,0-0.1c0.2-0.1,0.3,0,0.5,0.1
		c0.1,0.1,0.2,0.3,0.2,0.4C43.5,38.9,43.5,39.3,43.5,39.7z M44.3,40.4c0,0.1,0,0.2-0.1,0.3c0,0.1-0.1,0.1-0.2,0.1
		c-0.2-0.1-0.3-0.3-0.4-0.5c0,0,0,0,0-0.1c0.1-0.3,0.1-0.6,0.1-0.9c0-0.2,0-0.4-0.1-0.6c0.1,0,0.2,0,0.3,0.1
		c0.1,0.1,0.2,0.3,0.2,0.5C44.3,39.5,44.3,40,44.3,40.4z M47.7,38.7c0.1,0,0.1,0,0.2,0.1c0.1,0,0.1,0.1,0,0.1c0,0.1-0.1,0.1-0.2,0.2
		c-0.2,0.2-0.5,0.3-0.8,0.4c0,0-0.1,0-0.1,0c-0.2-0.2-0.4-0.3-0.7-0.5C46.2,39,46.1,39,46,39c0.1,0,0.2-0.1,0.3-0.1
		C46.8,38.7,47.2,38.6,47.7,38.7z M45.3,39.2c0,0-0.1,0.1-0.1,0c-0.2-0.1-0.3-0.4-0.2-0.6c0,0,0,0,0,0c0.1-0.1,0.2-0.2,0.3-0.2
		c0.4-0.2,0.8-0.2,1.2-0.2c0.2,0,0.3,0,0.5,0.1c0,0,0.1,0,0.1,0.1c0,0,0,0.1,0,0.1c0,0,0,0-0.1,0c-0.2,0-0.5,0.1-0.7,0.1
		c-0.2,0.1-0.4,0.2-0.5,0.3c0,0,0,0-0.1,0C45.5,39,45.4,39,45.3,39.2z M47.2,40.6c0,0-0.1,0-0.1,0c-0.6-0.1-1.1-0.2-1.5-0.6
		c-0.2-0.2-0.2-0.4-0.1-0.6c0.1-0.2,0.2-0.3,0.4-0.2c0.2,0,0.3,0.1,0.5,0.2c0,0,0,0,0,0c0.3,0.2,0.6,0.5,0.8,0.8
		c0.1,0.1,0.1,0.2,0.1,0.3C47.3,40.5,47.3,40.6,47.2,40.6z"/>
	<path fill="#D7AA62" d="M31.1,34.5c0.2-0.1,0.2-0.3,0.2-0.5c0-0.6-0.1-1.1-0.4-1.7c-0.1-0.2-0.3-0.4-0.6-0.4c0-0.3,0.1-0.5,0.1-0.8
		c0-0.1,0-0.2-0.1-0.2c-0.1,0-0.1,0-0.2,0.2c-0.1,0.3-0.1,0.5-0.2,0.8c0,0,0,0.1-0.1,0.1c-0.3,0.1-0.4,0.3-0.4,0.6c0,0,0,0,0,0
		c0,0,0,0,0,0c-0.2,0-0.3-0.1-0.5-0.1c-0.3-0.1-0.6-0.1-0.8-0.1c-0.1,0-0.2,0-0.3,0.1c-0.2,0.1-0.3,0.3-0.2,0.5
		c0.1,0.1,0.2,0.3,0.3,0.4c0,0,0,0,0.1,0.1c-0.2,0.2-0.4,0.4-0.6,0.6c-0.1,0.1-0.2,0.3-0.2,0.4c-0.1,0.2,0,0.3,0.2,0.4
		c0.1,0.1,0.3,0.1,0.5,0.1c0.6,0,1.1-0.2,1.6-0.5c0,0,0,0,0.1,0c-0.1,0.5-0.3,0.9-0.4,1.3c-0.3-0.3-0.7-0.2-1-0.1
		c-0.5,0.2-0.9,0.5-1.2,0.9c0,0,0,0,0,0.1c-0.1,0.2-0.2,0.3,0,0.5c-0.1,0.1-0.2,0.2-0.4,0.4c-0.1,0.1-0.1,0.2-0.2,0.3
		c-0.1,0.2,0,0.4,0.2,0.4c0.1,0,0.3,0.1,0.4,0.1c0.3,0,0.5-0.1,0.8-0.1c0,0.2,0,0.4,0.1,0.6c0,0,0,0.1,0,0.1
		c-0.2,0.3-0.1,0.2-0.3,0.4c-0.1,0.1-0.1,0.1,0,0.2s0.1,0.1,0.2,0c0.2-0.2,0.1-0.2,0.4-0.4c0.2,0.1,0.4,0,0.6-0.2
		c0.3-0.3,0.5-0.6,0.6-0.9c0.1-0.2,0.2-0.4,0.2-0.7c0.1-0.2,0-0.5-0.2-0.6c0,0,0-0.1,0-0.1c0.1-0.2,0.1-0.3,0.1-0.5c0,0,0-0.1,0-0.1
		c0-0.1,0.1-0.2,0.1-0.3c0,0,0,0.1,0,0.1c0.2,0.4,0.4,0.9,0.8,1.2c0.1,0.1,0.2,0.2,0.4,0.3c0.2,0,0.3,0,0.4-0.2
		c0.1-0.2,0.1-0.4,0.1-0.6c0-0.1,0-0.1,0-0.2c0.2-0.1,0.3-0.3,0.3-0.5c0-0.4,0-0.8-0.1-1.1C31.1,34.6,31.1,34.5,31.1,34.5z M27,36.7
		c0.1-0.1,0.2-0.3,0.3-0.4c0.3-0.3,0.6-0.5,1.1-0.6c0.1,0,0.2,0,0.4,0c0,0,0,0,0,0c0.2,0.1,0.3,0.4,0.2,0.6c0,0.1-0.1,0.1-0.1,0.1
		c-0.2,0-0.3,0-0.5,0.1c0,0-0.1,0-0.1,0c-0.2,0-0.4,0-0.6,0.1c-0.2,0.1-0.4,0.2-0.6,0.3c0,0-0.1,0-0.1,0
		C26.9,36.9,26.9,36.9,27,36.7C26.9,36.8,27,36.8,27,36.7z M27.7,37.8c0,0,0,0.1-0.1,0.1C27.4,38,27.1,38,26.8,38
		c-0.1,0-0.2,0-0.2,0c-0.1,0-0.1-0.1-0.1-0.1c0-0.1,0.1-0.1,0.1-0.2c0.3-0.4,0.7-0.7,1.2-0.8c0.1,0,0.2,0,0.3-0.1
		c0,0.1-0.1,0.1-0.1,0.2C27.9,37.2,27.8,37.5,27.7,37.8z M28.2,38.7c0,0-0.1,0.1-0.1,0.1c-0.1,0-0.1,0-0.2-0.1c0-0.1,0-0.2,0-0.3
		c0-0.4,0.1-0.8,0.2-1.1c0,0,0,0,0,0c0.1-0.2,0.2-0.3,0.3-0.4c0.1-0.1,0.3-0.2,0.5-0.1c0.2,0.1,0.3,0.3,0.2,0.5
		C28.9,37.8,28.6,38.3,28.2,38.7z M29.2,34.2c-0.2,0.1-0.4,0.2-0.6,0.3c-0.3,0.1-0.6,0.2-1,0.1c-0.2,0-0.2-0.1-0.1-0.3
		c0.2-0.3,0.5-0.5,0.8-0.7c0,0,0.1,0,0.1,0C28.6,33.9,28.9,34,29.2,34.2C29.2,34.2,29.2,34.2,29.2,34.2z M29.4,33.9
		c-0.3-0.1-0.6-0.2-0.8-0.4c-0.2-0.1-0.4-0.3-0.6-0.5c-0.1-0.2-0.1-0.2,0.1-0.3c0.1,0,0.3,0,0.4,0c0.4,0,0.7,0.1,1,0.3
		c0.1,0,0.2,0.2,0.1,0.3c0,0.2-0.1,0.4-0.2,0.6C29.5,33.9,29.4,33.9,29.4,33.9z M30.7,36.8c0,0.1-0.1,0.1-0.2,0.1
		c-0.1,0-0.1-0.1-0.2-0.2c-0.3-0.3-0.5-0.6-0.7-1c-0.1-0.2-0.1-0.3-0.1-0.5c0-0.1,0.1-0.2,0.2-0.3c0.1,0.2,0.2,0.4,0.3,0.6
		c0.2,0.3,0.4,0.5,0.7,0.7c0,0,0,0,0,0.1C30.7,36.4,30.8,36.6,30.7,36.8z M31,35.8c0,0.1-0.1,0.1-0.2,0.1c-0.1,0-0.2-0.1-0.2-0.2
		c-0.3-0.3-0.5-0.7-0.7-1c-0.1-0.1-0.1-0.3-0.1-0.4c0-0.2,0.1-0.3,0.3-0.4c0,0,0,0.1,0.1,0.1c0.2,0.2,0.4,0.4,0.6,0.6
		c0,0,0,0,0.1,0.1c0.1,0.3,0.2,0.7,0.2,1C31,35.7,31,35.8,31,35.8z M31,34.2c0,0.1-0.1,0.1-0.2,0.1c-0.1,0-0.2-0.1-0.2-0.2
		c-0.3-0.3-0.5-0.6-0.6-0.9c-0.1-0.2-0.1-0.4-0.1-0.6c0-0.3,0.3-0.5,0.6-0.4c0.1,0,0.2,0.2,0.3,0.3c0.2,0.5,0.4,1,0.3,1.5
		C31,34.1,31,34.2,31,34.2z"/>
	<path fill="#D7AA62" d="M31.4,36.6c-0.1-0.1-0.1-0.1-0.2,0c-0.2,0.2-0.4,0.3-0.6,0.5c0,0-0.1,0-0.1,0c-0.3-0.1-0.5,0-0.7,0.3
		c0,0,0,0,0,0l-1.1,1.2c-0.4,0.3-0.7,0.5-1.1,0.8c-0.1-0.4-0.4-0.6-0.8-0.7c-0.5-0.1-1-0.2-1.5,0c0,0,0,0-0.1,0
		c-0.2,0.1-0.3,0.2-0.3,0.4c-0.2,0-0.3,0-0.5,0.1c-0.1,0-0.2,0.1-0.3,0.1c-0.2,0.1-0.2,0.3-0.1,0.5c0.1,0.1,0.2,0.2,0.3,0.3
		c0.2,0.2,0.5,0.3,0.7,0.4c-0.1,0.1-0.2,0.3-0.3,0.5c0,0,0,0-0.1,0c-0.3,0.1-0.6,0.2-0.9,0.2c-0.1,0-0.2,0.1-0.2,0.1
		s0.1,0.1,0.2,0.1c0.3,0,0.6-0.1,1-0.2c0.1,0.2,0.3,0.3,0.6,0.2c0.4,0,0.7-0.1,1.1-0.3c0.2-0.1,0.4-0.2,0.6-0.4
		c0.2-0.2,0.3-0.4,0.2-0.6c0,0,0-0.1,0.1-0.1c0.2-0.1,0.3-0.2,0.3-0.3c0,0,0,0,0-0.1c0.1-0.1,0.2-0.1,0.3-0.2c0,0,0,0,0,0.1
		c-0.1,0.5-0.2,0.9-0.1,1.4c0,0.2,0.1,0.3,0.2,0.5c0.1,0.2,0.3,0.2,0.4,0.1c0.2-0.1,0.3-0.2,0.4-0.4c0,0,0.1-0.1,0.1-0.2
		c0.2,0.1,0.4,0,0.5-0.2c0.3-0.3,0.4-0.6,0.6-1c0,0,0-0.1,0-0.1c0.2,0,0.3-0.1,0.4-0.2c0.4-0.5,0.6-1,0.7-1.6c0-0.3,0-0.5-0.2-0.7
		c0.2-0.2,0.4-0.3,0.6-0.5C31.5,36.8,31.5,36.7,31.4,36.6z M24.4,39.9c-0.1,0-0.1-0.1-0.2-0.2c0-0.1,0-0.1,0-0.1
		c0.1,0,0.1-0.1,0.2-0.1c0.5-0.1,1-0.1,1.4,0.1c0.1,0,0.2,0.1,0.3,0.1c-0.1,0-0.2,0.1-0.2,0.1c-0.2,0.2-0.4,0.3-0.7,0.5
		c0,0-0.1,0.1-0.1,0C24.9,40.3,24.7,40.1,24.4,39.9z M26.7,40.8c-0.4,0.4-1,0.6-1.5,0.6c0,0-0.1,0-0.1,0c-0.1,0-0.1-0.1-0.1-0.2
		c0-0.1,0.1-0.2,0.1-0.3c0.2-0.3,0.5-0.6,0.8-0.8c0,0,0,0,0,0c0.2-0.1,0.3-0.1,0.5-0.2c0.2,0,0.3,0,0.4,0.2
		C26.9,40.4,26.9,40.6,26.7,40.8z M27.1,40C27,40,27,40,27,40c-0.1-0.1-0.2-0.2-0.4-0.2c0,0-0.1,0-0.1,0c-0.1-0.2-0.3-0.3-0.5-0.3
		c-0.2-0.1-0.4-0.1-0.7-0.1c0,0-0.1,0-0.1,0c0,0,0-0.1,0-0.1c0,0,0.1,0,0.1-0.1c0.2,0,0.3-0.1,0.5-0.1c0.4,0,0.8,0,1.2,0.2
		c0.1,0,0.2,0.1,0.3,0.2c0,0,0,0,0,0C27.4,39.6,27.3,39.9,27.1,40z M28.6,41c-0.1,0.2-0.2,0.4-0.4,0.5c-0.1,0.1-0.1,0.1-0.2-0.1
		c0-0.1-0.1-0.2-0.1-0.2c-0.1-0.4,0-0.8,0.1-1.2c0-0.2,0.1-0.4,0.2-0.5c0.1-0.1,0.2-0.1,0.3-0.1c0,0.2-0.1,0.4-0.1,0.7
		C28.5,40.3,28.5,40.6,28.6,41C28.6,40.9,28.6,41,28.6,41z M29.6,39.8c-0.1,0.3-0.3,0.6-0.5,0.9c-0.1,0.1-0.1,0.1-0.2,0.2
		c-0.1,0.1-0.1,0.1-0.2,0c0-0.1-0.1-0.2-0.1-0.3c-0.1-0.4,0-0.8,0.1-1.3c0-0.1,0.1-0.3,0.2-0.4c0.1-0.2,0.3-0.2,0.5-0.1
		c0,0,0,0.1,0,0.1C29.5,39.2,29.5,39.5,29.6,39.8C29.7,39.7,29.7,39.8,29.6,39.8z M30.7,38.1c-0.1,0.5-0.3,1-0.6,1.4
		c0,0-0.1,0.1-0.1,0.1c-0.1,0.1-0.1,0-0.2,0c0-0.1-0.1-0.2-0.1-0.3c-0.1-0.4,0-0.8,0-1.1c0-0.2,0.1-0.4,0.2-0.5
		c0.2-0.3,0.5-0.2,0.7,0.1C30.8,37.8,30.8,38,30.7,38.1z"/>
	</g>
	<g>
		
			<line fill="none" stroke="#0C0C0C" stroke-width="1.7" stroke-linecap="round" stroke-linejoin="round" stroke-miterlimit="10" x1="28.5" y1="72.1" x2="56.6" y2="72.1"/>
		
			<line fill="none" stroke="#0C0C0C" stroke-width="1.7" stroke-linecap="round" stroke-linejoin="round" stroke-miterlimit="10" x1="24.6" y1="72.1" x2="23.8" y2="72.1"/>
	</g>
	
</g>
</svg>
