<?xml version="1.0" encoding="utf-8"?>
<!-- Generator: Adobe Illustrator 22.0.1, SVG Export Plug-In . SVG Version: 6.00 Build 0)  -->
<svg version="1.1" id="Layer_1" xmlns="http://www.w3.org/2000/svg" xmlns:xlink="http://www.w3.org/1999/xlink" x="0px" y="0px"
	 viewBox="0 0 511 512" style="enable-background:new 0 0 511 512;" xml:space="preserve">
<style type="text/css">
	.st0{fill:none;stroke:#ffffff;stroke-width:30;stroke-linecap:round;stroke-linejoin:round;stroke-miterlimit:10;}
	.st1{fill:none;stroke:#ffffff;stroke-width:30;stroke-miterlimit:10;}
</style>
<path class="st0" d="M495.4,127.7c-30.2,1.4-29.5,1.3-32.9,1.6l17.9-51.1c0,0-55.8,20.5-69.9,24.2C373.3,69,318,67.5,278.6,91.8
	c-32.3,19.9-49.7,54-43.9,93.9c-62.9-8.7-115.9-38.6-157.8-88.8L63.6,80.9l-9.9,18.2c-12.5,23-16.7,49.2-11.7,73.9
	c2,10.1,5.5,19.8,10.3,28.8L41,197.4l-1.3,19c-1.4,19.3,5.1,41.8,17.2,60.2c3.4,5.2,7.8,10.9,13.4,16.5l-5.9-0.9l7.2,21.7
	c9.4,28.6,29,50.7,54.3,63c-25.3,10.8-45.8,17.6-79.5,28.7l-30.8,10.1L44,431.2c10.8,5.9,49.1,25.7,87,31.7
	c84.1,13.2,178.9,2.4,242.6-55c53.7-48.4,71.3-117.2,67.7-188.8c-0.6-10.8,2.4-21.2,8.4-29.1C461.6,174.1,495.4,127.8,495.4,127.7z"
	/>
</svg>
