<?xml version="1.0" encoding="utf-8"?>
<!-- Generator: Adobe Illustrator 22.0.1, SVG Export Plug-In . SVG Version: 6.00 Build 0)  -->
<svg version="1.1" id="Layer_1" xmlns="http://www.w3.org/2000/svg" xmlns:xlink="http://www.w3.org/1999/xlink" x="0px" y="0px"
	 viewBox="0 0 511 512" style="enable-background:new 0 0 511 512;" xml:space="preserve">
<style type="text/css">
	.st0{fill:none;stroke:#ffffff;stroke-width:30;stroke-linecap:round;stroke-linejoin:round;stroke-miterlimit:10;}
	.st1{fill:none;stroke:#ffffff;stroke-width:30;stroke-miterlimit:10;}
</style>
<g>
	<path class="st1" d="M466.5,374.2c0,54.5-44.3,98.8-98.8,98.8H131.3c-54.5,0-98.8-44.3-98.8-98.8V137.8c0-54.5,44.3-98.8,98.8-98.8
		h236.4c54.5,0,98.8,44.3,98.8,98.8L466.5,374.2L466.5,374.2z"/>
	<path class="st1" d="M249.5,345.1c-49.2,0-89.1-40-89.1-89.1c0-49.2,40-89.1,89.1-89.1s89.1,40,89.1,89.1
		C338.6,305.2,298.6,345.1,249.5,345.1z"/>
	<path class="st1" d="M377.2,80.4c-9,0-17.9,3.7-24.2,10c-6.4,6.4-10.1,15.2-10.1,24.3c0,9,3.7,17.9,10.1,24.3
		c6.4,6.4,15.2,10,24.2,10c9.1,0,17.9-3.7,24.3-10c6.4-6.4,10-15.3,10-24.3c0-9.1-3.7-17.9-10-24.3C395.1,84,386.2,80.4,377.2,80.4z
		"/>
</g>
</svg>
