<svg id="Layer_1" data-name="Layer 1" xmlns="http://www.w3.org/2000/svg" viewBox="0 0 512 512"><title>services</title><path d="M0,138.5H138.5V0H0ZM30,30h78.5v78.5H30Z"/><path d="M373.5,0V138.5H512V0ZM482,108.5H403.5V30H482Z"/><path d="M186.75,138.5h138.5V0H186.75Zm30-108.5h78.5v78.5h-78.5Z"/><path d="M0,325.25H138.5V186.75H0Zm30-108.5h78.5v78.5H30Z"/><path d="M373.5,325.25H512V186.75H373.5Zm30-108.5H482v78.5H403.5Z"/><path d="M186.75,325.25h138.5V186.75H186.75Zm30-108.5h78.5v78.5h-78.5Z"/><path d="M0,512H138.5V373.5H0ZM30,403.5h78.5V482H30Z"/><path d="M373.5,512H512V373.5H373.5Zm30-108.5H482V482H403.5Z"/><path d="M186.75,512h138.5V373.5H186.75Zm30-108.5h78.5V482h-78.5Z"/></svg>